<?xml version="1.0" encoding="UTF-8"?>
<svg width="50px" height="50px" viewBox="0 0 50 50" version="1.1" xmlns="http://www.w3.org/2000/svg" xmlns:xlink="http://www.w3.org/1999/xlink">
    <title>Group</title>
    <defs>
        <path d="M23.6608009,38.1818182 C17.7889897,38.1818182 12.417928,36.0630072 8.28341079,32.5558381 C7.78751122,31.6447871 7.36886321,30.6924027 7.03751292,29.7053736 C4.95622434,23.5036409 6.10581757,16.1260486 10.1119863,9.97045161 C11.8329986,7.32579678 14.0930397,4.88317849 16.772768,2.73486809 C18.9520933,2.07902113 21.2647902,1.72622898 23.6608009,1.72622898 C26.5263833,1.72622898 29.2722778,2.23063429 31.8136115,3.1547199 C30.8957729,3.28832471 29.9885002,3.50048022 29.1021858,3.79427359 C21.4334965,6.33533753 16.8408394,14.9488171 19.2725314,22.2272776 C20.6973549,26.4882247 24.230661,29.5498158 28.2732038,30.0283233 C28.6024756,30.0672557 28.9336527,30.0864646 29.2653494,30.0864646 C31.5165568,30.0864646 33.7847387,29.2011398 35.4918942,27.6251519 C37.2823636,25.9716424 38.2450635,23.7212846 38.1321307,21.452061 C38.0327083,19.4406141 36.3423541,17.8526206 34.3494025,17.8526206 C34.2801186,17.8526206 34.2101419,17.8546787 34.1401651,17.8584519 C32.0379182,17.9603277 30.4180604,19.7203438 30.5216398,21.8019376 C30.4651735,22.0581706 29.8521841,22.541995 29.2885595,22.541995 C29.2511462,22.541995 29.2140793,22.5399369 29.1773588,22.5354777 C28.1076153,22.4089047 26.9843499,21.281925 26.5080231,19.8563497 C25.3875291,16.503881 27.8240709,12.1751882 31.520887,10.9506204 C32.3529867,10.6744923 33.2406868,10.5426026 34.1477864,10.5426026 C37.3021095,10.5426026 40.6899193,12.1376279 42.7829862,14.8021777 C44.6003031,17.1161649 45.5926219,20.1350504 45.6691806,23.3551149 C42.2065441,32.0373692 33.6603741,38.1818182 23.6608009,38.1818182 M47.3214286,23.3931897 L47.3214286,23.3931897 C47.3084378,14.6505645 42.4590839,7.03011682 35.2807515,3.01528382 C31.8484267,1.0954222 27.8840015,0 23.6608009,0 C22.5164039,0 21.3914065,0.0804372966 20.290312,0.235995139 L20.2904852,0.235823631 C8.8314465,1.85451703 0.0176673965,11.6032087 0,23.3931897 C0.0193994941,10.4702262 10.6052877,0 23.6608009,0 C36.716314,0 47.3022023,10.4703977 47.3214286,23.3931897" id="path-1"></path>
        <linearGradient x1="50.000183%" y1="122.719922%" x2="50.000183%" y2="1.02133497e-13%" id="linearGradient-3">
            <stop stop-color="#68A8C9" offset="0%"></stop>
            <stop stop-color="#5BA0DF" offset="100%"></stop>
        </linearGradient>
        <path d="M17.669264,20 C10.4450742,20 3.40867243,15.6536098 0,9.32479294 C4.14662169,12.8792554 9.53340812,15.026638 15.42241,15.026638 C25.4512586,15.026638 34.022449,8.79933253 37.495223,0 C37.5311824,1.53379512 37.3644142,3.11260983 36.9851902,4.68325497 C34.9758072,13.0097948 27.0268707,19.5864802 18.495114,19.9808797 C18.2197728,19.9937424 17.9444315,20 17.669264,20" id="path-4"></path>
        <linearGradient x1="41.1264267%" y1="119.092481%" x2="41.1264267%" y2="-118.350266%" id="linearGradient-6">
            <stop stop-color="#5285A1" offset="0%"></stop>
            <stop stop-color="#4881B1" offset="100%"></stop>
        </linearGradient>
        <path d="M16.2829598,0 C13.5863887,2.16120776 11.3121428,4.61849029 9.5803135,7.27902229 C5.54896499,13.4715744 4.39214627,20.8934579 6.48651627,27.1324227 C6.81994918,28.1253774 7.2412285,29.0834795 7.74024492,30 C3.9210176,26.761294 1.15054397,22.3457081 0,17.321064 M31.4183388,0.422372394 C38.9117771,3.14639827 44.6366092,9.49457944 46.4285714,17.3214091 C46.159106,18.4984615 45.8009228,19.641179 45.3609935,20.7440403 C45.2839536,17.5046441 44.2853979,14.4676348 42.4566587,12.1397556 C40.3504364,9.4592092 36.9413333,7.8546082 33.7671845,7.8546082 C32.8543836,7.8546082 31.9611041,7.98728972 31.1237744,8.26507549 C27.4037229,9.49699497 24.9518668,13.8516751 26.0794034,17.2242703 C26.5587241,18.658404 27.6890494,19.7921495 28.7655166,19.9194824 C28.8024679,19.9239684 28.8397677,19.9260388 28.8774162,19.9260388 C29.4445833,19.9260388 30.0614255,19.4393098 30.1182467,19.1815385 C30.0140163,17.0874479 31.6440552,15.3168656 33.7595154,15.2143781 C33.8299319,15.2105823 33.9003485,15.2085119 33.9700679,15.2085119 C35.9755457,15.2085119 37.6765241,16.8060388 37.7765714,18.8295615 C37.890214,21.1124083 36.9214633,23.3762761 35.1197403,25.0397124 C33.401855,26.6251618 31.119417,27.5158016 28.8540602,27.5158016 C28.5202787,27.5158016 28.1870201,27.4964774 27.8556788,27.4573113 C23.7877276,26.975931 20.2322138,23.8959597 18.7984349,19.6094321 C16.3514591,12.2872753 20.9729821,3.62208483 28.6898711,1.06576564" id="path-7"></path>
        <linearGradient x1="50%" y1="100%" x2="50%" y2="8.32248706e-14%" id="linearGradient-9">
            <stop stop-color="#95C2DA" offset="0%"></stop>
            <stop stop-color="#8DBCE9" offset="100%"></stop>
        </linearGradient>
        <path d="M47.3214286,23.6363636 C47.3214286,36.690332 36.7281311,47.2727273 23.6607143,47.2727273 C10.5932975,47.2727273 0,36.690332 0,23.6363636 C0,10.5823953 10.5932975,0 23.6607143,0 C36.7281311,0 47.3214286,10.5823953 47.3214286,23.6363636" id="path-10"></path>
        <path d="M46.7299194,0 C47.0508759,1.42165346 47.2450433,2.89216158 47.299431,4.39796329 C47.3072254,4.17994281 47.3157018,3.96192234 47.3194529,3.74280165 L47.3214286,3.53127104 L47.3182587,3.91584211 C47.1494155,14.3686732 40.2528246,23.1799596 30.7855053,26.1770607 L30.4292839,26.2867194 C28.4039596,26.892576 26.2648973,27.2335315 24.0519864,27.2695455 L23.6607143,27.2727273 L23.2801376,27.2697162 C23.2710602,27.2695725 23.2619841,27.2694236 23.2529092,27.2692696 C22.984915,27.2647232 22.7181249,27.2557094 22.4524895,27.2422982 L22.5208234,27.2456422 C22.3902551,27.2394239 22.2599633,27.2321432 22.1299565,27.2238084 L22.4524895,27.2422982 C22.3291835,27.2360728 22.2061262,27.2288999 22.0833248,27.2207866 L22.1299565,27.2238084 C22.0043552,27.215756 21.8790199,27.2067197 21.7539582,27.1967073 L22.0833248,27.2207866 C21.9535384,27.2122117 21.8240379,27.2025865 21.6948315,27.1919192 L21.7539582,27.1967073 C21.6179569,27.185819 21.4822792,27.1737762 21.3469348,27.1605888 L21.6948315,27.1919192 C21.5736323,27.181913 21.4526919,27.1709899 21.3320173,27.1591568 L21.3469348,27.1605888 C21.2210275,27.1483208 21.0954086,27.1350622 20.9700861,27.1208209 C20.8411541,27.1061695 20.7125358,27.0904779 20.5842398,27.0737547 C20.5754115,27.0726437 20.5665123,27.0714787 20.5576146,27.0703088 L20.5842398,27.0737547 C20.4662905,27.0583802 20.3486137,27.0421338 20.2312158,27.0250222 L20.5576146,27.0703088 C20.4198426,27.0521932 20.2824435,27.032888 20.145428,27.0124037 L20.2312158,27.0250222 C20.1043402,27.0065292 19.9777904,26.9870256 19.851575,26.9665199 L20.145428,27.0124037 C20.0252726,26.99444 19.9054121,26.9755695 19.7858536,26.9557993 L19.851575,26.9665199 C19.7265691,26.9462107 19.6018912,26.9249185 19.4775494,26.9026514 L19.7858536,26.9557993 C19.6640191,26.9356528 19.5424982,26.9145721 19.4212986,26.8925648 L19.4775494,26.9026514 C19.3487879,26.8795929 19.2203868,26.8554891 19.0923552,26.8303489 L19.4212986,26.8925648 C19.3028681,26.8710603 19.1847443,26.848671 19.0669342,26.8254039 L19.0923552,26.8303489 C18.9762912,26.8075587 18.8605308,26.783917 18.7450808,26.7594304 L19.0669342,26.8254039 C18.9391749,26.800172 18.8117845,26.7739078 18.6847721,26.7466204 L18.7450808,26.7594304 C18.6164557,26.7321494 18.4882159,26.7038197 18.3603708,26.6744508 L18.6847721,26.7466204 C18.5670829,26.721336 18.4497182,26.6951731 18.3326851,26.6681388 C17.9610241,26.5822864 17.592708,26.4876465 17.2279654,26.3844487 L17.2667828,26.3953336 C17.1492633,26.3623032 17.0321134,26.3283852 16.9153409,26.2935871 L17.2279654,26.3844487 C17.1089247,26.3507682 16.9902646,26.3161761 16.8719931,26.2806804 L16.9153409,26.2935871 C16.7935616,26.2572969 16.6721927,26.2200497 16.551243,26.1818541 L16.8719931,26.2806804 C16.7560008,26.2458687 16.6403822,26.210188 16.525145,26.1736457 L16.551243,26.1818541 C16.433534,26.1446818 16.3162219,26.1066114 16.1993149,26.0676507 L16.525145,26.1736457 C16.4070965,26.1362119 16.289448,26.0978741 16.1722077,26.0586402 L15.8307594,25.9414417 L15.4885343,25.8180052 C15.3750854,25.7760981 15.2620451,25.7333438 15.149421,25.6897501 L15.4673111,25.8101729 C15.3483577,25.7660973 15.2298541,25.7210896 15.111809,25.6751587 L15.149421,25.6897501 C15.0309565,25.6438957 14.9129526,25.5971126 14.7954181,25.5494096 L15.111809,25.6751587 C15.0027645,25.6327299 14.8941113,25.5895133 14.7858562,25.5455157 L14.7954181,25.5494096 C14.685286,25.504711 14.575566,25.4592047 14.4662655,25.4128982 L14.7858562,25.5455157 C14.6685202,25.4978274 14.5516519,25.4492217 14.4352603,25.3997075 C14.2064415,25.3023656 13.9794648,25.2015122 13.7543974,25.0972149 C13.6413659,25.0448355 13.528816,24.9915875 13.4167561,24.9374794 L13.4499841,24.9534946 C13.349045,24.904957 13.2485022,24.855722 13.1483619,24.805796 L13.4167561,24.9374794 C13.2996927,24.8809553 13.1831641,24.8234926 13.0671799,24.765101 L13.1483619,24.805796 C13.040446,24.7519934 12.9329975,24.6973881 12.8260242,24.6419881 L13.0671799,24.765101 C12.968493,24.7154175 12.8702003,24.6650616 12.7723077,24.6140392 L12.8260242,24.6419881 C12.7088773,24.5813192 12.5923003,24.5196972 12.4763034,24.4571323 L12.7723077,24.6140392 C12.6571734,24.5540301 12.5425925,24.4930991 12.4285749,24.4312559 L12.4763034,24.4571323 C12.3725664,24.4011799 12.2692933,24.3444733 12.1664914,24.2870199 L12.4285749,24.4312559 C12.3251327,24.3751487 12.2221542,24.3182908 12.1196464,24.2606892 C11.9049371,24.1400388 11.6922935,24.0161262 11.4817822,23.8890182 L11.5216855,23.9131737 C11.4259423,23.8556262 11.3306384,23.7974186 11.2357798,23.7385571 L11.4817822,23.8890182 C11.3776,23.8261123 11.27394,23.7624239 11.1708104,23.6979608 C10.9622743,23.5676116 10.7559067,23.4340955 10.5517743,23.2974794 L10.5996455,23.3296023 C10.5078314,23.2684833 10.4164669,23.2067382 10.3255581,23.1443732 L10.5517743,23.2974794 C10.4546748,23.2324954 10.3580811,23.1668101 10.2620003,23.1004305 C10.0612852,22.961762 9.86280849,22.8200641 9.66663564,22.6754026 C9.46918357,22.5297977 9.27406553,22.3811904 9.08134832,22.2296477 L9.11933544,22.2597096 C9.02248049,22.1838711 8.92622895,22.1072925 8.83058926,22.0299822 L9.08134832,22.2296477 C8.99265172,22.1599013 8.90446367,22.0895332 8.81679068,22.0185498 C8.62169714,21.8605947 8.42915403,21.6995931 8.2392331,21.535617 C7.78051541,21.1395641 7.3370948,20.7261588 6.90998224,20.296416 C6.65782999,20.042711 6.4113616,19.7833118 6.17078508,19.5184273 C5.51615221,18.79765 4.90514507,18.0362572 4.34195486,17.2384559 L4.35204381,17.2531922 C4.28662111,17.1606616 4.22184206,17.0676404 4.1577132,16.974135 L4.34195486,17.2384559 C4.27307607,17.1408839 4.20491252,17.0427673 4.13747185,16.9441139 C3.99921978,16.7418762 3.8640056,16.5373822 3.73189537,16.3306984 C3.40126969,15.8134411 3.09008482,15.2824677 2.79937609,14.7388174 L2.82170856,14.7809477 C2.76322529,14.6721005 2.70556375,14.5627428 2.64873228,14.452883 L2.79937609,14.7388174 C2.74456391,14.6363139 2.69047965,14.5333598 2.63713026,14.4299619 C2.52279013,14.2083564 2.41182556,13.9847127 2.30430486,13.7590996 C2.14482371,13.4244566 1.99291929,13.0854806 1.84881455,12.7423953 C1.75235599,12.5127463 1.65939206,12.2812561 1.56998962,12.0479919 C1.43877899,11.705644 1.31523971,11.3594748 1.19958314,11.0096966 C1.11979387,10.7683912 1.04375626,10.5253681 0.971539726,10.2806971 L0.98788068,10.3361861 C0.953773468,10.2216532 0.920504067,10.1067571 0.888079614,9.99150524 L0.971539726,10.2806971 C0.937396379,10.1650187 0.904107162,10.048972 0.871679409,9.93256425 C0.802087134,9.68274492 0.736462437,9.43126286 0.67487781,9.17819084 L0.693360598,9.25393448 C0.665715304,9.1419274 0.638861917,9.02960662 0.612806744,8.91697848 L0.67487781,9.17819084 C0.647246918,9.06464617 0.620429294,8.95078145 0.594431487,8.83660323 L0.612806744,8.91697848 C0.581490847,8.78160992 0.551328035,8.64579735 0.522329254,8.50955175 L0.594431487,8.83660323 C0.564980894,8.70726093 0.536582339,8.57751635 0.50924534,8.44737903 L0.522329254,8.50955175 C0.497750688,8.39407374 0.474008337,8.27828466 0.451108868,8.16219119 L0.50924534,8.44737903 C0.483494674,8.32479342 0.458685938,8.20185934 0.434827085,8.07858477 L0.451108868,8.16219119 C0.425436859,8.03204178 0.40082419,7.90150981 0.377280255,7.77060473 L0.434827085,8.07858477 C0.413003468,7.96582592 0.391974591,7.85278218 0.371746542,7.73945968 L0.377280255,7.77060473 C0.35558835,7.649997 0.334803652,7.52907254 0.314933508,7.40783874 L0.371746542,7.73945968 C0.345789116,7.59403979 0.321150415,7.44816087 0.297843306,7.3018358 L0.314933508,7.40783874 C0.29515905,7.28718874 0.276290358,7.16623237 0.258334672,7.04497689 L0.297843306,7.3018358 C0.279677687,7.18778969 0.262320967,7.07347256 0.245779237,6.95889053 C0.208246306,6.69890568 0.174909182,6.43755705 0.145839018,6.17491607 L0.157437333,6.27784994 C0.143854702,6.15980285 0.131134315,6.04149207 0.119282655,5.92292412 L0.145839018,6.17491607 C0.132936216,6.05834279 0.120874018,5.94151492 0.109658647,5.82443869 L0.119282655,5.92292412 C0.104833058,5.77836555 0.0916747877,5.6334247 0.0798195918,5.48811337 L0.109658647,5.82443869 C0.0966017562,5.68813901 0.0846926128,5.55150273 0.0739410338,5.41453969 L0.0798195918,5.48811337 C0.0702538096,5.37086381 0.0615364119,5.25337303 0.0536735702,5.13564725 L0.0739410338,5.41453969 C0.0639679435,5.28749373 0.0549908549,5.16016662 0.0470176035,5.03256624 L0.0536735702,5.13564725 C0.0455544654,5.01408459 0.0383465271,4.89227135 0.0320565503,4.77021435 L0.0470176035,5.03256624 C0.0395588818,4.91320015 0.0329786183,4.79359493 0.0272832272,4.67375699 L0.0320565503,4.77021435 C0.024396296,4.62156712 0.0180975262,4.47255837 0.0131725141,4.3232004 L0.0272832272,4.67375699 C0.0209322971,4.54012571 0.0156816595,4.40620507 0.0115402081,4.272004 L0.0131725141,4.3232004 C0.00923192703,4.20369652 0.00617080266,4.08396908 0.0039954277,3.9640244 L0.0115402081,4.272004 C0.0075417023,4.14243499 0.00457713514,4.01260456 0.00265451075,3.88252076 L0,3.53127104 L0.00195130916,3.7427283 C0.00566177361,3.96192234 0.0140732422,4.17994281 0.0219975602,4.39796329 C0.0736658452,2.96745166 0.251485375,1.56847868 0.54431826,0.213267534 L0.591509197,0 L0.626292176,0.151362143 C1.7900301,5.15167396 4.52597549,9.54486516 8.28338047,12.7757565 C11.6820901,19.1060001 18.6979261,23.4533702 25.9010012,23.4533702 C26.1753645,23.4533702 26.449901,23.4471112 26.7244375,23.4342456 C35.2312577,23.0397572 43.1569613,16.4615891 45.1604714,8.13317215 C45.5385869,6.56217293 45.7048677,4.98300228 45.6690134,3.44886139" id="path-12"></path>
        <linearGradient x1="50%" y1="100%" x2="50%" y2="8.32248706e-14%" id="linearGradient-14">
            <stop stop-color="#86ABBD" offset="0%"></stop>
            <stop stop-color="#80A7C8" offset="100%"></stop>
        </linearGradient>
        <path d="M47.3214286,23.6363636 C47.3214286,36.690332 36.7281311,47.2727273 23.6607143,47.2727273 C10.5932975,47.2727273 0,36.690332 0,23.6363636 C0,10.5823953 10.5932975,0 23.6607143,0 C36.7281311,0 47.3214286,10.5823953 47.3214286,23.6363636" id="path-15"></path>
    </defs>
    <g id="Page-1" stroke="none" stroke-width="1" fill="none" fill-rule="evenodd">
        <g id="iPhone-14-Pro" transform="translate(-330.000000, -17.000000)">
            <g id="Group" transform="translate(330.000000, 17.000000)">
                <g id="Group-600" transform="translate(0.892857, 1.818182)">
                    <mask id="mask-2" fill="white">
                        <use xlink:href="#path-1"></use>
                    </mask>
                    <g id="Clip-599"></g>
                    <path d="M23.6608009,38.1818182 C17.7889897,38.1818182 12.417928,36.0630072 8.28341079,32.5558381 C7.78751122,31.6447871 7.36886321,30.6924027 7.03751292,29.7053736 C4.95622434,23.5036409 6.10581757,16.1260486 10.1119863,9.97045161 C11.8329986,7.32579678 14.0930397,4.88317849 16.772768,2.73486809 C18.9520933,2.07902113 21.2647902,1.72622898 23.6608009,1.72622898 C26.5263833,1.72622898 29.2722778,2.23063429 31.8136115,3.1547199 C30.8957729,3.28832471 29.9885002,3.50048022 29.1021858,3.79427359 C21.4334965,6.33533753 16.8408394,14.9488171 19.2725314,22.2272776 C20.6973549,26.4882247 24.230661,29.5498158 28.2732038,30.0283233 C28.6024756,30.0672557 28.9336527,30.0864646 29.2653494,30.0864646 C31.5165568,30.0864646 33.7847387,29.2011398 35.4918942,27.6251519 C37.2823636,25.9716424 38.2450635,23.7212846 38.1321307,21.452061 C38.0327083,19.4406141 36.3423541,17.8526206 34.3494025,17.8526206 C34.2801186,17.8526206 34.2101419,17.8546787 34.1401651,17.8584519 C32.0379182,17.9603277 30.4180604,19.7203438 30.5216398,21.8019376 C30.4651735,22.0581706 29.8521841,22.541995 29.2885595,22.541995 C29.2511462,22.541995 29.2140793,22.5399369 29.1773588,22.5354777 C28.1076153,22.4089047 26.9843499,21.281925 26.5080231,19.8563497 C25.3875291,16.503881 27.8240709,12.1751882 31.520887,10.9506204 C32.3529867,10.6744923 33.2406868,10.5426026 34.1477864,10.5426026 C37.3021095,10.5426026 40.6899193,12.1376279 42.7829862,14.8021777 C44.6003031,17.1161649 45.5926219,20.1350504 45.6691806,23.3551149 C42.2065441,32.0373692 33.6603741,38.1818182 23.6608009,38.1818182 M47.3214286,23.3931897 L47.3214286,23.3931897 C47.3084378,14.6505645 42.4590839,7.03011682 35.2807515,3.01528382 C31.8484267,1.0954222 27.8840015,0 23.6608009,0 C22.5164039,0 21.3914065,0.0804372966 20.290312,0.235995139 L20.2904852,0.235823631 C8.8314465,1.85451703 0.0176673965,11.6032087 0,23.3931897 C0.0193994941,10.4702262 10.6052877,0 23.6608009,0 C36.716314,0 47.3022023,10.4703977 47.3214286,23.3931897" id="Fill-598" fill="url(#linearGradient-3)" mask="url(#mask-2)"></path>
                </g>
                <path d="M25.4464286,2.65321449 C38.2214683,2.65321449 48.6256215,12.7846939 49.0851453,25.4545455 C49.0955378,25.1647825 49.1071429,24.8750195 49.1071429,24.5824837 C49.1071429,11.5079691 38.5140186,0.909090909 25.4464286,0.909090909 C12.3790118,0.909090909 1.78571429,11.5079691 1.78571429,24.5824837 C1.78571429,24.8750195 1.79714609,25.1647825 1.80771185,25.4545455 C2.26706247,12.7846939 12.6712156,2.65321449 25.4464286,2.65321449" id="Fill-601" fill="#FFFFFF"></path>
                <g id="Group-604" transform="translate(9.821429, 24.545455)">
                    <mask id="mask-5" fill="white">
                        <use xlink:href="#path-4"></use>
                    </mask>
                    <g id="Clip-603"></g>
                    <path d="M17.669264,20 C10.4450742,20 3.40867243,15.6536098 0,9.32479294 C4.14662169,12.8792554 9.53340812,15.026638 15.42241,15.026638 C25.4512586,15.026638 34.022449,8.79933253 37.495223,0 C37.5311824,1.53379512 37.3644142,3.11260983 36.9851902,4.68325497 C34.9758072,13.0097948 27.0268707,19.5864802 18.495114,19.9808797 C18.2197728,19.9937424 17.9444315,20 17.669264,20" id="Fill-602" fill="url(#linearGradient-6)" mask="url(#mask-5)"></path>
                </g>
                <path d="M25,0 C18.3221878,0 12.0440934,2.60041355 7.32233994,7.32233994 C2.60041355,12.0440934 0,18.3223607 0,25 C0,31.6776393 2.60041355,37.9559066 7.32233994,42.6776601 C12.0440934,47.3995865 18.3221878,50 25,50 C31.6778122,50 37.9557337,47.3995865 42.6776601,42.6776601 C47.3995865,37.9559066 50,31.6776393 50,25 C50,18.3223607 47.3995865,12.0440934 42.6776601,7.32233994 C37.9557337,2.60041355 31.6778122,0 25,0 M25,1.38310673 C38.0432152,1.38310673 48.6168933,11.9567848 48.6168933,25 C48.6168933,38.0432152 38.0432152,48.6168933 25,48.6168933 C11.9567848,48.6168933 1.38310673,38.0432152 1.38310673,25 C1.38310673,11.9567848 11.9567848,1.38310673 25,1.38310673" id="Fill-605" fill="#347897"></path>
                <g id="Group-608" transform="translate(1.785714, 3.636364)">
                    <mask id="mask-8" fill="white">
                        <use xlink:href="#path-7"></use>
                    </mask>
                    <g id="Clip-607"></g>
                    <path d="M47.0238006,20.8177139 C47.0238006,33.8344788 36.3638826,44.3867146 23.2142857,44.3867146 C10.0646889,44.3867146 -0.595229157,33.8344788 -0.595229157,20.8177139 C-0.595229157,7.80094896 10.0646889,-2.75128684 23.2142857,-2.75128684 C36.3638826,-2.75128684 47.0238006,7.80094896 47.0238006,20.8177139" id="Fill-606" fill="url(#linearGradient-9)" mask="url(#mask-8)"></path>
                </g>
                <g id="Group-611" transform="translate(1.785714, 0.909091)">
                    <mask id="mask-11" fill="white">
                        <use xlink:href="#path-10"></use>
                    </mask>
                    <g id="Clip-610"></g>
                    <path d="M47.3212554,23.6007193 C47.3190036,22.1171526 47.1740276,20.6678459 46.9100569,19.2604128 C46.8553228,19.5521429 46.7952192,19.8421426 46.7299194,20.130066 C44.9491563,12.2808664 39.2601022,5.91454138 31.8134951,3.18272992 C32.6083518,3.06610711 33.4113493,3.00883389 34.2159058,3.00883389 C34.5704649,3.00883389 34.92589,3.01990787 35.2806223,3.04205582 C42.4587553,7.09253558 47.3082647,14.7806434 47.3212554,23.6007193 M0,23.6007193 C0.0176673318,11.7062308 8.83106776,1.87098286 20.2902377,0.238090484 C19.0516192,1.02399672 17.8769148,1.86596496 16.7727066,2.75915034 C8.70930174,5.20736419 2.47169436,11.841541 0.591509197,20.1297199 C0.526209353,19.8417965 0.466278992,19.5521429 0.411544905,19.2604128 C0.147574183,20.6678459 0.00225171876,22.1171526 0,23.6007193" id="Fill-609" fill="#FFFFFF" mask="url(#mask-11)"></path>
                </g>
                <g id="Group-614" transform="translate(1.785714, 20.909091)">
                    <mask id="mask-13" fill="white">
                        <use xlink:href="#path-12"></use>
                    </mask>
                    <g id="Clip-613"></g>
                    <path d="M47.3214286,3.52309962 C47.3214286,16.6396218 36.7281311,27.2727273 23.6607143,27.2727273 C10.5932975,27.2727273 0,16.6396218 0,3.52309962 C0,-9.59342253 10.5932975,-20.226528 23.6607143,-20.226528 C36.7281311,-20.226528 47.3214286,-9.59342253 47.3214286,3.52309962" id="Fill-612" fill="url(#linearGradient-14)" mask="url(#mask-13)"></path>
                </g>
                <g id="Group-617" transform="translate(1.785714, 0.909091)">
                    <mask id="mask-16" fill="white">
                        <use xlink:href="#path-15"></use>
                    </mask>
                    <g id="Clip-616"></g>
                    <path d="M47.299431,24.507055 C47.2450433,23.0084346 47.0508759,21.5449394 46.7299194,20.130066 C46.7952192,19.8421426 46.8553228,19.5521429 46.9100569,19.2604128 C47.1740276,20.6678459 47.3190036,22.1171526 47.3212554,23.6007193 C47.3214286,23.6128314 47.3214286,23.6244245 47.3214286,23.6363636 C47.3214286,23.6365367 47.3214286,23.6365367 47.3214286,23.6365367 C47.3214286,23.9284398 47.3098236,24.2177474 47.299431,24.507055 M0.0219975602,24.507055 C0.0114318029,24.2177474 0,23.9284398 0,23.6365367 C0,23.6363636 0,23.6363636 0,23.6363636 C0,23.6244245 0,23.6126584 0,23.6007193 C0.00225171876,22.1171526 0.147574183,20.6678459 0.411544905,19.2604128 C0.466278992,19.5521429 0.526209353,19.8417965 0.591509197,20.1297199 C0.270552669,21.5445934 0.0763852286,23.0084346 0.0219975602,24.507055" id="Fill-615" fill="#DBDBDB" mask="url(#mask-16)"></path>
                </g>
                <path d="M26.8766258,19.0493374 C26.8766258,20.0717078 26.0363979,20.9003205 25.0000876,20.9003205 C23.9637773,20.9003205 23.1235494,20.0717078 23.1235494,19.0493374 C23.1235494,18.0271398 23.9637773,17.1985271 25.0000876,17.1985271 C26.0363979,17.1985271 26.8766258,18.0271398 26.8766258,19.0493374 Z M25.0000876,32.8014729 L25.0000876,32.8014729 C23.9637773,32.8014729 23.1235494,31.9728602 23.1235494,30.9506626 L23.1235494,23.6260655 C23.1235494,22.6036951 23.9637773,21.7750824 25.0000876,21.7750824 C26.0363979,21.7750824 26.8766258,22.6036951 26.8766258,23.6260655 L26.8766258,30.9506626 C26.8766258,31.9728602 26.0363979,32.8014729 25.0000876,32.8014729 Z M25.0000876,35.4095113 C19.171587,35.4095113 14.4470354,30.748954 14.4470354,24.9998272 C14.4470354,19.251046 19.171587,14.5904887 25.0000876,14.5904887 C30.8282378,14.5904887 35.5531398,19.251046 35.5531398,24.9998272 C35.5531398,30.748954 30.8282378,35.4095113 25.0000876,35.4095113 Z M25.0000876,10.9090909 C17.1103564,10.9090909 10.7142857,17.2173671 10.7142857,24.9998272 C10.7142857,32.7821144 17.1103564,39.0909091 25.0000876,39.0909091 C32.8898189,39.0909091 39.2857143,32.7821144 39.2857143,24.9998272 C39.2857143,17.2173671 32.8898189,10.9090909 25.0000876,10.9090909 L25.0000876,10.9090909 Z" id="Fill-618" fill="#FFFFFF"></path>
                <path d="M26.8586933,20.887766 C27.451576,20.3025496 27.8189644,19.4941224 27.8189644,18.6021422 C27.8189644,17.2532099 26.9784218,16.0946887 25.7881184,15.6121873 C30.2322084,16.2100056 33.6683802,19.9883627 33.6683802,24.5452819 C33.6683802,29.1023738 30.2322084,32.8807308 25.7881184,33.4787218 C26.9784218,32.9962204 27.8189644,31.8376992 27.8189644,30.4887669 L27.8189644,23.1732171 C27.8189644,22.2812369 27.451576,21.4726371 26.8586933,20.887766 Z M23.3190244,33.4787218 C18.8752835,32.8807308 15.4389372,29.1023738 15.4389372,24.5452819 C15.4389372,19.9883627 18.8752835,16.2100056 23.319199,15.6121873 C22.1288956,16.0946887 21.288353,17.2532099 21.288353,18.6021422 C21.288353,19.4941224 21.6557413,20.3025496 22.2486241,20.887766 C21.6557413,21.4726371 21.288353,22.2812369 21.288353,23.1732171 L21.288353,30.4887669 C21.288353,31.8376992 22.1288956,32.9962204 23.3190244,33.4787218 Z M24.5536587,9.09090909 C15.9379221,9.09090909 8.92857143,16.023565 8.92857143,24.5452819 C8.92857143,33.0669988 15.9379221,40 24.5536587,40 C33.1692207,40 40.1785714,33.0669988 40.1785714,24.5452819 C40.1785714,16.023565 33.1692207,9.09090909 24.5536587,9.09090909 Z M24.5536587,21.3245204 C25.5858367,21.3245204 26.4227142,22.1521095 26.4227142,23.1732171 L26.4227142,30.4887669 C26.4227142,31.5097018 25.5858367,32.337291 24.5536587,32.337291 C23.5214807,32.337291 22.6846032,31.5097018 22.6846032,30.4887669 L22.6846032,23.1732171 C22.6846032,22.1521095 23.5214807,21.3245204 24.5536587,21.3245204 L24.5536587,21.3245204 Z M24.5536587,16.7536181 C25.5858367,16.7536181 26.4227142,17.5812073 26.4227142,18.6021422 C26.4227142,19.6232498 25.5858367,20.450839 24.5536587,20.450839 C23.5214807,20.450839 22.6846032,19.6232498 22.6846032,18.6021422 C22.6846032,17.5812073 23.5214807,16.7536181 24.5536587,16.7536181 L24.5536587,16.7536181 Z M24.5536587,34.942108 C30.358569,34.942108 35.0646304,30.2873074 35.0646304,24.5452819 C35.0646304,18.8036017 30.358569,14.1488011 24.5536587,14.1488011 C18.7483993,14.1488011 14.042687,18.8036017 14.042687,24.5452819 C14.042687,30.2873074 18.7483993,34.942108 24.5536587,34.942108 L24.5536587,34.942108 Z M24.5536587,10.4719506 C32.4119295,10.4719506 38.7823212,16.7724348 38.7823212,24.5452819 C38.7823212,32.3179564 32.4119295,38.6189585 24.5536587,38.6189585 C16.6953879,38.6189585 10.3248217,32.3179564 10.3248217,24.5452819 C10.3248217,16.7724348 16.6953879,10.4719506 24.5536587,10.4719506 L24.5536587,10.4719506 Z" id="Fill-619" fill="#15324D"></path>
            </g>
        </g>
    </g>
</svg>