<?xml version="1.0" encoding="UTF-8"?>
<svg width="54px" height="51px" viewBox="0 0 54 51" version="1.1" xmlns="http://www.w3.org/2000/svg" xmlns:xlink="http://www.w3.org/1999/xlink">
    <title>Group 2</title>
    <g id="Page-1" stroke="none" stroke-width="1" fill="none" fill-rule="evenodd">
        <g id="23424" transform="translate(-23.000000, -136.000000)">
            <g id="Group-2" transform="translate(23.508955, 136.206065)">
                <path d="M40.6070451,50.2709349 C40.5260451,50.2709349 40.4450451,50.2639349 40.3620451,50.2499349 C39.8930451,50.1699349 39.4770451,49.8429349 39.1260451,49.4289349 C39.3760451,49.6349349 39.6500451,49.7829349 39.9450451,49.8339349 C40.0280451,49.8479349 40.1090451,49.8549349 40.1900451,49.8549349 C41.0980451,49.8549349 41.8390451,48.9859349 41.6190451,48.0599349 C41.5560451,47.4369349 41.6200451,46.9329349 42.1780451,46.6039349 C42.5930451,46.3649349 43.0030451,46.1139349 43.3920451,45.8359349 C44.3290451,45.1639349 45.1930451,44.2819349 45.4820451,43.1329349 C47.0340451,42.5519349 47.9870451,40.9879349 48.6060451,39.9709349 L48.6450451,39.9039349 C48.8640451,39.5459349 49.2120451,39.4719349 49.5930451,39.4719349 C49.7270451,39.4719349 49.8660451,39.4809349 50.0040451,39.4899349 C50.1430451,39.4999349 50.2810451,39.5089349 50.4150451,39.5089349 C50.6080451,39.5089349 50.7920451,39.4899349 50.9540451,39.4239349 C51.8590451,39.0569349 52.1250451,37.8949349 51.5420451,37.1629349 C51.6200451,37.2349349 51.6970451,37.3089349 51.7730451,37.3859349 C52.5850451,38.0869349 52.3610451,39.4399349 51.3700451,39.8399349 C51.2080451,39.9069349 51.0240451,39.9259349 50.8300451,39.9259349 C50.6960451,39.9259349 50.5580451,39.9169349 50.4190451,39.9079349 C50.2800451,39.8979349 50.1420451,39.8889349 50.0070451,39.8889349 C49.6270451,39.8889349 49.2800451,39.9629349 49.0620451,40.3199349 L49.0220451,40.3879349 C48.4040451,41.4039349 47.4520451,42.9689349 45.8980451,43.5499349 C45.6090451,44.6979349 44.7450451,45.5799349 43.8090451,46.2529349 C43.4190451,46.5299349 43.0100451,46.7789349 42.5940451,47.0209349 C42.0360451,47.3469349 41.9720451,47.8529349 42.0350451,48.4759349 C42.2550451,49.4019349 41.5150451,50.2709349 40.6070451,50.2709349 M34.2950451,42.3639349 C32.8310451,42.3639349 31.3640451,42.2439349 29.9250451,42.0349349 C25.7320451,41.4269349 21.5730451,39.8879349 18.4260451,36.9779349 C18.2100451,36.7789349 18.0010451,36.5739349 17.7980451,36.3639349 C17.8680451,36.4299349 17.9380451,36.4959349 18.0090451,36.5619349 C21.1570451,39.4709349 25.3160451,41.0099349 29.5080451,41.6169349 C30.9490451,41.8269349 32.4160451,41.9479349 33.8820451,41.9479349 C34.6420451,41.9479349 35.4020451,41.9149349 36.1580451,41.8449349 C36.1320451,41.9969349 36.1100451,42.1489349 36.0910451,42.3009349 C35.4940451,42.3439349 34.8940451,42.3639349 34.2950451,42.3639349 M43.2630451,34.0739349 C43.0660451,32.6979349 42.7710451,31.3319349 42.6520451,29.9449349 C42.5000451,28.1459349 42.4690451,26.3379349 42.5010451,24.5329349 C42.8610451,24.6379349 43.2560451,24.8829349 43.5730451,25.0809349 C43.9390451,25.3089349 44.2780451,25.5799349 44.6220451,25.8389349 C45.2440451,26.3069349 45.8810451,26.5139349 46.6540451,26.5139349 L46.8460451,26.5129349 L47.0060451,26.5159349 C47.5030451,26.9299349 48.0500451,27.2509349 48.6880451,27.2509349 C48.8000451,27.2509349 48.9150451,27.2419349 49.0330451,27.2209349 C49.5610451,27.7489349 50.4450451,28.2279349 51.2370451,28.2279349 C51.7860451,28.2279349 52.2900451,27.9969349 52.6000451,27.3919349 C53.0140451,26.5809349 52.7350451,25.8069349 52.3800451,25.0269349 C52.0400451,24.2779349 51.5870451,23.5839349 51.0760451,22.9379349 C50.7140451,22.4809349 50.3290451,22.0429349 49.9220451,21.6239349 C50.4830451,22.1659349 51.0090451,22.7429349 51.4920451,23.3539349 C52.0030451,23.9999349 52.4560451,24.6939349 52.7980451,25.4439349 C53.1520451,26.2239349 53.4300451,26.9979349 53.0170451,27.8079349 C52.7070451,28.4139349 52.2030451,28.6439349 51.6540451,28.6439349 C50.8630451,28.6439349 49.9780451,28.1649349 49.4500451,27.6379349 C49.3320451,27.6589349 49.2170451,27.6689349 49.1050451,27.6689349 C48.4670451,27.6689349 47.9210451,27.3459349 47.4230451,26.9329349 L47.2630451,26.9289349 L47.0710451,26.9289349 C46.2980451,26.9289349 45.6610451,26.7239349 45.0390451,26.2559349 C44.6940451,25.9969349 44.3550451,25.7259349 43.9890451,25.4969349 C43.6720451,25.2989349 43.2770451,25.0539349 42.9180451,24.9499349 C42.8850451,26.7549349 42.9160451,28.5629349 43.0690451,30.3619349 C43.1740451,31.5869349 43.4160451,32.7959349 43.6070451,34.0099349 C43.4920451,34.0289349 43.3780451,34.0509349 43.2630451,34.0739349 M3.48504506,28.6479349 C3.02504506,28.6479349 2.59104506,28.4659349 2.26904506,28.0019349 C2.51204506,28.1629349 2.78504506,28.2319349 3.06904506,28.2319349 C3.89004506,28.2319349 4.79904506,27.6529349 5.31704506,27.0659349 C5.37604506,27.0709349 5.43304506,27.0729349 5.48904506,27.0729349 C6.24604506,27.0729349 6.78804506,26.6419349 7.34204506,26.1559349 C8.05504506,26.1319349 8.71404506,26.0529349 9.30204506,25.6009349 C9.75904506,25.2499349 10.1530451,24.8269349 10.6180451,24.5019349 C10.6800451,24.6979349 10.7430451,24.8929349 10.8090451,25.0879349 C10.4370451,25.3819349 10.1000451,25.7249349 9.71804506,26.0179349 C9.13004506,26.4709349 8.47104506,26.5499349 7.75904506,26.5729349 C7.20504506,27.0579349 6.66304506,27.4889349 5.90604506,27.4889349 C5.85004506,27.4889349 5.79204506,27.4869349 5.73304506,27.4819349 C5.21504506,28.0689349 4.30704506,28.6479349 3.48504506,28.6479349 M43.4090451,16.5649349 C43.2690451,16.4929349 43.1280451,16.4229349 42.9860451,16.3549349 C43.1220451,12.6039349 42.7150451,8.56993492 40.0750451,5.75593492 C43.0360451,8.52893492 43.5290451,12.6839349 43.4090451,16.5649349" id="Fill-4" fill="#88AB8B"></path>
                <path d="M39.1260451,49.4289349 C38.9850451,49.3139349 38.8520451,49.1789349 38.7270451,49.0339349 C38.7960451,49.0919349 38.8660451,49.1449349 38.9380451,49.1929349 C38.9990451,49.2739349 39.0610451,49.3529349 39.1260451,49.4289349 M51.5420451,37.1629349 C51.4480451,37.0769349 51.3520451,36.9949349 51.2550451,36.9159349 C51.2250451,36.8679349 51.1930451,36.8219349 51.1570451,36.7769349 C51.2240451,36.8389349 51.2900451,36.9029349 51.3550451,36.9699349 C51.4250451,37.0299349 51.4870451,37.0939349 51.5420451,37.1629349 M17.7980451,36.3639349 C17.6650451,36.2359349 17.5350451,36.1059349 17.4070451,35.9739349 C17.4760451,36.0399349 17.5450451,36.1049349 17.6150451,36.1699349 C17.6750451,36.2349349 17.7370451,36.2999349 17.7980451,36.3639349 M2.26904506,28.0019349 C2.12404506,27.9059349 1.99004506,27.7759349 1.87004506,27.6089349 C1.95004506,27.6639349 2.03304506,27.7079349 2.11904506,27.7429349 C2.14804506,27.8039349 2.18004506,27.8629349 2.21704506,27.9219349 C2.18504506,27.8709349 2.17304506,27.8529349 2.17304506,27.8529349 C2.17304506,27.8529349 2.19204506,27.8829349 2.21104506,27.9129349 C2.23004506,27.9429349 2.24804506,27.9729349 2.24804506,27.9729349 C2.24804506,27.9729349 2.24004506,27.9589349 2.21704506,27.9219349 C2.23404506,27.9489349 2.25104506,27.9759349 2.26904506,28.0019349 M49.9220451,21.6239349 C49.8580451,21.5619349 49.7930451,21.4999349 49.7280451,21.4389349 C49.6620451,21.3689349 49.5950451,21.2989349 49.5280451,21.2299349 C49.6620451,21.3589349 49.7930451,21.4909349 49.9220451,21.6239349 M40.0750451,5.75593492 C40.0100451,5.69493492 39.9440451,5.63493492 39.8770451,5.57493492 C39.8130451,5.50293492 39.7470451,5.43093492 39.6810451,5.36093492 C39.8170451,5.48893492 39.9490451,5.62093492 40.0750451,5.75593492" id="Fill-5" fill="#88AB8B"></path>
                <path d="M40.1900451,49.8549349 C40.1090451,49.8549349 40.0280451,49.8479349 39.9450451,49.8339349 C39.6500451,49.7829349 39.3760451,49.6349349 39.1260451,49.4289349 C39.0610451,49.3529349 38.9990451,49.2739349 38.9380451,49.1929349 C39.1340451,49.3229349 39.3430451,49.4149349 39.5630451,49.4519349 C39.6450451,49.4659349 39.7260451,49.4729349 39.8060451,49.4729349 C40.7150451,49.4729349 41.4560451,48.6039349 41.2370451,47.6789349 C41.1740451,47.0549349 41.2370451,46.5499349 41.7970451,46.2239349 C42.2120451,45.9809349 42.6220451,45.7329349 43.0110451,45.4529349 C43.9480451,44.7819349 44.8110451,43.9009349 45.0990451,42.7519349 C46.6520451,42.1699349 47.6060451,40.6039349 48.2230451,39.5879349 L48.2640451,39.5229349 C48.4830451,39.1639349 48.8290451,39.0899349 49.2090451,39.0899349 C49.3440451,39.0899349 49.4840451,39.0989349 49.6230451,39.1089349 C49.7630451,39.1179349 49.9020451,39.1279349 50.0370451,39.1279349 C50.2290451,39.1279349 50.4110451,39.1089349 50.5720451,39.0429349 C51.4240451,38.6969349 51.7100451,37.6479349 51.2550451,36.9159349 C51.3520451,36.9949349 51.4480451,37.0769349 51.5420451,37.1629349 C52.1250451,37.8949349 51.8590451,39.0569349 50.9540451,39.4239349 C50.7920451,39.4899349 50.6080451,39.5089349 50.4150451,39.5089349 C50.2810451,39.5089349 50.1430451,39.4999349 50.0040451,39.4899349 C49.8660451,39.4809349 49.7270451,39.4719349 49.5930451,39.4719349 C49.2120451,39.4719349 48.8640451,39.5459349 48.6450451,39.9039349 L48.6060451,39.9709349 C47.9870451,40.9879349 47.0340451,42.5519349 45.4820451,43.1329349 C45.1930451,44.2819349 44.3290451,45.1639349 43.3920451,45.8359349 C43.0030451,46.1139349 42.5930451,46.3649349 42.1780451,46.6039349 C41.6200451,46.9329349 41.5560451,47.4369349 41.6190451,48.0599349 C41.8390451,48.9859349 41.0980451,49.8549349 40.1900451,49.8549349 M33.8820451,41.9479349 C32.4160451,41.9479349 30.9490451,41.8269349 29.5080451,41.6169349 C25.3160451,41.0099349 21.1570451,39.4709349 18.0090451,36.5619349 C17.9380451,36.4959349 17.8680451,36.4299349 17.7980451,36.3639349 C17.7370451,36.2999349 17.6750451,36.2349349 17.6150451,36.1699349 C17.6190451,36.1729349 17.6220451,36.1769349 17.6260451,36.1799349 C20.7740451,39.0879349 24.9340451,40.6259349 29.1260451,41.2359349 C30.5700451,41.4449349 32.0400451,41.5659349 33.5080451,41.5659349 C34.4220451,41.5659349 35.3350451,41.5189349 36.2400451,41.4179349 C36.2100451,41.5599349 36.1820451,41.7019349 36.1580451,41.8449349 C35.4020451,41.9149349 34.6420451,41.9479349 33.8820451,41.9479349 M42.9420451,34.1449349 C42.7500451,32.6149349 42.4030451,31.1029349 42.2710451,29.5629349 C42.1160451,27.7629349 42.0870451,25.9559349 42.1200451,24.1509349 C42.4790451,24.2539349 42.8730451,24.5009349 43.1910451,24.6989349 C43.5570451,24.9259349 43.8960451,25.1969349 44.2410451,25.4569349 C44.8630451,25.9239349 45.5000451,26.1319349 46.2730451,26.1319349 L46.4640451,26.1309349 L46.6230451,26.1349349 C47.1210451,26.5469349 47.6670451,26.8689349 48.3050451,26.8689349 C48.4180451,26.8689349 48.5330451,26.8589349 48.6520451,26.8379349 C49.1800451,27.3669349 50.0630451,27.8469349 50.8540451,27.8469349 C51.4030451,27.8469349 51.9080451,27.6159349 52.2180451,27.0099349 C52.6320451,26.1999349 52.3530451,25.4259349 51.9990451,24.6449349 C51.6570451,23.8959349 51.2040451,23.1999349 50.6940451,22.5569349 C50.3890451,22.1709349 50.0660451,21.7979349 49.7280451,21.4389349 C49.7930451,21.4999349 49.8580451,21.5619349 49.9220451,21.6239349 C50.3290451,22.0429349 50.7140451,22.4809349 51.0760451,22.9379349 C51.5870451,23.5839349 52.0400451,24.2779349 52.3800451,25.0269349 C52.7350451,25.8069349 53.0140451,26.5809349 52.6000451,27.3919349 C52.2900451,27.9969349 51.7860451,28.2279349 51.2370451,28.2279349 C50.4450451,28.2279349 49.5610451,27.7489349 49.0330451,27.2209349 C48.9150451,27.2419349 48.8000451,27.2509349 48.6880451,27.2509349 C48.0500451,27.2509349 47.5030451,26.9299349 47.0060451,26.5159349 L46.8460451,26.5129349 L46.6540451,26.5139349 C45.8810451,26.5139349 45.2440451,26.3069349 44.6220451,25.8389349 C44.2780451,25.5799349 43.9390451,25.3089349 43.5730451,25.0809349 C43.2560451,24.8829349 42.8610451,24.6379349 42.5010451,24.5329349 C42.4690451,26.3379349 42.5000451,28.1459349 42.6520451,29.9449349 C42.7710451,31.3319349 43.0660451,32.6979349 43.2630451,34.0739349 C43.1560451,34.0959349 43.0490451,34.1199349 42.9420451,34.1449349 M3.06904506,28.2319349 C2.78504506,28.2319349 2.51204506,28.1629349 2.26904506,28.0019349 C2.25104506,27.9759349 2.23404506,27.9489349 2.21704506,27.9219349 C2.18004506,27.8629349 2.14804506,27.8039349 2.11904506,27.7429349 C2.29804506,27.8169349 2.49004506,27.8499349 2.68604506,27.8499349 C3.50804506,27.8499349 4.41704506,27.2709349 4.93504506,26.6839349 C4.99404506,26.6889349 5.05204506,26.6919349 5.10804506,26.6919349 C5.86404506,26.6919349 6.40604506,26.2599349 6.95904506,25.7739349 C7.67404506,25.7509349 8.33204506,25.6709349 8.92104506,25.2199349 C9.45004506,24.8149349 9.89204506,24.3129349 10.4580451,23.9779349 C10.5100451,24.1529349 10.5640451,24.3279349 10.6180451,24.5019349 C10.1530451,24.8269349 9.75904506,25.2499349 9.30204506,25.6009349 C8.71404506,26.0529349 8.05504506,26.1319349 7.34204506,26.1559349 C6.78804506,26.6419349 6.24604506,27.0729349 5.48904506,27.0729349 C5.43304506,27.0729349 5.37604506,27.0709349 5.31704506,27.0659349 C4.79904506,27.6529349 3.89004506,28.2319349 3.06904506,28.2319349 M2.24804506,27.9729349 C2.24804506,27.9729349 2.23004506,27.9429349 2.21104506,27.9129349 C2.19204506,27.8829349 2.17304506,27.8529349 2.17304506,27.8529349 C2.17304506,27.8529349 2.18504506,27.8709349 2.21704506,27.9219349 C2.24004506,27.9589349 2.24804506,27.9729349 2.24804506,27.9729349 M42.9860451,16.3549349 C42.8570451,16.2929349 42.7270451,16.2319349 42.5960451,16.1719349 C42.7490451,12.4539349 42.3970451,8.42893492 39.8770451,5.57493492 C39.9440451,5.63493492 40.0100451,5.69493492 40.0750451,5.75593492 C42.7150451,8.56993492 43.1220451,12.6039349 42.9860451,16.3549349" id="Fill-6" fill="#6D876E"></path>
                <path d="M38.7270451,49.0339349 C38.5900451,48.9199349 38.4610451,48.7879349 38.3390451,48.6459349 C38.4030451,48.6999349 38.4690451,48.7499349 38.5360451,48.7959349 C38.5970451,48.8779349 38.6610451,48.9569349 38.7270451,49.0339349 M51.1570451,36.7769349 C51.0620451,36.6889349 50.9650451,36.6039349 50.8670451,36.5229349 C50.8400451,36.4799349 50.8100451,36.4379349 50.7770451,36.3969349 C50.8430451,36.4589349 50.9090451,36.5219349 50.9730451,36.5879349 C51.0420451,36.6459349 51.1030451,36.7099349 51.1570451,36.7769349" id="Fill-7" fill="#88AB8B"></path>
                <path d="M38.9380451,49.1929349 C38.8660451,49.1449349 38.7960451,49.0919349 38.7270451,49.0339349 C38.6610451,48.9569349 38.5970451,48.8779349 38.5360451,48.7959349 C38.6060451,48.8439349 38.6780451,48.8859349 38.7510451,48.9239349 C38.8110451,49.0149349 38.8730451,49.1049349 38.9380451,49.1929349 M51.2550451,36.9159349 C51.1570451,36.8359349 51.0570451,36.7599349 50.9560451,36.6869349 C50.9300451,36.6309349 50.9000451,36.5759349 50.8670451,36.5229349 C50.9650451,36.6039349 51.0620451,36.6889349 51.1570451,36.7769349 C51.1930451,36.8219349 51.2250451,36.8679349 51.2550451,36.9159349" id="Fill-8" fill="#6D876E"></path>
                <path d="M39.8060451,49.4729349 C39.7260451,49.4729349 39.6450451,49.4659349 39.5630451,49.4519349 C39.3430451,49.4149349 39.1340451,49.3229349 38.9380451,49.1929349 C38.8730451,49.1049349 38.8110451,49.0149349 38.7510451,48.9239349 C38.8890451,48.9939349 39.0330451,49.0439349 39.1810451,49.0699349 C39.2640451,49.0839349 39.3460451,49.0909349 39.4260451,49.0909349 C40.3350451,49.0909349 41.0750451,48.2219349 40.8550451,47.2959349 C40.7920451,46.6729349 40.8550451,46.1669349 41.4150451,45.8399349 C41.8290451,45.5979349 42.2400451,45.3499349 42.6290451,45.0719349 C43.5660451,44.3999349 44.4290451,43.5179349 44.7190451,42.3689349 C46.2720451,41.7889349 47.2240451,40.2239349 47.8430451,39.2069349 L47.8830451,39.1399349 C48.1010451,38.7829349 48.4480451,38.7079349 48.8270451,38.7079349 C48.9630451,38.7079349 49.1030451,38.7179349 49.2440451,38.7269349 C49.3840451,38.7369349 49.5230451,38.7459349 49.6590451,38.7459349 C49.8490451,38.7459349 50.0300451,38.7269349 50.1890451,38.6629349 C50.9840451,38.3379349 51.2860451,37.4049349 50.9560451,36.6869349 C51.0570451,36.7599349 51.1570451,36.8359349 51.2550451,36.9159349 C51.7100451,37.6479349 51.4240451,38.6969349 50.5720451,39.0429349 C50.4110451,39.1089349 50.2290451,39.1279349 50.0370451,39.1279349 C49.9020451,39.1279349 49.7630451,39.1179349 49.6230451,39.1089349 C49.4840451,39.0989349 49.3440451,39.0899349 49.2090451,39.0899349 C48.8290451,39.0899349 48.4830451,39.1639349 48.2640451,39.5229349 L48.2230451,39.5879349 C47.6060451,40.6039349 46.6520451,42.1699349 45.0990451,42.7519349 C44.8110451,43.9009349 43.9480451,44.7819349 43.0110451,45.4529349 C42.6220451,45.7329349 42.2120451,45.9809349 41.7970451,46.2239349 C41.2370451,46.5499349 41.1740451,47.0549349 41.2370451,47.6789349 C41.4560451,48.6039349 40.7150451,49.4729349 39.8060451,49.4729349" id="Fill-9" fill="#556B58"></path>
                <path d="M17.4070451,35.9739349 C17.2700451,35.8419349 17.1360451,35.7069349 17.0040451,35.5709349 C17.0720451,35.6359349 17.1400451,35.7009349 17.2090451,35.7649349 C17.2740451,35.8349349 17.3400451,35.9049349 17.4070451,35.9739349" id="Fill-10" fill="#88AB8B"></path>
                <path d="M17.6150451,36.1699349 C17.5450451,36.1049349 17.4760451,36.0399349 17.4070451,35.9739349 C17.3400451,35.9049349 17.2740451,35.8349349 17.2090451,35.7649349 C17.2210451,35.7759349 17.2330451,35.7869349 17.2450451,35.7979349 C17.3040451,35.8529349 17.3640451,35.9079349 17.4250451,35.9619349 C17.4870451,36.0319349 17.5510451,36.1009349 17.6150451,36.1699349" id="Fill-11" fill="#6D876E"></path>
                <path d="M33.5080451,41.5659349 C32.0400451,41.5659349 30.5700451,41.4449349 29.1260451,41.2359349 C24.9340451,40.6259349 20.7740451,39.0879349 17.6260451,36.1799349 C17.6220451,36.1769349 17.6190451,36.1729349 17.6150451,36.1699349 C17.5510451,36.1009349 17.4870451,36.0319349 17.4250451,35.9619349 C20.5510451,38.7649349 24.6330451,40.2579349 28.7440451,40.8519349 C30.1880451,41.0619349 31.6590451,41.1829349 33.1270451,41.1829349 C34.2050451,41.1829349 35.2800451,41.1179349 36.3440451,40.9739349 C36.3060451,41.1209349 36.2710451,41.2689349 36.2400451,41.4179349 C35.3350451,41.5189349 34.4220451,41.5659349 33.5080451,41.5659349" id="Fill-12" fill="#556B58"></path>
                <path d="M49.5280451,21.2299349 C49.4680451,21.1709349 49.4070451,21.1119349 49.3450451,21.0539349 C49.2880451,20.9929349 49.2300451,20.9329349 49.1720451,20.8729349 C49.2920451,20.9899349 49.4110451,21.1089349 49.5280451,21.2299349" id="Fill-13" fill="#88AB8B"></path>
                <path d="M49.7280451,21.4389349 C49.6650451,21.3789349 49.6010451,21.3199349 49.5370451,21.2619349 C49.4740451,21.1919349 49.4100451,21.1229349 49.3450451,21.0539349 C49.4070451,21.1119349 49.4680451,21.1709349 49.5280451,21.2299349 C49.5950451,21.2989349 49.6620451,21.3689349 49.7280451,21.4389349" id="Fill-14" fill="#6D876E"></path>
                <path d="M42.6140451,34.2279349 C42.4410451,32.5389349 42.0340451,30.8769349 41.8880451,29.1819349 C41.7350451,27.3819349 41.7060451,25.5739349 41.7370451,23.7699349 C42.0970451,23.8739349 42.4910451,24.1179349 42.8090451,24.3169349 C43.1760451,24.5449349 43.5150451,24.8159349 43.8590451,25.0749349 C44.4790451,25.5419349 45.1170451,25.7489349 45.8910451,25.7489349 L46.0820451,25.7479349 L46.2420451,25.7529349 C46.7400451,26.1649349 47.2860451,26.4879349 47.9220451,26.4879349 C48.0350451,26.4879349 48.1500451,26.4779349 48.2690451,26.4559349 C48.7990451,26.9839349 49.6830451,27.4639349 50.4740451,27.4639349 C51.0230451,27.4639349 51.5270451,27.2339349 51.8370451,26.6279349 C52.2500451,25.8179349 51.9720451,25.0439349 51.6170451,24.2649349 C51.2740451,23.5139349 50.8220451,22.8189349 50.3120451,22.1739349 C50.0650451,21.8609349 49.8060451,21.5569349 49.5370451,21.2619349 C49.6010451,21.3199349 49.6650451,21.3789349 49.7280451,21.4389349 C50.0660451,21.7979349 50.3890451,22.1709349 50.6940451,22.5569349 C51.2040451,23.1999349 51.6570451,23.8959349 51.9990451,24.6449349 C52.3530451,25.4259349 52.6320451,26.1999349 52.2180451,27.0099349 C51.9080451,27.6159349 51.4030451,27.8469349 50.8540451,27.8469349 C50.0630451,27.8469349 49.1800451,27.3669349 48.6520451,26.8379349 C48.5330451,26.8589349 48.4180451,26.8689349 48.3050451,26.8689349 C47.6670451,26.8689349 47.1210451,26.5469349 46.6230451,26.1349349 L46.4640451,26.1309349 L46.2730451,26.1319349 C45.5000451,26.1319349 44.8630451,25.9239349 44.2410451,25.4569349 C43.8960451,25.1969349 43.5570451,24.9259349 43.1910451,24.6989349 C42.8730451,24.5009349 42.4790451,24.2539349 42.1200451,24.1509349 C42.0870451,25.9559349 42.1160451,27.7629349 42.2710451,29.5629349 C42.4030451,31.1029349 42.7500451,32.6149349 42.9420451,34.1449349 C42.8320451,34.1709349 42.7230451,34.1979349 42.6140451,34.2279349" id="Fill-15" fill="#556B58"></path>
                <path d="M2.68604506,27.8499349 C2.49004506,27.8499349 2.29804506,27.8169349 2.11904506,27.7429349 C2.07104506,27.6449349 2.03404506,27.5439349 2.00504506,27.4409349 C2.10304506,27.4589349 2.20304506,27.4679349 2.30404506,27.4679349 C3.12604506,27.4679349 4.03504506,26.8889349 4.55304506,26.3019349 C4.61204506,26.3069349 4.67004506,26.3089349 4.72704506,26.3089349 C5.48404506,26.3089349 6.02604506,25.8769349 6.57804506,25.3919349 C7.29204506,25.3689349 7.95004506,25.2889349 8.53804506,24.8379349 C9.13804506,24.3769349 9.62804506,23.7939349 10.3120451,23.4709349 C10.3590451,23.6399349 10.4080451,23.8089349 10.4580451,23.9779349 C9.89204506,24.3129349 9.45004506,24.8149349 8.92104506,25.2199349 C8.33204506,25.6709349 7.67404506,25.7509349 6.95904506,25.7739349 C6.40604506,26.2599349 5.86404506,26.6919349 5.10804506,26.6919349 C5.05204506,26.6919349 4.99404506,26.6889349 4.93504506,26.6839349 C4.41704506,27.2709349 3.50804506,27.8499349 2.68604506,27.8499349" id="Fill-18" fill="#556B58"></path>
                <path d="M39.6810451,5.36093492 C39.6170451,5.30093492 39.5530451,5.24193492 39.4870451,5.18293492 C39.4290451,5.11793492 39.3710451,5.05393492 39.3110451,4.98993492 C39.4390451,5.11093492 39.5620451,5.23493492 39.6810451,5.36093492" id="Fill-19" fill="#88AB8B"></path>
                <path d="M39.8770451,5.57493492 C39.8670451,5.56693492 39.8570451,5.55793492 39.8470451,5.54993492 C39.7900451,5.49993492 39.7330451,5.45093492 39.6750451,5.40293492 C39.6140451,5.32893492 39.5510451,5.25493492 39.4870451,5.18293492 C39.5530451,5.24193492 39.6170451,5.30093492 39.6810451,5.36093492 C39.7470451,5.43093492 39.8130451,5.50293492 39.8770451,5.57493492" id="Fill-20" fill="#6D876E"></path>
                <path d="M42.5960451,16.1719349 C42.4670451,16.1129349 42.3370451,16.0549349 42.2060451,15.9979349 C42.3760451,12.3129349 42.0780451,8.29593492 39.6750451,5.40293492 C39.7330451,5.45093492 39.7900451,5.49993492 39.8470451,5.54993492 C39.8570451,5.55793492 39.8670451,5.56693492 39.8770451,5.57493492 C42.3970451,8.42893492 42.7490451,12.4539349 42.5960451,16.1719349" id="Fill-21" fill="#556B58"></path>
                <path d="M38.3390451,48.6459349 C38.2080451,48.5349349 38.0840451,48.4089349 37.9670451,48.2729349 C38.0280451,48.3239349 38.0910451,48.3719349 38.1560451,48.4159349 C38.2150451,48.4949349 38.2760451,48.5719349 38.3390451,48.6459349" id="Fill-22" fill="#88AB8B"></path>
                <path d="M50.7770451,36.3969349 C50.6810451,36.3079349 50.5840451,36.2229349 50.4850451,36.1419349 C50.4570451,36.0969349 50.4260451,36.0529349 50.3920451,36.0109349 C50.4590451,36.0739349 50.5260451,36.1379349 50.5920451,36.2049349 C50.6610451,36.2649349 50.7230451,36.3289349 50.7770451,36.3969349" id="Fill-23" fill="#88AB8B"></path>
                <path d="M17.0040451,35.5709349 C16.8820451,35.4519349 16.7610451,35.3319349 16.6430451,35.2089349 C16.7030451,35.2669349 16.7640451,35.3239349 16.8250451,35.3809349 C16.8840451,35.4449349 16.9440451,35.5079349 17.0040451,35.5709349" id="Fill-24" fill="#88AB8B"></path>
                <path d="M1.48604506,27.2259349 C1.34704506,27.1299349 1.21804506,27.0039349 1.10404506,26.8429349 C1.17704506,26.8939349 1.25304506,26.9359349 1.33204506,26.9699349 C1.35804506,27.0209349 1.38604506,27.0729349 1.41804506,27.1229349 C1.38604506,27.0729349 1.37504506,27.0539349 1.37404506,27.0539349 C1.37404506,27.0539349 1.39304506,27.0839349 1.41204506,27.1139349 C1.43004506,27.1439349 1.44904506,27.1739349 1.44904506,27.1739349 C1.44904506,27.1739349 1.44104506,27.1609349 1.41804506,27.1229349 C1.44004506,27.1589349 1.46304506,27.1929349 1.48604506,27.2259349 M49.1720451,20.8729349 C49.1060451,20.8089349 49.0410451,20.7469349 48.9750451,20.6839349 C48.9140451,20.6189349 48.8520451,20.5539349 48.7890451,20.4899349 C48.9190451,20.6149349 49.0460451,20.7429349 49.1720451,20.8729349 M39.3110451,4.98993492 C39.2420451,4.92493492 39.1720451,4.85993492 39.0990451,4.79593492 C39.0370451,4.72493492 38.9720451,4.65493492 38.9070451,4.58593492 C39.0470451,4.71793492 39.1820451,4.85293492 39.3110451,4.98993492" id="Fill-25" fill="#88AB8B"></path>
                <path d="M38.5360451,48.7959349 C38.4690451,48.7499349 38.4030451,48.6999349 38.3390451,48.6459349 C38.2760451,48.5719349 38.2150451,48.4949349 38.1560451,48.4159349 C38.2200451,48.4599349 38.2860451,48.4999349 38.3530451,48.5339349 C38.4110451,48.6229349 38.4720451,48.7109349 38.5360451,48.7959349 M50.8670451,36.5229349 C50.7690451,36.4419349 50.6690451,36.3649349 50.5680451,36.2919349 C50.5430451,36.2399349 50.5160451,36.1899349 50.4850451,36.1419349 C50.5840451,36.2229349 50.6810451,36.3079349 50.7770451,36.3969349 C50.8100451,36.4379349 50.8400451,36.4799349 50.8670451,36.5229349 M17.2090451,35.7649349 C17.1400451,35.7009349 17.0720451,35.6359349 17.0040451,35.5709349 C16.9440451,35.5079349 16.8840451,35.4449349 16.8250451,35.3809349 C16.8370451,35.3929349 16.8500451,35.4039349 16.8630451,35.4159349 C16.9170451,35.4659349 16.9710451,35.5149349 17.0250451,35.5639349 C17.0850451,35.6309349 17.1470451,35.6979349 17.2090451,35.7649349 M1.71504506,27.3519349 C1.63604506,27.3179349 1.56004506,27.2759349 1.48604506,27.2259349 C1.46304506,27.1929349 1.44004506,27.1589349 1.41804506,27.1229349 C1.38604506,27.0729349 1.35804506,27.0209349 1.33204506,26.9699349 C1.41804506,27.0069349 1.50704506,27.0349349 1.59804506,27.0539349 C1.62804506,27.1549349 1.66604506,27.2549349 1.71504506,27.3519349 M49.3450451,21.0539349 C49.2800451,20.9929349 49.2150451,20.9329349 49.1490451,20.8719349 C49.0920451,20.8089349 49.0340451,20.7459349 48.9750451,20.6839349 C49.0410451,20.7469349 49.1060451,20.8089349 49.1720451,20.8729349 C49.2300451,20.9329349 49.2880451,20.9929349 49.3450451,21.0539349 M39.4870451,5.18293492 C39.4680451,5.16593492 39.4490451,5.14993492 39.4300451,5.13293492 C39.3790451,5.08793492 39.3270451,5.04393492 39.2750451,4.99993492 C39.2170451,4.93093492 39.1590451,4.86293492 39.0990451,4.79593492 C39.1720451,4.85993492 39.2420451,4.92493492 39.3110451,4.98993492 C39.3710451,5.05393492 39.4290451,5.11793492 39.4870451,5.18293492" id="Fill-26" fill="#6D876E"></path>
                <path d="M38.7510451,48.9239349 C38.6780451,48.8859349 38.6060451,48.8439349 38.5360451,48.7959349 C38.4720451,48.7109349 38.4110451,48.6229349 38.3530451,48.5339349 C38.4230451,48.5709349 38.4960451,48.6029349 38.5700451,48.6289349 C38.6270451,48.7279349 38.6880451,48.8259349 38.7510451,48.9239349 M50.9560451,36.6869349 C50.8520451,36.6119349 50.7460451,36.5409349 50.6390451,36.4739349 C50.6190451,36.4119349 50.5960451,36.3509349 50.5680451,36.2919349 C50.6690451,36.3649349 50.7690451,36.4419349 50.8670451,36.5229349 C50.9000451,36.5759349 50.9300451,36.6309349 50.9560451,36.6869349 M17.4250451,35.9619349 C17.3640451,35.9079349 17.3040451,35.8529349 17.2450451,35.7979349 C17.2330451,35.7869349 17.2210451,35.7759349 17.2090451,35.7649349 C17.1470451,35.6979349 17.0850451,35.6309349 17.0250451,35.5639349 C17.0980451,35.6289349 17.1710451,35.6939349 17.2450451,35.7579349 C17.3040451,35.8269349 17.3640451,35.8939349 17.4250451,35.9619349 M2.00504506,27.4409349 C1.90604506,27.4219349 1.80904506,27.3929349 1.71504506,27.3519349 C1.66604506,27.2549349 1.62804506,27.1549349 1.59804506,27.0539349 C1.70404506,27.0759349 1.81204506,27.0859349 1.92304506,27.0859349 C1.92904506,27.0859349 1.93404506,27.0859349 1.94004506,27.0859349 C1.95204506,27.2059349 1.97304506,27.3249349 2.00504506,27.4409349 M49.5370451,21.2619349 C49.4710451,21.2019349 49.4050451,21.1419349 49.3380451,21.0829349 C49.2760451,21.0119349 49.2130451,20.9419349 49.1490451,20.8719349 C49.2150451,20.9329349 49.2800451,20.9929349 49.3450451,21.0539349 C49.4100451,21.1229349 49.4740451,21.1919349 49.5370451,21.2619349 M39.6750451,5.40293492 C39.6040451,5.34293492 39.5310451,5.28393492 39.4580451,5.22693492 C39.3980451,5.14993492 39.3370451,5.07493492 39.2750451,4.99993492 C39.3270451,5.04393492 39.3790451,5.08793492 39.4300451,5.13293492 C39.4490451,5.14993492 39.4680451,5.16593492 39.4870451,5.18293492 C39.5510451,5.25493492 39.6140451,5.32893492 39.6750451,5.40293492" id="Fill-27" fill="#556B58"></path>
                <path d="M39.4260451,49.0909349 C39.3460451,49.0909349 39.2640451,49.0839349 39.1810451,49.0699349 C39.0330451,49.0439349 38.8890451,48.9939349 38.7510451,48.9239349 C38.6880451,48.8259349 38.6270451,48.7279349 38.5700451,48.6289349 C38.6450451,48.6559349 38.7210451,48.6759349 38.8000451,48.6889349 C38.8820451,48.7029349 38.9640451,48.7099349 39.0450451,48.7099349 C39.9530451,48.7099349 40.6930451,47.8409349 40.4730451,46.9149349 C40.4100451,46.2929349 40.4740451,45.7859349 41.0330451,45.4599349 C41.4480451,45.2179349 41.8580451,44.9699349 42.2470451,44.6889349 C43.1830451,44.0189349 44.0480451,43.1379349 44.3370451,41.9889349 C45.8880451,41.4079349 46.8430451,39.8399349 47.4610451,38.8259349 L47.5010451,38.7589349 C47.7190451,38.4009349 48.0660451,38.3259349 48.4460451,38.3259349 C48.5810451,38.3259349 48.7200451,38.3359349 48.8600451,38.3449349 C48.9990451,38.3549349 49.1380451,38.3639349 49.2730451,38.3639349 C49.4640451,38.3639349 49.6460451,38.3449349 49.8070451,38.2799349 C50.5430451,37.9809349 50.8560451,37.1629349 50.6390451,36.4739349 C50.7460451,36.5409349 50.8520451,36.6119349 50.9560451,36.6869349 C51.2860451,37.4049349 50.9840451,38.3379349 50.1890451,38.6629349 C50.0300451,38.7269349 49.8490451,38.7459349 49.6590451,38.7459349 C49.5230451,38.7459349 49.3840451,38.7369349 49.2440451,38.7269349 C49.1030451,38.7179349 48.9630451,38.7079349 48.8270451,38.7079349 C48.4480451,38.7079349 48.1010451,38.7829349 47.8830451,39.1399349 L47.8430451,39.2069349 C47.2240451,40.2239349 46.2720451,41.7889349 44.7190451,42.3689349 C44.4290451,43.5179349 43.5660451,44.3999349 42.6290451,45.0719349 C42.2400451,45.3499349 41.8290451,45.5979349 41.4150451,45.8399349 C40.8550451,46.1669349 40.7920451,46.6729349 40.8550451,47.2959349 C41.0750451,48.2219349 40.3350451,49.0909349 39.4260451,49.0909349 M33.1270451,41.1829349 C31.6590451,41.1829349 30.1880451,41.0619349 28.7440451,40.8519349 C24.6330451,40.2579349 20.5510451,38.7649349 17.4250451,35.9619349 C17.3640451,35.8939349 17.3040451,35.8269349 17.2450451,35.7579349 C20.3430451,38.4459349 24.3390451,39.8869349 28.3620451,40.4719349 C29.8040451,40.6819349 31.2740451,40.8029349 32.7410451,40.8029349 C33.9920451,40.8029349 35.2400451,40.7149349 36.4700451,40.5189349 C36.4250451,40.6699349 36.3830451,40.8219349 36.3440451,40.9739349 C35.2800451,41.1179349 34.2050451,41.1829349 33.1270451,41.1829349 M42.2740451,34.3239349 C42.1360451,32.4719349 41.6660451,30.6549349 41.5070451,28.7999349 C41.3530451,26.9999349 41.3220451,25.1929349 41.3550451,23.3879349 C41.7160451,23.4919349 42.1090451,23.7369349 42.4280451,23.9349349 C42.7930451,24.1639349 43.1330451,24.4349349 43.4770451,24.6939349 C44.0970451,25.1609349 44.7350451,25.3669349 45.5100451,25.3669349 L45.7000451,25.3669349 L45.8600451,25.3709349 C46.3580451,25.7839349 46.9040451,26.1059349 47.5420451,26.1059349 C47.6540451,26.1059349 47.7690451,26.0959349 47.8870451,26.0749349 C48.4160451,26.6029349 49.3000451,27.0819349 50.0920451,27.0819349 C50.6410451,27.0819349 51.1440451,26.8519349 51.4540451,26.2469349 C51.8680451,25.4359349 51.5920451,24.6619349 51.2340451,23.8829349 C50.8940451,23.1329349 50.4400451,22.4379349 49.9310451,21.7919349 C49.7400451,21.5499349 49.5420451,21.3139349 49.3380451,21.0829349 C49.4050451,21.1419349 49.4710451,21.2019349 49.5370451,21.2619349 C49.8060451,21.5569349 50.0650451,21.8609349 50.3120451,22.1739349 C50.8220451,22.8189349 51.2740451,23.5139349 51.6170451,24.2649349 C51.9720451,25.0439349 52.2500451,25.8179349 51.8370451,26.6279349 C51.5270451,27.2339349 51.0230451,27.4639349 50.4740451,27.4639349 C49.6830451,27.4639349 48.7990451,26.9839349 48.2690451,26.4559349 C48.1500451,26.4779349 48.0350451,26.4879349 47.9220451,26.4879349 C47.2860451,26.4879349 46.7400451,26.1649349 46.2420451,25.7529349 L46.0820451,25.7479349 L45.8910451,25.7489349 C45.1170451,25.7489349 44.4790451,25.5419349 43.8590451,25.0749349 C43.5150451,24.8159349 43.1760451,24.5449349 42.8090451,24.3169349 C42.4910451,24.1179349 42.0970451,23.8739349 41.7370451,23.7699349 C41.7060451,25.5739349 41.7350451,27.3819349 41.8880451,29.1819349 C42.0340451,30.8769349 42.4410451,32.5389349 42.6140451,34.2279349 C42.5000451,34.2579349 42.3870451,34.2899349 42.2740451,34.3239349 M2.30404506,27.4679349 C2.20304506,27.4679349 2.10304506,27.4589349 2.00504506,27.4409349 C1.97304506,27.3249349 1.95204506,27.2059349 1.94004506,27.0859349 C2.75704506,27.0779349 3.65604506,26.5029349 4.17104506,25.9209349 C4.22904506,25.9259349 4.28604506,25.9279349 4.34104506,25.9279349 C5.09804506,25.9279349 5.64204506,25.4969349 6.19604506,25.0109349 C6.90904506,24.9879349 7.56804506,24.9079349 8.15504506,24.4559349 C8.82604506,23.9409349 9.35904506,23.2729349 10.1800451,22.9859349 C10.2230451,23.1479349 10.2670451,23.3089349 10.3120451,23.4709349 C9.62804506,23.7939349 9.13804506,24.3769349 8.53804506,24.8379349 C7.95004506,25.2889349 7.29204506,25.3689349 6.57804506,25.3919349 C6.02604506,25.8769349 5.48404506,26.3089349 4.72704506,26.3089349 C4.67004506,26.3089349 4.61204506,26.3069349 4.55304506,26.3019349 C4.03504506,26.8889349 3.12604506,27.4679349 2.30404506,27.4679349 M42.2060451,15.9979349 C42.0750451,15.9409349 41.9440451,15.8859349 41.8120451,15.8309349 C42.0010451,12.1739349 41.7540451,8.16093492 39.4580451,5.22693492 C39.5310451,5.28393492 39.6040451,5.34293492 39.6750451,5.40293492 C42.0780451,8.29593492 42.3760451,12.3129349 42.2060451,15.9979349" id="Fill-28" fill="#425245"></path>
                <path d="M37.9670451,48.2729349 C37.3490451,47.7569349 36.8790451,46.8899349 36.6010451,46.2729349 C36.0390451,45.0189349 35.9250451,43.6459349 36.0910451,42.3009349 C36.2380451,42.2909349 36.3860451,42.2789349 36.5330451,42.2659349 C36.2880451,43.7419349 36.3630451,45.2709349 36.9850451,46.6529349 C37.2010451,47.1369349 37.5360451,47.7719349 37.9670451,48.2729349 M50.3920451,36.0109349 C49.0520451,34.7659349 47.3510451,34.2509349 45.6050451,34.2509349 C44.9620451,34.2509349 44.3130451,34.3209349 43.6740451,34.4499349 C43.6520451,34.3029349 43.6300451,34.1559349 43.6070451,34.0099349 C44.1440451,33.9189349 44.6860451,33.8699349 45.2230451,33.8699349 C47.0580451,33.8699349 48.8420451,34.4379349 50.2110451,35.8239349 C50.2780451,35.8819349 50.3380451,35.9449349 50.3920451,36.0109349 M16.6430451,35.2089349 C15.1460451,33.7689349 13.9730451,32.0329349 13.0040451,30.2029349 C12.1350451,28.5629349 11.3990451,26.8489349 10.8090451,25.0879349 C10.8760451,25.0349349 10.9450451,24.9829349 11.0150451,24.9329349 C11.6320451,26.8829349 12.4290451,28.7789349 13.3870451,30.5829349 C14.2720451,32.2549349 15.3280451,33.8479349 16.6430451,35.2089349 M1.10404506,26.8429349 C0.945045057,26.7339349 0.799045057,26.5839349 0.671045057,26.3869349 C0.680045057,26.4009349 0.686045057,26.4109349 0.686045057,26.4109349 C0.686045057,26.4109349 0.678045057,26.3969349 0.654045057,26.3599349 C0.623045057,26.3089349 0.611045057,26.2909349 0.611045057,26.2909349 C0.612045057,26.2909349 0.623045057,26.3099349 0.637045057,26.3319349 C-0.0179549429,25.2379349 0.662045057,23.8379349 1.20404506,22.8189349 C1.73804506,21.8149349 2.42904506,20.9049349 3.17904506,20.0539349 C4.88504506,18.1179349 6.92404506,16.4709349 9.22704506,15.2929349 C9.23504506,15.0339349 9.24704506,14.7739349 9.26404506,14.5149349 C9.50004506,10.8729349 10.6720451,7.13593492 13.3990451,4.58493492 C16.4810451,1.70193492 20.8350451,0.857934921 24.9100451,0.644934921 C25.4620451,0.615934921 26.0160451,0.600934921 26.5700451,0.600934921 C28.5680451,0.600934921 30.5700451,0.795934921 32.5140451,1.24793492 C34.5980451,1.73193492 36.6580451,2.56393492 38.2850451,3.98693492 C38.5050451,4.17993492 38.7120451,4.37893492 38.9070451,4.58593492 C38.8290451,4.51293492 38.7490451,4.43993492 38.6680451,4.36893492 C37.0400451,2.94493492 34.9800451,2.11393492 32.8950451,1.62893492 C30.9510451,1.17693492 28.9490451,0.981934921 26.9520451,0.981934921 C26.3980451,0.981934921 25.8450451,0.996934921 25.2940451,1.02593492 C21.2170451,1.23993492 16.8620451,2.08393492 13.7810451,4.96693492 C11.0540451,7.51793492 9.88104506,11.2559349 9.64404506,14.8949349 C9.63004506,15.1549349 9.61704506,15.4149349 9.60804506,15.6759349 C7.30504506,16.8509349 5.26704506,18.4979349 3.56104506,20.4359349 C2.81104506,21.2859349 2.12104506,22.1969349 1.58604506,23.1999349 C1.04304506,24.2199349 0.363045057,25.6219349 1.02104506,26.7169349 C1.00604506,26.6929349 0.993045057,26.6719349 0.993045057,26.6719349 C0.993045057,26.6719349 1.00404506,26.6909349 1.03604506,26.7419349 C1.03704506,26.7439349 1.03904506,26.7459349 1.04004506,26.7479349 C1.06004506,26.7799349 1.06804506,26.7929349 1.06804506,26.7929349 C1.06804506,26.7929349 1.06104506,26.7819349 1.05204506,26.7669349 C1.06904506,26.7939349 1.08604506,26.8189349 1.10404506,26.8429349 M48.7890451,20.4899349 C47.2200451,18.9619349 45.3700451,17.7059349 43.4030451,16.7539349 C43.4050451,16.6909349 43.4070451,16.6279349 43.4090451,16.5649349 C45.3920451,17.5729349 47.2430451,18.8919349 48.7890451,20.4899349" id="Fill-30" fill="#88AB8B"></path>
                <path d="M36.0910451,42.3009349 C36.1100451,42.1489349 36.1320451,41.9969349 36.1580451,41.8449349 C36.3130451,41.8309349 36.4670451,41.8149349 36.6210451,41.7979349 C36.5880451,41.9529349 36.5590451,42.1089349 36.5330451,42.2659349 C36.3860451,42.2789349 36.2380451,42.2909349 36.0910451,42.3009349 M43.3240451,34.5259349 C43.3050451,34.3749349 43.2850451,34.2249349 43.2630451,34.0739349 C43.3780451,34.0509349 43.4920451,34.0289349 43.6070451,34.0099349 C43.6300451,34.1559349 43.6520451,34.3029349 43.6740451,34.4499349 C43.5570451,34.4739349 43.4400451,34.4989349 43.3240451,34.5259349 M10.8090451,25.0879349 C10.7430451,24.8929349 10.6800451,24.6979349 10.6180451,24.5019349 C10.6900451,24.4519349 10.7640451,24.4039349 10.8400451,24.3599349 C10.8960451,24.5509349 10.9550451,24.7419349 11.0150451,24.9329349 C10.9450451,24.9829349 10.8760451,25.0349349 10.8090451,25.0879349 M43.4030451,16.7539349 C43.2620451,16.6849349 43.1200451,16.6189349 42.9780451,16.5539349 C42.9810451,16.4879349 42.9840451,16.4209349 42.9860451,16.3549349 C43.1280451,16.4229349 43.2690451,16.4929349 43.4090451,16.5649349 C43.4070451,16.6279349 43.4050451,16.6909349 43.4030451,16.7539349" id="Fill-31" fill="#6D876E"></path>
                <path d="M36.1580451,41.8449349 C36.1820451,41.7019349 36.2100451,41.5599349 36.2400451,41.4179349 C36.4010451,41.3989349 36.5630451,41.3799349 36.7240451,41.3579349 C36.6870451,41.5039349 36.6530451,41.6509349 36.6210451,41.7979349 C36.4670451,41.8149349 36.3130451,41.8309349 36.1580451,41.8449349 M42.9960451,34.6089349 C42.9800451,34.4539349 42.9620451,34.2989349 42.9420451,34.1449349 C43.0490451,34.1199349 43.1560451,34.0959349 43.2630451,34.0739349 C43.2850451,34.2249349 43.3050451,34.3749349 43.3240451,34.5259349 C43.2140451,34.5519349 43.1050451,34.5799349 42.9960451,34.6089349 M10.6180451,24.5019349 C10.5640451,24.3279349 10.5100451,24.1529349 10.4580451,23.9779349 C10.5340451,23.9329349 10.6130451,23.8909349 10.6940451,23.8529349 C10.7410451,24.0219349 10.7900451,24.1909349 10.8400451,24.3599349 C10.7640451,24.4039349 10.6900451,24.4519349 10.6180451,24.5019349 M42.9780451,16.5539349 C42.8490451,16.4939349 42.7180451,16.4359349 42.5870451,16.3789349 C42.5910451,16.3099349 42.5940451,16.2409349 42.5960451,16.1719349 C42.7270451,16.2319349 42.8570451,16.2929349 42.9860451,16.3549349 C42.9840451,16.4209349 42.9810451,16.4879349 42.9780451,16.5539349" id="Fill-32" fill="#556B58"></path>
                <path d="M36.2400451,41.4179349 C36.2710451,41.2689349 36.3060451,41.1209349 36.3440451,40.9739349 C36.5130451,40.9509349 36.6820451,40.9269349 36.8500451,40.8999349 C36.8050451,41.0509349 36.7630451,41.2039349 36.7240451,41.3579349 C36.5630451,41.3799349 36.4010451,41.3989349 36.2400451,41.4179349" id="Fill-33" fill="#425245"></path>
                <path d="M42.6560451,34.7059349 C42.6440451,34.5469349 42.6300451,34.3869349 42.6140451,34.2279349 C42.7230451,34.1979349 42.8320451,34.1709349 42.9420451,34.1449349 C42.9620451,34.2989349 42.9800451,34.4539349 42.9960451,34.6089349 C42.8820451,34.6399349 42.7690451,34.6719349 42.6560451,34.7059349" id="Fill-34" fill="#425245"></path>
                <path d="M10.4580451,23.9779349 C10.4080451,23.8089349 10.3590451,23.6399349 10.3120451,23.4709349 C10.3930451,23.4319349 10.4760451,23.3979349 10.5620451,23.3669349 C10.6050451,23.5299349 10.6490451,23.6909349 10.6940451,23.8529349 C10.6130451,23.8909349 10.5340451,23.9329349 10.4580451,23.9779349" id="Fill-35" fill="#425245"></path>
                <path d="M42.5870451,16.3789349 C42.4570451,16.3219349 42.3270451,16.2669349 42.1960451,16.2129349 C42.2000451,16.1419349 42.2030451,16.0699349 42.2060451,15.9979349 C42.3370451,16.0549349 42.4670451,16.1129349 42.5960451,16.1719349 C42.5940451,16.2409349 42.5910451,16.3099349 42.5870451,16.3789349" id="Fill-36" fill="#425245"></path>
                <path d="M38.1560451,48.4159349 C38.0910451,48.3719349 38.0280451,48.3239349 37.9670451,48.2729349 C37.5360451,47.7719349 37.2010451,47.1369349 36.9850451,46.6529349 C36.3630451,45.2709349 36.2880451,43.7419349 36.5330451,42.2659349 C36.6870451,42.2519349 36.8410451,42.2359349 36.9950451,42.2189349 C36.6610451,43.8249349 36.6840451,45.5189349 37.3660451,47.0359349 C37.5490451,47.4449349 37.8170451,47.9629349 38.1560451,48.4159349" id="Fill-37" fill="#6D876E"></path>
                <path d="M36.5330451,42.2659349 C36.5590451,42.1089349 36.5880451,41.9529349 36.6210451,41.7979349 C36.7830451,41.7799349 36.9450451,41.7599349 37.1070451,41.7379349 C37.0660451,41.8969349 37.0290451,42.0579349 36.9950451,42.2189349 C36.8410451,42.2359349 36.6870451,42.2519349 36.5330451,42.2659349" id="Fill-38" fill="#556B58"></path>
                <path d="M36.6210451,41.7979349 C36.6530451,41.6509349 36.6870451,41.5039349 36.7240451,41.3579349 C36.8940451,41.3349349 37.0630451,41.3099349 37.2320451,41.2829349 C37.1870451,41.4329349 37.1460451,41.5849349 37.1070451,41.7379349 C36.9450451,41.7599349 36.7830451,41.7799349 36.6210451,41.7979349" id="Fill-39" fill="#425245"></path>
                <path d="M50.4850451,36.1419349 C49.1930451,35.0779349 47.6090451,34.6329349 45.9850451,34.6329349 C45.2350451,34.6329349 44.4770451,34.7279349 43.7350451,34.9009349 C43.7160451,34.7499349 43.6950451,34.5999349 43.6740451,34.4499349 C44.3130451,34.3209349 44.9620451,34.2509349 45.6050451,34.2509349 C47.3510451,34.2509349 49.0520451,34.7659349 50.3920451,36.0109349 C50.4260451,36.0529349 50.4570451,36.0969349 50.4850451,36.1419349" id="Fill-40" fill="#6D876E"></path>
                <path d="M43.3770451,34.9909349 C43.3610451,34.8359349 43.3430451,34.6809349 43.3240451,34.5259349 C43.4400451,34.4989349 43.5570451,34.4739349 43.6740451,34.4499349 C43.6950451,34.5999349 43.7160451,34.7499349 43.7350451,34.9009349 C43.6150451,34.9289349 43.4960451,34.9589349 43.3770451,34.9909349" id="Fill-41" fill="#556B58"></path>
                <path d="M43.0380451,35.0869349 C43.0260451,34.9279349 43.0120451,34.7679349 42.9960451,34.6089349 C43.1050451,34.5799349 43.2140451,34.5519349 43.3240451,34.5259349 C43.3430451,34.6809349 43.3610451,34.8359349 43.3770451,34.9909349 C43.2630451,35.0209349 43.1500451,35.0529349 43.0380451,35.0869349" id="Fill-42" fill="#425245"></path>
                <path d="M16.8250451,35.3809349 C16.7640451,35.3239349 16.7030451,35.2669349 16.6430451,35.2089349 C15.3280451,33.8479349 14.2720451,32.2549349 13.3870451,30.5829349 C12.4290451,28.7789349 11.6320451,26.8829349 11.0150451,24.9329349 C11.0870451,24.8819349 11.1600451,24.8339349 11.2360451,24.7879349 C11.8720451,26.9239349 12.7240451,28.9999349 13.7670451,30.9659349 C14.6080451,32.5509349 15.6020451,34.0669349 16.8250451,35.3809349" id="Fill-43" fill="#6D876E"></path>
                <path d="M11.0150451,24.9329349 C10.9550451,24.7419349 10.8960451,24.5509349 10.8400451,24.3599349 C10.9160451,24.3149349 10.9950451,24.2719349 11.0760451,24.2339349 C11.1280451,24.4189349 11.1810451,24.6039349 11.2360451,24.7879349 C11.1600451,24.8339349 11.0870451,24.8819349 11.0150451,24.9329349" id="Fill-44" fill="#556B58"></path>
                <path d="M10.8400451,24.3599349 C10.7900451,24.1909349 10.7410451,24.0219349 10.6940451,23.8529349 C10.7750451,23.8139349 10.8580451,23.7799349 10.9450451,23.7489349 C10.9880451,23.9109349 11.0310451,24.0729349 11.0760451,24.2339349 C10.9950451,24.2719349 10.9160451,24.3149349 10.8400451,24.3599349" id="Fill-45" fill="#425245"></path>
                <path d="M1.33204506,26.9699349 C1.25304506,26.9359349 1.17704506,26.8939349 1.10404506,26.8429349 C1.08604506,26.8189349 1.06904506,26.7939349 1.05204506,26.7669349 C1.06104506,26.7819349 1.06804506,26.7929349 1.06804506,26.7929349 C1.06804506,26.7929349 1.06004506,26.7799349 1.04004506,26.7479349 C1.03904506,26.7459349 1.03704506,26.7439349 1.03604506,26.7419349 C1.00404506,26.6909349 0.993045057,26.6719349 0.993045057,26.6719349 C0.993045057,26.6719349 1.00604506,26.6929349 1.02104506,26.7169349 C0.363045057,25.6219349 1.04304506,24.2199349 1.58604506,23.1999349 C2.12104506,22.1969349 2.81104506,21.2859349 3.56104506,20.4359349 C5.26704506,18.4979349 7.30504506,16.8509349 9.60804506,15.6759349 C9.61704506,15.4149349 9.63004506,15.1549349 9.64404506,14.8949349 C9.88104506,11.2559349 11.0540451,7.51793492 13.7810451,4.96693492 C16.8620451,2.08393492 21.2170451,1.23993492 25.2940451,1.02593492 C25.8450451,0.996934921 26.3980451,0.981934921 26.9520451,0.981934921 C28.9490451,0.981934921 30.9510451,1.17693492 32.8950451,1.62893492 C34.9800451,2.11393492 37.0400451,2.94493492 38.6680451,4.36893492 C38.7490451,4.43993492 38.8290451,4.51293492 38.9070451,4.58593492 C38.9720451,4.65493492 39.0370451,4.72493492 39.0990451,4.79593492 C39.0830451,4.78093492 39.0660451,4.76593492 39.0490451,4.75093492 C37.4230451,3.32593492 35.3630451,2.49693492 33.2770451,2.01193492 C31.3340451,1.55993492 29.3340451,1.36393492 27.3390451,1.36393492 C26.7840451,1.36393492 26.2290451,1.37993492 25.6760451,1.40893492 C21.5980451,1.62093492 17.2440451,2.46593492 14.1620451,5.34893492 C11.4370451,7.89993492 10.2620451,11.6379349 10.0280451,15.2769349 C10.0120451,15.5359349 9.99904506,15.7969349 9.99004506,16.0579349 C7.68704506,17.2329349 5.65004506,18.8799349 3.94204506,20.8189349 C3.19304506,21.6689349 2.50204506,22.5789349 1.97004506,23.5819349 C1.44804506,24.5629349 0.798045057,25.8959349 1.33204506,26.9699349 M48.9750451,20.6839349 C47.3440451,19.1419349 45.4250451,17.8859349 43.3950451,16.9519349 C43.3980451,16.8859349 43.4000451,16.8199349 43.4030451,16.7539349 C45.3700451,17.7059349 47.2200451,18.9619349 48.7890451,20.4899349 C48.8520451,20.5539349 48.9140451,20.6189349 48.9750451,20.6839349" id="Fill-46" fill="#6D876E"></path>
                <path d="M43.3950451,16.9519349 C43.2540451,16.8869349 43.1120451,16.8239349 42.9690451,16.7619349 C42.9720451,16.6919349 42.9760451,16.6229349 42.9780451,16.5539349 C43.1200451,16.6189349 43.2620451,16.6849349 43.4030451,16.7539349 C43.4000451,16.8199349 43.3980451,16.8859349 43.3950451,16.9519349" id="Fill-47" fill="#556B58"></path>
                <path d="M42.9690451,16.7619349 C42.8390451,16.7049349 42.7080451,16.6499349 42.5770451,16.5959349 C42.5810451,16.5229349 42.5840451,16.4509349 42.5870451,16.3789349 C42.7180451,16.4359349 42.8490451,16.4939349 42.9780451,16.5539349 C42.9760451,16.6229349 42.9720451,16.6919349 42.9690451,16.7619349" id="Fill-48" fill="#425245"></path>
                <path d="M38.3530451,48.5339349 C38.2860451,48.4999349 38.2200451,48.4599349 38.1560451,48.4159349 C37.8170451,47.9629349 37.5490451,47.4449349 37.3660451,47.0359349 C36.6840451,45.5189349 36.6610451,43.8249349 36.9950451,42.2189349 C37.1570451,42.2019349 37.3180451,42.1819349 37.4790451,42.1599349 C37.0440451,43.8949349 37.0040451,45.7619349 37.7480451,47.4189349 C37.8960451,47.7499349 38.1000451,48.1529349 38.3530451,48.5339349 M50.5680451,36.2919349 C49.3350451,35.3949349 47.8680451,35.0149349 46.3680451,35.0149349 C45.5070451,35.0149349 44.6350451,35.1399349 43.7890451,35.3649349 C43.7730451,35.2099349 43.7540451,35.0549349 43.7350451,34.9009349 C44.4770451,34.7279349 45.2350451,34.6329349 45.9850451,34.6329349 C47.6090451,34.6329349 49.1930451,35.0779349 50.4850451,36.1419349 C50.5160451,36.1899349 50.5430451,36.2399349 50.5680451,36.2919349 M17.0250451,35.5639349 C16.9710451,35.5149349 16.9170451,35.4659349 16.8630451,35.4159349 C16.8500451,35.4039349 16.8370451,35.3929349 16.8250451,35.3809349 C15.6020451,34.0669349 14.6080451,32.5509349 13.7670451,30.9659349 C12.7240451,28.9999349 11.8720451,26.9239349 11.2360451,24.7879349 C11.3120451,24.7429349 11.3900451,24.6999349 11.4700451,24.6609349 C12.1210451,26.9759349 13.0240451,29.2249349 14.1500451,31.3479349 C14.9480451,32.8539349 15.8840451,34.2969349 17.0250451,35.5639349 M1.59804506,27.0539349 C1.50704506,27.0349349 1.41804506,27.0069349 1.33204506,26.9699349 C0.798045057,25.8959349 1.44804506,24.5629349 1.97004506,23.5819349 C2.50204506,22.5789349 3.19304506,21.6689349 3.94204506,20.8189349 C5.65004506,18.8799349 7.68704506,17.2329349 9.99004506,16.0579349 C9.99904506,15.7969349 10.0120451,15.5359349 10.0280451,15.2769349 C10.2620451,11.6379349 11.4370451,7.89993492 14.1620451,5.34893492 C17.2440451,2.46593492 21.5980451,1.62093492 25.6760451,1.40893492 C26.2290451,1.37993492 26.7840451,1.36393492 27.3390451,1.36393492 C29.3340451,1.36393492 31.3340451,1.55993492 33.2770451,2.01193492 C35.3630451,2.49693492 37.4230451,3.32593492 39.0490451,4.75093492 C39.0660451,4.76593492 39.0830451,4.78093492 39.0990451,4.79593492 C39.1590451,4.86293492 39.2170451,4.93093492 39.2750451,4.99993492 C37.6740451,3.65693492 35.6780451,2.86193492 33.6590451,2.39293492 C31.7150451,1.94193492 29.7160451,1.74593492 27.7200451,1.74593492 C27.1650451,1.74593492 26.6100451,1.76093492 26.0560451,1.78993492 C21.9800451,2.00293492 17.6260451,2.84693492 14.5440451,5.73093492 C11.8190451,8.28193492 10.6450451,12.0189349 10.4100451,15.6599349 C10.3930451,15.9189349 10.3810451,16.1789349 10.3710451,16.4389349 C8.07004506,17.6169349 6.03204506,19.2629349 4.32404506,21.2009349 C3.57604506,22.0499349 2.88404506,22.9619349 2.35004506,23.9639349 C1.87704506,24.8559349 1.29704506,26.0389349 1.59804506,27.0539349 M49.1490451,20.8719349 C47.4580451,19.3209349 45.4750451,18.0709349 43.3860451,17.1579349 C43.3890451,17.0899349 43.3920451,17.0209349 43.3950451,16.9519349 C45.4250451,17.8859349 47.3440451,19.1419349 48.9750451,20.6839349 C49.0340451,20.7459349 49.0920451,20.8089349 49.1490451,20.8719349" id="Fill-49" fill="#556B58"></path>
                <path d="M36.9950451,42.2189349 C37.0290451,42.0579349 37.0660451,41.8969349 37.1070451,41.7379349 C37.2770451,41.7149349 37.4470451,41.6899349 37.6160451,41.6629349 C37.5670451,41.8279349 37.5210451,41.9929349 37.4790451,42.1599349 C37.3180451,42.1819349 37.1570451,42.2019349 36.9950451,42.2189349 M43.4190451,35.4699349 C43.4070451,35.3099349 43.3930451,35.1499349 43.3770451,34.9909349 C43.4960451,34.9589349 43.6150451,34.9289349 43.7350451,34.9009349 C43.7540451,35.0549349 43.7730451,35.2099349 43.7890451,35.3649349 C43.6650451,35.3979349 43.5410451,35.4329349 43.4190451,35.4699349 M11.2360451,24.7879349 C11.1810451,24.6039349 11.1280451,24.4189349 11.0760451,24.2339349 C11.1570451,24.1959349 11.2400451,24.1609349 11.3260451,24.1309349 C11.3730451,24.3079349 11.4210451,24.4849349 11.4700451,24.6609349 C11.3900451,24.6999349 11.3120451,24.7429349 11.2360451,24.7879349 M43.3860451,17.1579349 C43.2440451,17.0959349 43.1020451,17.0359349 42.9590451,16.9769349 C42.9620451,16.9049349 42.9660451,16.8339349 42.9690451,16.7619349 C43.1120451,16.8239349 43.2540451,16.8869349 43.3950451,16.9519349 C43.3920451,17.0209349 43.3890451,17.0899349 43.3860451,17.1579349" id="Fill-50" fill="#425245"></path>
                <path d="M38.5700451,48.6289349 C38.4960451,48.6029349 38.4230451,48.5709349 38.3530451,48.5339349 C38.1000451,48.1529349 37.8960451,47.7499349 37.7480451,47.4189349 C37.0040451,45.7619349 37.0440451,43.8949349 37.4790451,42.1599349 C37.6640451,42.1359349 37.8480451,42.1089349 38.0310451,42.0799349 C37.4740451,43.9499349 37.3490451,46.0199349 38.1630451,47.8339349 C38.2710451,48.0739349 38.4070451,48.3499349 38.5700451,48.6289349 M50.6390451,36.4739349 C49.4820451,35.7449349 48.1470451,35.4319349 46.7840451,35.4319349 C45.7970451,35.4319349 44.7950451,35.5959349 43.8350451,35.8869349 C43.8220451,35.7119349 43.8070451,35.5389349 43.7890451,35.3649349 C44.6350451,35.1399349 45.5070451,35.0149349 46.3680451,35.0149349 C47.8680451,35.0149349 49.3350451,35.3949349 50.5680451,36.2919349 C50.5960451,36.3509349 50.6190451,36.4119349 50.6390451,36.4739349 M17.2450451,35.7579349 C17.1710451,35.6939349 17.0980451,35.6289349 17.0250451,35.5639349 C15.8840451,34.2969349 14.9480451,32.8539349 14.1500451,31.3479349 C13.0240451,29.2249349 12.1210451,26.9759349 11.4700451,24.6609349 C11.5580451,24.6189349 11.6480451,24.5809349 11.7430451,24.5479349 C12.3990451,27.0489349 13.3540451,29.4789349 14.5660451,31.7649349 C15.3180451,33.1829349 16.1920451,34.5459349 17.2450451,35.7579349 M1.92304506,27.0859349 C1.81204506,27.0859349 1.70404506,27.0759349 1.59804506,27.0539349 C1.29704506,26.0389349 1.87704506,24.8559349 2.35004506,23.9639349 C2.88404506,22.9619349 3.57604506,22.0499349 4.32404506,21.2009349 C6.03204506,19.2629349 8.07004506,17.6169349 10.3710451,16.4389349 C10.3810451,16.1789349 10.3930451,15.9189349 10.4100451,15.6599349 C10.6450451,12.0189349 11.8190451,8.28193492 14.5440451,5.73093492 C17.6260451,2.84693492 21.9800451,2.00293492 26.0560451,1.78993492 C26.6100451,1.76093492 27.1650451,1.74593492 27.7200451,1.74593492 C29.7160451,1.74593492 31.7150451,1.94193492 33.6590451,2.39293492 C35.6780451,2.86193492 37.6740451,3.65693492 39.2750451,4.99993492 C39.3370451,5.07493492 39.3980451,5.14993492 39.4580451,5.22693492 C37.8980451,3.99893492 35.9970451,3.25593492 34.0760451,2.80893492 C32.1330451,2.35793492 30.1340451,2.16293492 28.1380451,2.16293492 C27.5820451,2.16293492 27.0270451,2.17793492 26.4720451,2.20693492 C22.3960451,2.41993492 18.0430451,3.26493492 14.9610451,6.14693492 C12.2350451,8.69793492 11.0620451,12.4349349 10.8240451,16.0759349 C10.8090451,16.3369349 10.7980451,16.5959349 10.7880451,16.8539349 C8.48604506,18.0329349 6.44804506,19.6799349 4.74104506,21.6159349 C3.99104506,22.4669349 3.29904506,23.3769349 2.76604506,24.3809349 C2.35104506,25.1619349 1.85404506,26.1669349 1.94004506,27.0859349 C1.93404506,27.0859349 1.92904506,27.0859349 1.92304506,27.0859349 M49.3380451,21.0829349 C47.5820451,19.5229349 45.5270451,18.2799349 43.3750451,17.3929349 C43.3790451,17.3149349 43.3830451,17.2369349 43.3860451,17.1579349 C45.4750451,18.0709349 47.4580451,19.3209349 49.1490451,20.8719349 C49.2130451,20.9419349 49.2760451,21.0119349 49.3380451,21.0829349" id="Fill-51" fill="#425245"></path>
                <path d="M39.0450451,48.7099349 C38.9640451,48.7099349 38.8820451,48.7029349 38.8000451,48.6889349 C38.7210451,48.6759349 38.6450451,48.6559349 38.5700451,48.6289349 C38.4070451,48.3499349 38.2710451,48.0739349 38.1630451,47.8339349 C37.3490451,46.0199349 37.4740451,43.9499349 38.0310451,42.0799349 C37.8480451,42.1089349 37.6640451,42.1359349 37.4790451,42.1599349 C37.5210451,41.9929349 37.5670451,41.8279349 37.6160451,41.6629349 C37.4470451,41.6899349 37.2770451,41.7149349 37.1070451,41.7379349 C37.1460451,41.5849349 37.1870451,41.4329349 37.2320451,41.2829349 C37.0630451,41.3099349 36.8940451,41.3349349 36.7240451,41.3579349 C36.7630451,41.2039349 36.8050451,41.0509349 36.8500451,40.8999349 C36.6820451,40.9269349 36.5130451,40.9509349 36.3440451,40.9739349 C36.3830451,40.8219349 36.4250451,40.6699349 36.4700451,40.5189349 C35.2400451,40.7149349 33.9920451,40.8029349 32.7410451,40.8029349 C31.2740451,40.8029349 29.8040451,40.6819349 28.3620451,40.4719349 C24.3390451,39.8869349 20.3430451,38.4459349 17.2450451,35.7579349 C16.1920451,34.5459349 15.3180451,33.1829349 14.5660451,31.7649349 C13.3540451,29.4789349 12.3990451,27.0489349 11.7430451,24.5479349 C11.6480451,24.5809349 11.5580451,24.6189349 11.4700451,24.6609349 C11.4210451,24.4849349 11.3730451,24.3079349 11.3260451,24.1309349 C11.2400451,24.1609349 11.1570451,24.1959349 11.0760451,24.2339349 C11.0310451,24.0729349 10.9880451,23.9109349 10.9450451,23.7489349 C10.8580451,23.7799349 10.7750451,23.8139349 10.6940451,23.8529349 C10.6490451,23.6909349 10.6050451,23.5299349 10.5620451,23.3669349 C10.4760451,23.3979349 10.3930451,23.4319349 10.3120451,23.4709349 C10.2670451,23.3089349 10.2230451,23.1479349 10.1800451,22.9859349 C9.35904506,23.2729349 8.82604506,23.9409349 8.15504506,24.4559349 C7.56804506,24.9079349 6.90904506,24.9879349 6.19604506,25.0109349 C5.64204506,25.4969349 5.09804506,25.9279349 4.34104506,25.9279349 C4.28604506,25.9279349 4.22904506,25.9259349 4.17104506,25.9209349 C3.65604506,26.5029349 2.75704506,27.0779349 1.94004506,27.0859349 C1.85404506,26.1669349 2.35104506,25.1619349 2.76604506,24.3809349 C3.29904506,23.3769349 3.99104506,22.4669349 4.74104506,21.6159349 C6.44804506,19.6799349 8.48604506,18.0329349 10.7880451,16.8539349 C10.7980451,16.5959349 10.8090451,16.3369349 10.8240451,16.0759349 C11.0620451,12.4349349 12.2350451,8.69793492 14.9610451,6.14693492 C18.0430451,3.26493492 22.3960451,2.41993492 26.4720451,2.20693492 C27.0270451,2.17793492 27.5820451,2.16293492 28.1380451,2.16293492 C30.1340451,2.16293492 32.1330451,2.35793492 34.0760451,2.80893492 C35.9970451,3.25593492 37.8980451,3.99893492 39.4580451,5.22693492 C41.7540451,8.16093492 42.0010451,12.1739349 41.8120451,15.8309349 C41.9440451,15.8859349 42.0750451,15.9409349 42.2060451,15.9979349 C42.2030451,16.0699349 42.2000451,16.1419349 42.1960451,16.2129349 C42.3270451,16.2669349 42.4570451,16.3219349 42.5870451,16.3789349 C42.5840451,16.4509349 42.5810451,16.5229349 42.5770451,16.5959349 C42.7080451,16.6499349 42.8390451,16.7049349 42.9690451,16.7619349 C42.9660451,16.8339349 42.9620451,16.9049349 42.9590451,16.9769349 C43.1020451,17.0359349 43.2440451,17.0959349 43.3860451,17.1579349 C43.3830451,17.2369349 43.3790451,17.3149349 43.3750451,17.3929349 C45.5270451,18.2799349 47.5820451,19.5229349 49.3380451,21.0829349 C49.5420451,21.3139349 49.7400451,21.5499349 49.9310451,21.7919349 C50.4400451,22.4379349 50.8940451,23.1329349 51.2340451,23.8829349 C51.5920451,24.6619349 51.8680451,25.4359349 51.4540451,26.2469349 C51.1440451,26.8519349 50.6410451,27.0819349 50.0920451,27.0819349 C49.3000451,27.0819349 48.4160451,26.6029349 47.8870451,26.0749349 C47.7690451,26.0959349 47.6540451,26.1059349 47.5420451,26.1059349 C46.9040451,26.1059349 46.3580451,25.7839349 45.8600451,25.3709349 L45.7000451,25.3669349 L45.5100451,25.3669349 C44.7350451,25.3669349 44.0970451,25.1609349 43.4770451,24.6939349 C43.1330451,24.4349349 42.7930451,24.1639349 42.4280451,23.9349349 C42.1090451,23.7369349 41.7160451,23.4919349 41.3550451,23.3879349 C41.3220451,25.1929349 41.3530451,26.9999349 41.5070451,28.7999349 C41.6660451,30.6549349 42.1360451,32.4719349 42.2740451,34.3239349 C42.3870451,34.2899349 42.5000451,34.2579349 42.6140451,34.2279349 C42.6300451,34.3869349 42.6440451,34.5469349 42.6560451,34.7059349 C42.7690451,34.6719349 42.8820451,34.6399349 42.9960451,34.6089349 C43.0120451,34.7679349 43.0260451,34.9279349 43.0380451,35.0869349 C43.1500451,35.0529349 43.2630451,35.0209349 43.3770451,34.9909349 C43.3930451,35.1499349 43.4070451,35.3099349 43.4190451,35.4699349 C43.5410451,35.4329349 43.6650451,35.3979349 43.7890451,35.3649349 C43.8070451,35.5389349 43.8220451,35.7119349 43.8350451,35.8869349 C44.7950451,35.5959349 45.7970451,35.4319349 46.7840451,35.4319349 C48.1470451,35.4319349 49.4820451,35.7449349 50.6390451,36.4739349 C50.8560451,37.1629349 50.5430451,37.9809349 49.8070451,38.2799349 C49.6460451,38.3449349 49.4640451,38.3639349 49.2730451,38.3639349 C49.1380451,38.3639349 48.9990451,38.3549349 48.8600451,38.3449349 C48.7200451,38.3359349 48.5810451,38.3259349 48.4460451,38.3259349 C48.0660451,38.3259349 47.7190451,38.4009349 47.5010451,38.7589349 L47.4610451,38.8259349 C46.8430451,39.8399349 45.8880451,41.4079349 44.3370451,41.9889349 C44.0480451,43.1379349 43.1830451,44.0189349 42.2470451,44.6889349 C41.8580451,44.9699349 41.4480451,45.2179349 41.0330451,45.4599349 C40.4740451,45.7859349 40.4100451,46.2929349 40.4730451,46.9149349 C40.6930451,47.8409349 39.9530451,48.7099349 39.0450451,48.7099349" id="Fill-52" fill="#334037"></path>
                <path d="M0.286045057,25.7599349 C1.16404506,27.1689349 2.97704506,26.2549349 3.80304506,25.3199349 C4.65104506,25.3909349 5.23204506,24.9309349 5.82704506,24.4099349 C6.54104506,24.3869349 7.19904506,24.3069349 7.78704506,23.8539349 C8.45704506,23.3409349 8.98904506,22.6729349 9.81104506,22.3849349 C10.4700451,24.8859349 11.4250451,27.3159349 12.6360451,29.6009349 C13.6530451,31.5199349 14.8930451,33.3359349 16.4940451,34.8159349 C19.6410451,37.7239349 23.8030451,39.2629349 27.9930451,39.8719349 C30.6670451,40.2599349 33.4280451,40.3419349 36.1000451,39.9189349 C35.5440451,41.7859349 35.4180451,43.8559349 36.2340451,45.6719349 C36.6230451,46.5429349 37.3990451,47.9119349 38.4300451,48.0889349 C39.4440451,48.2619349 40.3440451,47.3209349 40.1040451,46.3149349 C40.0410451,45.6899349 40.1050451,45.1859349 40.6640451,44.8599349 C41.0780451,44.6169349 41.4890451,44.3689349 41.8790451,44.0889349 C42.8150451,43.4169349 43.6790451,42.5369349 43.9680451,41.3859349 C45.5200451,40.8059349 46.4720451,39.2399349 47.0920451,38.2239349 L47.1320451,38.1589349 C47.6160451,37.3649349 48.7340451,37.9659349 49.4390451,37.6789349 C50.4300451,37.2769349 50.6540451,35.9239349 49.8420451,35.2239349 C47.7350451,33.0919349 44.6480451,32.8949349 41.9050451,33.7239349 C41.7690451,31.8699349 41.2980451,30.0539349 41.1370451,28.1999349 C40.9840451,26.3999349 40.9550451,24.5929349 40.9870451,22.7869349 C41.3470451,22.8909349 41.7400451,23.1369349 42.0590451,23.3349349 C42.4260451,23.5619349 42.7640451,23.8329349 43.1080451,24.0929349 C43.7290451,24.5599349 44.3650451,24.7669349 45.1400451,24.7669349 L45.3310451,24.7669349 L45.4900451,24.7699349 C46.0760451,25.2569349 46.7280451,25.6159349 47.5180451,25.4739349 C48.4140451,26.3679349 50.3290451,27.1239349 51.0860451,25.6459349 C51.4990451,24.8349349 51.2210451,24.0619349 50.8650451,23.2819349 C50.5240451,22.5319349 50.0720451,21.8369349 49.5610451,21.1929349 C47.4640451,18.5409349 44.5540451,16.5129349 41.4440451,15.2309349 C41.6590451,11.0269349 41.3030451,6.35093492 37.9160451,3.38693492 C36.2890451,1.96293492 34.2310451,1.13193492 32.1440451,0.646934921 C29.6610451,0.0709349215 27.0850451,-0.0890650785 24.5430451,0.0439349215 C20.4660451,0.257934921 16.1120451,1.10193492 13.0300451,3.98493492 C10.3040451,6.53493492 9.13104506,10.2729349 8.89504506,13.9129349 C8.87804506,14.1729349 8.86604506,14.4329349 8.85704506,14.6939349 C6.55504506,15.8699349 4.51704506,17.5169349 2.80904506,19.4549349 C2.06004506,20.3049349 1.37004506,21.2159349 0.836045057,22.2189349 C0.290045057,23.2449349 -0.397954943,24.6609349 0.286045057,25.7599349 C0.403045057,25.9489349 0.144045057,25.5339349 0.286045057,25.7599349" id="Fill-53" fill="#FFFFFE"></path>
                <path d="M42.9980451,17.5599349 C41.8610451,16.9139349 40.5430451,16.4089349 39.3040451,15.9889349 C38.6070451,15.7529349 37.4650451,15.2809349 36.7180451,15.5639349 C34.9600451,16.2289349 37.2620451,19.4169349 37.8480451,20.2309349 C38.9760451,21.8069349 40.6920451,20.7379349 42.1500451,21.7409349 C42.9340451,22.0699349 43.5770451,22.6409349 44.2910451,23.1549349 C44.8110451,23.5279349 45.3620451,23.1569349 45.9070451,23.3289349 C46.4900451,23.5149349 46.8250451,24.3069349 47.5060451,23.9869349 C47.9240451,23.7909349 48.3040451,24.1849349 48.5630451,24.4559349 C48.7970451,24.6999349 49.1020451,24.8729349 49.4190451,24.9799349 C49.5140451,25.0119349 49.6140451,25.0309349 49.7140451,25.0329349 L49.7870451,24.9819349 C49.8450451,24.8699349 49.8660451,24.7849349 49.8660451,24.7849349 C49.2960451,22.6739349 46.6330451,19.6249349 42.9980451,17.5599349" id="Fill-54" fill="#1D2848"></path>
                <path d="M40.4750451,19.3489349 C40.5090451,19.5519349 40.6980451,19.6929349 40.9010451,19.6609349 C41.1030451,19.6299349 41.2430451,19.4389349 41.2130451,19.2369349 C41.1800451,19.0329349 40.9910451,18.8929349 40.7890451,18.9259349 C40.5850451,18.9559349 40.4450451,19.1459349 40.4750451,19.3489349" id="Fill-55" fill="#314A76"></path>
                <path d="M42.5610451,20.7849349 C42.5930451,21.0009349 42.7990451,21.1519349 43.0140451,21.1189349 C43.2320451,21.0859349 43.3810451,20.8819349 43.3480451,20.6629349 C43.3140451,20.4469349 43.1110451,20.2969349 42.8930451,20.3299349 C42.6760451,20.3629349 42.5270451,20.5669349 42.5610451,20.7849349" id="Fill-56" fill="#314A76"></path>
                <path d="M42.2100451,18.4949349 C42.2430451,18.7109349 42.4450451,18.8609349 42.6640451,18.8279349 C42.8810451,18.7949349 43.0300451,18.5919349 42.9970451,18.3729349 C42.9630451,18.1569349 42.7610451,18.0059349 42.5430451,18.0399349 C42.3260451,18.0729349 42.1760451,18.2769349 42.2100451,18.4949349" id="Fill-57" fill="#314A76"></path>
                <path d="M45.5770451,21.8179349 C45.6020451,21.9789349 45.7530451,22.0899349 45.9150451,22.0649349 C46.0750451,22.0409349 46.1860451,21.8879349 46.1620451,21.7279349 C46.1370451,21.5649349 45.9860451,21.4559349 45.8230451,21.4799349 C45.6630451,21.5039349 45.5520451,21.6559349 45.5770451,21.8179349" id="Fill-58" fill="#314A76"></path>
                <path d="M1.52304506,24.9879349 L1.60004506,25.0329349 C1.69904506,25.0209349 1.79604506,24.9969349 1.88904506,24.9559349 C2.19904506,24.8249349 2.48704506,24.6279349 2.70204506,24.3679349 C2.93804506,24.0779349 3.28904506,23.6549349 3.72004506,23.8189349 C4.42404506,24.0839349 4.69504506,23.2689349 5.26204506,23.0369349 C5.79204506,22.8219349 6.36904506,23.1489349 6.85804506,22.7369349 C7.76604506,21.9689349 8.53204506,21.1079349 9.74904506,20.8489349 C10.3100451,20.7289349 10.8820451,20.6729349 11.4470451,20.5699349 C11.6190451,20.5379349 11.7980451,20.5059349 11.9790451,20.4639349 C12.7400451,18.5279349 14.3520451,14.4219349 14.3520451,14.4219349 C14.3520451,14.4219349 11.1740451,14.7149349 7.71104506,17.0579349 C4.24904506,19.4019349 1.83504506,22.6479349 1.42804506,24.7969349 C1.42804506,24.7969349 1.45604506,24.8819349 1.52304506,24.9879349" id="Fill-59" fill="#1D2848"></path>
                <path d="M9.78604506,19.1529349 C9.76604506,19.3579349 9.58404506,19.5069349 9.38004506,19.4879349 C9.17504506,19.4669349 9.02504506,19.2859349 9.04504506,19.0809349 C9.06404506,18.8749349 9.24704506,18.7259349 9.45304506,18.7449349 C9.65504506,18.7659349 9.80504506,18.9479349 9.78604506,19.1529349" id="Fill-60" fill="#314A76"></path>
                <path d="M7.78504506,20.6999349 C7.76304506,20.9209349 7.56904506,21.0799349 7.34804506,21.0579349 C7.13004506,21.0369349 6.97104506,20.8429349 6.99104506,20.6229349 C7.01204506,20.4049349 7.20704506,20.2449349 7.42804506,20.2649349 C7.64504506,20.2869349 7.80404506,20.4819349 7.78504506,20.6999349" id="Fill-61" fill="#314A76"></path>
                <path d="M8.00904506,18.3959349 C7.98704506,18.6139349 7.79304506,18.7739349 7.57304506,18.7529349 C7.35404506,18.7319349 7.19504506,18.5359349 7.21504506,18.3169349 C7.23604506,18.0979349 7.43104506,17.9389349 7.65204506,17.9589349 C7.87004506,17.9809349 8.03004506,18.1749349 8.00904506,18.3959349" id="Fill-62" fill="#314A76"></path>
                <path d="M48.8820451,36.3279349 C45.5070451,32.7669349 39.8670451,36.1739349 39.8670451,36.1739349 L38.6780451,37.6369349 C38.6780451,37.6369349 35.1750451,43.2159349 38.6780451,46.6509349 C38.6780451,46.6509349 38.3410451,44.5619349 39.5540451,43.8229349 C40.5620451,43.2069349 42.8900451,42.0869349 42.5830451,40.1519349 C44.3540451,40.2479349 45.4330451,38.1069349 46.0390451,37.1569349 C46.8000451,35.9559349 48.8820451,36.3279349 48.8820451,36.3279349" id="Fill-64" fill="#1D2848"></path>
                <path d="M39.5750451,21.1639349 C39.7870451,15.5209349 41.6830451,7.23593492 35.8190451,3.64793492 C34.4080451,2.78593492 32.6070451,2.17293492 30.9770451,1.90093492 C29.1420451,1.59593492 27.1540451,1.40393492 25.2940451,1.47093492 C20.2220451,1.64893492 14.5530451,2.77593492 12.0030451,7.71793492 C9.51504506,12.5369349 10.0810451,18.5129349 11.6520451,23.5159349 C12.1070451,24.9599349 12.6830451,26.3849349 13.3360451,27.7499349 C14.2940451,29.7539349 15.4290451,31.6799349 16.9970451,33.2729349 C17.9260451,34.2179349 19.0460451,35.0769349 20.1970451,35.7369349 C22.9560451,37.3149349 26.0130451,38.2099349 29.1680451,38.5489349 C31.8700451,38.8419349 34.6370451,38.8489349 37.2930451,38.1989349 C38.2710451,37.9589349 39.5100451,37.4499349 40.0160451,36.4949349 C40.9420451,34.7549349 40.2140451,32.4169349 39.9460451,30.5929349 C39.4880451,27.4669349 39.4560451,24.3169349 39.5750451,21.1639349" id="Fill-65" fill="#25345A"></path>
                <path d="M36.7820451,25.0229349 C36.5300451,22.6159349 36.5320451,20.1559349 35.3820451,17.9509349 C34.2150451,15.7129349 32.0540451,14.5299349 29.6140451,14.1689349 C26.0240451,13.6379349 21.3330451,13.4959349 18.4030451,16.0369349 C14.9400451,19.0439349 15.9110451,24.1469349 17.4000451,27.8809349 C18.9180451,31.6849349 21.4680451,35.3069349 25.2820451,37.1579349 C26.3310451,37.6639349 27.4930451,38.0509349 28.6390451,38.2889349 C30.4290451,38.6589349 32.4350451,38.7629349 34.2590451,38.5689349 C34.2590451,38.5689349 38.8570451,38.66479 40.0170451,36.4949349 C40.6170451,35.3709349 39.4380451,34.6179349 38.6930451,33.1349349 C37.4170451,30.5949349 37.0770451,27.8139349 36.7820451,25.0229349" id="Fill-66" fill="#D6D7DE"></path>
                <path d="M19.4940451,7.65493492 C19.4940451,8.22993492 19.0280451,8.69593492 18.4530451,8.69593492 C17.8770451,8.69593492 17.4110451,8.22993492 17.4110451,7.65493492 C17.4110451,7.07893492 17.8770451,6.61293492 18.4530451,6.61293492 C19.0280451,6.61293492 19.4940451,7.07893492 19.4940451,7.65493492" id="Fill-67" fill="#040C13"></path>
                <path d="M18.3780451,7.32993492 C18.3780451,7.50893492 18.2320451,7.65493492 18.0540451,7.65493492 C17.8730451,7.65493492 17.7280451,7.50893492 17.7280451,7.32993492 C17.7280451,7.15093492 17.8730451,7.00493492 18.0540451,7.00493492 C18.2320451,7.00493492 18.3780451,7.15093492 18.3780451,7.32993492" id="Fill-68" fill="#FFFFFE"></path>
                <polyline id="Fill-69" fill="#FFFFFE" points="18.0130451 8.01293492 17.8720451 8.15493492 17.7280451 8.01293492 17.8720451 7.87193492 18.0130451 8.01293492"></polyline>
                <path d="M34.6440451,7.65493492 C34.6440451,8.22993492 34.1770451,8.69593492 33.6030451,8.69593492 C33.0270451,8.69593492 32.5600451,8.22993492 32.5600451,7.65493492 C32.5600451,7.07893492 33.0270451,6.61293492 33.6030451,6.61293492 C34.1770451,6.61293492 34.6440451,7.07893492 34.6440451,7.65493492" id="Fill-70" fill="#040C13"></path>
                <path d="M33.5290451,7.32993492 C33.5290451,7.50893492 33.3830451,7.65493492 33.2040451,7.65493492 C33.0240451,7.65493492 32.8800451,7.50893492 32.8800451,7.32993492 C32.8800451,7.15093492 33.0240451,7.00493492 33.2040451,7.00493492 C33.3830451,7.00493492 33.5290451,7.15093492 33.5290451,7.32993492" id="Fill-71" fill="#FFFFFE"></path>
                <polyline id="Fill-72" fill="#FFFFFE" points="33.1630451 8.01293492 33.0210451 8.15493492 32.8800451 8.01293492 33.0210451 7.87193492 33.1630451 8.01293492"></polyline>
                <path d="M17.7620451,10.2269349 C17.7620451,10.2269349 24.3760451,13.9189349 32.8430451,9.86593492 C32.8430451,9.86593492 31.1750451,12.8739349 25.3020451,13.1499349 C19.7870451,13.4109349 17.7620451,10.2269349 17.7620451,10.2269349" id="Fill-73" fill="#57171A"></path>
                <path d="M17.1700451,17.4589349 C17.1700451,17.4589349 17.1620451,18.0119349 17.2260451,18.9759349 C17.2870451,19.9419349 17.4260451,21.3189349 17.7250451,22.9489349 C18.0240451,24.5759349 18.5020451,26.4589349 19.2750451,28.3759349 C19.6650451,29.3339349 20.1310451,30.2979349 20.6890451,31.2259349 C21.2480451,32.1549349 21.9010451,33.0469349 22.6500451,33.8529349 C23.3930451,34.6619349 24.2380451,35.3759349 25.1510451,35.9589349 C26.0600451,36.5489349 27.0320451,36.9979349 28.0100451,37.3279349 C28.9860451,37.6589349 29.9640451,37.8789349 30.9000451,38.0129349 C31.8390451,38.1489349 32.7360451,38.1969349 33.5620451,38.1949349 C35.2200451,38.1929349 36.5930451,38.0089349 37.5440451,37.8359349 C38.0180451,37.7489349 38.3890451,37.6659349 38.6410451,37.6049349 C38.8940451,37.5429349 39.0270451,37.5079349 39.0270451,37.5079349 C39.0270451,37.5079349 38.8940451,37.5449349 38.6430451,37.6139349 C38.3930451,37.6769349 38.0240451,37.7669349 37.5490451,37.8629349 C36.6010451,38.0489349 35.2270451,38.2689349 33.5630451,38.2859349 C32.7320451,38.2949349 31.8290451,38.2569349 30.8830451,38.1319349 C29.9410451,38.0039349 28.9510451,37.7959349 27.9650451,37.4619349 C26.9760451,37.1329349 25.9900451,36.6789349 25.0690451,36.0879349 C24.1440451,35.4989349 23.2860451,34.7779349 22.5320451,33.9629349 C21.7760451,33.1449349 21.1200451,32.2419349 20.5600451,31.3039349 C19.9990451,30.3659349 19.5320451,29.3929349 19.1450451,28.4279349 C18.3720451,26.4959349 17.9220451,24.5979349 17.6350451,22.9649349 C17.3500451,21.3279349 17.2460451,19.9449349 17.1990451,18.9789349 C17.1530451,18.0119349 17.1700451,17.4589349 17.1700451,17.4589349" id="Fill-74" fill="#1D2848"></path>
                <path d="M19.1450451,15.4749349 C19.1450451,15.4749349 19.1490451,15.6109349 19.1570451,15.8659349 C19.1660451,16.1199349 19.1820451,16.4939349 19.2170451,16.9669349 C19.2490451,17.4419349 19.3020451,18.0159349 19.3720451,18.6729349 C19.4090451,19.0029349 19.4540451,19.3509349 19.4990451,19.7209349 C19.5540451,20.0869349 19.6000451,20.4739349 19.6680451,20.8759349 C19.7330451,21.2769349 19.7960451,21.6949349 19.8810451,22.1259349 C19.9230451,22.3429349 19.9640451,22.5609349 20.0050451,22.7839349 C20.0520451,23.0059349 20.0990451,23.2299349 20.1500451,23.4579349 C20.3430451,24.3699349 20.5950451,25.3199349 20.8730451,26.2979349 C21.1710451,27.2689349 21.4930451,28.2689349 21.9060451,29.2519349 C22.3220451,30.2269349 22.9090451,31.1489349 23.5800451,31.9909349 C24.2500451,32.8379349 25.0420451,33.5839349 25.8760451,34.2419349 C26.7130451,34.9009349 27.6070451,35.4539349 28.5140451,35.9099349 C30.3250451,36.8249349 32.1710451,37.3519349 33.7770451,37.5789349 C34.5820451,37.6929349 35.3280451,37.7399349 35.9870451,37.7489349 C36.3190451,37.7419349 36.6280451,37.7449349 36.9140451,37.7219349 C37.1990451,37.7109349 37.4610451,37.6839349 37.6970451,37.6589349 C37.9320451,37.6389349 38.1410451,37.5989349 38.3250451,37.5739349 C38.5070451,37.5499349 38.6600451,37.5179349 38.7850451,37.4919349 C39.0350451,37.4419349 39.1690451,37.4159349 39.1690451,37.4159349 C39.1690451,37.4159349 39.0360451,37.4439349 38.7880451,37.4999349 C38.6640451,37.5269349 38.5090451,37.5619349 38.3270451,37.5899349 C38.1450451,37.6179349 37.9360451,37.6609349 37.6990451,37.6859349 C37.4640451,37.7149349 37.2030451,37.7489349 36.9160451,37.7639349 C36.6290451,37.7929349 36.3190451,37.7959349 35.9870451,37.8069349 C35.3260451,37.8109349 34.5760451,37.7779349 33.7640451,37.6679349 C32.1480451,37.4569349 30.2800451,36.9549349 28.4510451,36.0349349 C27.5360451,35.5789349 26.6300451,35.0259349 25.7830451,34.3629349 C24.9380451,33.7009349 24.1370451,32.9479349 23.4560451,32.0929349 C22.7740451,31.2359349 22.1870451,30.3039349 21.7670451,29.3099349 C21.3540451,28.3189349 21.0340451,27.3129349 20.7360451,26.3369349 C20.4610451,25.3549349 20.2190451,24.3979349 20.0340451,23.4819349 C19.9860451,23.2529349 19.9410451,23.0269349 19.8960451,22.8049349 C19.8560451,22.5809349 19.8180451,22.3609349 19.7790451,22.1439349 C19.6980451,21.7119349 19.6380451,21.2919349 19.5760451,20.8879349 C19.5160451,20.4859349 19.4710451,20.0969349 19.4230451,19.7299349 C19.3830451,19.3589349 19.3450451,19.0089349 19.3140451,18.6789349 C19.2570451,18.0189349 19.2140451,17.4439349 19.1910451,16.9689349 C19.1640451,16.4939349 19.1540451,16.1199349 19.1490451,15.8659349 C19.1460451,15.6109349 19.1450451,15.4749349 19.1450451,15.4749349" id="Fill-75" fill="#1D2848"></path>
                <path d="M39.2410451,37.3619349 C39.2410451,37.3619349 39.1140451,37.3899349 38.8750451,37.4419349 C38.6350451,37.4819349 38.2790451,37.5419349 37.8210451,37.5569349 C36.9100451,37.5969349 35.5920451,37.5049349 34.0750451,37.0939349 C33.3180451,36.8869349 32.5130451,36.6049349 31.6910451,36.2429349 C30.8670451,35.8799349 30.0310451,35.4229349 29.2160451,34.8749349 C28.3980451,34.3319349 27.6110451,33.6829349 26.8810451,32.9549349 C26.1490451,32.2259349 25.4940451,31.3999349 24.9330451,30.5139349 C24.7910451,30.2889349 24.6670451,30.0639349 24.5360451,29.8359349 C24.4200451,29.5999349 24.2900451,29.3699349 24.1830451,29.1319349 C24.0760451,28.8959349 23.9640451,28.6589349 23.8700451,28.4159349 L23.7210451,28.0569349 L23.5890451,27.6939349 C23.2360451,26.7249349 22.9650451,25.7469349 22.7470451,24.7919349 C22.3180451,22.8779349 22.1130451,21.0569349 21.9920451,19.4949349 C21.8720451,17.9329349 21.8640451,16.6279349 21.8680451,15.7159349 C21.8770451,14.8029349 21.9060451,14.2819349 21.9060451,14.2819349 C21.9060451,14.2819349 21.8870451,14.8029349 21.8950451,15.7159349 C21.9040451,16.6269349 21.9510451,17.9309349 22.0820451,19.4889349 C22.2170451,21.0449349 22.4520451,22.8569349 22.8850451,24.7609349 C23.1030451,25.7099349 23.3780451,26.6819349 23.7300451,27.6409349 C24.0880451,28.6029349 24.5130451,29.5479349 25.0690451,30.4279349 C25.6220451,31.3039349 26.2660451,32.1259349 26.9870451,32.8489349 C27.7080451,33.5709349 28.4860451,34.2179349 29.2950451,34.7589349 C30.1030451,35.3019349 30.9260451,35.7669349 31.7390451,36.1339349 C32.5530451,36.5049349 33.3480451,36.7919349 34.0980451,37.0049349 C34.8500451,37.2149349 35.5540451,37.3539349 36.1820451,37.4369349 C36.8110451,37.5179349 37.3650451,37.5409349 37.8200451,37.5289349 C38.2760451,37.5229349 38.6320451,37.4699349 38.8730451,37.4349349 C39.1140451,37.3879349 39.2410451,37.3619349 39.2410451,37.3619349" id="Fill-76" fill="#1D2848"></path>
                <path d="M24.9000451,13.8669349 C24.9000451,13.8669349 24.8750451,14.3469349 24.8690451,15.1869349 C24.8630451,16.0279349 24.8830451,17.2289349 24.9700451,18.6649349 C25.0150451,19.3839349 25.0820451,20.1599349 25.1750451,20.9789349 C25.2190451,21.3899349 25.2870451,21.8069349 25.3440451,22.2369349 C25.4070451,22.6639349 25.4870451,23.0989349 25.5620451,23.5429349 C25.6530451,23.9819349 25.7460451,24.4289349 25.8480451,24.8799349 C25.9080451,25.1029349 25.9680451,25.3279349 26.0260451,25.5539349 C26.0880451,25.7779349 26.1390451,26.0079349 26.2190451,26.2299349 C26.3710451,26.6759349 26.4960451,27.1359349 26.6860451,27.5729349 C26.7760451,27.7919349 26.8650451,28.0149349 26.9540451,28.2369349 C27.0530451,28.4469349 27.1650451,28.6639349 27.2690451,28.8789349 C27.4670451,29.3189349 27.7250451,29.7189349 27.9650451,30.1289349 C28.0790451,30.3379349 28.2280451,30.5239349 28.3590451,30.7199349 C28.4980451,30.9129349 28.6260451,31.1119349 28.7700451,31.2979349 C28.9190451,31.4789349 29.0660451,31.6619349 29.2140451,31.8439349 C29.2870451,31.9339349 29.3590451,32.0239349 29.4330451,32.1129349 L29.6710451,32.3669349 C29.8280451,32.5339349 29.9850451,32.7029349 30.1400451,32.8699349 C30.3020451,33.0289349 30.4700451,33.1809349 30.6340451,33.3359349 C30.9510451,33.6529349 31.3030451,33.9199349 31.6320451,34.1989349 C31.7940451,34.3419349 31.9710451,34.4599349 32.1410451,34.5859349 C32.3110451,34.7089349 32.4790451,34.8339349 32.6460451,34.9539349 C32.8190451,35.0649349 32.9910451,35.1749349 33.1590451,35.2809349 C33.3290451,35.3879349 33.4900451,35.4989349 33.6630451,35.5889349 C34.0030451,35.7709349 34.3220451,35.9679349 34.6520451,36.1139349 C34.8130451,36.1899349 34.9720451,36.2659349 35.1270451,36.3389349 C35.2830451,36.4149349 35.4420451,36.4679349 35.5940451,36.5319349 C35.7440451,36.5939349 35.8940451,36.6529349 36.0370451,36.7109349 C36.1820451,36.7629349 36.3280451,36.8059349 36.4660451,36.8529349 C36.6050451,36.8979349 36.7400451,36.9399349 36.8690451,36.9809349 C37.0000451,37.0219349 37.1290451,37.0479349 37.2520451,37.0789349 C37.4970451,37.1359349 37.7200451,37.2029349 37.9300451,37.2259349 C38.1370451,37.2599349 38.3220451,37.2879349 38.4840451,37.3149349 C38.6460451,37.3279349 38.7850451,37.3319349 38.8960451,37.3409349 C39.1220451,37.3539349 39.2410451,37.3619349 39.2410451,37.3619349 C39.2410451,37.3619349 39.1220451,37.3579349 38.8960451,37.3479349 C38.7840451,37.3419349 38.6450451,37.3389349 38.4830451,37.3289349 C38.3200451,37.3069349 38.1340451,37.2819349 37.9260451,37.2529349 C37.7150451,37.2339349 37.4890451,37.1719349 37.2420451,37.1199349 C37.1180451,37.0899349 36.9870451,37.0669349 36.8550451,37.0309349 C36.7240451,36.9909349 36.5890451,36.9509349 36.4490451,36.9089349 C36.3070451,36.8639349 36.1610451,36.8249349 36.0140451,36.7729349 C35.8670451,36.7199349 35.7190451,36.6629349 35.5640451,36.6039349 C35.4110451,36.5429349 35.2510451,36.4909349 35.0940451,36.4169349 C34.9370451,36.3459349 34.7750451,36.2719349 34.6130451,36.1959349 C34.2790451,36.0539349 33.9560451,35.8599349 33.6110451,35.6789349 C33.4360451,35.5909349 33.2720451,35.4809349 33.0990451,35.3759349 C32.9290451,35.2689349 32.7560451,35.1609349 32.5800451,35.0519349 C32.4110451,34.9319349 32.2420451,34.8109349 32.0660451,34.6869349 C31.8950451,34.5629349 31.7150451,34.4449349 31.5470451,34.3039349 C31.2130451,34.0279349 30.8590451,33.7549349 30.5360451,33.4389349 C30.3720451,33.2829349 30.2010451,33.1319349 30.0380451,32.9709349 C29.8810451,32.8039349 29.7230451,32.6349349 29.5620451,32.4649349 L29.3240451,32.2099349 C29.2470451,32.1219349 29.1750451,32.0299349 29.1000451,31.9379349 C28.9500451,31.7559349 28.8020451,31.5739349 28.6500451,31.3899349 C28.5030451,31.2019349 28.3740451,31.0019349 28.2330451,30.8079349 C28.0990451,30.6099349 27.9480451,30.4229349 27.8310451,30.2119349 C27.5890451,29.7959349 27.3200451,29.3879349 27.1230451,28.9509349 C27.0180451,28.7319349 26.9120451,28.5229349 26.8070451,28.2999349 C26.7200451,28.0779349 26.6300451,27.8519349 26.5400451,27.6279349 C26.3490451,27.1869349 26.2240451,26.7239349 26.0740451,26.2729349 C25.9970451,26.0499349 25.9430451,25.8189349 25.8820451,25.5919349 C25.8250451,25.3659349 25.7640451,25.1389349 25.7060451,24.9139349 C25.6050451,24.4589349 25.5130451,24.0099349 25.4240451,23.5679349 C25.3510451,23.1219349 25.2700451,22.6859349 25.2120451,22.2549349 C25.1590451,21.8239349 25.0960451,21.4049349 25.0580451,20.9919349 C24.9730451,20.1709349 24.9160451,19.3909349 24.8810451,18.6709349 C24.8050451,17.2299349 24.8210451,16.0269349 24.8430451,15.1869349 C24.8650451,14.3459349 24.9000451,13.8669349 24.9000451,13.8669349" id="Fill-77" fill="#1D2848"></path>
                <path d="M27.9160451,13.9619349 C27.9160451,13.9619349 27.9110451,14.4039349 27.9280451,15.1749349 C27.9410451,15.9449349 27.9820451,17.0459349 28.0590451,18.3659349 C28.0970451,19.0249349 28.1520451,19.7399349 28.2200451,20.4929349 C28.2600451,20.8689349 28.2940451,21.2559349 28.3420451,21.6499349 C28.3940451,22.0439349 28.4330451,22.4479349 28.4930451,22.8559349 C28.6100451,23.6719349 28.7440451,24.5139349 28.9300451,25.3599349 C28.9770451,25.5719349 29.0250451,25.7829349 29.0720451,25.9949349 C29.1160451,26.2089349 29.1830451,26.4169349 29.2420451,26.6279349 C29.3020451,26.8369349 29.3510451,27.0509349 29.4210451,27.2599349 L29.6370451,27.8809349 C29.9300451,28.7059349 30.3030451,29.5039349 30.7240451,30.2559349 C31.1470451,31.0099349 31.6270451,31.7129349 32.1450451,32.3529349 C33.1830451,33.6319349 34.3610451,34.6439349 35.4580451,35.3709349 C36.5560451,36.1029349 37.5570451,36.5749349 38.2760451,36.8489349 C38.6370451,36.9889349 38.9240451,37.0799349 39.1230451,37.1379349 C39.2220451,37.1649349 39.2990451,37.1859349 39.3510451,37.1969349 L39.4300451,37.2129349 L39.3500451,37.1979349 C39.2980451,37.1879349 39.2210451,37.1699349 39.1220451,37.1439349 C38.9200451,37.0919349 38.6310451,37.0049349 38.2660451,36.8749349 C37.5430451,36.6119349 36.5210451,36.1719349 35.4080451,35.4479349 C34.2970451,34.7269349 33.0890451,33.7289349 32.0370451,32.4409349 C31.5110451,31.7999349 31.0220451,31.0889349 30.5920451,30.3309349 C30.1630451,29.5729349 29.7840451,28.7679349 29.4840451,27.9349349 L29.2680451,27.3069349 C29.2000451,27.0959349 29.1490451,26.8809349 29.0910451,26.6689349 C29.0340451,26.4559349 28.9670451,26.2459349 28.9220451,26.0319349 C28.8750451,25.8179349 28.8290451,25.6039349 28.7810451,25.3909349 C28.5990451,24.5409349 28.4690451,23.6939349 28.3530451,22.8749349 C28.2980451,22.4659349 28.2560451,22.0609349 28.2100451,21.6639349 C28.1680451,21.2689349 28.1370451,20.8789349 28.1030451,20.5029349 C28.0460451,19.7469349 28.0000451,19.0319349 27.9690451,18.3709349 C27.9360451,17.7089349 27.9190451,17.1029349 27.9100451,16.5659349 C27.9010451,16.0279349 27.8980451,15.5599349 27.9000451,15.1749349 C27.9010451,14.4039349 27.9160451,13.9619349 27.9160451,13.9619349" id="Fill-78" fill="#1D2848"></path>
                <path d="M30.8100451,14.4219349 C30.8100451,14.4219349 30.7970451,14.8249349 30.7890451,15.5299349 C30.7880451,15.8839349 30.7860451,16.3129349 30.7910451,16.8039349 C30.7950451,17.2959349 30.8040451,17.8499349 30.8210451,18.4559349 C30.8540451,19.6649349 30.9290451,21.0749349 31.0740451,22.5789349 C31.1150451,22.9549349 31.1470451,23.3379349 31.2040451,23.7219349 C31.2280451,23.9159349 31.2550451,24.1089349 31.2790451,24.3039349 C31.3040451,24.4979349 31.3440451,24.6939349 31.3730451,24.8879349 C31.4060451,25.0839349 31.4400451,25.2799349 31.4720451,25.4769349 C31.5130451,25.6709349 31.5530451,25.8669349 31.5950451,26.0639349 C31.6680451,26.4589349 31.7840451,26.8429349 31.8840451,27.2319349 L31.9220451,27.3789349 L31.9680451,27.5189349 L32.0620451,27.8069349 C32.1270451,27.9979349 32.1840451,28.1919349 32.2560451,28.3779349 C32.3280451,28.5629349 32.4030451,28.7489349 32.4760451,28.9339349 L32.5880451,29.2099349 L32.7120451,29.4789349 C32.7950451,29.6579349 32.8800451,29.8379349 32.9620451,30.0139349 C33.0470451,30.1919349 33.1440451,30.3609349 33.2350451,30.5319349 C33.4110451,30.8759349 33.6130451,31.2019349 33.8100451,31.5239349 C33.9050451,31.6869349 34.0120451,31.8419349 34.1150451,31.9949349 C34.2200451,32.1479349 34.3210451,32.2999349 34.4240451,32.4489349 C34.6390451,32.7399349 34.8480451,33.0299349 35.0650451,33.2989349 C35.2870451,33.5629349 35.4940451,33.8299349 35.7190451,34.0649349 C35.8290451,34.1839349 35.9360451,34.3039349 36.0420451,34.4189349 C36.1520451,34.5319349 36.2630451,34.6369349 36.3680451,34.7449349 C36.4770451,34.8499349 36.5790451,34.9569349 36.6870451,35.0519349 C36.7970451,35.1499349 36.9000451,35.2429349 37.0030451,35.3349349 C37.2040451,35.5239349 37.4160451,35.6769349 37.6050451,35.8329349 C37.7950451,35.9889349 37.9920451,36.1089349 38.1620451,36.2319349 C38.3370451,36.3549349 38.5120451,36.4439349 38.6600451,36.5369349 L38.8820451,36.6529349 L39.0830451,36.7469349 L39.2540451,36.8259349 L39.4040451,36.8769349 C39.5830451,36.9369349 39.6800451,36.9709349 39.6800451,36.9709349 C39.6800451,36.9709349 39.5820451,36.9419349 39.4010451,36.8839349 L39.2510451,36.8359349 L39.0770451,36.7609349 L38.8730451,36.6719349 L38.6480451,36.5599349 C38.4960451,36.4709349 38.3190451,36.3859349 38.1390451,36.2679349 C37.9660451,36.1479349 37.7650451,36.0309349 37.5690451,35.8789349 C37.3750451,35.7269349 37.1580451,35.5789349 36.9530451,35.3929349 C36.7410451,35.2149349 36.5210451,35.0259349 36.3050451,34.8109349 C36.1960451,34.7039349 36.0820451,34.5989349 35.9710451,34.4869349 C35.8640451,34.3709349 35.7540451,34.2539349 35.6410451,34.1359349 C35.4110451,33.9009349 35.2000451,33.6369349 34.9720451,33.3739349 C34.7500451,33.1059349 34.5390451,32.8169349 34.3160451,32.5269349 C34.2120451,32.3769349 34.1070451,32.2249349 34.0010451,32.0719349 C33.8940451,31.9179349 33.7880451,31.7619349 33.6910451,31.5989349 C33.4930451,31.2749349 33.2860451,30.9489349 33.1070451,30.6009349 C33.0140451,30.4289349 32.9170451,30.2589349 32.8290451,30.0799349 C32.7440451,29.9029349 32.6600451,29.7219349 32.5740451,29.5419349 L32.4440451,29.2709349 L32.3330451,28.9909349 C32.2580451,28.8049349 32.1830451,28.6169349 32.1070451,28.4289349 C32.0340451,28.2409349 31.9760451,28.0469349 31.9100451,27.8569349 L31.8150451,27.5699349 L31.7670451,27.4229349 L31.7280451,27.2769349 C31.6290451,26.8839349 31.5130451,26.4939349 31.4420451,26.0959349 C31.4000451,25.8989349 31.3610451,25.7019349 31.3210451,25.5049349 C31.2890451,25.3069349 31.2560451,25.1099349 31.2230451,24.9129349 C31.1930451,24.7159349 31.1580451,24.5209349 31.1330451,24.3249349 C31.1070451,24.1299349 31.0830451,23.9339349 31.0580451,23.7409349 C31.0050451,23.3539349 30.9710451,22.9699349 30.9340451,22.5939349 C30.8620451,21.8389349 30.8200451,21.1079349 30.7880451,20.4139349 C30.7570451,19.7209349 30.7390451,19.0629349 30.7290451,18.4569349 C30.7200451,17.8519349 30.7240451,17.2959349 30.7320451,16.8039349 C30.7390451,16.3119349 30.7520451,15.8829349 30.7620451,15.5299349 C30.7870451,14.8249349 30.8100451,14.4219349 30.8100451,14.4219349" id="Fill-79" fill="#1D2848"></path>
                <path d="M33.6780451,15.8579349 C33.6780451,15.8579349 33.6950451,16.2089349 33.7270451,16.8219349 C33.7570451,17.4329349 33.8150451,18.3079349 33.8900451,19.3569349 C33.9260451,19.8819349 33.9730451,20.4479349 34.0260451,21.0489349 C34.0540451,21.3489349 34.0830451,21.6559349 34.1120451,21.9699349 C34.1450451,22.2859349 34.1790451,22.6059349 34.2120451,22.9329349 C34.2840451,23.5859349 34.3620451,24.2599349 34.4590451,24.9419349 C34.5020451,25.2839349 34.5580451,25.6259349 34.6140451,25.9709349 C34.6640451,26.3159349 34.7280451,26.6589349 34.7930451,27.0019349 C34.8260451,27.1759349 34.8530451,27.3479349 34.8900451,27.5179349 C34.9260451,27.6879349 34.9650451,27.8589349 35.0020451,28.0289349 C35.0680451,28.3719349 35.1600451,28.7059349 35.2490451,29.0369349 C35.3300451,29.3719349 35.4480451,29.6909349 35.5490451,30.0139349 C35.6460451,30.3389349 35.7770451,30.6439349 35.8900451,30.9499349 C36.1320451,31.5569349 36.4000451,32.1319349 36.6770451,32.6649349 C36.8190451,32.9279349 36.9670451,33.1809349 37.1070451,33.4269349 C37.2610451,33.6629349 37.3980451,33.8989349 37.5510451,34.1119349 C37.7030451,34.3249349 37.8440451,34.5349349 37.9950451,34.7209349 C38.0660451,34.8149349 38.1370451,34.9079349 38.2070451,34.9969349 L38.4190451,35.2489349 C38.6930451,35.5749349 38.9550451,35.8409349 39.1740451,36.0539349 C39.3980451,36.2629349 39.5770451,36.4229349 39.7090451,36.5239349 C39.8360451,36.6259349 39.9100451,36.6749349 39.9100451,36.6749349 C39.9100451,36.6749349 39.6100451,36.4879349 39.1530451,36.0769349 C38.9280451,35.8679349 38.6570451,35.6089349 38.3730451,35.2899349 L38.1530451,35.0409349 C38.0820451,34.9529349 38.0080451,34.8619349 37.9310451,34.7689349 C37.7750451,34.5859349 37.6330451,34.3769349 37.4750451,34.1639349 C37.3190451,33.9519349 37.1770451,33.7169349 37.0170451,33.4799349 C36.8730451,33.2379349 36.7200451,32.9849349 36.5720451,32.7209349 C36.4360451,32.4519349 36.2800451,32.1819349 36.1500451,31.8919349 C36.0840451,31.7489349 36.0170451,31.6029349 35.9510451,31.4539349 L35.8490451,31.2319349 L35.7600451,31.0019349 C35.6430451,30.6929349 35.5070451,30.3829349 35.4100451,30.0599349 C35.3070451,29.7399349 35.1850451,29.4149349 35.1030451,29.0779349 C35.0120451,28.7439349 34.9190451,28.4069349 34.8480451,28.0639349 C34.7710451,27.7219349 34.6940451,27.3789349 34.6340451,27.0329349 C34.5700451,26.6859349 34.5080451,26.3419349 34.4580451,25.9949349 C34.4060451,25.6499349 34.3500451,25.3039349 34.3090451,24.9619349 C34.2160451,24.2769349 34.1410451,23.6019349 34.0710451,22.9469349 C34.0410451,22.6209349 34.0120451,22.2979349 33.9810451,21.9819349 C33.9560451,21.6679349 33.9320451,21.3599349 33.9100451,21.0579349 C33.8650451,20.4569349 33.8270451,19.8879349 33.7990451,19.3629349 C33.7650451,18.8369349 33.7480451,18.3549349 33.7290451,17.9289349 C33.7170451,17.5019349 33.7050451,17.1289349 33.6950451,16.8219349 C33.6790451,16.2089349 33.6780451,15.8579349 33.6780451,15.8579349" id="Fill-80" fill="#1D2848"></path>
            </g>
        </g>
    </g>
</svg>