<?xml version="1.0" encoding="UTF-8"?>
<svg width="50px" height="54px" viewBox="0 0 50 54" version="1.1" xmlns="http://www.w3.org/2000/svg" xmlns:xlink="http://www.w3.org/1999/xlink">
    <title>Group</title>
    <defs>
        <path d="M29.331,48.29 C29.098,48.29 28.858,48.23 28.627,48.098 C28.406,47.973 28.214,47.784 28.042,47.572 C28.096,47.612 28.151,47.649 28.209,47.682 C28.44,47.814 28.681,47.874 28.914,47.874 C29.506,47.874 30.054,47.488 30.31,46.906 C31.538,44.108 32.779,41.306 33.861,38.448 L33.889,38.372 C36.903,38.258 39.913,37.976 42.915,37.709 C43.554,37.654 44.136,37.411 44.389,36.766 C44.775,35.781 43.895,34.82 43.271,34.15 C43.266,34.145 43.261,34.139 43.256,34.134 C43.405,34.272 43.549,34.416 43.688,34.565 C44.312,35.237 45.191,36.198 44.806,37.183 C44.553,37.828 43.971,38.07 43.331,38.126 C40.329,38.392 37.318,38.675 34.306,38.788 L34.278,38.865 C33.195,41.72 31.954,44.525 30.726,47.322 C30.471,47.904 29.922,48.29 29.331,48.29 L29.331,48.29 Z M24.618,39.207 C24.355,39.204 24.198,39.199 24.198,39.199 C23.29,39.154 22.376,39.011 21.481,38.854 C16.776,38.035 12.377,35.913 9.104,32.552 C12.329,35.672 16.557,37.653 21.064,38.437 C21.96,38.594 22.874,38.735 23.782,38.782 C23.782,38.782 24.061,38.792 24.497,38.792 C24.548,38.792 24.601,38.792 24.656,38.791 C24.642,38.93 24.629,39.068 24.618,39.207 L24.618,39.207 Z M3.414,30.585 C3.023,30.585 2.626,30.479 2.251,30.238 C2.031,30.098 1.858,29.932 1.723,29.748 C1.759,29.774 1.795,29.799 1.834,29.824 C2.209,30.063 2.605,30.169 2.996,30.169 C3.798,30.169 4.579,29.724 5.122,29.072 L5.538,28.567 C5.653,28.733 5.772,28.897 5.892,29.058 L5.539,29.488 C4.996,30.141 4.215,30.585 3.414,30.585 L3.414,30.585 Z M36.896,30.146 C36.831,30.131 36.766,30.116 36.701,30.102 C36.627,29.94 36.531,29.79 36.42,29.651 C36.601,29.799 36.763,29.964 36.896,30.146 L36.896,30.146 Z M33.901,27.504 C33.778,27.447 33.653,27.394 33.528,27.345 C33.441,26.829 33.355,26.278 33.272,25.69 C33.926,26.083 34.658,26.441 35.435,26.441 C35.512,26.441 35.589,26.438 35.667,26.431 C36.436,26.36 37.088,25.892 37.415,25.195 C38.247,23.423 37.19,21.468 36.296,19.956 L36.162,19.735 C35.749,19.032 35.253,18.375 34.688,17.778 C35.428,18.481 36.067,19.281 36.579,20.151 L36.712,20.373 C37.606,21.884 38.663,23.839 37.831,25.611 C37.505,26.305 36.853,26.776 36.084,26.847 C36.006,26.855 35.929,26.858 35.853,26.858 C35.076,26.858 34.342,26.5 33.688,26.106 C33.757,26.598 33.829,27.063 33.901,27.504 L33.901,27.504 Z M34.349,17.436 C34.33,17.417 34.311,17.399 34.291,17.38 C34.175,17.258 34.055,17.137 33.932,17.02 C34.988,16.184 36.84,15.545 36.738,13.909 C36.704,13.358 36.482,12.898 36.155,12.51 C36.701,12.975 37.107,13.563 37.155,14.326 C37.255,15.961 35.404,16.6 34.349,17.436 L34.349,17.436 Z M3.33,10.457 C3.274,10.453 3.218,10.445 3.163,10.434 L3.151,10.431 L3.15,10.431 L3.012,10.405 C2.871,10.375 2.728,10.346 2.586,10.319 L2.348,10.27 L2.349,10.266 C2.166,10.218 2.005,10.164 1.86,10.082 C1.199,9.802 0.584,9.348 0,8.714 C0.459,9.134 0.938,9.449 1.443,9.665 C1.588,9.748 1.75,9.802 1.933,9.849 L1.932,9.854 L2.169,9.9 C2.312,9.929 2.454,9.959 2.596,9.988 L2.734,10.014 L2.735,10.014 L2.747,10.017 C2.841,10.036 2.937,10.046 3.033,10.046 C3.143,10.046 3.253,10.033 3.362,10.008 C3.396,10.007 3.43,10.005 3.464,10.003 C3.418,10.155 3.373,10.306 3.33,10.457 L3.33,10.457 Z M33.139,10.045 C33.077,10.014 33.014,9.985 32.953,9.956 L32.866,9.916 C32.732,9.854 32.598,9.794 32.463,9.735 C34.126,9.122 35.401,7.534 36.114,5.954 C36.954,4.091 37.006,1.621 35.61,0 C35.743,0.115 35.869,0.239 35.987,0.371 C37.423,1.991 37.379,4.488 36.53,6.371 C35.855,7.867 34.676,9.369 33.139,10.045 L33.139,10.045 Z" id="path-1"></path>
    </defs>
    <g id="Page-1" stroke="none" stroke-width="1" fill="none" fill-rule="evenodd">
        <g id="23424" transform="translate(-62.000000, -52.000000)">
            <g id="Group" transform="translate(62.509671, 52.760518)">
                <g id="Group-504" transform="translate(4.130329, 4.488482)">
                    <mask id="mask-2" fill="white">
                        <use xlink:href="#path-1"></use>
                    </mask>
                    <g id="Clip-503"></g>
                    <polygon id="Fill-502" fill="#88AB8B" mask="url(#mask-2)" points="0 48.29 45.191 48.29 45.191 0 0 0"></polygon>
                </g>
                <path d="M32.172329,52.0604819 C32.027329,51.9504819 31.895329,51.8144819 31.773329,51.6654819 C31.832329,51.7114819 31.894329,51.7534819 31.958329,51.7904819 C31.965329,51.7944819 31.973329,51.7984819 31.981329,51.8024819 C32.042329,51.8904819 32.105329,51.9774819 32.172329,52.0604819 M47.386329,38.6224819 C47.328329,38.5684819 47.270329,38.5164819 47.211329,38.4644819 C47.145329,38.3924819 47.080329,38.3224819 47.018329,38.2564819 C47.011329,38.2484819 47.003329,38.2404819 46.996329,38.2314819 C47.130329,38.3574819 47.260329,38.4874819 47.386329,38.6224819 M13.234329,37.0404819 C13.089329,36.8994819 12.946329,36.7564819 12.804329,36.6114819 C12.880329,36.6854819 12.957329,36.7584819 13.034329,36.8314819 C13.100329,36.9014819 13.167329,36.9714819 13.234329,37.0404819 M5.85332902,34.2364819 C5.69232902,34.1174819 5.55932902,33.9844819 5.45032902,33.8384819 C5.49232902,33.8704819 5.53532902,33.9004819 5.58132902,33.9294819 C5.62332902,33.9564819 5.66632902,33.9824819 5.70932902,34.0064819 C5.75132902,34.0854819 5.79932902,34.1624819 5.85332902,34.2364819 M40.550329,34.1394819 C40.474329,34.0774819 40.396329,34.0184819 40.314329,33.9614819 C40.265329,33.8844819 40.210329,33.8094819 40.151329,33.7374819 C40.299329,33.8594819 40.433329,33.9934819 40.550329,34.1394819 M38.818329,22.2664819 C38.753329,22.2044819 38.687329,22.1434819 38.620329,22.0834819 C38.572329,22.0304819 38.524329,21.9784819 38.476329,21.9264819 C38.477329,21.9254819 38.478329,21.9254819 38.479329,21.9244819 C38.594329,22.0364819 38.707329,22.1504819 38.818329,22.2664819 M40.285329,16.9984819 C40.212329,16.9364819 40.137329,16.8764819 40.059329,16.8184819 C40.008329,16.7444819 39.952329,16.6734819 39.894329,16.6044819 C40.035329,16.7274819 40.167329,16.8584819 40.285329,16.9984819 M4.13032902,13.2024819 C3.99932902,13.0814819 3.86932902,12.9524819 3.74032902,12.8144819 C3.80932902,12.8774819 3.87832902,12.9374819 3.94732902,12.9964819 C4.00832902,13.0664819 4.06932902,13.1354819 4.13032902,13.2024819 M39.740329,4.48848192 C39.671329,4.42948192 39.600329,4.37248192 39.528329,4.31848192 C39.469329,4.23948192 39.406329,4.16248192 39.340329,4.08748192 C39.467329,4.19748192 39.587329,4.31648192 39.700329,4.44348192 C39.713329,4.45848192 39.727329,4.47348192 39.740329,4.48848192" id="Fill-505" fill="#88AB8B"></path>
                <path d="M33.044329,52.3624819 C32.811329,52.3624819 32.570329,52.3024819 32.339329,52.1704819 C32.281329,52.1374819 32.226329,52.1004819 32.172329,52.0604819 C32.105329,51.9774819 32.042329,51.8904819 31.981329,51.8024819 C32.205329,51.9254819 32.436329,51.9814819 32.661329,51.9814819 C33.253329,51.9814819 33.802329,51.5944819 34.058329,51.0124819 C35.286329,48.2124819 36.527329,45.4114819 37.610329,42.5534819 L37.639329,42.4774819 C40.651329,42.3634819 43.661329,42.0834819 46.664329,41.8144819 C47.303329,41.7584819 47.884329,41.5194819 48.138329,40.8724819 C48.485329,39.9864819 47.806329,39.1174819 47.211329,38.4644819 C47.270329,38.5164819 47.328329,38.5684819 47.386329,38.6224819 C47.391329,38.6274819 47.396329,38.6334819 47.401329,38.6384819 C48.025329,39.3084819 48.905329,40.2694819 48.519329,41.2544819 C48.266329,41.8994819 47.684329,42.1424819 47.045329,42.1974819 C44.043329,42.4644819 41.033329,42.7464819 38.019329,42.8604819 L37.991329,42.9364819 C36.909329,45.7944819 35.668329,48.5964819 34.440329,51.3944819 C34.184329,51.9764819 33.636329,52.3624819 33.044329,52.3624819 M28.627329,43.2804819 C28.191329,43.2804819 27.912329,43.2704819 27.912329,43.2704819 C27.004329,43.2234819 26.090329,43.0824819 25.194329,42.9254819 C20.687329,42.1414819 16.459329,40.1604819 13.234329,37.0404819 C13.167329,36.9714819 13.100329,36.9014819 13.034329,36.8314819 C16.234329,39.8514819 20.389329,41.7744819 24.813329,42.5444819 C25.708329,42.6994819 26.621329,42.8424819 27.529329,42.8874819 C27.529329,42.8874819 27.808329,42.8974819 28.244329,42.8974819 C28.418329,42.8974819 28.617329,42.8964819 28.833329,42.8914819 C28.816329,43.0204819 28.800329,43.1504819 28.786329,43.2794819 C28.731329,43.2804819 28.678329,43.2804819 28.627329,43.2804819 M7.12632902,34.6574819 C6.73532902,34.6574819 6.33932902,34.5514819 5.96432902,34.3124819 C5.92532902,34.2874819 5.88932902,34.2624819 5.85332902,34.2364819 C5.79932902,34.1624819 5.75132902,34.0854819 5.70932902,34.0064819 C6.04632902,34.1924819 6.39732902,34.2764819 6.74532902,34.2764819 C7.54632902,34.2764819 8.32732902,33.8314819 8.86932902,33.1794819 L9.31332902,32.6394819 L9.35332902,32.5914819 C9.45632902,32.7474819 9.56132902,32.9024819 9.66832902,33.0554819 L9.25232902,33.5604819 C8.70932902,34.2124819 7.92832902,34.6574819 7.12632902,34.6574819 M40.831329,34.5904819 C40.743329,34.5714819 40.655329,34.5534819 40.567329,34.5364819 C40.513329,34.3284819 40.426329,34.1374819 40.314329,33.9614819 C40.396329,34.0184819 40.474329,34.0774819 40.550329,34.1394819 C40.661329,34.2784819 40.757329,34.4284819 40.831329,34.5904819 M37.658329,31.8334819 C37.546329,31.7894819 37.433329,31.7494819 37.320329,31.7114819 C37.219329,31.1204819 37.117329,30.4844819 37.020329,29.7974819 C37.675329,30.1894819 38.409329,30.5494819 39.186329,30.5494819 C39.262329,30.5494819 39.338329,30.5454819 39.415329,30.5384819 C40.184329,30.4664819 40.837329,29.9964819 41.162329,29.3004819 C41.995329,27.5314819 40.938329,25.5734819 40.044329,24.0634819 L39.911329,23.8424819 C39.543329,23.2154819 39.109329,22.6264819 38.620329,22.0834819 C38.687329,22.1434819 38.753329,22.2044819 38.818329,22.2664819 C39.383329,22.8634819 39.879329,23.5204819 40.292329,24.2234819 L40.426329,24.4444819 C41.320329,25.9564819 42.377329,27.9114819 41.545329,29.6834819 C41.218329,30.3804819 40.566329,30.8484819 39.797329,30.9194819 C39.719329,30.9264819 39.642329,30.9294819 39.565329,30.9294819 C38.788329,30.9294819 38.056329,30.5714819 37.402329,30.1784819 C37.485329,30.7664819 37.571329,31.3174819 37.658329,31.8334819 M38.062329,21.5084819 C38.051329,21.4974819 38.040329,21.4864819 38.029329,21.4764819 C37.915329,21.3574819 37.799329,21.2404819 37.680329,21.1264819 C38.734329,20.2914819 40.589329,19.6514819 40.486329,18.0154819 C40.458329,17.5574819 40.300329,17.1614819 40.059329,16.8184819 C40.137329,16.8764819 40.212329,16.9364819 40.285329,16.9984819 C40.612329,17.3864819 40.834329,17.8464819 40.868329,18.3974819 C40.970329,20.0334819 39.118329,20.6724819 38.062329,21.5084819 M7.16332902,14.5344819 C7.06732902,14.5344819 6.97132902,14.5244819 6.87732902,14.5054819 L6.86532902,14.5024819 L6.86432902,14.5024819 L6.72632902,14.4764819 C6.58432902,14.4474819 6.44232902,14.4174819 6.29932902,14.3884819 L6.06232902,14.3424819 L6.06332902,14.3374819 C5.88032902,14.2904819 5.71832902,14.2364819 5.57332902,14.1534819 C5.06832902,13.9374819 4.58932902,13.6224819 4.13032902,13.2024819 C4.06932902,13.1354819 4.00832902,13.0664819 3.94732902,12.9964819 C4.34532902,13.3304819 4.75832902,13.5874819 5.19132902,13.7704819 C5.33732902,13.8544819 5.49832902,13.9104819 5.68132902,13.9544819 L5.68032902,13.9614819 L5.91732902,14.0084819 C6.06032902,14.0374819 6.20232902,14.0644819 6.34332902,14.0934819 L6.48232902,14.1224819 L6.48332902,14.1204819 L6.49432902,14.1224819 C6.59132902,14.1424819 6.68832902,14.1524819 6.78632902,14.1524819 C6.89432902,14.1524819 7.00232902,14.1404819 7.10932902,14.1154819 C7.32132902,14.1074819 7.52932902,14.0854819 7.73132902,14.0514819 C7.68432902,14.1974819 7.63832902,14.3444819 7.59432902,14.4914819 C7.56032902,14.4934819 7.52632902,14.4954819 7.49232902,14.4964819 C7.38332902,14.5214819 7.27332902,14.5344819 7.16332902,14.5344819 M36.593329,14.2234819 C36.365329,14.1244819 36.136329,14.0304819 35.907329,13.9404819 C37.719329,13.4184819 39.108329,11.7364819 39.862329,10.0614819 C40.665329,8.27548192 40.749329,5.93448192 39.528329,4.31848192 C39.600329,4.37248192 39.671329,4.42948192 39.740329,4.48848192 C41.136329,6.10948192 41.084329,8.57948192 40.244329,10.4424819 C39.531329,12.0224819 38.256329,13.6104819 36.593329,14.2234819" id="Fill-506" fill="#6D876E"></path>
                <path d="M31.773329,51.6654819 C31.633329,51.5564819 31.504329,51.4224819 31.386329,51.2774819 C31.448329,51.3254819 31.511329,51.3694819 31.578329,51.4064819 C31.640329,51.4954819 31.705329,51.5824819 31.773329,51.6654819 M46.996329,38.2314819 C46.939329,38.1794819 46.882329,38.1274819 46.824329,38.0754819 C46.761329,38.0054819 46.698329,37.9384819 46.637329,37.8734819 C46.636329,37.8714819 46.635329,37.8704819 46.634329,37.8694819 C46.758329,37.9864819 46.878329,38.1064819 46.996329,38.2314819" id="Fill-507" fill="#88AB8B"></path>
                <path d="M31.981329,51.8024819 C31.973329,51.7984819 31.965329,51.7944819 31.958329,51.7904819 C31.894329,51.7534819 31.832329,51.7114819 31.773329,51.6654819 C31.705329,51.5824819 31.640329,51.4954819 31.578329,51.4064819 C31.646329,51.4454819 31.715329,51.4784819 31.785329,51.5054819 C31.847329,51.6034819 31.912329,51.7044819 31.981329,51.8024819 M47.211329,38.4644819 C47.153329,38.4134819 47.094329,38.3634819 47.035329,38.3144819 C46.965329,38.2324819 46.894329,38.1524819 46.824329,38.0754819 C46.882329,38.1274819 46.939329,38.1794819 46.996329,38.2314819 C47.003329,38.2404819 47.011329,38.2484819 47.018329,38.2564819 C47.080329,38.3224819 47.145329,38.3924819 47.211329,38.4644819" id="Fill-508" fill="#6D876E"></path>
                <path d="M32.661329,51.9814819 C32.436329,51.9814819 32.205329,51.9254819 31.981329,51.8024819 C31.912329,51.7044819 31.847329,51.6034819 31.785329,51.5054819 C31.950329,51.5684819 32.117329,51.5984819 32.282329,51.5984819 C32.873329,51.5984819 33.422329,51.2124819 33.677329,50.6274819 C34.905329,47.8304819 36.146329,45.0284819 37.229329,42.1714819 L37.257329,42.0974819 C40.268329,41.9824819 43.280329,41.7004819 46.281329,41.4334819 C46.922329,41.3774819 47.504329,41.1364819 47.758329,40.4914819 C48.063329,39.7054819 47.565329,38.9344819 47.035329,38.3144819 C47.094329,38.3634819 47.153329,38.4134819 47.211329,38.4644819 C47.806329,39.1174819 48.485329,39.9864819 48.138329,40.8724819 C47.884329,41.5194819 47.303329,41.7584819 46.664329,41.8144819 C43.661329,42.0834819 40.651329,42.3634819 37.639329,42.4774819 L37.610329,42.5534819 C36.527329,45.4114819 35.286329,48.2124819 34.058329,51.0124819 C33.802329,51.5944819 33.253329,51.9814819 32.661329,51.9814819" id="Fill-509" fill="#556B58"></path>
                <path d="M12.804329,36.6114819 C12.667329,36.4774819 12.531329,36.3414819 12.397329,36.2034819 C12.466329,36.2704819 12.535329,36.3374819 12.605329,36.4034819 C12.671329,36.4734819 12.737329,36.5424819 12.804329,36.6114819" id="Fill-510" fill="#88AB8B"></path>
                <path d="M13.034329,36.8314819 C12.957329,36.7584819 12.880329,36.6854819 12.804329,36.6114819 C12.737329,36.5424819 12.671329,36.4734819 12.605329,36.4034819 C12.682329,36.4764819 12.759329,36.5484819 12.837329,36.6204819 C12.902329,36.6904819 12.968329,36.7614819 13.034329,36.8314819" id="Fill-511" fill="#6D876E"></path>
                <path d="M28.244329,42.8974819 C27.808329,42.8974819 27.529329,42.8874819 27.529329,42.8874819 C26.621329,42.8424819 25.708329,42.6994819 24.813329,42.5444819 C20.389329,41.7744819 16.234329,39.8514819 13.034329,36.8314819 C12.968329,36.7614819 12.902329,36.6904819 12.837329,36.6204819 C16.012329,39.5414819 20.091329,41.4064819 24.431329,42.1614819 C25.326329,42.3164819 26.240329,42.4624819 27.146329,42.5064819 C27.146329,42.5064819 27.424329,42.5164819 27.858329,42.5164819 C28.146329,42.5164819 28.502329,42.5124819 28.892329,42.4984819 C28.871329,42.6294819 28.851329,42.7604819 28.833329,42.8914819 C28.617329,42.8964819 28.418329,42.8974819 28.244329,42.8974819" id="Fill-512" fill="#556B58"></path>
                <path d="M40.151329,33.7374819 C40.077329,33.6754819 39.999329,33.6154819 39.919329,33.5594819 C39.873329,33.4884819 39.822329,33.4204819 39.769329,33.3554819 C39.910329,33.4724819 40.038329,33.5994819 40.151329,33.7374819" id="Fill-513" fill="#88AB8B"></path>
                <path d="M40.314329,33.9614819 C40.230329,33.9034819 40.142329,33.8474819 40.052329,33.7944819 C40.012329,33.7124819 39.968329,33.6344819 39.919329,33.5594819 C39.999329,33.6154819 40.077329,33.6754819 40.151329,33.7374819 C40.210329,33.8094819 40.265329,33.8844819 40.314329,33.9614819" id="Fill-514" fill="#6D876E"></path>
                <path d="M40.567329,34.5364819 C40.459329,34.5144819 40.350329,34.4944819 40.241329,34.4754819 C40.218329,34.2284819 40.152329,34.0014819 40.052329,33.7944819 C40.142329,33.8474819 40.230329,33.9034819 40.314329,33.9614819 C40.426329,34.1374819 40.513329,34.3284819 40.567329,34.5364819" id="Fill-515" fill="#556B58"></path>
                <path d="M5.45032902,33.8384819 C5.29632902,33.7224819 5.16832902,33.5914819 5.06332902,33.4494819 C5.10732902,33.4834819 5.15332902,33.5154819 5.20132902,33.5454819 C5.23432902,33.5674819 5.26832902,33.5874819 5.30232902,33.6074819 C5.34532902,33.6874819 5.39432902,33.7644819 5.45032902,33.8384819" id="Fill-516" fill="#88AB8B"></path>
                <path d="M5.70932902,34.0064819 C5.66632902,33.9824819 5.62332902,33.9564819 5.58132902,33.9294819 C5.53532902,33.9004819 5.49232902,33.8704819 5.45032902,33.8384819 C5.39432902,33.7644819 5.34532902,33.6874819 5.30232902,33.6074819 C5.39832902,33.6624819 5.49532902,33.7084819 5.59332902,33.7474819 C5.62632902,33.8364819 5.66432902,33.9224819 5.70932902,34.0064819" id="Fill-517" fill="#6D876E"></path>
                <path d="M6.74532902,34.2764819 C6.39732902,34.2764819 6.04632902,34.1924819 5.70932902,34.0064819 C5.66432902,33.9224819 5.62632902,33.8364819 5.59332902,33.7474819 C5.84732902,33.8474819 6.10732902,33.8934819 6.36432902,33.8934819 C7.16532902,33.8934819 7.94632902,33.4484819 8.48732902,32.7954819 L8.93132902,32.2564819 L9.05032902,32.1134819 C9.14932902,32.2744819 9.25032902,32.4334819 9.35332902,32.5914819 L9.31332902,32.6394819 L8.86932902,33.1794819 C8.32732902,33.8314819 7.54632902,34.2764819 6.74532902,34.2764819" id="Fill-518" fill="#556B58"></path>
                <path d="M38.421329,21.8684819 C38.354329,21.8044819 38.287329,21.7414819 38.218329,21.6794819 C38.166329,21.6224819 38.114329,21.5654819 38.061329,21.5094819 L38.062329,21.5084819 C38.185329,21.6254819 38.305329,21.7464819 38.421329,21.8684819" id="Fill-519" fill="#6D876E"></path>
                <path d="M38.620329,22.0834819 C38.567329,22.0354819 38.513329,21.9874819 38.459329,21.9404819 C38.464329,21.9354819 38.470329,21.9314819 38.476329,21.9264819 C38.524329,21.9784819 38.572329,22.0304819 38.620329,22.0834819" id="Fill-520" fill="#6D876E"></path>
                <path d="M37.320329,31.7114819 C37.208329,31.6744819 37.096329,31.6394819 36.986329,31.6074819 C36.869329,30.9404819 36.749329,30.2124819 36.637329,29.4144819 C37.294329,29.8084819 38.027329,30.1664819 38.805329,30.1664819 C38.881329,30.1664819 38.957329,30.1624819 39.034329,30.1554819 C39.803329,30.0834819 40.455329,29.6154819 40.781329,28.9174819 C41.612329,27.1474819 40.556329,25.1904819 39.659329,23.6814819 L39.529329,23.4594819 C39.156329,22.8254819 38.716329,22.2284819 38.218329,21.6794819 C38.287329,21.7414819 38.354329,21.8044819 38.421329,21.8684819 C38.440329,21.8884819 38.458329,21.9074819 38.476329,21.9264819 C38.470329,21.9314819 38.464329,21.9354819 38.459329,21.9404819 C38.513329,21.9874819 38.567329,22.0354819 38.620329,22.0834819 C39.109329,22.6264819 39.543329,23.2154819 39.911329,23.8424819 L40.044329,24.0634819 C40.938329,25.5734819 41.995329,27.5314819 41.162329,29.3004819 C40.837329,29.9964819 40.184329,30.4664819 39.415329,30.5384819 C39.338329,30.5454819 39.262329,30.5494819 39.186329,30.5494819 C38.409329,30.5494819 37.675329,30.1894819 37.020329,29.7974819 C37.117329,30.4844819 37.219329,31.1204819 37.320329,31.7114819" id="Fill-521" fill="#556B58"></path>
                <path d="M39.894329,16.6044819 C39.820329,16.5404819 39.744329,16.4794819 39.666329,16.4204819 C39.617329,16.3514819 39.565329,16.2854819 39.511329,16.2204819 C39.649329,16.3404819 39.778329,16.4674819 39.894329,16.6044819" id="Fill-522" fill="#88AB8B"></path>
                <path d="M40.059329,16.8184819 C39.977329,16.7564819 39.893329,16.6974819 39.807329,16.6404819 C39.764329,16.5654819 39.717329,16.4914819 39.666329,16.4204819 C39.744329,16.4794819 39.820329,16.5404819 39.894329,16.6044819 C39.952329,16.6734819 40.008329,16.7444819 40.059329,16.8184819" id="Fill-523" fill="#6D876E"></path>
                <path d="M37.680329,21.1264819 C37.671329,21.1174819 37.661329,21.1074819 37.652329,21.0984819 C37.537329,20.9784819 37.419329,20.8604819 37.299329,20.7444819 C38.353329,19.9094819 40.205329,19.2684819 40.104329,17.6344819 C40.081329,17.2644819 39.974329,16.9344819 39.807329,16.6404819 C39.893329,16.6974819 39.977329,16.7564819 40.059329,16.8184819 C40.300329,17.1614819 40.458329,17.5574819 40.486329,18.0154819 C40.589329,19.6514819 38.734329,20.2914819 37.680329,21.1264819" id="Fill-524" fill="#556B58"></path>
                <path d="M3.74032902,12.8144819 C3.60732902,12.6914819 3.47532902,12.5594819 3.34532902,12.4194819 C3.41232902,12.4804819 3.47932902,12.5404819 3.54632902,12.5974819 C3.61032902,12.6714819 3.67532902,12.7444819 3.74032902,12.8144819" id="Fill-525" fill="#88AB8B"></path>
                <path d="M3.94732902,12.9964819 C3.87832902,12.9374819 3.80932902,12.8774819 3.74032902,12.8144819 C3.67532902,12.7444819 3.61032902,12.6714819 3.54632902,12.5974819 C3.61532902,12.6554819 3.68432902,12.7114819 3.75432902,12.7654819 C3.81432902,12.8444819 3.83932902,12.8764819 3.83932902,12.8764819 C3.83932902,12.8764819 3.80432902,12.8314819 3.75532902,12.7664819 C3.75732902,12.7674819 3.75832902,12.7694819 3.76032902,12.7704819 C3.82232902,12.8474819 3.88432902,12.9234819 3.94732902,12.9964819" id="Fill-526" fill="#6D876E"></path>
                <path d="M6.78632902,14.1524819 C6.68832902,14.1524819 6.59132902,14.1424819 6.49432902,14.1224819 L6.48332902,14.1204819 L6.48232902,14.1224819 L6.34332902,14.0934819 C6.20232902,14.0644819 6.06032902,14.0374819 5.91732902,14.0084819 L5.68032902,13.9614819 L5.68132902,13.9544819 C5.49832902,13.9104819 5.33732902,13.8544819 5.19132902,13.7704819 C4.75832902,13.5874819 4.34532902,13.3304819 3.94732902,12.9964819 C3.88432902,12.9234819 3.82232902,12.8474819 3.76032902,12.7704819 C4.09832902,13.0304819 4.44632902,13.2364819 4.80832902,13.3904819 C4.95432902,13.4724819 5.11732902,13.5264819 5.30032902,13.5714819 L5.30032902,13.5784819 L5.53632902,13.6244819 C5.67832902,13.6564819 5.82032902,13.6834819 5.96232902,13.7124819 L6.10032902,13.7394819 L6.11232902,13.7424819 C6.20932902,13.7614819 6.30632902,13.7704819 6.40432902,13.7704819 C6.51232902,13.7704819 6.62032902,13.7594819 6.72732902,13.7354819 C7.13632902,13.7174819 7.52632902,13.6484819 7.89832902,13.5474819 C7.84132902,13.7144819 7.78532902,13.8824819 7.73132902,14.0514819 C7.52932902,14.0854819 7.32132902,14.1074819 7.10932902,14.1154819 C7.00232902,14.1404819 6.89432902,14.1524819 6.78632902,14.1524819 M3.83932902,12.8764819 C3.83932902,12.8764819 3.81432902,12.8444819 3.75432902,12.7654819 C3.75432902,12.7654819 3.75432902,12.7664819 3.75532902,12.7664819 C3.80432902,12.8314819 3.83932902,12.8764819 3.83932902,12.8764819" id="Fill-527" fill="#556B58"></path>
                <path d="M39.340329,4.08748192 C39.273329,4.02848192 39.204329,3.97248192 39.133329,3.91848192 C39.079329,3.84748192 39.022329,3.77848192 38.963329,3.71048192 C39.088329,3.81948192 39.207329,3.93748192 39.318329,4.06248192 C39.326329,4.07048192 39.333329,4.07948192 39.340329,4.08748192" id="Fill-528" fill="#88AB8B"></path>
                <path d="M39.528329,4.31848192 C39.456329,4.26448192 39.381329,4.21248192 39.305329,4.16248192 C39.251329,4.07948192 39.194329,3.99848192 39.133329,3.91848192 C39.204329,3.97248192 39.273329,4.02848192 39.340329,4.08748192 C39.406329,4.16248192 39.469329,4.23948192 39.528329,4.31848192" id="Fill-529" fill="#6D876E"></path>
                <path d="M35.907329,13.9404819 C35.648329,13.8384819 35.389329,13.7434819 35.133329,13.6524819 C37.138329,13.2744819 38.672329,11.4724819 39.480329,9.67948192 C40.248329,7.97648192 40.357329,5.76648192 39.305329,4.16248192 C39.381329,4.21248192 39.456329,4.26448192 39.528329,4.31848192 C40.749329,5.93448192 40.665329,8.27548192 39.862329,10.0614819 C39.108329,11.7364819 37.719329,13.4184819 35.907329,13.9404819" id="Fill-530" fill="#556B58"></path>
                <path d="M31.386329,51.2774819 C31.249329,51.1704819 31.124329,51.0414819 31.009329,50.9004819 C31.069329,50.9464819 31.131329,50.9894819 31.195329,51.0254819 C31.196329,51.0264819 31.197329,51.0274819 31.198329,51.0274819 C31.258329,51.1124819 31.321329,51.1974819 31.386329,51.2774819 M46.634329,37.8694819 C46.570329,37.8084819 46.504329,37.7494819 46.438329,37.6904819 C46.376329,37.6224819 46.315329,37.5564819 46.256329,37.4924819 C46.246329,37.4824819 46.237329,37.4724819 46.227329,37.4624819 C46.367329,37.5924819 46.503329,37.7284819 46.634329,37.8694819 M12.397329,36.2034819 C12.283329,36.0914819 12.170329,35.9774819 12.058329,35.8634819 C12.116329,35.9194819 12.173329,35.9744819 12.232329,36.0304819 C12.287329,36.0884819 12.342329,36.1454819 12.397329,36.2034819 M5.06332902,33.4494819 C4.91432902,33.3374819 4.79132902,33.2114819 4.68832902,33.0744819 C4.73032902,33.1054819 4.77332902,33.1364819 4.81932902,33.1654819 C4.85332902,33.1874819 4.88732902,33.2074819 4.92132902,33.2274819 C4.96332902,33.3044819 5.01032902,33.3784819 5.06332902,33.4494819 M39.769329,33.3554819 C39.694329,33.2934819 39.617329,33.2344819 39.537329,33.1774819 C39.491329,33.1074819 39.440329,33.0394819 39.387329,32.9734819 C39.527329,33.0914819 39.656329,33.2174819 39.769329,33.3554819" id="Fill-531" fill="#88AB8B"></path>
                <path d="M38.029329,21.4764819 C37.965329,21.4154819 37.900329,21.3544819 37.834329,21.2954819 C37.783329,21.2384819 37.731329,21.1824819 37.679329,21.1274819 L37.680329,21.1264819 C37.799329,21.2404819 37.915329,21.3574819 38.029329,21.4764819" id="Fill-532" fill="#556B58"></path>
                <path d="M39.511329,16.2204819 C39.437329,16.1564819 39.360329,16.0944819 39.281329,16.0354819 C39.232329,15.9654819 39.179329,15.8984819 39.123329,15.8334819 C39.263329,15.9534819 39.393329,16.0824819 39.511329,16.2204819 M3.34532902,12.4194819 C3.21732902,12.3014819 3.09132902,12.1744819 2.96632902,12.0394819 C3.03032902,12.0984819 3.09432902,12.1554819 3.15832902,12.2094819 C3.22032902,12.2814819 3.28232902,12.3514819 3.34532902,12.4194819 M38.963329,3.71048192 C38.894329,3.65048192 38.823329,3.59248192 38.750329,3.53648192 C38.694329,3.46348192 38.636329,3.39148192 38.574329,3.32148192 C38.702329,3.43248192 38.823329,3.55148192 38.936329,3.67948192 C38.945329,3.69048192 38.954329,3.70048192 38.963329,3.71048192" id="Fill-533" fill="#88AB8B"></path>
                <path d="M31.578329,51.4064819 L31.578329,51.4064819 C31.511329,51.3694819 31.448329,51.3254819 31.386329,51.2774819 C31.321329,51.1974819 31.258329,51.1124819 31.198329,51.0274819 C31.260329,51.0634819 31.323329,51.0934819 31.387329,51.1184819 C31.448329,51.2144819 31.511329,51.3114819 31.578329,51.4064819 M46.824329,38.0754819 C46.763329,38.0214819 46.701329,37.9684819 46.638329,37.9154819 C46.572329,37.8384819 46.504329,37.7634819 46.438329,37.6904819 C46.504329,37.7494819 46.570329,37.8084819 46.634329,37.8694819 C46.635329,37.8704819 46.636329,37.8714819 46.637329,37.8734819 C46.698329,37.9384819 46.761329,38.0054819 46.824329,38.0754819 M12.605329,36.4034819 C12.535329,36.3374819 12.466329,36.2704819 12.397329,36.2034819 C12.342329,36.1454819 12.287329,36.0884819 12.232329,36.0304819 C12.298329,36.0924819 12.365329,36.1554819 12.431329,36.2164819 C12.489329,36.2794819 12.547329,36.3414819 12.605329,36.4034819 M5.30232902,33.6074819 C5.26832902,33.5874819 5.23432902,33.5674819 5.20132902,33.5454819 C5.15332902,33.5154819 5.10732902,33.4834819 5.06332902,33.4494819 C5.01032902,33.3784819 4.96332902,33.3044819 4.92132902,33.2274819 C5.00932902,33.2774819 5.09732902,33.3204819 5.18632902,33.3564819 C5.21932902,33.4424819 5.25832902,33.5264819 5.30232902,33.6074819 M39.919329,33.5594819 C39.835329,33.5004819 39.748329,33.4444819 39.659329,33.3914819 C39.622329,33.3174819 39.581329,33.2464819 39.537329,33.1774819 C39.617329,33.2344819 39.694329,33.2934819 39.769329,33.3554819 C39.822329,33.4204819 39.873329,33.4884819 39.919329,33.5594819 M39.666329,16.4204819 C39.584329,16.3584819 39.500329,16.2984819 39.414329,16.2404819 C39.373329,16.1704819 39.329329,16.1014819 39.281329,16.0354819 C39.360329,16.0944819 39.437329,16.1564819 39.511329,16.2204819 C39.565329,16.2854819 39.617329,16.3514819 39.666329,16.4204819 M3.54632902,12.5974819 C3.47932902,12.5404819 3.41232902,12.4804819 3.34532902,12.4194819 C3.28232902,12.3514819 3.22032902,12.2814819 3.15832902,12.2094819 C3.22132902,12.2634819 3.28532902,12.3154819 3.34932902,12.3654819 C3.40132902,12.4324819 3.42232902,12.4594819 3.42232902,12.4594819 C3.42232902,12.4594819 3.39432902,12.4224819 3.35132902,12.3674819 C3.35332902,12.3684819 3.35632902,12.3704819 3.35832902,12.3714819 C3.42032902,12.4494819 3.48332902,12.5244819 3.54632902,12.5974819 M39.133329,3.91848192 C39.060329,3.86348192 38.986329,3.81048192 38.910329,3.76048192 C38.859329,3.68448192 38.806329,3.60948192 38.750329,3.53648192 C38.823329,3.59248192 38.894329,3.65048192 38.963329,3.71048192 C39.022329,3.77848192 39.079329,3.84748192 39.133329,3.91848192" id="Fill-534" fill="#6D876E"></path>
                <path d="M38.218329,21.6794819 C38.160329,21.6274819 38.102329,21.5754819 38.043329,21.5234819 C38.049329,21.5194819 38.055329,21.5144819 38.061329,21.5094819 C38.114329,21.5654819 38.166329,21.6224819 38.218329,21.6794819" id="Fill-535" fill="#556B58"></path>
                <path d="M31.785329,51.5054819 C31.715329,51.4784819 31.646329,51.4454819 31.578329,51.4064819 C31.511329,51.3114819 31.448329,51.2144819 31.387329,51.1184819 C31.452329,51.1444819 31.517329,51.1644819 31.583329,51.1804819 C31.594329,51.1984819 31.605329,51.2164819 31.616329,51.2344819 C31.670329,51.3214819 31.726329,51.4124819 31.785329,51.5054819 M47.035329,38.3144819 C46.968329,38.2584819 46.901329,38.2044819 46.832329,38.1504819 C46.769329,38.0704819 46.704329,37.9914819 46.638329,37.9154819 C46.701329,37.9684819 46.763329,38.0214819 46.824329,38.0754819 C46.894329,38.1524819 46.965329,38.2324819 47.035329,38.3144819 M12.837329,36.6204819 C12.759329,36.5484819 12.682329,36.4764819 12.605329,36.4034819 C12.547329,36.3414819 12.489329,36.2794819 12.431329,36.2164819 C12.507329,36.2864819 12.583329,36.3554819 12.660329,36.4244819 C12.718329,36.4904819 12.778329,36.5554819 12.837329,36.6204819 M40.052329,33.7944819 C39.957329,33.7384819 39.860329,33.6854819 39.761329,33.6354819 C39.732329,33.5514819 39.698329,33.4694819 39.659329,33.3914819 C39.748329,33.4444819 39.835329,33.5004819 39.919329,33.5594819 C39.968329,33.6344819 40.012329,33.7124819 40.052329,33.7944819 M5.59332902,33.7474819 C5.49532902,33.7084819 5.39832902,33.6624819 5.30232902,33.6074819 C5.25832902,33.5264819 5.21932902,33.4424819 5.18632902,33.3564819 C5.29232902,33.3994819 5.39832902,33.4334819 5.50532902,33.4584819 C5.52932902,33.5564819 5.55832902,33.6534819 5.59332902,33.7474819 M39.807329,16.6404819 C39.716329,16.5804819 39.624329,16.5234819 39.530329,16.4674819 C39.495329,16.3894819 39.457329,16.3144819 39.414329,16.2404819 C39.500329,16.2984819 39.584329,16.3584819 39.666329,16.4204819 C39.717329,16.4914819 39.764329,16.5654819 39.807329,16.6404819 M3.75432902,12.7654819 C3.68432902,12.7114819 3.61532902,12.6554819 3.54632902,12.5974819 C3.48332902,12.5244819 3.42032902,12.4494819 3.35832902,12.3714819 C3.42932902,12.4274819 3.50132902,12.4804819 3.57332902,12.5304819 C3.58932902,12.5514819 3.60632902,12.5734819 3.62432902,12.5974819 C3.62832902,12.6024819 3.63232902,12.6074819 3.63732902,12.6134819 C3.68532902,12.6764819 3.72432902,12.7264819 3.75432902,12.7654819 M39.305329,4.16248192 C39.228329,4.11148192 39.149329,4.06348192 39.068329,4.01848192 C39.019329,3.93048192 38.966329,3.84448192 38.910329,3.76048192 C38.986329,3.81048192 39.060329,3.86348192 39.133329,3.91848192 C39.194329,3.99848192 39.251329,4.07948192 39.305329,4.16248192" id="Fill-536" fill="#556B58"></path>
                <path d="M32.282329,51.5984819 C32.117329,51.5984819 31.950329,51.5684819 31.785329,51.5054819 C31.726329,51.4124819 31.670329,51.3214819 31.616329,51.2344819 C31.605329,51.2164819 31.594329,51.1984819 31.583329,51.1804819 C31.688329,51.2054819 31.794329,51.2174819 31.898329,51.2174819 C32.490329,51.2174819 33.038329,50.8304819 33.295329,50.2474819 C34.522329,47.4494819 35.763329,44.6474819 36.845329,41.7904819 L36.874329,41.7134819 C39.886329,41.5994819 42.897329,41.3174819 45.898329,41.0534819 C46.539329,40.9954819 47.121329,40.7554819 47.374329,40.1084819 C47.646329,39.4134819 47.287329,38.7294819 46.832329,38.1504819 C46.901329,38.2044819 46.968329,38.2584819 47.035329,38.3144819 C47.565329,38.9344819 48.063329,39.7054819 47.758329,40.4914819 C47.504329,41.1364819 46.922329,41.3774819 46.281329,41.4334819 C43.280329,41.7004819 40.268329,41.9824819 37.257329,42.0974819 L37.229329,42.1714819 C36.146329,45.0284819 34.905329,47.8304819 33.677329,50.6274819 C33.422329,51.2124819 32.873329,51.5984819 32.282329,51.5984819 M27.858329,42.5164819 C27.424329,42.5164819 27.146329,42.5064819 27.146329,42.5064819 C26.240329,42.4624819 25.326329,42.3164819 24.431329,42.1614819 C20.091329,41.4064819 16.012329,39.5414819 12.837329,36.6204819 C12.778329,36.5554819 12.718329,36.4904819 12.660329,36.4244819 C15.805329,39.2394819 19.803329,41.0424819 24.050329,41.7814819 C24.944329,41.9354819 25.858329,42.0794819 26.765329,42.1244819 C26.765329,42.1244819 27.043329,42.1334819 27.477329,42.1334819 C27.872329,42.1334819 28.398329,42.1254819 28.963329,42.0944819 C28.937329,42.2284819 28.914329,42.3634819 28.892329,42.4984819 C28.502329,42.5124819 28.146329,42.5164819 27.858329,42.5164819 M40.241329,34.4754819 C40.115329,34.4544819 39.989329,34.4344819 39.863329,34.4154819 C39.880329,34.1314819 39.842329,33.8724819 39.761329,33.6354819 C39.860329,33.6854819 39.957329,33.7384819 40.052329,33.7944819 C40.152329,34.0014819 40.218329,34.2284819 40.241329,34.4754819 M6.36432902,33.8934819 C6.10732902,33.8934819 5.84732902,33.8474819 5.59332902,33.7474819 C5.55832902,33.6534819 5.52932902,33.5564819 5.50532902,33.4584819 C5.66432902,33.4954819 5.82332902,33.5124819 5.98232902,33.5124819 C6.78332902,33.5124819 7.56532902,33.0674819 8.10632902,32.4154819 L8.55132902,31.8754819 L8.75832902,31.6224819 C8.85332902,31.7884819 8.95032902,31.9514819 9.05032902,32.1134819 L8.93132902,32.2564819 L8.48732902,32.7954819 C7.94632902,33.4484819 7.16532902,33.8934819 6.36432902,33.8934819 M36.986329,31.6074819 C36.874329,31.5754819 36.763329,31.5454819 36.656329,31.5194819 C36.523329,30.7724819 36.384329,29.9494819 36.258329,29.0334819 C36.912329,29.4254819 37.648329,29.7844819 38.425329,29.7844819 C38.500329,29.7844819 38.575329,29.7814819 38.651329,29.7744819 C39.421329,29.7034819 40.072329,29.2334819 40.398329,28.5364819 C41.231329,26.7674819 40.174329,24.8104819 39.279329,23.3004819 L39.147329,23.0784819 C38.774329,22.4424819 38.333329,21.8454819 37.834329,21.2954819 C37.900329,21.3544819 37.965329,21.4154819 38.029329,21.4764819 C38.039329,21.4874819 38.050329,21.4984819 38.061329,21.5094819 C38.055329,21.5144819 38.049329,21.5194819 38.043329,21.5234819 C38.102329,21.5754819 38.160329,21.6274819 38.218329,21.6794819 C38.716329,22.2284819 39.156329,22.8254819 39.529329,23.4594819 L39.659329,23.6814819 C40.556329,25.1904819 41.612329,27.1474819 40.781329,28.9174819 C40.455329,29.6154819 39.803329,30.0834819 39.034329,30.1554819 C38.957329,30.1624819 38.881329,30.1664819 38.805329,30.1664819 C38.027329,30.1664819 37.294329,29.8084819 36.637329,29.4144819 C36.749329,30.2124819 36.869329,30.9404819 36.986329,31.6074819 M37.299329,20.7444819 C37.169329,20.6194819 37.035329,20.4974819 36.898329,20.3774819 C37.949329,19.5354819 39.824329,18.8974819 39.722329,17.2534819 C39.705329,16.9674819 39.637329,16.7064819 39.530329,16.4674819 C39.624329,16.5234819 39.716329,16.5804819 39.807329,16.6404819 C39.974329,16.9344819 40.081329,17.2644819 40.104329,17.6344819 C40.205329,19.2684819 38.353329,19.9094819 37.299329,20.7444819 M6.40432902,13.7704819 C6.30632902,13.7704819 6.20932902,13.7614819 6.11232902,13.7424819 L6.10032902,13.7394819 L5.96232902,13.7124819 C5.82032902,13.6834819 5.67832902,13.6564819 5.53632902,13.6244819 L5.30032902,13.5784819 L5.30032902,13.5714819 C5.11732902,13.5264819 4.95432902,13.4724819 4.80832902,13.3904819 C4.44632902,13.2364819 4.09832902,13.0304819 3.76032902,12.7704819 C3.73932902,12.7444819 3.71832902,12.7184819 3.69832902,12.6914819 C3.71832902,12.7184819 3.73732902,12.7434819 3.75532902,12.7664819 C3.75432902,12.7664819 3.75432902,12.7654819 3.75432902,12.7654819 C3.72432902,12.7264819 3.68532902,12.6764819 3.63732902,12.6134819 C3.63232902,12.6074819 3.62832902,12.6024819 3.62432902,12.5974819 C3.60632902,12.5734819 3.58932902,12.5514819 3.57332902,12.5304819 C3.85032902,12.7244819 4.13532902,12.8824819 4.42832902,13.0074819 C4.57232902,13.0924819 4.73532902,13.1454819 4.91732902,13.1904819 L4.91632902,13.1974819 L5.15432902,13.2444819 C5.29632902,13.2734819 5.43832902,13.3004819 5.58132902,13.3304819 L5.71832902,13.3564819 L5.71932902,13.3564819 L5.73132902,13.3584819 C5.82732902,13.3784819 5.92432902,13.3894819 6.02232902,13.3894819 C6.13032902,13.3894819 6.23832902,13.3764819 6.34532902,13.3524819 C6.97332902,13.3274819 7.55732902,13.1794819 8.10032902,12.9734819 C8.03132902,13.1644819 7.96332902,13.3554819 7.89832902,13.5474819 C7.52632902,13.6484819 7.13632902,13.7174819 6.72732902,13.7354819 C6.62032902,13.7594819 6.51232902,13.7704819 6.40432902,13.7704819 M35.133329,13.6524819 C34.812329,13.5394819 34.496329,13.4344819 34.188329,13.3364819 C36.468329,13.2244819 38.216329,11.2554819 39.097329,9.29848192 C39.828329,7.67648192 39.963329,5.59748192 39.068329,4.01848192 C39.149329,4.06348192 39.228329,4.11148192 39.305329,4.16248192 C40.357329,5.76648192 40.248329,7.97648192 39.480329,9.67948192 C38.672329,11.4724819 37.138329,13.2744819 35.133329,13.6524819" id="Fill-537" fill="#425245"></path>
                <path d="M31.009329,50.9004819 C30.609329,50.5884819 30.309329,50.0824819 30.054329,49.6734819 C29.771329,49.2194819 29.532329,48.7354819 29.339329,48.2354819 C28.782329,46.7884819 28.632329,45.2324819 28.748329,43.6954819 C28.836329,43.6964819 28.935329,43.6964819 29.043329,43.6964819 C29.082329,43.6964819 29.123329,43.6964819 29.165329,43.6964819 C28.991329,45.3554819 29.117329,47.0504819 29.720329,48.6164819 C29.913329,49.1174819 30.153329,49.5994819 30.436329,50.0534819 C30.603329,50.3224819 30.789329,50.6314819 31.009329,50.9004819 M46.227329,37.4624819 C44.928329,36.2484819 43.271329,35.4694819 41.549329,35.0484819 C41.444329,35.0234819 41.339329,34.9994819 41.233329,34.9774819 C41.175329,34.8564819 41.106329,34.7424819 41.026329,34.6344819 C41.073329,34.6454819 41.120329,34.6564819 41.167329,34.6684819 C43.063329,35.1314819 44.878329,36.0254819 46.227329,37.4624819 M12.058329,35.8634819 C11.324329,35.1494819 10.642329,34.3774819 10.022329,33.5464819 L10.078329,33.4784819 C10.678329,34.3324819 11.341329,35.1274819 12.058329,35.8634819 M4.68832902,33.0744819 C3.79932902,32.4054819 3.80232902,31.2714819 3.87532902,30.2274819 C4.05332902,27.6814819 5.09532902,25.1704819 6.41432902,23.0114819 C6.33232902,20.3724819 6.69432902,17.6284819 7.46032902,14.9454819 C7.50032902,14.9494819 7.54032902,14.9504819 7.57932902,14.9504819 C7.68932902,14.9504819 7.80032902,14.9384819 7.90932902,14.9134819 C7.92832902,14.9124819 7.94732902,14.9114819 7.96532902,14.9104819 C7.11432902,17.7234819 6.71032902,20.6164819 6.79632902,23.3924819 C5.47632902,25.5514819 4.43632902,28.0614819 4.25832902,30.6104819 C4.19632902,31.4734819 4.18432902,32.4024819 4.68832902,33.0744819 M39.387329,32.9734819 C39.008329,32.6584819 38.542329,32.4144819 38.070329,32.2274819 C38.057329,32.1494819 38.044329,32.0714819 38.031329,31.9924819 C38.555329,32.2354819 39.045329,32.5564819 39.387329,32.9734819 M39.123329,15.8334819 C38.632329,15.4094819 38.026329,15.0874819 37.467329,14.8284819 L37.379329,14.7854819 C37.264329,14.7314819 37.149329,14.6794819 37.033329,14.6294819 C37.113329,14.5994819 37.191329,14.5674819 37.269329,14.5334819 C37.934329,14.8544819 38.640329,15.2674819 39.123329,15.8334819 M2.96632902,12.0394819 C2.66832902,11.7644819 2.37732902,11.4434819 2.09432902,11.0774819 C2.19132902,11.2034819 2.27732902,11.3154819 2.27732902,11.3154819 C2.27732902,11.3154819 2.22232902,11.2444819 2.07532902,11.0524819 C1.89632902,10.8194819 1.83232902,10.7354819 1.83232902,10.7354819 C1.83232902,10.7354819 1.94332902,10.8804819 2.05432902,11.0254819 C2.05432902,11.0254819 2.05432902,11.0254819 2.05532902,11.0254819 C0.754329022,9.31848192 -0.0366709783,7.16448192 0.583329022,5.02548192 C1.08832902,3.28148192 2.55132902,2.10348192 4.34532902,1.89048192 L4.35332902,1.89048192 C4.56432902,1.86548192 4.77632902,1.85248192 4.98832902,1.85248192 C5.57532902,1.85248192 6.16232902,1.94948192 6.71532902,2.14948192 C7.34932902,2.38048192 7.97432902,2.76148192 8.66632902,2.78848192 L8.75932902,2.79048192 C9.68832902,2.79048192 10.597329,2.32048192 11.464329,2.03348192 C12.429329,1.71748192 13.414329,1.44648192 14.405329,1.22248192 C16.110329,0.838481917 17.855329,0.602481917 19.605329,0.602481917 C19.750329,0.602481917 19.895329,0.603481917 20.040329,0.606481917 C20.186329,0.603481917 20.333329,0.601481917 20.479329,0.601481917 C22.117329,0.601481917 23.753329,0.807481917 25.356329,1.14848192 C26.638329,1.42248192 27.899329,1.78248192 29.135329,2.22148192 C29.883329,2.48748192 30.619329,2.74248192 31.366329,2.74248192 C31.759329,2.74248192 32.155329,2.67148192 32.556329,2.49448192 C33.420329,2.11648192 34.272329,1.85748192 35.182329,1.85748192 C35.445329,1.85748192 35.714329,1.87948192 35.989329,1.92648192 C36.970329,2.09148192 37.889329,2.55048192 38.554329,3.29848192 C38.561329,3.30648192 38.568329,3.31348192 38.574329,3.32148192 C37.956329,2.78348192 37.185329,2.44348192 36.371329,2.30648192 C36.097329,2.26048192 35.830329,2.23948192 35.567329,2.23948192 C34.656329,2.23948192 33.803329,2.49748192 32.938329,2.87748192 C32.537329,3.05448192 32.142329,3.12448192 31.749329,3.12448192 C31.002329,3.12448192 30.265329,2.86948192 29.516329,2.60248192 C28.280329,2.16348192 27.019329,1.80248192 25.737329,1.52948192 C24.128329,1.18748192 22.486329,0.983481917 20.840329,0.983481917 C20.700329,0.983481917 20.561329,0.984481917 20.421329,0.987481917 C20.275329,0.984481917 20.130329,0.982481917 19.985329,0.982481917 C18.235329,0.982481917 16.492329,1.21848192 14.787329,1.60248192 C13.795329,1.82748192 12.812329,2.09848192 11.845329,2.41648192 C10.979329,2.70048192 10.071329,3.17048192 9.14032902,3.17048192 L9.04932902,3.16948192 C8.35532902,3.14448192 7.73132902,2.76348192 7.09532902,2.53048192 C6.54332902,2.32948192 5.95632902,2.23448192 5.36932902,2.23448192 C5.15732902,2.23448192 4.94532902,2.24648192 4.73532902,2.27048192 L4.72832902,2.27048192 C2.93432902,2.48548192 1.47032902,3.66148192 0.965329022,5.40648192 C0.341329022,7.55848192 1.14432902,9.72448192 2.45732902,11.4334819 C2.27832902,11.2004819 2.21332902,11.1154819 2.21332902,11.1154819 C2.21332902,11.1154819 2.32432902,11.2604819 2.43632902,11.4064819 C2.54732902,11.5504819 2.65832902,11.6964819 2.65832902,11.6964819 C2.65832902,11.6964819 2.60432902,11.6244819 2.45732902,11.4334819 C2.62432902,11.6514819 2.79432902,11.8534819 2.96632902,12.0394819" id="Fill-538" fill="#88AB8B"></path>
                <path d="M29.043329,43.6964819 C28.935329,43.6964819 28.836329,43.6964819 28.748329,43.6954819 C28.759329,43.5564819 28.772329,43.4184819 28.786329,43.2794819 C28.919329,43.2794819 29.063329,43.2774819 29.216329,43.2744819 C29.197329,43.4144819 29.180329,43.5554819 29.165329,43.6964819 C29.123329,43.6964819 29.082329,43.6964819 29.043329,43.6964819 M41.233329,34.9774819 C41.138329,34.9564819 41.043329,34.9364819 40.948329,34.9174819 C40.919329,34.8044819 40.879329,34.6944819 40.831329,34.5904819 C40.896329,34.6044819 40.961329,34.6194819 41.026329,34.6344819 C41.106329,34.7424819 41.175329,34.8564819 41.233329,34.9774819 M10.022329,33.5464819 C9.90232902,33.3854819 9.78332902,33.2214819 9.66832902,33.0554819 L9.69732902,33.0204819 L9.73532902,32.9734819 C9.84732902,33.1444819 9.96132902,33.3124819 10.078329,33.4784819 L10.022329,33.5464819 M38.070329,32.2274819 C37.947329,32.1784819 37.824329,32.1344819 37.702329,32.0934819 C37.687329,32.0074819 37.673329,31.9214819 37.658329,31.8334819 C37.783329,31.8824819 37.908329,31.9354819 38.031329,31.9924819 C38.044329,32.0714819 38.057329,32.1494819 38.070329,32.2274819 M7.57932902,14.9504819 C7.54032902,14.9504819 7.50032902,14.9494819 7.46032902,14.9454819 C7.50332902,14.7944819 7.54832902,14.6434819 7.59432902,14.4914819 C7.77132902,14.4814819 7.94432902,14.4614819 8.11532902,14.4324819 C8.06432902,14.5914819 8.01432902,14.7514819 7.96532902,14.9104819 C7.94732902,14.9114819 7.92832902,14.9124819 7.90932902,14.9134819 C7.80032902,14.9384819 7.68932902,14.9504819 7.57932902,14.9504819 M37.033329,14.6294819 C36.787329,14.5214819 36.539329,14.4194819 36.292329,14.3224819 C36.393329,14.2924819 36.494329,14.2594819 36.593329,14.2234819 C36.728329,14.2824819 36.862329,14.3424819 36.996329,14.4044819 L37.083329,14.4444819 C37.144329,14.4734819 37.207329,14.5024819 37.269329,14.5334819 C37.191329,14.5674819 37.113329,14.5994819 37.033329,14.6294819" id="Fill-539" fill="#6D876E"></path>
                <path d="M28.786329,43.2794819 C28.800329,43.1504819 28.816329,43.0204819 28.833329,42.8914819 C28.974329,42.8884819 29.122329,42.8844819 29.275329,42.8794819 C29.253329,43.0104819 29.234329,43.1424819 29.216329,43.2744819 C29.063329,43.2774819 28.919329,43.2794819 28.786329,43.2794819 M40.948329,34.9174819 C40.840329,34.8964819 40.731329,34.8764819 40.623329,34.8574819 C40.613329,34.7464819 40.594329,34.6394819 40.567329,34.5364819 C40.655329,34.5534819 40.743329,34.5714819 40.831329,34.5904819 C40.879329,34.6944819 40.919329,34.8044819 40.948329,34.9174819 M9.66832902,33.0554819 C9.56132902,32.9024819 9.45632902,32.7474819 9.35332902,32.5914819 L9.43132902,32.4954819 C9.53032902,32.6564819 9.63232902,32.8164819 9.73532902,32.9734819 L9.69732902,33.0204819 L9.66832902,33.0554819 M37.702329,32.0934819 C37.590329,32.0554819 37.478329,32.0204819 37.369329,31.9894819 C37.353329,31.8974819 37.337329,31.8054819 37.320329,31.7114819 C37.433329,31.7494819 37.546329,31.7894819 37.658329,31.8334819 C37.673329,31.9214819 37.687329,32.0074819 37.702329,32.0934819 M7.59432902,14.4914819 C7.63832902,14.3444819 7.68432902,14.1974819 7.73132902,14.0514819 C7.91932902,14.0194819 8.10232902,13.9784819 8.28232902,13.9294819 C8.22432902,14.0964819 8.16932902,14.2644819 8.11532902,14.4324819 C7.94432902,14.4614819 7.77132902,14.4814819 7.59432902,14.4914819 M36.292329,14.3224819 C36.031329,14.2204819 35.771329,14.1244819 35.513329,14.0334819 C35.646329,14.0084819 35.778329,13.9774819 35.907329,13.9404819 C36.136329,14.0304819 36.365329,14.1244819 36.593329,14.2234819 C36.494329,14.2594819 36.393329,14.2924819 36.292329,14.3224819" id="Fill-540" fill="#556B58"></path>
                <path d="M28.833329,42.8914819 C28.851329,42.7604819 28.871329,42.6294819 28.892329,42.4984819 C29.039329,42.4924819 29.191329,42.4864819 29.345329,42.4774819 C29.320329,42.6104819 29.296329,42.7444819 29.275329,42.8794819 C29.122329,42.8844819 28.974329,42.8884819 28.833329,42.8914819" id="Fill-541" fill="#425245"></path>
                <path d="M40.623329,34.8574819 C40.497329,34.8364819 40.372329,34.8164819 40.246329,34.7984819 C40.252329,34.6874819 40.251329,34.5794819 40.241329,34.4754819 C40.350329,34.4944819 40.459329,34.5144819 40.567329,34.5364819 C40.594329,34.6394819 40.613329,34.7464819 40.623329,34.8574819" id="Fill-542" fill="#425245"></path>
                <path d="M9.35332902,32.5914819 C9.25032902,32.4334819 9.14932902,32.2744819 9.05032902,32.1134819 L9.13932902,32.0054819 C9.23432902,32.1704819 9.33232902,32.3344819 9.43132902,32.4954819 L9.35332902,32.5914819" id="Fill-543" fill="#425245"></path>
                <path d="M37.369329,31.9894819 C37.256329,31.9564819 37.145329,31.9274819 37.038329,31.9004819 C37.021329,31.8044819 37.003329,31.7064819 36.986329,31.6074819 C37.096329,31.6394819 37.208329,31.6744819 37.320329,31.7114819 C37.337329,31.8054819 37.353329,31.8974819 37.369329,31.9894819" id="Fill-544" fill="#425245"></path>
                <path d="M37.652329,21.0984819 C37.530329,20.9834819 37.406329,20.8704819 37.280329,20.7604819 C37.286329,20.7554819 37.293329,20.7504819 37.299329,20.7444819 C37.419329,20.8604819 37.537329,20.9784819 37.652329,21.0984819" id="Fill-545" fill="#425245"></path>
                <path d="M7.73132902,14.0514819 C7.78532902,13.8824819 7.84132902,13.7144819 7.89832902,13.5474819 C8.09832902,13.4924819 8.29432902,13.4284819 8.48432902,13.3564819 C8.41532902,13.5474819 8.34732902,13.7384819 8.28232902,13.9294819 C8.10232902,13.9784819 7.91932902,14.0194819 7.73132902,14.0514819" id="Fill-546" fill="#425245"></path>
                <path d="M35.513329,14.0334819 C35.193329,13.9214819 34.877329,13.8164819 34.570329,13.7194819 C34.762329,13.7104819 34.949329,13.6874819 35.133329,13.6524819 C35.389329,13.7434819 35.648329,13.8384819 35.907329,13.9404819 C35.778329,13.9774819 35.646329,14.0084819 35.513329,14.0334819" id="Fill-547" fill="#425245"></path>
                <path d="M31.198329,51.0274819 C31.197329,51.0274819 31.196329,51.0264819 31.195329,51.0254819 C31.131329,50.9894819 31.069329,50.9464819 31.009329,50.9004819 C30.789329,50.6314819 30.603329,50.3224819 30.436329,50.0534819 C30.153329,49.5994819 29.913329,49.1174819 29.720329,48.6164819 C29.117329,47.0504819 28.991329,45.3554819 29.165329,43.6964819 C29.296329,43.6964819 29.440329,43.6944819 29.592329,43.6914819 C29.356329,45.4744819 29.452329,47.3114819 30.101329,48.9994819 C30.295329,49.4994819 30.534329,49.9804819 30.818329,50.4374819 C30.934329,50.6234819 31.059329,50.8294819 31.198329,51.0274819" id="Fill-548" fill="#6D876E"></path>
                <path d="M29.165329,43.6964819 C29.180329,43.5554819 29.197329,43.4144819 29.216329,43.2744819 C29.356329,43.2714819 29.503329,43.2674819 29.655329,43.2624819 C29.632329,43.4044819 29.611329,43.5484819 29.592329,43.6914819 C29.440329,43.6944819 29.296329,43.6964819 29.165329,43.6964819" id="Fill-549" fill="#556B58"></path>
                <path d="M29.216329,43.2744819 C29.234329,43.1424819 29.253329,43.0104819 29.275329,42.8794819 C29.421329,42.8734819 29.572329,42.8664819 29.726329,42.8584819 C29.701329,42.9924819 29.677329,43.1274819 29.655329,43.2624819 C29.503329,43.2674819 29.356329,43.2714819 29.216329,43.2744819" id="Fill-550" fill="#425245"></path>
                <path d="M46.438329,37.6904819 C45.166329,36.5634819 43.578329,35.8334819 41.928329,35.4324819 C41.739329,35.3854819 41.548329,35.3434819 41.357329,35.3054819 C41.325329,35.1914819 41.284329,35.0814819 41.233329,34.9774819 C41.339329,34.9994819 41.444329,35.0234819 41.549329,35.0484819 C43.271329,35.4694819 44.928329,36.2484819 46.227329,37.4624819 C46.237329,37.4724819 46.246329,37.4824819 46.256329,37.4924819 C46.315329,37.5564819 46.376329,37.6224819 46.438329,37.6904819" id="Fill-551" fill="#6D876E"></path>
                <path d="M41.357329,35.3054819 C41.239329,35.2824819 41.122329,35.2604819 41.004329,35.2394819 C40.994329,35.1284819 40.975329,35.0214819 40.948329,34.9174819 C41.043329,34.9364819 41.138329,34.9564819 41.233329,34.9774819 C41.284329,35.0814819 41.325329,35.1914819 41.357329,35.3054819" id="Fill-552" fill="#556B58"></path>
                <path d="M41.004329,35.2394819 C40.878329,35.2174819 40.753329,35.1974819 40.627329,35.1784819 C40.633329,35.0684819 40.632329,34.9614819 40.623329,34.8574819 C40.731329,34.8764819 40.840329,34.8964819 40.948329,34.9174819 C40.975329,35.0214819 40.994329,35.1284819 41.004329,35.2394819" id="Fill-553" fill="#425245"></path>
                <path d="M12.232329,36.0304819 C12.173329,35.9744819 12.116329,35.9194819 12.058329,35.8634819 C11.341329,35.1274819 10.678329,34.3324819 10.078329,33.4784819 L10.112329,33.4364819 L10.144329,33.3984819 C10.768329,34.3444819 11.468329,35.2224819 12.232329,36.0304819" id="Fill-554" fill="#6D876E"></path>
                <path d="M10.078329,33.4784819 C9.96132902,33.3124819 9.84732902,33.1444819 9.73532902,32.9734819 L9.81332902,32.8784819 C9.92132902,33.0544819 10.031329,33.2264819 10.144329,33.3984819 L10.112329,33.4364819 L10.078329,33.4784819" id="Fill-555" fill="#556B58"></path>
                <path d="M9.73532902,32.9734819 C9.63232902,32.8164819 9.53032902,32.6564819 9.43132902,32.4954819 L9.52032902,32.3864819 C9.61532902,32.5524819 9.71332902,32.7164819 9.81332902,32.8784819 L9.73532902,32.9734819" id="Fill-556" fill="#425245"></path>
                <path d="M4.92132902,33.2274819 C4.88732902,33.2074819 4.85332902,33.1874819 4.81932902,33.1654819 C4.77332902,33.1364819 4.73032902,33.1054819 4.68832902,33.0744819 C4.18432902,32.4024819 4.19632902,31.4734819 4.25832902,30.6104819 C4.43632902,28.0614819 5.47632902,25.5514819 6.79632902,23.3924819 C6.71032902,20.6164819 7.11432902,17.7234819 7.96532902,14.9104819 C8.14132902,14.9024819 8.31332902,14.8834819 8.48232902,14.8574819 C7.53932902,17.8074819 7.08732902,20.8554819 7.17732902,23.7744819 C5.85932902,25.9344819 4.81832902,28.4444819 4.63932902,30.9914819 C4.58432902,31.7604819 4.56832902,32.5804819 4.92132902,33.2274819" id="Fill-557" fill="#6D876E"></path>
                <path d="M7.96532902,14.9104819 C8.01432902,14.7514819 8.06432902,14.5914819 8.11532902,14.4324819 C8.30132902,14.4014819 8.48432902,14.3604819 8.66232902,14.3114819 C8.60032902,14.4924819 8.54032902,14.6744819 8.48232902,14.8574819 C8.31332902,14.8834819 8.14132902,14.9024819 7.96532902,14.9104819" id="Fill-558" fill="#556B58"></path>
                <path d="M8.11532902,14.4324819 C8.16932902,14.2644819 8.22432902,14.0964819 8.28232902,13.9294819 C8.48132902,13.8744819 8.67532902,13.8104819 8.86432902,13.7394819 C8.79532902,13.9294819 8.72732902,14.1204819 8.66232902,14.3114819 C8.48432902,14.3604819 8.30132902,14.4014819 8.11532902,14.4324819" id="Fill-559" fill="#425245"></path>
                <path d="M39.537329,33.1774819 C39.109329,32.8774819 38.605329,32.6514819 38.114329,32.4854819 C38.099329,32.4004819 38.085329,32.3144819 38.070329,32.2274819 C38.542329,32.4144819 39.008329,32.6584819 39.387329,32.9734819 C39.440329,33.0394819 39.491329,33.1074819 39.537329,33.1774819" id="Fill-560" fill="#6D876E"></path>
                <path d="M38.114329,32.4854819 C37.991329,32.4434819 37.870329,32.4054819 37.750329,32.3714819 C37.734329,32.2794819 37.718329,32.1874819 37.702329,32.0934819 C37.824329,32.1344819 37.947329,32.1784819 38.070329,32.2274819 C38.085329,32.3144819 38.099329,32.4004819 38.114329,32.4854819" id="Fill-561" fill="#556B58"></path>
                <path d="M37.750329,32.3714819 C37.638329,32.3384819 37.528329,32.3094819 37.421329,32.2834819 C37.403329,32.1864819 37.386329,32.0884819 37.369329,31.9894819 C37.478329,32.0204819 37.590329,32.0554819 37.702329,32.0934819 C37.718329,32.1874819 37.734329,32.2794819 37.750329,32.3714819 M37.834329,21.2954819 C37.777329,21.2434819 37.719329,21.1924819 37.661329,21.1414819 C37.667329,21.1364819 37.673329,21.1324819 37.679329,21.1274819 C37.731329,21.1824819 37.783329,21.2384819 37.834329,21.2954819" id="Fill-562" fill="#425245"></path>
                <path d="M39.281329,16.0354819 C38.836329,15.6984819 38.324329,15.4304819 37.847329,15.2084819 L37.761329,15.1684819 C37.422329,15.0104819 37.078329,14.8644819 36.735329,14.7294819 C36.836329,14.6994819 36.935329,14.6654819 37.033329,14.6294819 C37.149329,14.6794819 37.264329,14.7314819 37.379329,14.7854819 L37.467329,14.8284819 C38.026329,15.0874819 38.632329,15.4094819 39.123329,15.8334819 C39.179329,15.8984819 39.232329,15.9654819 39.281329,16.0354819" id="Fill-563" fill="#6D876E"></path>
                <path d="M36.735329,14.7294819 C36.454329,14.6184819 36.173329,14.5144819 35.896329,14.4164819 C36.030329,14.3914819 36.162329,14.3594819 36.292329,14.3224819 C36.539329,14.4194819 36.787329,14.5214819 37.033329,14.6294819 C36.935329,14.6654819 36.836329,14.6994819 36.735329,14.7294819" id="Fill-564" fill="#556B58"></path>
                <path d="M35.896329,14.4164819 C35.575329,14.3034819 35.258329,14.1984819 34.951329,14.1004819 C35.142329,14.0904819 35.330329,14.0684819 35.513329,14.0334819 C35.771329,14.1244819 36.031329,14.2204819 36.292329,14.3224819 C36.162329,14.3594819 36.030329,14.3914819 35.896329,14.4164819" id="Fill-565" fill="#425245"></path>
                <path d="M3.15832902,12.2094819 C3.09432902,12.1554819 3.03032902,12.0984819 2.96632902,12.0394819 C2.79432902,11.8534819 2.62432902,11.6514819 2.45732902,11.4334819 C1.14432902,9.72448192 0.341329022,7.55848192 0.965329022,5.40648192 C1.47032902,3.66148192 2.93432902,2.48548192 4.72832902,2.27048192 L4.73532902,2.27048192 C4.94532902,2.24648192 5.15732902,2.23448192 5.36932902,2.23448192 C5.95632902,2.23448192 6.54332902,2.32948192 7.09532902,2.53048192 C7.73132902,2.76348192 8.35532902,3.14448192 9.04932902,3.16948192 L9.14032902,3.17048192 C10.071329,3.17048192 10.979329,2.70048192 11.845329,2.41648192 C12.812329,2.09848192 13.795329,1.82748192 14.787329,1.60248192 C16.492329,1.21848192 18.235329,0.982481917 19.985329,0.982481917 C20.130329,0.982481917 20.275329,0.984481917 20.421329,0.987481917 C20.561329,0.984481917 20.700329,0.983481917 20.840329,0.983481917 C22.486329,0.983481917 24.128329,1.18748192 25.737329,1.52948192 C27.019329,1.80248192 28.280329,2.16348192 29.516329,2.60248192 C30.265329,2.86948192 31.002329,3.12448192 31.749329,3.12448192 C32.142329,3.12448192 32.537329,3.05448192 32.938329,2.87748192 C33.803329,2.49748192 34.656329,2.23948192 35.567329,2.23948192 C35.830329,2.23948192 36.097329,2.26048192 36.371329,2.30648192 C37.185329,2.44348192 37.956329,2.78348192 38.574329,3.32148192 C38.636329,3.39148192 38.694329,3.46348192 38.750329,3.53648192 C38.170329,3.09448192 37.477329,2.81248192 36.753329,2.68948192 C36.476329,2.64248192 36.207329,2.62048192 35.943329,2.62048192 C35.034329,2.62048192 34.184329,2.87848192 33.322329,3.25848192 C32.920329,3.43548192 32.524329,3.50548192 32.131329,3.50548192 C31.383329,3.50548192 30.647329,3.25048192 29.897329,2.98548192 C28.663329,2.54648192 27.401329,2.18548192 26.120329,1.91248192 C24.509329,1.56948192 22.866329,1.36348192 21.219329,1.36348192 C21.080329,1.36348192 20.941329,1.36548192 20.803329,1.36848192 C20.666329,1.36548192 20.530329,1.36348192 20.394329,1.36348192 C18.635329,1.36348192 16.884329,1.60048192 15.169329,1.98648192 C14.176329,2.20848192 13.194329,2.47948192 12.227329,2.79948192 C11.361329,3.08448192 10.453329,3.55448192 9.52132902,3.55448192 L9.42932902,3.55148192 C8.73832902,3.52448192 8.11132902,3.14448192 7.47732902,2.91348192 C6.92732902,2.71148192 6.34032902,2.61548192 5.75532902,2.61548192 C5.54132902,2.61548192 5.32832902,2.62848192 5.11732902,2.65348192 L5.10932902,2.65348192 C3.31632902,2.86648192 1.85332902,4.04148192 1.34532902,5.78948192 C0.724329022,7.93948192 1.52632902,10.1044819 2.83932902,11.8164819 C2.66032902,11.5834819 2.59532902,11.4994819 2.59532902,11.4994819 C2.59532902,11.4994819 2.70632902,11.6444819 2.81732902,11.7894819 C2.92932902,11.9344819 3.04032902,12.0794819 3.04032902,12.0794819 C3.04032902,12.0794819 2.98632902,12.0084819 2.83932902,11.8164819 C2.94432902,11.9534819 3.05132902,12.0844819 3.15832902,12.2094819 M2.65832902,11.6964819 C2.65832902,11.6964819 2.54732902,11.5504819 2.43632902,11.4064819 C2.32432902,11.2604819 2.21332902,11.1154819 2.21332902,11.1154819 C2.21332902,11.1154819 2.27832902,11.2004819 2.45732902,11.4334819 C2.60432902,11.6244819 2.65832902,11.6964819 2.65832902,11.6964819" id="Fill-566" fill="#6D876E"></path>
                <path d="M31.387329,51.1184819 C31.323329,51.0934819 31.260329,51.0634819 31.198329,51.0274819 C31.059329,50.8294819 30.934329,50.6234819 30.818329,50.4374819 C30.534329,49.9804819 30.295329,49.4994819 30.101329,48.9994819 C29.452329,47.3114819 29.356329,45.4744819 29.592329,43.6914819 C29.732329,43.6894819 29.879329,43.6854819 30.032329,43.6804819 C29.728329,45.5814819 29.785329,47.5664819 30.484329,49.3794819 C30.676329,49.8814819 30.917329,50.3634819 31.200329,50.8184819 C31.260329,50.9144819 31.322329,51.0154819 31.387329,51.1184819 M46.638329,37.9154819 C45.398329,36.8774819 43.882329,36.1964819 42.310329,35.8124819 C42.016329,35.7414819 41.718329,35.6804819 41.417329,35.6274819 C41.406329,35.5154819 41.385329,35.4084819 41.357329,35.3054819 C41.548329,35.3434819 41.739329,35.3854819 41.928329,35.4324819 C43.578329,35.8334819 45.166329,36.5634819 46.438329,37.6904819 C46.504329,37.7634819 46.572329,37.8384819 46.638329,37.9154819 M12.431329,36.2164819 C12.365329,36.1554819 12.298329,36.0924819 12.232329,36.0304819 C11.468329,35.2224819 10.768329,34.3444819 10.144329,33.3984819 L10.221329,33.3044819 C10.872329,34.3564819 11.613329,35.3274819 12.431329,36.2164819 M39.659329,33.3914819 C39.190329,33.1104819 38.657329,32.9064819 38.161329,32.7624819 C38.146329,32.6704819 38.130329,32.5784819 38.114329,32.4854819 C38.605329,32.6514819 39.109329,32.8774819 39.537329,33.1774819 C39.581329,33.2464819 39.622329,33.3174819 39.659329,33.3914819 M5.18632902,33.3564819 C5.09732902,33.3204819 5.00932902,33.2774819 4.92132902,33.2274819 C4.56832902,32.5804819 4.58432902,31.7604819 4.63932902,30.9914819 C4.81832902,28.4444819 5.85932902,25.9344819 7.17732902,23.7744819 C7.08732902,20.8554819 7.53932902,17.8074819 8.48232902,14.8574819 C8.66832902,14.8284819 8.85032902,14.7884819 9.02832902,14.7414819 C7.97532902,17.8444819 7.46532902,21.0744819 7.56032902,24.1584819 C6.24232902,26.3164819 5.20032902,28.8274819 5.02032902,31.3744819 C4.97332902,32.0464819 4.95432902,32.7564819 5.18632902,33.3564819 M39.414329,16.2404819 C39.033329,15.9854819 38.619329,15.7734819 38.229329,15.5914819 L38.141329,15.5514819 C37.549329,15.2744819 36.943329,15.0344819 36.351329,14.8234819 C36.481329,14.7984819 36.609329,14.7664819 36.735329,14.7294819 C37.078329,14.8644819 37.422329,15.0104819 37.761329,15.1684819 L37.847329,15.2084819 C38.324329,15.4304819 38.836329,15.6984819 39.281329,16.0354819 C39.329329,16.1014819 39.373329,16.1704819 39.414329,16.2404819 M3.34932902,12.3654819 C3.28532902,12.3154819 3.22132902,12.2634819 3.15832902,12.2094819 C3.05132902,12.0844819 2.94432902,11.9534819 2.83932902,11.8164819 C1.52632902,10.1044819 0.724329022,7.93948192 1.34532902,5.78948192 C1.85332902,4.04148192 3.31632902,2.86648192 5.10932902,2.65348192 L5.11732902,2.65348192 C5.32832902,2.62848192 5.54132902,2.61548192 5.75532902,2.61548192 C6.34032902,2.61548192 6.92732902,2.71148192 7.47732902,2.91348192 C8.11132902,3.14448192 8.73832902,3.52448192 9.42932902,3.55148192 L9.52132902,3.55448192 C10.453329,3.55448192 11.361329,3.08448192 12.227329,2.79948192 C13.194329,2.47948192 14.176329,2.20848192 15.169329,1.98648192 C16.884329,1.60048192 18.635329,1.36348192 20.394329,1.36348192 C20.530329,1.36348192 20.666329,1.36548192 20.803329,1.36848192 C20.941329,1.36548192 21.080329,1.36348192 21.219329,1.36348192 C22.866329,1.36348192 24.509329,1.56948192 26.120329,1.91248192 C27.401329,2.18548192 28.663329,2.54648192 29.897329,2.98548192 C30.647329,3.25048192 31.383329,3.50548192 32.131329,3.50548192 C32.524329,3.50548192 32.920329,3.43548192 33.322329,3.25848192 C34.184329,2.87848192 35.034329,2.62048192 35.943329,2.62048192 C36.207329,2.62048192 36.476329,2.64248192 36.753329,2.68948192 C37.477329,2.81248192 38.170329,3.09448192 38.750329,3.53648192 C38.806329,3.60948192 38.859329,3.68448192 38.910329,3.76048192 C38.378329,3.40848192 37.769329,3.17748192 37.135329,3.07048192 C36.861329,3.02448192 36.594329,3.00248192 36.331329,3.00248192 C35.420329,3.00248192 34.567329,3.26048192 33.703329,3.64148192 C33.301329,3.81848192 32.906329,3.88848192 32.513329,3.88848192 C31.766329,3.88848192 31.029329,3.63348192 30.281329,3.36548192 C29.046329,2.92648192 27.782329,2.56848192 26.502329,2.29248192 C24.892329,1.95048192 23.250329,1.74748192 21.604329,1.74748192 C21.464329,1.74748192 21.324329,1.74848192 21.184329,1.75148192 C21.046329,1.74848192 20.907329,1.74748192 20.768329,1.74748192 C19.013329,1.74748192 17.263329,1.98148192 15.550329,2.36748192 C14.557329,2.59148192 13.576329,2.86148192 12.609329,3.18048192 C11.744329,3.46648192 10.835329,3.93548192 9.90332902,3.93548192 L9.81132902,3.93548192 C9.12032902,3.90548192 8.49632902,3.52748192 7.85932902,3.29448192 C7.30832902,3.09348192 6.72032902,2.99748192 6.13332902,2.99748192 C5.92132902,2.99748192 5.70932902,3.01048192 5.49932902,3.03448192 L5.49132902,3.03748192 C3.69732902,3.24948192 2.23332902,4.42548192 1.72832902,6.17248192 C1.12032902,8.27348192 1.87432902,10.3904819 3.13232902,12.0804819 C3.04832902,11.9704819 2.97832902,11.8794819 2.97732902,11.8794819 C2.97732902,11.8794819 3.03832902,11.9584819 3.20432902,12.1764819 C3.20932902,12.1824819 3.21432902,12.1894819 3.21932902,12.1964819 C3.27532902,12.2694819 3.31832902,12.3244819 3.34932902,12.3654819" id="Fill-567" fill="#556B58"></path>
                <path d="M29.592329,43.6914819 C29.611329,43.5484819 29.632329,43.4044819 29.655329,43.2624819 C29.802329,43.2564819 29.954329,43.2504819 30.108329,43.2414819 C30.081329,43.3874819 30.055329,43.5334819 30.032329,43.6804819 C29.879329,43.6854819 29.732329,43.6894819 29.592329,43.6914819 M41.417329,35.6274819 C41.281329,35.6034819 41.145329,35.5804819 41.008329,35.5594819 C41.014329,35.4494819 41.013329,35.3424819 41.004329,35.2394819 C41.122329,35.2604819 41.239329,35.2824819 41.357329,35.3054819 C41.385329,35.4084819 41.406329,35.5154819 41.417329,35.6274819 M10.144329,33.3984819 C10.031329,33.2264819 9.92132902,33.0544819 9.81332902,32.8784819 L9.90232902,32.7694819 C10.006329,32.9494819 10.112329,33.1284819 10.221329,33.3044819 L10.144329,33.3984819 M38.161329,32.7624819 C38.039329,32.7264819 37.919329,32.6944819 37.803329,32.6654819 C37.785329,32.5694819 37.768329,32.4704819 37.750329,32.3714819 C37.870329,32.4054819 37.991329,32.4434819 38.114329,32.4854819 C38.130329,32.5784819 38.146329,32.6704819 38.161329,32.7624819 M8.48232902,14.8574819 C8.54032902,14.6744819 8.60032902,14.4924819 8.66232902,14.3114819 C8.86232902,14.2564819 9.05732902,14.1914819 9.24732902,14.1204819 C9.17232902,14.3264819 9.09932902,14.5334819 9.02832902,14.7414819 C8.85032902,14.7884819 8.66832902,14.8284819 8.48232902,14.8574819 M36.351329,14.8234819 C36.005329,14.7004819 35.664329,14.5874819 35.334329,14.4824819 C35.525329,14.4734819 35.712329,14.4514819 35.896329,14.4164819 C36.173329,14.5144819 36.454329,14.6184819 36.735329,14.7294819 C36.609329,14.7664819 36.481329,14.7984819 36.351329,14.8234819" id="Fill-568" fill="#425245"></path>
                <path d="M31.583329,51.1804819 C31.517329,51.1644819 31.452329,51.1444819 31.387329,51.1184819 C31.322329,51.0154819 31.260329,50.9144819 31.200329,50.8184819 C30.917329,50.3634819 30.676329,49.8814819 30.484329,49.3794819 C29.785329,47.5664819 29.728329,45.5814819 30.032329,43.6804819 C30.191329,43.6744819 30.356329,43.6674819 30.524329,43.6584819 C30.140329,45.6914819 30.147329,47.8434819 30.900329,49.7964819 C31.085329,50.2784819 31.315329,50.7424819 31.583329,51.1804819 M46.832329,38.1504819 C45.635329,37.2144819 44.206329,36.5904819 42.727329,36.2314819 C42.299329,36.1264819 41.864329,36.0414819 41.425329,35.9764819 C41.432329,35.8554819 41.429329,35.7394819 41.417329,35.6274819 C41.718329,35.6804819 42.016329,35.7414819 42.310329,35.8124819 C43.882329,36.1964819 45.398329,36.8774819 46.638329,37.9154819 C46.704329,37.9914819 46.769329,38.0704819 46.832329,38.1504819 M12.660329,36.4244819 C12.583329,36.3554819 12.507329,36.2864819 12.431329,36.2164819 C11.613329,35.3274819 10.872329,34.3564819 10.221329,33.3044819 L10.319329,33.1854819 C10.995329,34.3614819 11.781329,35.4414819 12.660329,36.4244819 M39.761329,33.6354819 C39.254329,33.3804819 38.704329,33.2024819 38.218329,33.0834819 C38.199329,32.9774819 38.180329,32.8704819 38.161329,32.7624819 C38.657329,32.9064819 39.190329,33.1104819 39.659329,33.3914819 C39.698329,33.4694819 39.732329,33.5514819 39.761329,33.6354819 M5.50532902,33.4584819 C5.39832902,33.4334819 5.29232902,33.3994819 5.18632902,33.3564819 C4.95432902,32.7564819 4.97332902,32.0464819 5.02032902,31.3744819 C5.20032902,28.8274819 6.24232902,26.3164819 7.56032902,24.1584819 C7.46532902,21.0744819 7.97532902,17.8444819 9.02832902,14.7414819 C9.24632902,14.6834819 9.45832902,14.6144819 9.66532902,14.5374819 C8.46232902,17.8284819 7.87432902,21.2844819 7.97632902,24.5754819 C6.65732902,26.7334819 5.61632902,29.2434819 5.43732902,31.7904819 C5.39732902,32.3484819 5.37832902,32.9324819 5.50532902,33.4584819 M39.530329,16.4674819 C39.238329,16.2944819 38.935329,16.1424819 38.645329,16.0084819 L38.558329,15.9674819 C37.621329,15.5294819 36.647329,15.1834819 35.750329,14.8974819 C35.955329,14.8874819 36.155329,14.8624819 36.351329,14.8234819 C36.943329,15.0344819 37.549329,15.2744819 38.141329,15.5514819 L38.229329,15.5914819 C38.619329,15.7734819 39.033329,15.9854819 39.414329,16.2404819 C39.457329,16.3144819 39.495329,16.3894819 39.530329,16.4674819 M3.57332902,12.5304819 C3.50132902,12.4804819 3.42932902,12.4274819 3.35832902,12.3714819 C3.33732902,12.3464819 3.31732902,12.3204819 3.29632902,12.2944819 C3.31632902,12.3214819 3.33532902,12.3454819 3.35132902,12.3674819 C3.35132902,12.3674819 3.35032902,12.3654819 3.34932902,12.3654819 C3.31832902,12.3244819 3.27532902,12.2694819 3.21932902,12.1964819 C3.21432902,12.1894819 3.20932902,12.1824819 3.20432902,12.1764819 C3.03832902,11.9584819 2.97732902,11.8794819 2.97732902,11.8794819 C2.97832902,11.8794819 3.04832902,11.9704819 3.13232902,12.0804819 C1.87432902,10.3904819 1.12032902,8.27348192 1.72832902,6.17248192 C2.23332902,4.42548192 3.69732902,3.24948192 5.49132902,3.03748192 L5.49932902,3.03448192 C5.70932902,3.01048192 5.92132902,2.99748192 6.13332902,2.99748192 C6.72032902,2.99748192 7.30832902,3.09348192 7.85932902,3.29448192 C8.49632902,3.52748192 9.12032902,3.90548192 9.81132902,3.93548192 L9.90332902,3.93548192 C10.835329,3.93548192 11.744329,3.46648192 12.609329,3.18048192 C13.576329,2.86148192 14.557329,2.59148192 15.550329,2.36748192 C17.263329,1.98148192 19.013329,1.74748192 20.768329,1.74748192 C20.907329,1.74748192 21.046329,1.74848192 21.184329,1.75148192 C21.324329,1.74848192 21.464329,1.74748192 21.604329,1.74748192 C23.250329,1.74748192 24.892329,1.95048192 26.502329,2.29248192 C27.782329,2.56848192 29.046329,2.92648192 30.281329,3.36548192 C31.029329,3.63348192 31.766329,3.88848192 32.513329,3.88848192 C32.906329,3.88848192 33.301329,3.81848192 33.703329,3.64148192 C34.567329,3.26048192 35.420329,3.00248192 36.331329,3.00248192 C36.594329,3.00248192 36.861329,3.02448192 37.135329,3.07048192 C37.769329,3.17748192 38.378329,3.40848192 38.910329,3.76048192 C38.966329,3.84448192 39.019329,3.93048192 39.068329,4.01848192 C38.601329,3.75448192 38.085329,3.57748192 37.550329,3.48648192 C37.276329,3.44048192 37.009329,3.41948192 36.747329,3.41948192 C35.836329,3.41948192 34.984329,3.67748192 34.119329,4.05848192 C33.718329,4.23448192 33.322329,4.30548192 32.929329,4.30548192 C32.182329,4.30548192 31.445329,4.04948192 30.698329,3.78248192 C29.461329,3.34348192 28.200329,2.98548192 26.917329,2.70948192 C25.309329,2.36748192 23.666329,2.16348192 22.022329,2.16348192 C21.882329,2.16348192 21.742329,2.16448192 21.602329,2.16748192 C21.463329,2.16448192 21.324329,2.16348192 21.185329,2.16348192 C19.428329,2.16348192 17.679329,2.39748192 15.968329,2.78348192 C14.974329,3.00748192 13.992329,3.27848192 13.025329,3.59648192 C12.159329,3.88048192 11.251329,4.35148192 10.320329,4.35148192 L10.228329,4.35148192 C9.53532902,4.32248192 8.91232902,3.94348192 8.27632902,3.71048192 C7.72332902,3.50948192 7.13632902,3.41448192 6.54832902,3.41448192 C6.33632902,3.41448192 6.12432902,3.42648192 5.91432902,3.45148192 L5.90932902,3.45348192 C4.11432902,3.66548192 2.65032902,4.84248192 2.14532902,6.58648192 C1.53332902,8.69948192 2.29632902,10.8264819 3.56632902,12.5204819 C3.47432902,12.4004819 3.39432902,12.2964819 3.39432902,12.2964819 C3.39432902,12.2964819 3.44232902,12.3604819 3.57332902,12.5304819" id="Fill-569" fill="#425245"></path>
                <path d="M31.898329,51.2174819 C31.794329,51.2174819 31.688329,51.2054819 31.583329,51.1804819 C31.315329,50.7424819 31.085329,50.2784819 30.900329,49.7964819 C30.147329,47.8434819 30.140329,45.6914819 30.524329,43.6584819 C30.356329,43.6674819 30.191329,43.6744819 30.032329,43.6804819 C30.055329,43.5334819 30.081329,43.3874819 30.108329,43.2414819 C29.954329,43.2504819 29.802329,43.2564819 29.655329,43.2624819 C29.677329,43.1274819 29.701329,42.9924819 29.726329,42.8584819 C29.572329,42.8664819 29.421329,42.8734819 29.275329,42.8794819 C29.296329,42.7444819 29.320329,42.6104819 29.345329,42.4774819 C29.191329,42.4864819 29.039329,42.4924819 28.892329,42.4984819 C28.914329,42.3634819 28.937329,42.2284819 28.963329,42.0944819 C28.398329,42.1254819 27.872329,42.1334819 27.477329,42.1334819 C27.043329,42.1334819 26.765329,42.1244819 26.765329,42.1244819 C25.858329,42.0794819 24.944329,41.9354819 24.050329,41.7814819 C19.803329,41.0424819 15.805329,39.2394819 12.660329,36.4244819 C11.781329,35.4414819 10.995329,34.3614819 10.319329,33.1854819 L10.221329,33.3044819 C10.112329,33.1284819 10.006329,32.9494819 9.90232902,32.7694819 L9.81332902,32.8784819 C9.71332902,32.7164819 9.61532902,32.5524819 9.52032902,32.3864819 L9.43132902,32.4954819 C9.33232902,32.3344819 9.23432902,32.1704819 9.13932902,32.0054819 L9.05032902,32.1134819 C8.95032902,31.9514819 8.85332902,31.7884819 8.75832902,31.6224819 L8.55132902,31.8754819 L8.10632902,32.4154819 C7.56532902,33.0674819 6.78332902,33.5124819 5.98232902,33.5124819 C5.82332902,33.5124819 5.66432902,33.4954819 5.50532902,33.4584819 C5.37832902,32.9324819 5.39732902,32.3484819 5.43732902,31.7904819 C5.61632902,29.2434819 6.65732902,26.7334819 7.97632902,24.5754819 C7.87432902,21.2844819 8.46232902,17.8284819 9.66532902,14.5374819 C9.45832902,14.6144819 9.24632902,14.6834819 9.02832902,14.7414819 C9.09932902,14.5334819 9.17232902,14.3264819 9.24732902,14.1204819 C9.05732902,14.1914819 8.86232902,14.2564819 8.66232902,14.3114819 C8.72732902,14.1204819 8.79532902,13.9294819 8.86432902,13.7394819 C8.67532902,13.8104819 8.48132902,13.8744819 8.28232902,13.9294819 C8.34732902,13.7384819 8.41532902,13.5474819 8.48432902,13.3564819 C8.29432902,13.4284819 8.09832902,13.4924819 7.89832902,13.5474819 C7.96332902,13.3554819 8.03132902,13.1644819 8.10032902,12.9734819 C7.55732902,13.1794819 6.97332902,13.3274819 6.34532902,13.3524819 C6.23832902,13.3764819 6.13032902,13.3894819 6.02232902,13.3894819 C5.92432902,13.3894819 5.82732902,13.3784819 5.73132902,13.3584819 L5.71932902,13.3564819 L5.71832902,13.3564819 L5.58132902,13.3304819 C5.43832902,13.3004819 5.29632902,13.2734819 5.15432902,13.2444819 L4.91632902,13.1974819 L4.91732902,13.1904819 C4.73532902,13.1454819 4.57232902,13.0924819 4.42832902,13.0074819 C4.13532902,12.8824819 3.85032902,12.7244819 3.57332902,12.5304819 C3.44232902,12.3604819 3.39432902,12.2964819 3.39432902,12.2964819 C3.39432902,12.2964819 3.47432902,12.4004819 3.56632902,12.5204819 C2.29632902,10.8264819 1.53332902,8.69948192 2.14532902,6.58648192 C2.65032902,4.84248192 4.11432902,3.66548192 5.90932902,3.45348192 L5.91432902,3.45148192 C6.12432902,3.42648192 6.33632902,3.41448192 6.54832902,3.41448192 C7.13632902,3.41448192 7.72332902,3.50948192 8.27632902,3.71048192 C8.91232902,3.94348192 9.53532902,4.32248192 10.228329,4.35148192 L10.320329,4.35148192 C11.251329,4.35148192 12.159329,3.88048192 13.025329,3.59648192 C13.992329,3.27848192 14.974329,3.00748192 15.968329,2.78348192 C17.679329,2.39748192 19.428329,2.16348192 21.185329,2.16348192 C21.324329,2.16348192 21.463329,2.16448192 21.602329,2.16748192 C21.742329,2.16448192 21.882329,2.16348192 22.022329,2.16348192 C23.666329,2.16348192 25.309329,2.36748192 26.917329,2.70948192 C28.200329,2.98548192 29.461329,3.34348192 30.698329,3.78248192 C31.445329,4.04948192 32.182329,4.30548192 32.929329,4.30548192 C33.322329,4.30548192 33.718329,4.23448192 34.119329,4.05848192 C34.984329,3.67748192 35.836329,3.41948192 36.747329,3.41948192 C37.009329,3.41948192 37.276329,3.44048192 37.550329,3.48648192 C38.085329,3.57748192 38.601329,3.75448192 39.068329,4.01848192 C39.963329,5.59748192 39.828329,7.67648192 39.097329,9.29848192 C38.216329,11.2554819 36.468329,13.2244819 34.188329,13.3364819 C34.496329,13.4344819 34.812329,13.5394819 35.133329,13.6524819 C34.949329,13.6874819 34.762329,13.7104819 34.570329,13.7194819 C34.877329,13.8164819 35.193329,13.9214819 35.513329,14.0334819 C35.330329,14.0684819 35.142329,14.0904819 34.951329,14.1004819 C35.258329,14.1984819 35.575329,14.3034819 35.896329,14.4164819 C35.712329,14.4514819 35.525329,14.4734819 35.334329,14.4824819 C35.664329,14.5874819 36.005329,14.7004819 36.351329,14.8234819 C36.155329,14.8624819 35.955329,14.8874819 35.750329,14.8974819 C36.647329,15.1834819 37.621329,15.5294819 38.558329,15.9674819 L38.645329,16.0084819 C38.935329,16.1424819 39.238329,16.2944819 39.530329,16.4674819 C39.637329,16.7064819 39.705329,16.9674819 39.722329,17.2534819 C39.824329,18.8974819 37.949329,19.5354819 36.898329,20.3774819 C37.035329,20.4974819 37.169329,20.6194819 37.299329,20.7444819 C37.293329,20.7504819 37.286329,20.7554819 37.280329,20.7604819 C37.406329,20.8704819 37.530329,20.9834819 37.652329,21.0984819 C37.661329,21.1084819 37.670329,21.1174819 37.679329,21.1274819 C37.673329,21.1324819 37.667329,21.1364819 37.661329,21.1414819 C37.719329,21.1924819 37.777329,21.2434819 37.834329,21.2954819 C38.333329,21.8454819 38.774329,22.4424819 39.147329,23.0784819 L39.279329,23.3004819 C40.174329,24.8104819 41.231329,26.7674819 40.398329,28.5364819 C40.072329,29.2334819 39.421329,29.7034819 38.651329,29.7744819 C38.575329,29.7814819 38.500329,29.7844819 38.425329,29.7844819 C37.648329,29.7844819 36.912329,29.4254819 36.258329,29.0334819 C36.384329,29.9494819 36.523329,30.7724819 36.656329,31.5194819 C36.763329,31.5454819 36.874329,31.5754819 36.986329,31.6074819 C37.003329,31.7064819 37.021329,31.8044819 37.038329,31.9004819 C37.145329,31.9274819 37.256329,31.9564819 37.369329,31.9894819 C37.386329,32.0884819 37.403329,32.1864819 37.421329,32.2834819 C37.528329,32.3094819 37.638329,32.3384819 37.750329,32.3714819 C37.768329,32.4704819 37.785329,32.5694819 37.803329,32.6654819 C37.919329,32.6944819 38.039329,32.7264819 38.161329,32.7624819 C38.180329,32.8704819 38.199329,32.9774819 38.218329,33.0834819 C38.704329,33.2024819 39.254329,33.3804819 39.761329,33.6354819 C39.842329,33.8724819 39.880329,34.1314819 39.863329,34.4154819 C39.989329,34.4344819 40.115329,34.4544819 40.241329,34.4754819 C40.251329,34.5794819 40.252329,34.6874819 40.246329,34.7984819 C40.372329,34.8164819 40.497329,34.8364819 40.623329,34.8574819 C40.632329,34.9614819 40.633329,35.0684819 40.627329,35.1784819 C40.753329,35.1974819 40.878329,35.2174819 41.004329,35.2394819 C41.013329,35.3424819 41.014329,35.4494819 41.008329,35.5594819 C41.145329,35.5804819 41.281329,35.6034819 41.417329,35.6274819 C41.429329,35.7394819 41.432329,35.8554819 41.425329,35.9764819 C41.864329,36.0414819 42.299329,36.1264819 42.727329,36.2314819 C44.206329,36.5904819 45.635329,37.2144819 46.832329,38.1504819 C47.287329,38.7294819 47.646329,39.4134819 47.374329,40.1084819 C47.121329,40.7554819 46.539329,40.9954819 45.898329,41.0534819 C42.897329,41.3174819 39.886329,41.5994819 36.874329,41.7134819 L36.845329,41.7904819 C35.763329,44.6474819 34.522329,47.4494819 33.295329,50.2474819 C33.038329,50.8304819 32.490329,51.2174819 31.898329,51.2174819" id="Fill-570" fill="#334037"></path>
                <path d="M3.04032902,12.0794819 C3.04032902,12.0794819 2.92932902,11.9344819 2.81732902,11.7894819 C2.70632902,11.6444819 2.59532902,11.4994819 2.59532902,11.4994819 C2.59532902,11.4994819 2.66032902,11.5834819 2.83932902,11.8164819 C2.98632902,12.0084819 3.04032902,12.0794819 3.04032902,12.0794819" id="Fill-571" fill="#556B58"></path>
                <path d="M1.70632902,10.4524819 C2.43332902,11.4014819 3.21032902,12.0464819 4.05932902,12.4074819 C4.20432902,12.4894819 4.36632902,12.5454819 4.55032902,12.5904819 L4.54932902,12.5974819 L4.78632902,12.6444819 C4.92832902,12.6734819 5.06832902,12.7004819 5.21132902,12.7294819 L5.34832902,12.7584819 L5.35032902,12.7564819 L5.36132902,12.7584819 C5.56532902,12.7994819 5.77332902,12.7994819 5.97732902,12.7514819 C6.60532902,12.7274819 7.18732902,12.5794819 7.73232902,12.3734819 C6.53032902,15.6674819 5.94432902,19.1214819 6.04532902,22.4114819 C4.72732902,24.5694819 3.68632902,27.0804819 3.50632902,29.6274819 C3.42932902,30.7184819 3.42932902,31.9114819 4.44932902,32.5654819 C5.59232902,33.2974819 6.92932902,32.7854819 7.73632902,31.8154819 L8.18132902,31.2734819 L8.38832902,31.0224819 C11.619329,36.6434819 17.376329,40.0834819 23.680329,41.1794819 C24.575329,41.3354819 25.489329,41.4794819 26.396329,41.5234819 C26.396329,41.5234819 27.408329,41.5594819 28.594329,41.4944819 C28.209329,43.5284819 28.217329,45.6824819 28.969329,47.6324819 C29.162329,48.1344819 29.401329,48.6164819 29.685329,49.0704819 C29.978329,49.5434819 30.331329,50.1444819 30.825329,50.4254819 C31.643329,50.8924819 32.569329,50.4594819 32.927329,49.6464819 C34.154329,46.8494819 35.395329,44.0474819 36.477329,41.1894819 L36.505329,41.1134819 C39.518329,40.9994819 42.529329,40.7174819 45.531329,40.4514819 C46.171329,40.3944819 46.753329,40.1554819 47.006329,39.5074819 C47.390329,38.5224819 46.512329,37.5614819 45.886329,36.8894819 C44.535329,35.4394819 42.706329,34.5344819 40.797329,34.0684819 C40.367329,33.9624819 39.932329,33.8794819 39.494329,33.8154819 C39.598329,32.0864819 37.676329,31.2624819 36.288329,30.9194819 C36.155329,30.1714819 36.016329,29.3474819 35.887329,28.4314819 C36.607329,28.8634819 37.421329,29.2554819 38.283329,29.1724819 C39.051329,29.1034819 39.704329,28.6324819 40.030329,27.9364819 C40.861329,26.1644819 39.805329,24.2094819 38.910329,22.7004819 L38.778329,22.4764819 C38.185329,21.4684819 37.422329,20.5544819 36.529329,19.7774819 C37.580329,18.9354819 39.457329,18.2964819 39.353329,16.6514819 C39.264329,15.2064819 37.885329,14.3884819 36.716329,13.8444819 L36.627329,13.8044819 C35.689329,13.3674819 34.716329,13.0204819 33.819329,12.7364819 C36.099329,12.6244819 37.847329,10.6554819 38.730329,8.69848192 C39.577329,6.81548192 39.622329,4.31548192 38.186329,2.69848192 C37.520329,1.94848192 36.600329,1.49148192 35.621329,1.32648192 C34.396329,1.11748192 33.303329,1.40348192 32.186329,1.89548192 C31.022329,2.40748192 29.909329,2.02648192 28.765329,1.62148192 C27.530329,1.18248192 26.268329,0.821481917 24.987329,0.548481917 C23.242329,0.176481917 21.456329,-0.0335180829 19.671329,0.00448191709 C17.775329,-0.0365180829 15.884329,0.206481917 14.035329,0.622481917 C13.044329,0.844481917 12.061329,1.11548192 11.095329,1.43348192 C10.229329,1.72048192 9.32032902,2.19048192 8.38832902,2.19048192 L8.29732902,2.18748192 C7.60532902,2.16148192 6.97932902,1.78048192 6.34432902,1.54948192 C5.59332902,1.27448192 4.77732902,1.19648192 3.98532902,1.29048192 L3.97632902,1.29048192 C2.18332902,1.50248192 0.719329022,2.67848192 0.214329022,4.42548192 C-0.407670978,6.57548192 0.395329022,8.74048192 1.70632902,10.4524819 C2.43332902,11.4014819 0.895329022,9.39248192 1.70632902,10.4524819" id="Fill-572" fill="#FFFFFE"></path>
                <path d="M27.466329,12.5834819 C27.466329,12.5834819 41.183329,15.4054819 37.139329,17.6204819 C32.253329,20.2994819 31.070329,26.0794819 31.070329,26.0794819 L27.466329,12.5834819" id="Fill-573" fill="#333343"></path>
                <path d="M32.272329,31.6434819 C33.054329,33.6454819 33.916329,35.6114819 34.800329,37.5684819 C35.427329,36.4714819 36.293329,35.3744819 37.493329,34.4864819 C39.516329,32.9934819 35.572329,32.1044819 32.272329,31.6434819" id="Fill-574" fill="#333343"></path>
                <path d="M34.271329,35.3004819 L33.888329,37.5434819 L31.579329,37.2664819 C31.579329,37.2664819 27.611329,44.5114819 31.549329,49.1584819 C31.549329,49.1584819 34.929329,41.4654819 35.467329,39.6714819 C37.338329,39.7274819 45.648329,38.9774819 45.648329,38.9774819 C42.474329,33.7794819 34.271329,35.3004819 34.271329,35.3004819" id="Fill-575" fill="#464454"></path>
                <path d="M10.678329,20.3264819 C10.678329,20.3264819 10.001329,19.1704819 7.81032902,22.3594819 C5.62332902,25.5514819 4.64132902,29.1634819 5.01932902,31.1524819 C5.01932902,31.1524819 5.69932902,31.9454819 6.45432902,31.0744819 C7.20732902,30.2024819 9.32132902,27.3444819 10.678329,26.9374819 C12.038329,26.5304819 12.641329,25.2174819 12.641329,24.8114819 C12.641329,24.4064819 10.678329,20.3264819 10.678329,20.3264819" id="Fill-576" fill="#464454"></path>
                <path d="M30.833329,19.9814819 C31.110329,19.6674819 31.426329,19.3924819 31.705329,19.2934819 C32.668329,18.9514819 33.886329,19.6514819 34.661329,20.1734819 C35.900329,21.0114819 36.935329,22.1404819 37.656329,23.4524819 C38.221329,24.4854819 39.175329,26.0544819 38.731329,27.2804819 C38.239329,28.6394819 35.920329,26.6284819 35.301329,26.3054819 C34.237329,25.7464819 33.152329,25.4574819 31.969329,25.3004819 C31.020329,25.1724819 30.142329,24.9194819 29.837329,23.9044819 C29.545329,22.9484819 29.727329,21.7364819 30.201329,20.8634819 C30.334329,20.6174819 30.565329,20.2834819 30.833329,19.9814819" id="Fill-577" fill="#464454"></path>
                <path d="M37.261329,3.84248192 C36.428329,2.64948192 34.420329,2.40548192 33.152329,3.07048192 C31.832329,3.75948192 30.530329,3.82948192 29.126329,3.29148192 C25.924329,2.07148192 23.220329,1.64848192 21.428329,1.51448192 C21.248329,1.49648192 21.065329,1.48648192 20.884329,1.47948192 C20.379329,1.45848192 19.969329,1.45548192 19.671329,1.46448192 C18.330329,1.43148192 14.778329,1.55248192 10.217329,3.29148192 C8.81232902,3.82948192 7.51032902,3.75948192 6.18932902,3.07048192 C4.92432902,2.40548192 2.91432902,2.64948192 2.08232902,3.84248192 C1.06832902,5.29848192 1.39432902,7.35848192 2.30832902,8.77048192 C2.99232902,9.82748192 3.87832902,10.9734819 5.18232902,11.2374819 C6.70232902,11.5424819 7.98932902,10.6174819 9.27332902,9.97948192 C9.70632902,9.76448192 10.150329,9.60548192 10.604329,9.48648192 C8.65832902,13.1844819 7.48732902,17.6544819 7.48732902,21.7684819 C7.48732902,23.6434819 7.73332902,25.3494819 8.18532902,26.8804819 L8.18032902,26.8834819 C8.18032902,26.8834819 11.027329,38.7594819 26.458329,40.0684819 C26.458329,40.0684819 33.610329,40.3704819 35.031329,37.6934819 C36.453329,35.0174819 34.139329,31.7034819 33.910329,22.0504819 L33.905329,22.0084819 L33.910329,21.7684819 C33.910329,18.0824819 32.967329,14.1064819 31.373329,10.6604819 C32.244329,11.0994819 33.150329,11.4404819 34.159329,11.2374819 C35.465329,10.9734819 36.348329,9.82748192 37.034329,8.77048192 C37.949329,7.35848192 38.273329,5.29848192 37.261329,3.84248192" id="Fill-578" fill="#605C7A"></path>
                <polyline id="Fill-579" fill="#FFFFFE" points="34.729329 38.1284819 34.731329 38.1284819 34.729329 38.1284819"></polyline>
                <polyline id="Fill-580" fill="#0C0F0F" points="34.729329 38.1284819 34.729329 38.3034819 34.731329 38.3034819 34.855329 38.2524819 34.906329 38.1284819 34.855329 38.0044819 34.731329 37.9534819 34.729329 37.9534819 34.606329 38.0044819 34.554329 38.1284819 34.606329 38.2524819 34.729329 38.3034819 34.729329 38.1284819 34.729329 38.3034819 34.731329 38.3034819 34.855329 38.2524819 34.906329 38.1284819 34.855329 38.0044819 34.731329 37.9534819 34.729329 37.9534819 34.606329 38.0044819 34.554329 38.1284819 34.606329 38.2524819 34.729329 38.3034819 34.729329 38.1284819"></polyline>
                <path d="M35.698329,2.83048192 C34.845329,2.60848192 33.877329,2.68948192 33.152329,3.07048192 C31.832329,3.75948192 30.530329,3.82948192 29.126329,3.29148192 C25.924329,2.07148192 23.220329,1.64848192 21.428329,1.51448192 C21.248329,1.49648192 21.065329,1.48648192 20.884329,1.47948192 C20.379329,1.45848192 19.969329,1.45548192 19.671329,1.46448192 C18.330329,1.43148192 14.778329,1.55248192 10.217329,3.29148192 C8.81232902,3.82948192 7.51032902,3.75948192 6.18932902,3.07048192 C5.52132902,2.72148192 4.64932902,2.62448192 3.85032902,2.78548192 L3.74432902,2.82848192 C2.01332902,3.50948192 0.917329022,6.12048192 3.00932902,8.38248192 C5.09732902,10.6464819 7.64832902,9.71448192 10.657329,8.39148192 C13.668329,7.06548192 15.071329,9.09448192 15.071329,9.09448192 L15.377329,9.42648192 C14.443329,10.0324819 13.490329,10.9864819 12.738329,12.4894819 C10.505329,16.9594819 11.292329,26.9954819 14.750329,31.6224819 C18.208329,36.2474819 25.038329,40.6524819 32.237329,39.4784819 L32.238329,39.4804819 C33.262329,39.1924819 34.178329,38.7624819 34.729329,38.1284819 L34.731329,38.1284819 L34.922329,37.8734819 C35.113329,37.5284819 35.226329,36.8454819 34.083329,35.8684819 C32.731329,34.7124819 31.911329,32.6664819 31.218329,31.0844819 C28.986329,25.9944819 29.281329,20.3394819 28.414329,14.9824819 C28.005329,12.4564819 26.666329,10.2194819 24.364329,9.09648192 L24.366329,9.09448192 C24.366329,9.09448192 25.768329,7.06548192 28.778329,8.39148192 C31.788329,9.71448192 34.338329,10.6464819 36.428329,8.38248192 C38.515329,6.12348192 37.426329,3.51648192 35.698329,2.83048192" id="Fill-581" fill="#B3B2BF"></path>
                <path d="M17.375329,9.95048192 C17.794329,10.8934819 18.648329,11.5424819 19.636329,11.5424819 C20.626329,11.5424819 21.478329,10.8934819 21.898329,9.95048192 C21.331329,10.3404819 20.530329,10.5844819 19.636329,10.5844819 C18.743329,10.5844819 17.941329,10.3404819 17.375329,9.95048192" id="Fill-582" fill="#5E1F1C"></path>
                <path d="M5.13432902,5.38848192 C5.13432902,6.06948192 4.58232902,6.62048192 3.90232902,6.62048192 C3.22232902,6.62048192 2.67232902,6.06948192 2.67232902,5.38848192 C2.67232902,4.70948192 3.22232902,4.15848192 3.90232902,4.15848192 C4.58232902,4.15848192 5.13432902,4.70948192 5.13432902,5.38848192" id="Fill-583" fill="#141723"></path>
                <path d="M3.81532902,5.00448192 C3.81532902,5.21848192 3.64132902,5.38848192 3.43132902,5.38848192 C3.21932902,5.38848192 3.04932902,5.21848192 3.04932902,5.00448192 C3.04932902,4.79248192 3.21932902,4.62248192 3.43132902,4.62248192 C3.64132902,4.62248192 3.81532902,4.79248192 3.81532902,5.00448192" id="Fill-584" fill="#FFFFFE"></path>
                <path d="M3.38432902,5.81348192 C3.38432902,5.90548192 3.30832902,5.98148192 3.21632902,5.98148192 C3.12332902,5.98148192 3.04932902,5.90548192 3.04932902,5.81348192 C3.04932902,5.72248192 3.12332902,5.64548192 3.21632902,5.64548192 C3.30832902,5.64548192 3.38432902,5.72248192 3.38432902,5.81348192" id="Fill-585" fill="#FFFFFE"></path>
                <path d="M36.732329,5.38848192 C36.732329,6.06948192 36.183329,6.62048192 35.504329,6.62048192 C34.822329,6.62048192 34.271329,6.06948192 34.271329,5.38848192 C34.271329,4.70948192 34.822329,4.15848192 35.504329,4.15848192 C36.183329,4.15848192 36.732329,4.70948192 36.732329,5.38848192" id="Fill-586" fill="#141723"></path>
                <path d="M35.414329,5.00448192 C35.414329,5.21848192 35.243329,5.38848192 35.031329,5.38848192 C34.821329,5.38848192 34.646329,5.21848192 34.646329,5.00448192 C34.646329,4.79248192 34.821329,4.62248192 35.031329,4.62248192 C35.243329,4.62248192 35.414329,4.79248192 35.414329,5.00448192" id="Fill-587" fill="#FFFFFE"></path>
                <path d="M34.983329,5.81348192 C34.983329,5.90548192 34.908329,5.98148192 34.814329,5.98148192 C34.722329,5.98148192 34.646329,5.90548192 34.646329,5.81348192 C34.646329,5.72248192 34.722329,5.64548192 34.814329,5.64548192 C34.908329,5.64548192 34.983329,5.72248192 34.983329,5.81348192" id="Fill-588" fill="#FFFFFE"></path>
                <path d="M32.396329,14.8794819 C32.396329,14.8794819 31.747329,16.9264819 30.367329,18.0544819 L30.367329,18.8284819 C30.367329,18.8284819 32.356329,17.1144819 32.396329,14.8794819" id="Fill-589" fill="#333343"></path>
                <path d="M32.521329,16.5164819 C32.521329,16.5164819 31.872329,18.5654819 30.492329,19.6944819 L30.492329,20.4674819 C30.492329,20.4674819 32.482329,18.7544819 32.521329,16.5164819" id="Fill-590" fill="#333343"></path>
                <path d="M32.676329,18.0734819 C32.676329,18.0734819 32.024329,20.1224819 30.645329,21.2504819 L30.645329,22.0254819 C30.645329,22.0254819 32.636329,20.3104819 32.676329,18.0734819" id="Fill-591" fill="#333343"></path>
                <path d="M8.78632902,14.8794819 C8.78632902,14.8794819 9.43832902,16.9264819 10.815329,18.0544819 L10.815329,18.8284819 C10.815329,18.8284819 8.82532902,17.1144819 8.78632902,14.8794819" id="Fill-592" fill="#333343"></path>
                <path d="M8.66132902,16.5164819 C8.66132902,16.5164819 9.31132902,18.5654819 10.691329,19.6944819 L10.691329,20.4674819 C10.691329,20.4674819 8.70032902,18.7544819 8.66132902,16.5164819" id="Fill-593" fill="#333343"></path>
                <path d="M8.50832902,18.0734819 C8.50832902,18.0734819 9.15732902,20.1224819 10.537329,21.2504819 L10.537329,22.0254819 C10.537329,22.0254819 8.54732902,20.3104819 8.50832902,18.0734819" id="Fill-594" fill="#333343"></path>
            </g>
        </g>
    </g>
</svg>