<?xml version="1.0" encoding="UTF-8"?>
<svg width="267px" height="156px" viewBox="0 0 267 156" version="1.1" xmlns="http://www.w3.org/2000/svg" xmlns:xlink="http://www.w3.org/1999/xlink">
    <title>Group</title>
    <defs>
        <path d="M180.042116,93 L56.5015594,93 C46.3746448,93 36.6615594,89.0436608 29.4988778,81.9899244 L5.88153005,58.7464316 C3.08190324,55.9874055 1.08084766,52.5971872 0,48.9206549 C1.6434173,41.554576 5.39564441,34.7416037 10.898382,29.3211587 L17.220845,23.1003359 C32.2442969,8.30961377 52.6204238,0 73.8678395,0 L166.966174,0 C193.838625,0 219.613701,10.509026 238.619432,29.2170445 C242.797388,33.3360621 245.977129,38.2489505 248,43.6043241 C245.031801,53.631822 239.544929,62.8719563 231.902972,70.3942065 L229.364468,72.8929471 C216.288525,85.7705709 198.545435,93 180.042116,93" id="path-1"></path>
        <linearGradient x1="50.3265094%" y1="60.6468513%" x2="50.3265094%" y2="-2.85530397%" id="linearGradient-3">
            <stop stop-color="#00ACEE" offset="0%"></stop>
            <stop stop-color="#2D4B6F" offset="100%"></stop>
        </linearGradient>
        <path d="M180.619139,91 L57.3272827,91 C47.2207547,91 37.5272227,87.0252874 30.3789604,79.9387931 L6.80915695,56.5873563 C2.44960757,52.2661638 0,46.4086925 0,40.2962644 L0,13.9180316 C0,11.008908 0.31997298,8.13900862 0.939467058,5.34102011 C2.01813886,9.03462644 4.01516609,12.4405891 6.80915695,15.2124282 L30.3789604,38.5638649 C37.5272227,45.6503592 47.2207547,49.6250718 57.3272827,49.6250718 L180.619139,49.6250718 C199.085209,49.6250718 216.792579,42.362069 229.842199,29.4246408 L232.375593,26.914296 C240.002166,19.3571121 245.477992,10.0740661 248.440216,0 C250.115951,4.45847701 251,9.21767241 251,14.0683908 L251,23.7436782 C251,40.4531609 244.297061,56.4762213 232.375593,68.2892241 L229.842199,70.799569 C216.792579,83.7369971 199.085209,91 180.619139,91" id="path-4"></path>
        <linearGradient x1="49.9991852%" y1="100%" x2="49.9991852%" y2="-54.4425287%" id="linearGradient-6">
            <stop stop-color="#29C5F6" offset="0%"></stop>
            <stop stop-color="#583B35" offset="100%"></stop>
        </linearGradient>
    </defs>
    <g id="Page-1" stroke="none" stroke-width="1" fill="none" fill-rule="evenodd">
        <g id="iPhone-14-Pro" transform="translate(-63.000000, -399.000000)">
            <g id="Group" transform="translate(63.000000, 399.000000)">
                <g id="Group-787" transform="translate(9.000000, 14.000000)">
                    <mask id="mask-2" fill="white">
                        <use xlink:href="#path-1"></use>
                    </mask>
                    <g id="Clip-786"></g>
                    <path d="M180.042116,93 L56.5015594,93 C46.3746448,93 36.6615594,89.0436608 29.4988778,81.9899244 L5.88153005,58.7464316 C3.08190324,55.9874055 1.08084766,52.5971872 0,48.9206549 C1.6434173,41.554576 5.39564441,34.7416037 10.898382,29.3211587 L17.220845,23.1003359 C32.2442969,8.30961377 52.6204238,0 73.8678395,0 L166.966174,0 C193.838625,0 219.613701,10.509026 238.619432,29.2170445 C242.797388,33.3360621 245.977129,38.2489505 248,43.6043241 C245.031801,53.631822 239.544929,62.8719563 231.902972,70.3942065 L229.364468,72.8929471 C216.288525,85.7705709 198.545435,93 180.042116,93" id="Fill-785" fill="url(#linearGradient-3)" mask="url(#mask-2)"></path>
                </g>
                <path d="M247.078532,37.5334018 C228.111062,18.622816 202.387873,8 175.56952,8 L82.6586026,8 C61.4539603,8 41.1188527,16.3995889 26.1256446,31.3438849 L19.8159094,37.6386434 C12.2506926,45.1831449 8,55.4113052 8,66.0735868 L8,71.8487153 C8,61.1798561 12.2506926,50.9516958 19.8159094,43.4071942 L26.1256446,37.1190134 C41.1188527,22.1681398 61.4539603,13.7685509 82.6586026,13.7685509 L175.56952,13.7685509 C202.387873,13.7685509 228.111062,24.3913669 247.078532,43.3019527 C254.711702,50.9122302 259,61.2324769 259,72 L259,66.2248715 C259,55.463926 254.711702,45.1436793 247.078532,37.5334018" id="Fill-788" fill="#24608B"></path>
                <g id="Group-792" transform="translate(8.000000, 57.000000)">
                    <mask id="mask-5" fill="white">
                        <use xlink:href="#path-4"></use>
                    </mask>
                    <g id="Clip-791"></g>
                    <path d="M180.619139,91 L57.3272827,91 C47.2207547,91 37.5272227,87.0252874 30.3789604,79.9387931 L6.80915695,56.5873563 C2.44960757,52.2661638 0,46.4086925 0,40.2962644 L0,13.9180316 C0,11.008908 0.31997298,8.13900862 0.939467058,5.34102011 C2.01813886,9.03462644 4.01516609,12.4405891 6.80915695,15.2124282 L30.3789604,38.5638649 C37.5272227,45.6503592 47.2207547,49.6250718 57.3272827,49.6250718 L180.619139,49.6250718 C199.085209,49.6250718 216.792579,42.362069 229.842199,29.4246408 L232.375593,26.914296 C240.002166,19.3571121 245.477992,10.0740661 248.440216,0 C250.115951,4.45847701 251,9.21767241 251,14.0683908 L251,23.7436782 C251,40.4531609 244.297061,56.4762213 232.375593,68.2892241 L229.842199,70.799569 C216.792579,83.7369971 199.085209,91 180.619139,91" id="Fill-790" fill="url(#linearGradient-6)" mask="url(#mask-5)"></path>
                </g>
                <path d="M259,71 L259,71 C259,66.2237789 258.115951,61.5376751 256.440216,57.1476713 C256.750293,56.1048845 257.03398,55.0556607 257.291278,54 C258.399638,57.6240061 258.986805,61.4024991 259,65.2517986 C259,65.2582355 259,65.2646725 259,65.2711094 C259,65.2968573 259,65.3226051 259,65.3483529 L259,71 M8,70.85195 L8,65.2003029 C8,63.4816357 8.15767741,61.7822794 8.38462731,60.095797 C8.52845022,60.8746687 8.71383663,61.6471034 8.93946706,62.4066641 C8.31997298,65.1616812 8,67.9875047 8,70.85195" id="Fill-793" fill="#B07656"></path>
                <path d="M175.59551,0 L82.6264634,0 C71.0210111,0 59.7014041,2.22596033 48.9798938,6.61913131 C38.2590437,11.0123023 28.6624305,17.3507406 20.4567552,25.4647251 L14.1424121,31.7052473 C5.02242782,40.726588 0,52.7180517 0,65.4667336 L0,97.5375345 C0,105.775546 3.24332123,113.517449 9.13318729,119.340196 L32.7177373,142.663821 C41.4172055,151.267386 52.9830487,156 65.2843,156 L188.653295,156 C198.898836,156 208.886919,154.035149 218.346881,150.164198 C227.806843,146.286719 236.269977,140.692443 243.511832,133.531509 L246.046811,131.024856 C252.720937,124.425308 257.94273,116.702988 261.553755,108.079839 C265.164781,99.4566909 267,90.3504896 267,81.0092895 L267,65.6168717 C267,52.7702737 261.936643,40.6874215 252.747343,31.6008034 C242.567816,21.5284961 230.652093,13.6625659 217.350053,8.21190058 C204.041411,2.76123525 189.993401,0 175.59551,0 Z M175.59551,7.83329149 C202.430643,7.83329149 228.169926,18.3755963 247.149263,37.1428571 C254.787209,44.6954557 259.07819,54.9374843 259.07819,65.6168717 L259.07819,81.0092895 C259.07819,97.6942004 252.371057,113.693698 240.44213,125.48933 L237.907151,127.995983 C224.849367,140.914386 207.130918,148.166709 188.653295,148.166709 L65.2843,148.166709 C55.1714488,148.166709 45.471192,144.197841 38.3191174,137.121768 L14.7345674,113.80467 C10.3722905,109.489832 7.92181045,103.640974 7.92181045,97.5375345 L7.92181045,65.4667336 C7.92181045,54.8852624 12.1738422,44.7346221 19.7444524,37.247301 L26.0587955,31.0002511 C41.0613841,16.1692192 61.4085543,7.83329149 82.6264634,7.83329149 L175.59551,7.83329149 L175.59551,7.83329149 Z" id="Fill-794" fill="#00ACEE"></path>
                <path d="M235.707948,40.3904244 C234.219721,41.2381234 234.206609,43.1600059 233.288759,44.408906 C233.216642,44.4994998 233.006848,44.7712811 233.000292,45.1465982 C232.993736,45.3860247 233.098633,45.6060382 233.20353,45.8195807 C233.819801,47.0814227 234.540968,48.2979679 235.35392,49.4433322 C235.485042,49.6180488 235.622719,49.8057073 235.819401,49.9092431 C236.147205,50.0774887 236.540569,49.9804239 236.88804,49.8704172 C238.586062,49.3462674 240.20541,48.5697492 241.673969,47.5667466 C242.178787,47.2237844 242.69016,46.8225833 242.893398,46.2531367 C243.096636,45.696632 242.972071,45.0818884 242.827837,44.5124417 C242.532814,43.3735484 242.165675,42.254068 241.732974,41.1604716 C241.700194,41.0698778 241.641189,40.8369223 241.431395,40.7010317 C241.247825,40.5845539 241.051143,40.5910249 240.992138,40.5910249 C239.916943,40.6233798 237.451862,39.3938927 235.707948,40.3904244" id="Fill-795" fill="#52DEFF"></path>
                <path d="M36.7065961,31.3917043 C35.2239161,32.2396655 35.2081847,34.1556696 34.2872451,35.4049561 C34.217765,35.5020509 34.0073581,35.7739163 34.0001479,36.1493496 C33.9955596,36.3823771 34.0984689,36.6089316 34.2026891,36.8225402 C34.8194892,38.0847726 35.541165,39.2952212 36.3578844,40.4409398 C36.4863571,40.6221835 36.6240065,40.8034271 36.8213039,40.9069949 C37.1451075,41.0752926 37.5390468,40.9846707 37.8890694,40.87463 C39.5874001,40.350318 41.2064184,39.5670866 42.6727116,38.5702466 C43.1774258,38.2271783 43.6886948,37.8258532 43.8951688,37.2562303 C44.0970545,36.6995535 43.9705482,36.0846197 43.8237223,35.5085239 C43.5326922,34.3692782 43.1682492,33.2494515 42.7336706,32.1555167 C42.7002415,32.0713679 42.6373161,31.8383403 42.4275647,31.7024076 C42.2486206,31.5794209 42.0513232,31.5923668 41.994297,31.5923668 C40.9193213,31.6182588 38.4494989,30.3948643 36.7065961,31.3917043" id="Fill-796" fill="#52DEFF"></path>
                <path d="M228.076769,31.2911351 C226.532295,30.49251 224.875135,31.5982987 223.297518,31.5232143 C223.178202,31.5163884 222.826884,31.489085 222.502081,31.7006865 C222.296593,31.8372036 222.16402,32.055631 222.038076,32.2672326 C221.302297,33.5368418 220.672576,34.8678837 220.148913,36.2467066 C220.062741,36.4583082 219.983197,36.6903873 220.003083,36.9156405 C220.042855,37.2978885 220.341144,37.5845744 220.626175,37.8234794 C222.024819,38.9975266 223.589178,39.9531465 225.259596,40.6493838 C225.836288,40.8882888 226.466009,41.0998903 227.069215,40.9497215 C227.652536,40.7995526 228.109912,40.3353944 228.520888,39.8712362 C229.329582,38.9565715 230.085247,37.9872999 230.781255,36.9770732 C230.834284,36.9019888 231,36.7108649 231,36.4446565 C231,36.2194032 230.880684,36.0555827 230.847541,36.0078017 C230.224449,35.0863111 229.899645,32.2262774 228.076769,31.2911351" id="Fill-797" fill="#52DEFF"></path>
                <path d="M95.151296,105.289256 C96.4044605,105.289256 97.3592526,104.998347 98.0355636,104.416529 C98.7052441,103.841322 99.0367691,102.955372 99.0367691,101.765289 C99.0367691,100.634711 98.6853526,99.768595 97.9891501,99.1603306 C97.2863171,98.5520661 96.26522,98.2479339 94.925859,98.2479339 C94.4484629,98.2479339 94.0572634,98.2545455 93.7389994,98.2677686 C93.4273659,98.2809917 93.1091019,98.3206612 92.7775769,98.3801653 L92.7775769,105.289256 L95.151296,105.289256 Z M92.8239904,119.596694 C92.4924653,119.689256 91.9819168,119.775207 91.2790838,119.867769 C90.5828813,119.953719 89.8866787,120 89.2037372,120 C88.5141652,120 87.9107896,119.947107 87.3936106,119.847934 C86.8698011,119.742149 86.4321881,119.557025 86.074141,119.28595 C85.716094,119.021488 85.450874,118.65124 85.2718505,118.175207 C85.092827,117.699174 85,117.071074 85,116.297521 L85,95.2991736 C85,94.677686 85.172393,94.1950413 85.517179,93.8512397 C85.8553345,93.5140496 86.3261001,93.2363636 86.9228451,93.0247934 C87.9373116,92.6743802 89.0910187,92.4099174 90.3905967,92.2512397 C91.6835443,92.0859504 92.9897529,92 94.3025919,92 C98.4135021,92 101.556359,92.8793388 103.731163,94.631405 C105.912598,96.3900826 107,98.7636364 107,101.765289 C107,103.219835 106.767932,104.542149 106.303797,105.712397 C105.839662,106.889256 105.156721,107.894215 104.248342,108.740496 C103.339964,109.593388 102.192887,110.247934 100.807113,110.704132 C99.4213382,111.166942 97.8167571,111.398347 96,111.398347 L92.8239904,111.398347 L92.8239904,119.596694 L92.8239904,119.596694 Z" id="Fill-798" fill="#FFF3C9"></path>
                <path d="M115.177069,119 C113.891304,119 112.865358,118.631289 112.119215,117.906804 C111.373072,117.182319 111,116.192621 111,114.944178 L111,92.3881169 C111.326438,92.3298994 111.852735,92.252276 112.57223,92.1487782 C113.285063,92.0452803 113.97791,92 114.637447,92 C115.323633,92 115.929874,92.0452803 116.456171,92.1487782 C116.982468,92.252276 117.42216,92.4333972 117.781907,92.6921418 C118.141655,92.9573551 118.408135,93.3195975 118.588008,93.7853378 C118.767882,94.2510781 118.86115,94.8591279 118.86115,95.6159559 L118.86115,112.848347 L129.147265,112.848347 C129.353787,113.165309 129.546985,113.598706 129.726858,114.135601 C129.906732,114.672496 130,115.228797 130,115.810973 C130,116.975323 129.746844,117.796838 129.233871,118.275515 C128.72756,118.760661 128.054698,119 127.215288,119 L115.177069,119" id="Fill-799" fill="#FFF3C9"></path>
                <path d="M144.888327,99.0182421 C144.474482,100.271973 144.008085,101.665008 143.495705,103.20398 C142.976756,104.736318 142.510359,106.295191 142.096513,107.873964 L147.588176,107.873964 C147.17433,106.268657 146.753916,104.696517 146.326933,103.157546 C145.899949,101.625207 145.51238,100.245439 145.157655,99.0182421 L144.888327,99.0182421 Z M139.574027,93.2537313 C140.073269,92.9552239 140.83527,92.6699834 141.853461,92.39801 C142.871652,92.13267 143.902981,92 144.93431,92 C146.412329,92 147.719555,92.212272 148.855988,92.6434494 C149.99242,93.0812604 150.721577,93.7578773 151.050025,94.6799337 C151.575543,96.2321725 152.153613,98.0364842 152.771097,100.092869 C153.395149,102.149254 154.012633,104.278607 154.636685,106.467662 C155.254169,108.656716 155.858514,110.819237 156.449722,112.955224 C157.04093,115.084577 157.559879,116.975124 158,118.613599 C157.645275,119.031509 157.113188,119.363184 156.410308,119.621891 C155.69429,119.873964 154.853461,120 153.881253,120 C153.171804,120 152.574027,119.940299 152.087923,119.820896 C151.601819,119.701493 151.201112,119.522388 150.89237,119.283582 C150.583628,119.044776 150.334007,118.733002 150.136938,118.341625 C149.946438,117.956882 149.775644,117.512438 149.631127,117.001658 L148.829712,113.917081 L140.815563,113.917081 C140.57908,114.812604 140.342597,115.73466 140.106114,116.689884 C139.869631,117.645108 139.633148,118.567164 139.396665,119.462687 C138.98282,119.608624 138.549267,119.73466 138.089439,119.840796 C137.629611,119.946932 137.077817,120 136.427489,120 C134.923194,120 133.806468,119.73466 133.083881,119.217247 C132.361294,118.693201 132,117.970149 132,117.048093 C132,116.630182 132.059121,116.212272 132.177362,115.794362 C132.295604,115.376451 132.426983,114.885572 132.571501,114.321725 C132.781708,113.512438 133.070743,112.510779 133.438605,111.323383 C133.806468,110.129353 134.213744,108.835821 134.660435,107.44942 C135.100556,106.063018 135.573522,104.643449 136.072764,103.177446 C136.578575,101.718076 137.051541,100.338308 137.491662,99.0447761 C137.931784,97.7446103 138.33906,96.5903814 138.706923,95.5754561 C139.081354,94.5605307 139.36382,93.7844113 139.574027,93.2537313 L139.574027,93.2537313 Z" id="Fill-800" fill="#FFF3C9"></path>
                <path d="M174.366594,119.602174 C174.047722,119.693478 173.546638,119.778261 172.876356,119.869565 C172.199566,119.954348 171.542299,120 170.898048,120 C169.550976,120 168.542299,119.771739 167.872017,119.315217 C167.201735,118.865217 166.863341,117.906522 166.863341,116.43913 L166.863341,110.504348 C166.13449,109.415217 165.340564,108.215217 164.494577,106.897826 C163.64859,105.573913 162.815618,104.230435 161.989154,102.847826 C161.175705,101.471739 160.414317,100.115217 159.711497,98.7782609 C159.008677,97.4478261 158.436009,96.2217391 158,95.1130435 C158.37744,94.5847826 158.898048,94.1021739 159.555315,93.6586957 C160.212581,93.2217391 161.02603,93 161.989154,93 C163.13449,93 164.065076,93.2347826 164.780911,93.7043478 C165.496746,94.173913 166.173536,95.0543478 166.817787,96.3391304 L170.462039,103.682609 L170.72885,103.682609 C171.132321,102.776087 171.490239,101.947826 171.802603,101.197826 C172.10846,100.454348 172.407809,99.7043478 172.700651,98.9608696 C172.993492,98.2108696 173.299349,97.4347826 173.618221,96.626087 C173.943601,95.823913 174.308026,94.8913043 174.718004,93.8347826 C175.245119,93.5673913 175.830803,93.3652174 176.475054,93.2217391 C177.119306,93.0717391 177.73102,93 178.316703,93 C179.338395,93 180.210412,93.273913 180.926247,93.8152174 C181.642082,94.3565217 182,95.1717391 182,96.2543478 C182,96.6065217 181.928416,97.0304348 181.785249,97.526087 C181.635575,98.0282609 181.303688,98.7782609 180.776573,99.7956522 C180.249458,100.806522 179.481562,102.176087 178.466377,103.904348 C177.457701,105.632609 176.091106,107.895652 174.366594,110.673913 L174.366594,119.602174" id="Fill-801" fill="#FFF3C9"></path>
                <path d="M125.871146,25.1337794 L156.513516,40.6881614 C163.727378,44.3487769 163.853125,54.3863656 156.738535,58.2280716 C146.526618,63.7319298 136.308083,69.2422556 126.096165,74.7461138 C119.312487,78.4067293 111,73.6142981 111,66.0408339 L111,33.9619422 C111,26.4984258 119.094086,21.6930596 125.871146,25.1337794" id="Fill-802" fill="#FFF3C9"></path>
            </g>
        </g>
    </g>
</svg>