<?xml version="1.0" encoding="UTF-8"?>
<svg width="58px" height="61px" viewBox="0 0 58 61" version="1.1" xmlns="http://www.w3.org/2000/svg" xmlns:xlink="http://www.w3.org/1999/xlink">
    <title>Group 4</title>
    <g id="Page-1" stroke="none" stroke-width="1" fill="none" fill-rule="evenodd">
        <g id="23424" transform="translate(-1.000000, 0.000000)">
            <g id="Group-4" transform="translate(1.061657, 0.105438)">
                <path d="M39.7793431,60.4355624 C39.7113431,60.4355624 39.6413431,60.4305624 39.5683431,60.4195624 C39.1103431,60.3515624 38.8123431,60.1225624 38.6093431,59.8105624 C38.7593431,59.9045624 38.9383431,59.9705624 39.1513431,60.0025624 C39.2243431,60.0135624 39.2953431,60.0185624 39.3633431,60.0185624 C40.5713431,60.0185624 41.0983431,58.4235624 41.5793431,57.5205624 C42.3983431,55.9825624 43.2043431,54.4395624 43.9823431,52.8805624 C44.5113431,51.8235624 45.0333431,50.7615624 45.4953431,49.6735624 C48.0773431,49.5725624 50.6593431,49.4405624 53.2393431,49.3105624 C54.0303431,49.2725624 54.8243431,49.2305624 55.6153431,49.1905624 C56.7883431,49.1295624 57.4433431,47.8255624 56.8713431,46.9415624 C58.0743431,47.7475624 57.4093431,49.5355624 56.0343431,49.6065624 C55.2403431,49.6465624 54.4473431,49.6865624 53.6563431,49.7275624 C51.0753431,49.8575624 48.4943431,49.9895624 45.9113431,50.0905624 C45.4493431,51.1785624 44.9253431,52.2395624 44.3993431,53.2975624 C43.6203431,54.8555624 42.8143431,56.3995624 41.9963431,57.9375624 C41.5143431,58.8405624 40.9873431,60.4355624 39.7793431,60.4355624 M34.2893431,51.8145624 C33.6233431,51.8145624 33.1183431,51.4625624 32.7323431,50.9885624 C33.0473431,51.2385624 33.4233431,51.3985624 33.8733431,51.3985624 C34.9183431,51.3985624 35.4913431,50.5295624 35.7433431,49.6105624 L35.7533431,49.5665624 C35.8263431,49.3735624 35.9133431,49.1855624 36.0123431,49.0025624 C36.1323431,48.9975624 36.2563431,48.9925624 36.3823431,48.9855624 C36.3473431,49.2215624 36.3173431,49.4585624 36.2903431,49.6955624 C36.2473431,49.7905624 36.2073431,49.8855624 36.1703431,49.9825624 L36.1603431,50.0275624 C35.9073431,50.9435624 35.3353431,51.8145624 34.2893431,51.8145624 M30.8393431,48.9485624 C26.9823431,48.2145624 23.2563431,46.7625624 20.0863431,44.4175624 C19.0933431,43.6845624 18.1573431,42.8675624 17.2933431,41.9815624 C18.0393431,42.7085624 18.8333431,43.3835624 19.6683431,44.0005624 C22.8953431,46.3875624 26.6983431,47.8495624 30.6283431,48.5705624 C30.6443431,48.6015624 30.6613431,48.6325624 30.6783431,48.6635624 L30.7153431,48.7285624 C30.7553431,48.8025624 30.7963431,48.8755624 30.8393431,48.9485624 M47.3663431,41.7405624 C47.3073431,41.7245624 47.2483431,41.7095624 47.1893431,41.6945624 C47.1313431,41.5775624 47.0613431,41.4665624 46.9803431,41.3615624 C47.1243431,41.4745624 47.2543431,41.6015624 47.3663431,41.7405624 M46.9373431,41.3085624 C46.8343431,41.1825624 46.7153431,41.0665624 46.5853431,40.9615624 C46.5653431,40.9375624 46.5463431,40.9135624 46.5253431,40.8895624 C47.5593431,40.4795624 48.6973431,39.9405624 48.6593431,38.6325624 C48.6443431,38.1295624 48.4473431,37.7075624 48.1523431,37.3505624 C48.6643431,37.7845624 49.0543431,38.3345624 49.0753431,39.0495624 C49.1143431,40.3585624 47.9733431,40.8975624 46.9373431,41.3085624 M3.38334314,37.3095624 C3.36834314,37.3095624 3.35434314,37.3095624 3.34034314,37.3085624 C2.86334314,37.2955624 2.42134314,37.0425624 2.16234314,36.6495624 C2.38534314,36.7975624 2.64934314,36.8845624 2.92334314,36.8925624 C2.93734314,36.8925624 2.95034314,36.8925624 2.96434314,36.8925624 C3.35334314,36.8925624 3.77434314,36.7415624 4.14634314,36.6505624 C5.83434314,36.2455624 7.52234314,35.8325624 9.20434314,35.4055624 C10.0383431,35.1935624 10.8713431,34.9775624 11.7033431,34.7545624 C11.7803431,34.9105624 11.8593431,35.0655624 11.9403431,35.2195624 C11.1683431,35.4255624 10.3943431,35.6255624 9.62034314,35.8225624 C7.93734314,36.2495624 6.25034314,36.6625624 4.56034314,37.0675624 C4.19234314,37.1585624 3.77134314,37.3095624 3.38334314,37.3095624 M45.1403431,34.8875624 C45.0123431,34.8225624 44.8843431,34.7605624 44.7573431,34.7005624 C44.6373431,33.8905624 44.5123431,32.9425624 44.4033431,31.8735624 C46.7633431,32.2005624 49.1323431,32.4745624 51.5023431,32.7385624 C52.0963431,32.8055624 52.6883431,32.8705624 53.2823431,32.9325624 C53.3363431,32.9385624 53.3893431,32.9415624 53.4413431,32.9415624 C54.5153431,32.9415624 55.2983431,31.7715624 54.7423431,30.7765624 C54.3003431,29.7725624 53.6513431,28.8885624 52.8953431,28.0985624 C53.8303431,28.9895624 54.6393431,30.0065624 55.1593431,31.1925624 C55.7153431,32.1875624 54.9323431,33.3575624 53.8573431,33.3575624 C53.8053431,33.3575624 53.7523431,33.3555624 53.6983431,33.3495624 C53.1053431,33.2865624 52.5123431,33.2215624 51.9183431,33.1545624 C49.5493431,32.8905624 47.1793431,32.6175624 44.8193431,32.2905624 C44.9193431,33.2595624 45.0313431,34.1305624 45.1403431,34.8875624 M44.3193431,22.1055624 C44.1153431,22.0275624 43.9103431,21.9545624 43.7043431,21.8865624 C43.7033431,21.8775624 43.7013431,21.8675624 43.7003431,21.8585624 C44.7913431,20.9245624 45.9563431,20.0805624 47.1703431,19.3125624 C48.1283431,18.7075624 49.3103431,18.2835624 50.0803431,17.4235624 C50.9923431,16.4035624 50.8463431,15.0615624 49.9893431,14.0705624 C50.1163431,14.1815624 50.2383431,14.3005624 50.3533431,14.4275624 C51.2553431,15.4235624 51.4273431,16.7985624 50.4963431,17.8385624 C49.7263431,18.7005624 48.5443431,19.1235624 47.5863431,19.7285624 C46.4473431,20.4495624 45.3503431,21.2375624 44.3193431,22.1055624 M38.6943431,8.79156245 C38.6443431,8.77856245 38.5943431,8.76656245 38.5443431,8.75356245 C37.8493431,7.74956245 37.0743431,6.77856245 36.2173431,5.89556245 C37.1313431,6.77856245 37.9553431,7.76356245 38.6943431,8.79156245" id="Fill-385" fill="#88AB8B"></path>
                <path d="M38.6093431,59.8105624 C38.4433431,59.7075624 38.3123431,59.5715624 38.2063431,59.4145624 C38.2843431,59.4655624 38.3703431,59.5085624 38.4653431,59.5435624 C38.5073431,59.6375624 38.5543431,59.7265624 38.6093431,59.8105624 M32.7323431,50.9885624 C32.5863431,50.8735624 32.4533431,50.7385624 32.3313431,50.5915624 C32.4023431,50.6495624 32.4763431,50.7025624 32.5533431,50.7495624 C32.6103431,50.8325624 32.6693431,50.9125624 32.7323431,50.9885624 M56.8713431,46.9415624 C56.8493431,46.9265624 56.8273431,46.9125624 56.8043431,46.8985624 C56.7373431,46.8575624 56.6693431,46.8175624 56.6023431,46.7765624 C56.5693431,46.6945624 56.5273431,46.6155624 56.4753431,46.5385624 C56.6443431,46.6555624 56.7753431,46.7925624 56.8713431,46.9415624 M17.2933431,41.9815624 C17.1613431,41.8525624 17.0303431,41.7225624 16.9013431,41.5905624 C16.9703431,41.6575624 17.0403431,41.7245624 17.1093431,41.7915624 C17.1703431,41.8555624 17.2313431,41.9185624 17.2933431,41.9815624 M48.1523431,37.3505624 C48.0763431,37.2875624 47.9983431,37.2255624 47.9183431,37.1665624 C47.8683431,37.0925624 47.8143431,37.0215624 47.7573431,36.9535624 C47.9003431,37.0765624 48.0343431,37.2085624 48.1523431,37.3505624 M2.16234314,36.6495624 C2.00334314,36.5445624 1.86434314,36.4095624 1.75534314,36.2495624 C1.84134314,36.3095624 1.93334314,36.3595624 2.03034314,36.3995624 C2.03734314,36.4155624 2.04434314,36.4325624 2.05134314,36.4495624 C2.08334314,36.5195624 2.12034314,36.5865624 2.16234314,36.6495624 M52.8953431,28.0985624 C52.8313431,28.0365624 52.7663431,27.9755624 52.7003431,27.9155624 C52.6373431,27.8465624 52.5733431,27.7785624 52.5083431,27.7115624 C52.6403431,27.8375624 52.7693431,27.9665624 52.8953431,28.0985624 M49.9893431,14.0705624 C49.9163431,14.0065624 49.8413431,13.9455624 49.7653431,13.8855624 C49.7113431,13.8125624 49.6533431,13.7405624 49.5923431,13.6705624 C49.7123431,13.7775624 49.8273431,13.8905624 49.9363431,14.0105624 C49.9543431,14.0305624 49.9713431,14.0505624 49.9893431,14.0705624 M36.2173431,5.89556245 C36.1573431,5.83756245 36.0973431,5.78056245 36.0373431,5.72356245 C35.9723431,5.65556245 35.9083431,5.58756245 35.8433431,5.52056245 C35.9693431,5.64356245 36.0943431,5.76856245 36.2173431,5.89556245" id="Fill-386" fill="#88AB8B"></path>
                <path d="M39.3633431,60.0185624 C39.2953431,60.0185624 39.2243431,60.0135624 39.1513431,60.0025624 C38.9383431,59.9705624 38.7593431,59.9045624 38.6093431,59.8105624 C38.5543431,59.7265624 38.5073431,59.6375624 38.4653431,59.5435624 C38.5583431,59.5775624 38.6593431,59.6035624 38.7703431,59.6195624 C38.8443431,59.6305624 38.9163431,59.6355624 38.9853431,59.6355624 C40.1903431,59.6355624 40.7153431,58.0405624 41.1973431,57.1385624 C42.0153431,55.6015624 42.8233431,54.0585624 43.6013431,52.5005624 C44.1273431,51.4435624 44.6513431,50.3795624 45.1133431,49.2925624 C47.6953431,49.1925624 50.2763431,49.0605624 52.8583431,48.9285624 C53.6483431,48.8905624 54.4413431,48.8495624 55.2333431,48.8085624 C56.3133431,48.7525624 56.9543431,47.6425624 56.6023431,46.7765624 C56.6693431,46.8175624 56.7373431,46.8575624 56.8043431,46.8985624 C56.8273431,46.9125624 56.8493431,46.9265624 56.8713431,46.9415624 C57.4433431,47.8255624 56.7883431,49.1295624 55.6153431,49.1905624 C54.8243431,49.2305624 54.0303431,49.2725624 53.2393431,49.3105624 C50.6593431,49.4405624 48.0773431,49.5725624 45.4953431,49.6735624 C45.0333431,50.7615624 44.5113431,51.8235624 43.9823431,52.8805624 C43.2043431,54.4395624 42.3983431,55.9825624 41.5793431,57.5205624 C41.0983431,58.4235624 40.5713431,60.0185624 39.3633431,60.0185624 M33.8733431,51.3985624 C33.4233431,51.3985624 33.0473431,51.2385624 32.7323431,50.9885624 C32.6693431,50.9125624 32.6103431,50.8325624 32.5533431,50.7495624 C32.8243431,50.9165624 33.1343431,51.0175624 33.4903431,51.0175624 C34.5353431,51.0175624 35.1083431,50.1465624 35.3613431,49.2285624 L35.3713431,49.1855624 C35.4443431,48.9925624 35.5313431,48.8045624 35.6293431,48.6205624 C35.8893431,48.6115624 36.1633431,48.5975624 36.4483431,48.5785624 C36.4253431,48.7135624 36.4033431,48.8495624 36.3823431,48.9855624 C36.2563431,48.9925624 36.1323431,48.9975624 36.0123431,49.0025624 C35.9133431,49.1855624 35.8263431,49.3735624 35.7533431,49.5665624 L35.7433431,49.6105624 C35.4913431,50.5295624 34.9183431,51.3985624 33.8733431,51.3985624 M30.6283431,48.5705624 C26.6983431,47.8495624 22.8953431,46.3875624 19.6683431,44.0005624 C18.8333431,43.3835624 18.0393431,42.7085624 17.2933431,41.9815624 C17.2313431,41.9185624 17.1703431,41.8555624 17.1093431,41.7915624 C17.7973431,42.4455624 18.5253431,43.0565624 19.2863431,43.6195624 C22.5693431,46.0455624 26.4493431,47.5195624 30.4523431,48.2245624 C30.5083431,48.3395624 30.5673431,48.4555624 30.6283431,48.5705624 M47.1893431,41.6945624 C47.1023431,41.6725624 47.0163431,41.6505624 46.9303431,41.6305624 C46.8623431,41.3865624 46.7433431,41.1615624 46.5853431,40.9615624 C46.7153431,41.0665624 46.8343431,41.1825624 46.9373431,41.3085624 C46.9313431,41.3105624 46.9253431,41.3125624 46.9193431,41.3155624 C46.9403431,41.3305624 46.9603431,41.3455624 46.9803431,41.3615624 C47.0613431,41.4665624 47.1313431,41.5775624 47.1893431,41.6945624 M46.5253431,40.8895624 C46.4303431,40.7785624 46.3223431,40.6765624 46.2053431,40.5835624 C46.1863431,40.5575624 46.1653431,40.5335624 46.1443431,40.5085624 C47.1793431,40.0975624 48.3163431,39.5565624 48.2773431,38.2515624 C48.2653431,37.8375624 48.1293431,37.4795624 47.9183431,37.1665624 C47.9983431,37.2255624 48.0763431,37.2875624 48.1523431,37.3505624 C48.4473431,37.7075624 48.6443431,38.1295624 48.6593431,38.6325624 C48.6973431,39.9405624 47.5593431,40.4795624 46.5253431,40.8895624 M2.96434314,36.8925624 C2.95034314,36.8925624 2.93734314,36.8925624 2.92334314,36.8925624 C2.64934314,36.8845624 2.38534314,36.7975624 2.16234314,36.6495624 C2.12034314,36.5865624 2.08334314,36.5195624 2.05134314,36.4495624 C2.04434314,36.4325624 2.03734314,36.4155624 2.03034314,36.3995624 C2.19134314,36.4665624 2.36434314,36.5045624 2.54234314,36.5095624 C2.55534314,36.5095624 2.56834314,36.5095624 2.58134314,36.5095624 C2.97034314,36.5095624 3.39134314,36.3585624 3.76434314,36.2695624 C5.45234314,35.8645624 7.13834314,35.4505624 8.82234314,35.0225624 C9.71534314,34.7945624 10.6073431,34.5645624 11.4963431,34.3245624 C11.5643431,34.4685624 11.6323431,34.6115624 11.7033431,34.7545624 C10.8713431,34.9775624 10.0383431,35.1935624 9.20434314,35.4055624 C7.52234314,35.8325624 5.83434314,36.2455624 4.14634314,36.6505624 C3.77434314,36.7415624 3.35334314,36.8925624 2.96434314,36.8925624 M44.7573431,34.7005624 C44.6403431,34.6445624 44.5243431,34.5915624 44.4073431,34.5395624 C44.2783431,33.6815624 44.1413431,32.6585624 44.0203431,31.4905624 C46.3813431,31.8205624 48.7513431,32.0925624 51.1193431,32.3545624 C51.7133431,32.4225624 52.3063431,32.4875624 52.9003431,32.5495624 C52.9543431,32.5555624 53.0083431,32.5585624 53.0613431,32.5585624 C54.1353431,32.5585624 54.9163431,31.3895624 54.3593431,30.3955624 C53.9543431,29.4745624 53.3763431,28.6545624 52.7003431,27.9155624 C52.7663431,27.9755624 52.8313431,28.0365624 52.8953431,28.0985624 C53.6513431,28.8885624 54.3003431,29.7725624 54.7423431,30.7765624 C55.2983431,31.7715624 54.5153431,32.9415624 53.4413431,32.9415624 C53.3893431,32.9415624 53.3363431,32.9385624 53.2823431,32.9325624 C52.6883431,32.8705624 52.0963431,32.8055624 51.5023431,32.7385624 C49.1323431,32.4745624 46.7633431,32.2005624 44.4033431,31.8735624 C44.5123431,32.9425624 44.6373431,33.8905624 44.7573431,34.7005624 M43.7043431,21.8865624 C43.5913431,21.8485624 43.4783431,21.8125624 43.3643431,21.7785624 C43.3493431,21.6775624 43.3333431,21.5775624 43.3173431,21.4775624 C44.4103431,20.5435624 45.5743431,19.6965624 46.7883431,18.9305624 C47.7483431,18.3245624 48.9263431,17.9035624 49.6983431,17.0415624 C50.5523431,16.0855624 50.4783431,14.8525624 49.7653431,13.8855624 C49.8413431,13.9455624 49.9163431,14.0065624 49.9893431,14.0705624 C50.8463431,15.0615624 50.9923431,16.4035624 50.0803431,17.4235624 C49.3103431,18.2835624 48.1283431,18.7075624 47.1703431,19.3125624 C45.9563431,20.0805624 44.7913431,20.9245624 43.7003431,21.8585624 C43.7013431,21.8675624 43.7033431,21.8775624 43.7043431,21.8865624 M38.5443431,8.75356245 C38.4953431,8.74156245 38.4473431,8.72956245 38.3983431,8.71756245 C37.6983431,7.67056245 36.9113431,6.65256245 36.0373431,5.72356245 C36.0973431,5.78056245 36.1573431,5.83756245 36.2173431,5.89556245 C37.0743431,6.77856245 37.8493431,7.74956245 38.5443431,8.75356245" id="Fill-387" fill="#6D876E"></path>
                <path d="M38.2063431,59.4145624 C38.0503431,59.3135624 37.9253431,59.1825624 37.8243431,59.0315624 C37.8963431,59.0785624 37.9743431,59.1185624 38.0603431,59.1525624 C38.1023431,59.2445624 38.1513431,59.3325624 38.2063431,59.4145624 M56.4753431,46.5385624 C56.4473431,46.5185624 56.4173431,46.5005624 56.3873431,46.4815624 C56.3293431,46.4465624 56.2713431,46.4115624 56.2143431,46.3765624 C56.1823431,46.3025624 56.1433431,46.2305624 56.0973431,46.1605624 C56.2563431,46.2715624 56.3813431,46.3995624 56.4753431,46.5385624" id="Fill-388" fill="#88AB8B"></path>
                <path d="M38.4653431,59.5435624 C38.3703431,59.5085624 38.2843431,59.4655624 38.2063431,59.4145624 C38.1513431,59.3325624 38.1023431,59.2445624 38.0603431,59.1525624 C38.1483431,59.1865624 38.2453431,59.2125624 38.3503431,59.2305624 C38.3833431,59.3385624 38.4213431,59.4435624 38.4653431,59.5435624 M56.6023431,46.7765624 C56.4953431,46.7125624 56.3883431,46.6495624 56.2823431,46.5865624 C56.2653431,46.5155624 56.2433431,46.4455624 56.2143431,46.3765624 C56.2713431,46.4115624 56.3293431,46.4465624 56.3873431,46.4815624 C56.4173431,46.5005624 56.4473431,46.5185624 56.4753431,46.5385624 C56.5273431,46.6155624 56.5693431,46.6945624 56.6023431,46.7765624" id="Fill-389" fill="#6D876E"></path>
                <path d="M38.9853431,59.6355624 C38.9163431,59.6355624 38.8443431,59.6305624 38.7703431,59.6195624 C38.6593431,59.6035624 38.5583431,59.5775624 38.4653431,59.5435624 C38.4213431,59.4435624 38.3833431,59.3385624 38.3503431,59.2305624 C38.3623431,59.2335624 38.3753431,59.2355624 38.3883431,59.2375624 C38.4623431,59.2475624 38.5333431,59.2535624 38.6023431,59.2535624 C39.8083431,59.2535624 40.3353431,57.6595624 40.8143431,56.7555624 C41.6343431,55.2195624 42.4413431,53.6765624 43.2193431,52.1175624 C43.7453431,51.0595624 44.2683431,49.9985624 44.7313431,48.9095624 C47.3133431,48.8085624 49.8953431,48.6765624 52.4753431,48.5475624 C53.2683431,48.5065624 54.0593431,48.4665624 54.8513431,48.4265624 C55.8523431,48.3745624 56.4773431,47.4165624 56.2823431,46.5865624 C56.3883431,46.6495624 56.4953431,46.7125624 56.6023431,46.7765624 C56.9543431,47.6425624 56.3133431,48.7525624 55.2333431,48.8085624 C54.4413431,48.8495624 53.6483431,48.8905624 52.8583431,48.9285624 C50.2763431,49.0605624 47.6953431,49.1925624 45.1133431,49.2925624 C44.6513431,50.3795624 44.1273431,51.4435624 43.6013431,52.5005624 C42.8233431,54.0585624 42.0153431,55.6015624 41.1973431,57.1385624 C40.7153431,58.0405624 40.1903431,59.6355624 38.9853431,59.6355624" id="Fill-390" fill="#556B58"></path>
                <path d="M32.3313431,50.5915624 C32.1933431,50.4795624 32.0663431,50.3505624 31.9503431,50.2095624 C32.0153431,50.2625624 32.0823431,50.3105624 32.1523431,50.3545624 C32.2093431,50.4365624 32.2683431,50.5155624 32.3313431,50.5915624" id="Fill-391" fill="#88AB8B"></path>
                <path d="M32.5533431,50.7495624 C32.4763431,50.7025624 32.4023431,50.6495624 32.3313431,50.5915624 C32.2683431,50.5155624 32.2093431,50.4365624 32.1523431,50.3545624 C32.2253431,50.4015624 32.3023431,50.4425624 32.3823431,50.4795624 C32.4363431,50.5715624 32.4933431,50.6615624 32.5533431,50.7495624" id="Fill-392" fill="#6D876E"></path>
                <path d="M33.4903431,51.0175624 C33.1343431,51.0175624 32.8243431,50.9165624 32.5533431,50.7495624 C32.4933431,50.6615624 32.4363431,50.5715624 32.3823431,50.4795624 C32.6003431,50.5775624 32.8413431,50.6345624 33.1083431,50.6345624 C34.1553431,50.6345624 34.7263431,49.7625624 34.9803431,48.8465624 L34.9903431,48.8025624 C35.0623431,48.6105624 35.1493431,48.4215624 35.2493431,48.2385624 C35.6433431,48.2235624 36.0753431,48.1995624 36.5263431,48.1625624 C36.4983431,48.3005624 36.4733431,48.4395624 36.4483431,48.5785624 C36.1633431,48.5975624 35.8893431,48.6115624 35.6293431,48.6205624 C35.5313431,48.8045624 35.4443431,48.9925624 35.3713431,49.1855624 L35.3613431,49.2285624 C35.1083431,50.1465624 34.5353431,51.0175624 33.4903431,51.0175624" id="Fill-393" fill="#556B58"></path>
                <path d="M16.9013431,41.5905624 C16.7583431,41.4515624 16.6173431,41.3095624 16.4783431,41.1665624 C16.5493431,41.2365624 16.6203431,41.3055624 16.6923431,41.3745624 C16.7613431,41.4465624 16.8313431,41.5185624 16.9013431,41.5905624" id="Fill-394" fill="#88AB8B"></path>
                <path d="M17.1093431,41.7915624 C17.0403431,41.7245624 16.9703431,41.6575624 16.9013431,41.5905624 C16.8313431,41.5185624 16.7613431,41.4465624 16.6923431,41.3745624 C16.7653431,41.4435624 16.8383431,41.5125624 16.9123431,41.5805624 C16.9773431,41.6515624 17.0433431,41.7215624 17.1093431,41.7915624" id="Fill-395" fill="#6D876E"></path>
                <path d="M30.4523431,48.2245624 C26.4493431,47.5195624 22.5693431,46.0455624 19.2863431,43.6195624 C18.5253431,43.0565624 17.7973431,42.4455624 17.1093431,41.7915624 C17.0433431,41.7215624 16.9773431,41.6515624 16.9123431,41.5805624 C17.5453431,42.1705624 18.2113431,42.7245624 18.9063431,43.2375624 C22.2493431,45.7095624 26.2093431,47.1905624 30.2903431,47.8795624 C30.3423431,47.9945624 30.3963431,48.1095624 30.4523431,48.2245624" id="Fill-396" fill="#556B58"></path>
                <path d="M46.5853431,40.9615624 C46.5583431,40.9405624 46.5303431,40.9195624 46.5023431,40.8985624 C46.5103431,40.8955624 46.5173431,40.8925624 46.5253431,40.8895624 C46.5463431,40.9135624 46.5653431,40.9375624 46.5853431,40.9615624" id="Fill-397" fill="#6D876E"></path>
                <path d="M46.9303431,41.6305624 C46.8203431,41.6045624 46.7113431,41.5795624 46.6033431,41.5565624 C46.5723431,41.1945624 46.4263431,40.8645624 46.2053431,40.5835624 C46.3223431,40.6765624 46.4303431,40.7785624 46.5253431,40.8895624 C46.5173431,40.8925624 46.5103431,40.8955624 46.5023431,40.8985624 C46.5303431,40.9195624 46.5583431,40.9405624 46.5853431,40.9615624 C46.7433431,41.1615624 46.8623431,41.3865624 46.9303431,41.6305624" id="Fill-398" fill="#556B58"></path>
                <path d="M47.7573431,36.9535624 C47.6823431,36.8895624 47.6053431,36.8275624 47.5263431,36.7685624 C47.4793431,36.7005624 47.4283431,36.6345624 47.3753431,36.5705624 C47.5133431,36.6895624 47.6423431,36.8165624 47.7573431,36.9535624" id="Fill-399" fill="#88AB8B"></path>
                <path d="M47.9183431,37.1665624 C47.8333431,37.1035624 47.7463431,37.0435624 47.6583431,36.9865624 C47.6183431,36.9115624 47.5743431,36.8385624 47.5263431,36.7685624 C47.6053431,36.8275624 47.6823431,36.8895624 47.7573431,36.9535624 C47.8143431,37.0215624 47.8683431,37.0925624 47.9183431,37.1665624" id="Fill-400" fill="#6D876E"></path>
                <path d="M46.1443431,40.5085624 C46.0463431,40.3945624 45.9363431,40.2885624 45.8163431,40.1935624 C45.7983431,40.1705624 45.7803431,40.1485624 45.7613431,40.1265624 C46.7943431,39.7165624 47.9353431,39.1775624 47.8953431,37.8685624 C47.8853431,37.5415624 47.7983431,37.2485624 47.6583431,36.9865624 C47.7463431,37.0435624 47.8333431,37.1035624 47.9183431,37.1665624 C48.1293431,37.4795624 48.2653431,37.8375624 48.2773431,38.2515624 C48.3163431,39.5565624 47.1793431,40.0975624 46.1443431,40.5085624" id="Fill-401" fill="#556B58"></path>
                <path d="M1.75534314,36.2495624 C1.60734314,36.1475624 1.47834314,36.0195624 1.37534314,35.8695624 C1.45334314,35.9225624 1.53634314,35.9695624 1.62234314,36.0075624 C1.62634314,36.0155624 1.63034314,36.0235624 1.63334314,36.0325624 C1.66834314,36.1085624 1.70934314,36.1815624 1.75534314,36.2495624" id="Fill-402" fill="#88AB8B"></path>
                <path d="M2.03034314,36.3995624 C1.93334314,36.3595624 1.84134314,36.3095624 1.75534314,36.2495624 C1.70934314,36.1815624 1.66834314,36.1085624 1.63334314,36.0325624 C1.63034314,36.0235624 1.62634314,36.0155624 1.62234314,36.0075624 C1.72634314,36.0525624 1.83634314,36.0865624 1.94834314,36.1065624 C1.96434314,36.2035624 1.99034314,36.3015624 2.03034314,36.3995624" id="Fill-403" fill="#6D876E"></path>
                <path d="M2.58134314,36.5095624 C2.56834314,36.5095624 2.55534314,36.5095624 2.54234314,36.5095624 C2.36434314,36.5045624 2.19134314,36.4665624 2.03034314,36.3995624 C1.99034314,36.3015624 1.96434314,36.2035624 1.94834314,36.1065624 C2.01834314,36.1195624 2.08834314,36.1265624 2.16034314,36.1285624 C2.17434314,36.1285624 2.18834314,36.1295624 2.20134314,36.1295624 C2.59034314,36.1295624 3.01034314,35.9755624 3.38234314,35.8865624 C5.07134314,35.4815624 6.75634314,35.0675624 8.44034314,34.6395624 C9.39634314,34.3985624 10.3503431,34.1515624 11.3003431,33.8915624 C11.3643431,34.0365624 11.4293431,34.1805624 11.4963431,34.3245624 C10.6073431,34.5645624 9.71534314,34.7945624 8.82234314,35.0225624 C7.13834314,35.4505624 5.45234314,35.8645624 3.76434314,36.2695624 C3.39134314,36.3585624 2.97034314,36.5095624 2.58134314,36.5095624" id="Fill-404" fill="#556B58"></path>
                <path d="M44.4073431,34.5395624 C44.2923431,34.4885624 44.1773431,34.4385624 44.0623431,34.3895624 C43.9223431,33.4875624 43.7693431,32.3845624 43.6393431,31.1105624 C45.9993431,31.4365624 48.3703431,31.7105624 50.7383431,31.9745624 C51.3313431,32.0395624 51.9243431,32.1065624 52.5193431,32.1695624 C52.5733431,32.1745624 52.6263431,32.1775624 52.6793431,32.1775624 C53.7543431,32.1775624 54.5343431,31.0075624 53.9803431,30.0125624 C53.6103431,29.1725624 53.0953431,28.4165624 52.4933431,27.7285624 C52.5633431,27.7905624 52.6323431,27.8525624 52.7003431,27.9155624 C53.3763431,28.6545624 53.9543431,29.4745624 54.3593431,30.3955624 C54.9163431,31.3895624 54.1353431,32.5585624 53.0613431,32.5585624 C53.0083431,32.5585624 52.9543431,32.5555624 52.9003431,32.5495624 C52.3063431,32.4875624 51.7133431,32.4225624 51.1193431,32.3545624 C48.7513431,32.0925624 46.3813431,31.8205624 44.0203431,31.4905624 C44.1413431,32.6585624 44.2783431,33.6815624 44.4073431,34.5395624" id="Fill-407" fill="#556B58"></path>
                <path d="M49.5923431,13.6705624 C49.5213431,13.6085624 49.4483431,13.5475624 49.3733431,13.4885624 C49.3253431,13.4235624 49.2733431,13.3595624 49.2183431,13.2965624 C49.3363431,13.4015624 49.4483431,13.5125624 49.5553431,13.6305624 C49.5673431,13.6435624 49.5803431,13.6575624 49.5923431,13.6705624" id="Fill-408" fill="#88AB8B"></path>
                <path d="M49.7653431,13.8855624 C49.6863431,13.8245624 49.6063431,13.7655624 49.5243431,13.7085624 C49.4773431,13.6345624 49.4273431,13.5605624 49.3733431,13.4885624 C49.4483431,13.5475624 49.5213431,13.6085624 49.5923431,13.6705624 C49.6533431,13.7405624 49.7113431,13.8125624 49.7653431,13.8855624" id="Fill-409" fill="#6D876E"></path>
                <path d="M43.3643431,21.7785624 C43.2513431,21.7435624 43.1383431,21.7105624 43.0243431,21.6795624 C42.9973431,21.4835624 42.9673431,21.2885624 42.9373431,21.0955624 C44.0263431,20.1605624 45.1933431,19.3165624 46.4063431,18.5485624 C47.3653431,17.9435624 48.5453431,17.5205624 49.3163431,16.6595624 C50.1113431,15.7715624 50.1033431,14.6405624 49.5243431,13.7085624 C49.6063431,13.7655624 49.6863431,13.8245624 49.7653431,13.8855624 C50.4783431,14.8525624 50.5523431,16.0855624 49.6983431,17.0415624 C48.9263431,17.9035624 47.7483431,18.3245624 46.7883431,18.9305624 C45.5743431,19.6965624 44.4103431,20.5435624 43.3173431,21.4775624 C43.3333431,21.5775624 43.3493431,21.6775624 43.3643431,21.7785624" id="Fill-410" fill="#556B58"></path>
                <path d="M31.9503431,50.2095624 C31.8123431,50.0985624 31.6863431,49.9695624 31.5703431,49.8305624 C31.6353431,49.8825624 31.7023431,49.9315624 31.7723431,49.9755624 C31.8293431,50.0555624 31.8883431,50.1345624 31.9503431,50.2095624" id="Fill-415" fill="#88AB8B"></path>
                <path d="M16.4783431,41.1665624 C16.3643431,41.0545624 16.2513431,40.9425624 16.1403431,40.8285624 C16.1973431,40.8845624 16.2553431,40.9395624 16.3123431,40.9945624 C16.3673431,41.0525624 16.4223431,41.1095624 16.4783431,41.1665624" id="Fill-417" fill="#88AB8B"></path>
                <path d="M46.2053431,40.5835624 C46.1783431,40.5615624 46.1493431,40.5395624 46.1213431,40.5185624 C46.1283431,40.5155624 46.1363431,40.5115624 46.1443431,40.5085624 C46.1653431,40.5335624 46.1863431,40.5575624 46.2053431,40.5835624" id="Fill-418" fill="#556B58"></path>
                <path d="M47.3753431,36.5705624 C47.3003431,36.5065624 47.2233431,36.4455624 47.1433431,36.3865624 C47.0963431,36.3175624 47.0453431,36.2505624 46.9903431,36.1865624 C47.1303431,36.3055624 47.2593431,36.4335624 47.3753431,36.5705624" id="Fill-419" fill="#88AB8B"></path>
                <path d="M1.37534314,35.8695624 C1.22834314,35.7675624 1.09934314,35.6395624 0.997343139,35.4915624 C1.07434314,35.5435624 1.15634314,35.5895624 1.24234314,35.6265624 C1.24534314,35.6355624 1.24934314,35.6435624 1.25234314,35.6515624 C1.28734314,35.7285624 1.32834314,35.8005624 1.37534314,35.8695624 M52.1233431,27.3255624 C52.0563431,27.2615624 51.9893431,27.1985624 51.9213431,27.1355624 C51.8633431,27.0725624 51.8043431,27.0095624 51.7453431,26.9475624 C51.8733431,27.0715624 51.9993431,27.1965624 52.1233431,27.3255624 M35.4543431,5.13156245 C35.3893431,5.06756245 35.3233431,5.00556245 35.2573431,4.94256245 C35.1943431,4.87556245 35.1303431,4.80956245 35.0663431,4.74256245 C35.1973431,4.87056245 35.3263431,4.99956245 35.4543431,5.13156245" id="Fill-420" fill="#88AB8B"></path>
                <path d="M49.2183431,13.2965624 C49.1433431,13.2305624 49.0663431,13.1655624 48.9873431,13.1035624 C48.9353431,13.0335624 48.8793431,12.9655624 48.8213431,12.8985624 C48.9443431,13.0075624 49.0623431,13.1235624 49.1743431,13.2475624 C49.1893431,13.2635624 49.2043431,13.2805624 49.2183431,13.2965624" id="Fill-421" fill="#88AB8B"></path>
                <path d="M38.0603431,59.1525624 C37.9743431,59.1185624 37.8963431,59.0785624 37.8243431,59.0315624 C37.7693431,58.9505624 37.7213431,58.8625624 37.6793431,58.7715624 C37.7603431,58.8025624 37.8473431,58.8275624 37.9423431,58.8455624 C37.9763431,58.9515624 38.0153431,59.0545624 38.0603431,59.1525624 M32.1523431,50.3545624 C32.0823431,50.3105624 32.0153431,50.2625624 31.9503431,50.2095624 C31.8883431,50.1345624 31.8293431,50.0555624 31.7723431,49.9755624 C31.8393431,50.0175624 31.9093431,50.0555624 31.9813431,50.0895624 C32.0353431,50.1795624 32.0923431,50.2685624 32.1523431,50.3545624 M56.2143431,46.3765624 C56.1073431,46.3135624 56.0013431,46.2495624 55.8963431,46.1875624 C55.8803431,46.1235624 55.8593431,46.0595624 55.8323431,45.9965624 C55.8903431,46.0315624 55.9483431,46.0665624 56.0063431,46.1015624 C56.0383431,46.1205624 56.0683431,46.1405624 56.0973431,46.1605624 C56.1433431,46.2305624 56.1823431,46.3025624 56.2143431,46.3765624 M16.6923431,41.3745624 C16.6203431,41.3055624 16.5493431,41.2365624 16.4783431,41.1665624 C16.4223431,41.1095624 16.3673431,41.0525624 16.3123431,40.9945624 C16.3803431,41.0585624 16.4473431,41.1225624 16.5153431,41.1855624 C16.5743431,41.2485624 16.6333431,41.3115624 16.6923431,41.3745624 M47.5263431,36.7685624 C47.4423431,36.7065624 47.3563431,36.6465624 47.2693431,36.5895624 C47.2313431,36.5195624 47.1893431,36.4515624 47.1433431,36.3865624 C47.2233431,36.4455624 47.3003431,36.5065624 47.3753431,36.5705624 C47.4283431,36.6345624 47.4793431,36.7005624 47.5263431,36.7685624 M1.62234314,36.0075624 C1.53634314,35.9695624 1.45334314,35.9225624 1.37534314,35.8695624 C1.32834314,35.8005624 1.28734314,35.7285624 1.25234314,35.6515624 C1.24934314,35.6435624 1.24534314,35.6355624 1.24234314,35.6265624 C1.33634314,35.6685624 1.43534314,35.6995624 1.53634314,35.7205624 C1.55334314,35.8155624 1.58134314,35.9105624 1.62234314,36.0075624 M52.3053431,27.5195624 C52.2353431,27.4545624 52.1653431,27.3905624 52.0943431,27.3275624 C52.0373431,27.2625624 51.9793431,27.1985624 51.9213431,27.1355624 C51.9893431,27.1985624 52.0563431,27.2615624 52.1233431,27.3255624 C52.1843431,27.3895624 52.2453431,27.4545624 52.3053431,27.5195624 M49.3733431,13.4885624 C49.2933431,13.4255624 49.2113431,13.3645624 49.1273431,13.3065624 C49.0843431,13.2375624 49.0373431,13.1695624 48.9873431,13.1035624 C49.0663431,13.1655624 49.1433431,13.2305624 49.2183431,13.2965624 C49.2733431,13.3595624 49.3253431,13.4235624 49.3733431,13.4885624 M35.6473431,5.33256245 C35.5813431,5.27156245 35.5153431,5.20956245 35.4493431,5.14856245 C35.3853431,5.07956245 35.3213431,5.01156245 35.2573431,4.94256245 C35.3233431,5.00556245 35.3893431,5.06756245 35.4543431,5.13156245 C35.5193431,5.19856245 35.5833431,5.26556245 35.6473431,5.33256245" id="Fill-422" fill="#6D876E"></path>
                <path d="M38.3503431,59.2305624 C38.2453431,59.2125624 38.1483431,59.1865624 38.0603431,59.1525624 C38.0153431,59.0545624 37.9763431,58.9515624 37.9423431,58.8455624 C37.9633431,58.8485624 37.9853431,58.8525624 38.0063431,58.8555624 C38.0803431,58.8665624 38.1523431,58.8715624 38.2213431,58.8715624 C38.2333431,58.8715624 38.2463431,58.8715624 38.2583431,58.8715624 C38.2843431,58.9935624 38.3143431,59.1145624 38.3503431,59.2305624 M32.3823431,50.4795624 C32.3023431,50.4425624 32.2253431,50.4015624 32.1523431,50.3545624 C32.0923431,50.2685624 32.0353431,50.1795624 31.9813431,50.0895624 C32.0563431,50.1245624 32.1353431,50.1545624 32.2163431,50.1795624 C32.2243431,50.1945624 32.2333431,50.2095624 32.2413431,50.2245624 L32.2773431,50.2915624 C32.3103431,50.3545624 32.3453431,50.4175624 32.3823431,50.4795624 M56.2823431,46.5865624 C56.1643431,46.5165624 56.0463431,46.4485624 55.9293431,46.3805624 C55.9233431,46.3155624 55.9123431,46.2515624 55.8963431,46.1875624 C56.0013431,46.2495624 56.1073431,46.3135624 56.2143431,46.3765624 C56.2433431,46.4455624 56.2653431,46.5155624 56.2823431,46.5865624 M16.9123431,41.5805624 C16.8383431,41.5125624 16.7653431,41.4435624 16.6923431,41.3745624 C16.6333431,41.3115624 16.5743431,41.2485624 16.5153431,41.1855624 C16.5873431,41.2535624 16.6603431,41.3205624 16.7333431,41.3865624 C16.7923431,41.4515624 16.8523431,41.5165624 16.9123431,41.5805624 M47.6583431,36.9865624 C47.5643431,36.9245624 47.4683431,36.8665624 47.3733431,36.8105624 C47.3423431,36.7345624 47.3083431,36.6605624 47.2693431,36.5895624 C47.3563431,36.6465624 47.4423431,36.7065624 47.5263431,36.7685624 C47.5743431,36.8385624 47.6183431,36.9115624 47.6583431,36.9865624 M1.94834314,36.1065624 C1.83634314,36.0865624 1.72634314,36.0525624 1.62234314,36.0075624 C1.58134314,35.9105624 1.55334314,35.8155624 1.53634314,35.7205624 C1.61534314,35.7365624 1.69634314,35.7455624 1.77834314,35.7475624 C1.78834314,35.7485624 1.79934314,35.7485624 1.81034314,35.7485624 C1.85234314,35.7485624 1.89434314,35.7465624 1.93734314,35.7435624 C1.92734314,35.8635624 1.92934314,35.9855624 1.94834314,36.1065624 M52.4933431,27.7285624 C52.4213431,27.6645624 52.3483431,27.6015624 52.2743431,27.5385624 C52.2153431,27.4675624 52.1553431,27.3975624 52.0943431,27.3275624 C52.1653431,27.3905624 52.2353431,27.4545624 52.3053431,27.5195624 C52.3693431,27.5885624 52.4313431,27.6585624 52.4933431,27.7285624 M49.5243431,13.7085624 C49.4373431,13.6485624 49.3483431,13.5915624 49.2593431,13.5355624 C49.2193431,13.4575624 49.1753431,13.3815624 49.1273431,13.3065624 C49.2113431,13.3645624 49.2933431,13.4255624 49.3733431,13.4885624 C49.4273431,13.5605624 49.4773431,13.6345624 49.5243431,13.7085624 M35.8463431,5.54656245 C35.7813431,5.48756245 35.7153431,5.42856245 35.6493431,5.37056245 C35.5833431,5.29556245 35.5163431,5.22256245 35.4493431,5.14856245 C35.5153431,5.20956245 35.5813431,5.27156245 35.6473431,5.33256245 C35.7143431,5.40356245 35.7803431,5.47556245 35.8463431,5.54656245" id="Fill-423" fill="#556B58"></path>
                <path d="M38.6023431,59.2535624 C38.5333431,59.2535624 38.4623431,59.2475624 38.3883431,59.2375624 C38.3753431,59.2355624 38.3623431,59.2335624 38.3503431,59.2305624 C38.3143431,59.1145624 38.2843431,58.9935624 38.2583431,58.8715624 C39.4373431,58.8395624 39.9583431,57.2695624 40.4333431,56.3745624 C41.2523431,54.8375624 42.0583431,53.2945624 42.8353431,51.7365624 C43.3653431,50.6785624 43.8863431,49.6155624 44.3493431,48.5295624 C46.9313431,48.4285624 49.5133431,48.2965624 52.0933431,48.1665624 C52.8863431,48.1255624 53.6773431,48.0865624 54.4693431,48.0455624 C55.4013431,47.9965624 56.0063431,47.1635624 55.9293431,46.3805624 C56.0463431,46.4485624 56.1643431,46.5165624 56.2823431,46.5865624 C56.4773431,47.4165624 55.8523431,48.3745624 54.8513431,48.4265624 C54.0593431,48.4665624 53.2683431,48.5065624 52.4753431,48.5475624 C49.8953431,48.6765624 47.3133431,48.8085624 44.7313431,48.9095624 C44.2683431,49.9985624 43.7453431,51.0595624 43.2193431,52.1175624 C42.4413431,53.6765624 41.6343431,55.2195624 40.8143431,56.7555624 C40.3353431,57.6595624 39.8083431,59.2535624 38.6023431,59.2535624 M33.1083431,50.6345624 C32.8413431,50.6345624 32.6003431,50.5775624 32.3823431,50.4795624 C32.3453431,50.4175624 32.3103431,50.3545624 32.2773431,50.2915624 L32.2413431,50.2245624 C32.2333431,50.2095624 32.2243431,50.1945624 32.2163431,50.1795624 C32.3753431,50.2275624 32.5443431,50.2535624 32.7263431,50.2535624 C33.7733431,50.2535624 34.3443431,49.3825624 34.5983431,48.4645624 L34.6083431,48.4215624 C34.6803431,48.2295624 34.7673431,48.0405624 34.8673431,47.8575624 C35.3973431,47.8355624 35.9913431,47.7995624 36.6173431,47.7385624 C36.5853431,47.8795624 36.5543431,48.0205624 36.5263431,48.1625624 C36.0753431,48.1995624 35.6433431,48.2235624 35.2493431,48.2385624 C35.1493431,48.4215624 35.0623431,48.6105624 34.9903431,48.8025624 L34.9803431,48.8465624 C34.7263431,49.7625624 34.1553431,50.6345624 33.1083431,50.6345624 M30.2903431,47.8795624 C26.2093431,47.1905624 22.2493431,45.7095624 18.9063431,43.2375624 C18.2113431,42.7245624 17.5453431,42.1705624 16.9123431,41.5805624 C16.8523431,41.5165624 16.7923431,41.4515624 16.7333431,41.3865624 C17.3063431,41.9065624 17.9043431,42.3975624 18.5243431,42.8565624 C21.9313431,45.3755624 25.9783431,46.8635624 30.1413431,47.5375624 C30.1893431,47.6515624 30.2393431,47.7655624 30.2903431,47.8795624 M46.6033431,41.5565624 C46.4753431,41.5285624 46.3473431,41.5025624 46.2213431,41.4795624 C46.2643431,40.9925624 46.1013431,40.5525624 45.8163431,40.1935624 C45.9363431,40.2885624 46.0463431,40.3945624 46.1443431,40.5085624 C46.1363431,40.5115624 46.1283431,40.5155624 46.1213431,40.5185624 C46.1493431,40.5395624 46.1783431,40.5615624 46.2053431,40.5835624 C46.4263431,40.8645624 46.5723431,41.1945624 46.6033431,41.5565624 M45.7613431,40.1265624 C45.6433431,39.9895624 45.5063431,39.8645624 45.3573431,39.7545624 C46.3973431,39.3425624 47.5523431,38.8025624 47.5133431,37.4855624 C47.5063431,37.2415624 47.4563431,37.0175624 47.3733431,36.8105624 C47.4683431,36.8665624 47.5643431,36.9245624 47.6583431,36.9865624 C47.7983431,37.2485624 47.8853431,37.5415624 47.8953431,37.8685624 C47.9353431,39.1775624 46.7943431,39.7165624 45.7613431,40.1265624 M2.20134314,36.1295624 C2.18834314,36.1295624 2.17434314,36.1285624 2.16034314,36.1285624 C2.08834314,36.1265624 2.01834314,36.1195624 1.94834314,36.1065624 C1.92934314,35.9855624 1.92734314,35.8635624 1.93734314,35.7435624 C2.29234314,35.7165624 2.66534314,35.5855624 2.99934314,35.5065624 C4.68934314,35.1005624 6.37634314,34.6865624 8.05734314,34.2595624 C9.07934314,33.9985624 10.1003431,33.7345624 11.1163431,33.4575624 C11.1763431,33.6025624 11.2373431,33.7475624 11.3003431,33.8915624 C10.3503431,34.1515624 9.39634314,34.3985624 8.44034314,34.6395624 C6.75634314,35.0675624 5.07134314,35.4815624 3.38234314,35.8865624 C3.01034314,35.9755624 2.59034314,36.1295624 2.20134314,36.1295624 M44.0623431,34.3895624 C43.9473431,34.3405624 43.8323431,34.2935624 43.7183431,34.2475624 C43.5693431,33.3045624 43.3993431,32.1175624 43.2563431,30.7275624 C45.6173431,31.0565624 47.9873431,31.3265624 50.3553431,31.5915624 C50.9503431,31.6585624 51.5423431,31.7235624 52.1363431,31.7885624 C52.1903431,31.7945624 52.2433431,31.7965624 52.2963431,31.7965624 C53.3723431,31.7965624 54.1523431,30.6245624 53.5963431,29.6315624 C53.2613431,28.8685624 52.8053431,28.1745624 52.2743431,27.5385624 C52.3483431,27.6015624 52.4213431,27.6645624 52.4933431,27.7285624 C53.0953431,28.4165624 53.6103431,29.1725624 53.9803431,30.0125624 C54.5343431,31.0075624 53.7543431,32.1775624 52.6793431,32.1775624 C52.6263431,32.1775624 52.5733431,32.1745624 52.5193431,32.1695624 C51.9243431,32.1065624 51.3313431,32.0395624 50.7383431,31.9745624 C48.3703431,31.7105624 45.9993431,31.4365624 43.6393431,31.1105624 C43.7693431,32.3845624 43.9223431,33.4875624 44.0623431,34.3895624 M43.0243431,21.6795624 C42.9103431,21.6475624 42.7963431,21.6175624 42.6813431,21.5895624 C42.6443431,21.2965624 42.6013431,21.0055624 42.5543431,20.7135624 C43.6453431,19.7795624 44.8113431,18.9335624 46.0253431,18.1675624 C46.9833431,17.5605624 48.1643431,17.1395624 48.9353431,16.2775624 C49.6703431,15.4545624 49.7173431,14.4235624 49.2593431,13.5355624 C49.3483431,13.5915624 49.4373431,13.6485624 49.5243431,13.7085624 C50.1033431,14.6405624 50.1113431,15.7715624 49.3163431,16.6595624 C48.5453431,17.5205624 47.3653431,17.9435624 46.4063431,18.5485624 C45.1933431,19.3165624 44.0263431,20.1605624 42.9373431,21.0955624 C42.9673431,21.2885624 42.9973431,21.4835624 43.0243431,21.6795624 M38.2433431,8.67856245 C38.1883431,8.66556245 38.1333431,8.65156245 38.0793431,8.63756245 C37.3673431,7.50556245 36.5593431,6.39256245 35.6493431,5.37056245 C35.7153431,5.42856245 35.7813431,5.48756245 35.8463431,5.54656245 C36.7393431,6.52256245 37.5373431,7.58856245 38.2433431,8.67856245" id="Fill-424" fill="#425245"></path>
                <path d="M37.4433431,58.6515624 C36.7313431,58.1915624 36.6633431,57.1135624 36.5303431,56.3005624 C36.3443431,55.1475624 36.2223431,53.9825624 36.1823431,52.8155624 C36.1483431,51.7765624 36.1763431,50.7305624 36.2903431,49.6955624 C36.3333431,49.6025624 36.3803431,49.5095624 36.4293431,49.4185624 C36.5373431,49.4145624 36.6463431,49.4095624 36.7583431,49.4045624 C36.5743431,50.6575624 36.5223431,51.9315624 36.5643431,53.1965624 C36.6043431,54.3635624 36.7273431,55.5275624 36.9133431,56.6815624 C37.0153431,57.3175624 37.0803431,58.1145624 37.4433431,58.6515624 M31.5703431,49.8305624 C31.2783431,49.5945624 31.0383431,49.2815624 30.8393431,48.9485624 C30.9023431,48.9605624 30.9653431,48.9715624 31.0283431,48.9835624 C31.0393431,49.0045624 31.0513431,49.0255624 31.0623431,49.0465624 L31.0973431,49.1115624 C31.2323431,49.3625624 31.3883431,49.6105624 31.5703431,49.8305624 M55.7123431,45.7755624 C55.6843431,45.7555624 55.6553431,45.7365624 55.6243431,45.7185624 C52.6133431,43.8945624 49.9253431,42.6765624 47.5893431,42.0795624 C47.5273431,41.9595624 47.4523431,41.8465624 47.3663431,41.7405624 C49.6643431,42.3515624 52.3003431,43.5525624 55.2433431,45.3375624 C55.4463431,45.4605624 55.6013431,45.6105624 55.7123431,45.7755624 M16.1403431,40.8285624 C14.4613431,39.1905624 13.0293431,37.2945624 11.9403431,35.2195624 C11.9943431,35.2045624 12.0493431,35.1895624 12.1043431,35.1755624 C13.1383431,37.2555624 14.5143431,39.1655624 16.1403431,40.8285624 M46.9903431,36.1865624 C46.6723431,35.9135624 46.3053431,35.6875624 45.9493431,35.4945624 L45.8803431,35.4565624 C45.6453431,35.3285624 45.4083431,35.2085624 45.1703431,35.0965624 C45.1603431,35.0275624 45.1503431,34.9585624 45.1403431,34.8875624 C45.2603431,34.9485624 45.3793431,35.0115624 45.4993431,35.0755624 L45.5653431,35.1125624 C46.0763431,35.3895624 46.6113431,35.7355624 46.9903431,36.1865624 M0.997343139,35.4915624 C0.779343139,35.3415624 0.601343139,35.1345624 0.490343139,34.8875624 C0.262343139,34.3845624 0.396343139,33.8895624 0.572343139,33.3945624 C1.25534314,31.4505624 2.67034314,29.8535624 4.14634314,28.4605624 C5.76734314,26.9305624 7.60034314,25.5695624 9.64534314,24.6645624 C9.73834314,20.7655624 10.6393431,16.9025624 12.1123431,13.2965624 C13.4063431,10.1225624 15.1963431,7.06856245 17.6383431,4.63756245 C20.0173431,2.26956245 23.1383431,0.599562447 26.4363431,0.599562447 C27.3233431,0.599562447 28.2243431,0.720562447 29.1253431,0.981562447 C31.4313431,1.64956245 33.4043431,3.03256245 35.0663431,4.74256245 C33.4863431,3.21056245 31.6393431,1.98156245 29.5073431,1.36356245 C28.6043431,1.10256245 27.7033431,0.981562447 26.8153431,0.981562447 C23.5183431,0.981562447 20.3983431,2.65156245 18.0213431,5.01956245 C15.5803431,7.44956245 13.7883431,10.5045624 12.4943431,13.6775624 C11.0213431,17.2825624 10.1193431,21.1455624 10.0273431,25.0455624 C7.98234314,25.9495624 6.14834314,27.3115624 4.52734314,28.8415624 C3.05234314,30.2345624 1.63834314,31.8335624 0.953343139,33.7755624 C0.778343139,34.2695624 0.644343139,34.7645624 0.872343139,35.2685624 C0.907343139,35.3475624 0.949343139,35.4215624 0.997343139,35.4915624 M51.7453431,26.9475624 C51.1313431,26.3585624 50.4633431,25.8225624 49.7863431,25.3295624 C48.0893431,24.0955624 46.1453431,22.9555624 44.1173431,22.2785624 L44.1173431,22.2775624 C44.1843431,22.2195624 44.2513431,22.1625624 44.3193431,22.1055624 C46.1353431,22.7955624 47.8703431,23.8335624 49.4043431,24.9495624 C50.2243431,25.5455624 51.0323431,26.2045624 51.7453431,26.9475624 M48.8213431,12.8985624 C48.0783431,12.2445624 47.1453431,11.8365624 46.2383431,11.4595624 L46.0413431,11.3765624 C43.7543431,10.4155624 41.3453431,9.74056245 38.9393431,9.13856245 C38.8583431,9.02256245 38.7763431,8.90656245 38.6943431,8.79156245 C41.0543431,9.38556245 43.4153431,10.0525624 45.6593431,10.9965624 L45.8573431,11.0765624 C46.9143431,11.5185624 48.0063431,11.9995624 48.7923431,12.8665624 C48.8013431,12.8775624 48.8113431,12.8885624 48.8213431,12.8985624" id="Fill-425" fill="#88AB8B"></path>
                <path d="M36.2903431,49.6955624 C36.3173431,49.4585624 36.3473431,49.2215624 36.3823431,48.9855624 C36.5283431,48.9785624 36.6773431,48.9695624 36.8303431,48.9595624 C36.8043431,49.1075624 36.7803431,49.2555624 36.7583431,49.4045624 C36.6463431,49.4095624 36.5373431,49.4145624 36.4293431,49.4185624 C36.3803431,49.5095624 36.3333431,49.6025624 36.2903431,49.6955624 M31.0283431,48.9835624 C30.9653431,48.9715624 30.9023431,48.9605624 30.8393431,48.9485624 C30.7963431,48.8755624 30.7553431,48.8025624 30.7153431,48.7285624 L30.6783431,48.6635624 C30.6613431,48.6325624 30.6443431,48.6015624 30.6283431,48.5705624 C30.6973431,48.5835624 30.7663431,48.5955624 30.8353431,48.6075624 C30.8963431,48.7335624 30.9613431,48.8585624 31.0283431,48.9835624 M47.5893431,42.0795624 C47.4963431,42.0555624 47.4033431,42.0325624 47.3113431,42.0105624 C47.2813431,41.9015624 47.2403431,41.7955624 47.1893431,41.6945624 C47.2483431,41.7095624 47.3073431,41.7245624 47.3663431,41.7405624 C47.4523431,41.8465624 47.5273431,41.9595624 47.5893431,42.0795624 M11.9403431,35.2195624 C11.8593431,35.0655624 11.7803431,34.9105624 11.7033431,34.7545624 C11.7613431,34.7385624 11.8203431,34.7225624 11.8783431,34.7075624 C11.9523431,34.8645624 12.0273431,35.0205624 12.1043431,35.1755624 C12.0493431,35.1895624 11.9943431,35.2045624 11.9403431,35.2195624 M45.1703431,35.0965624 C45.0433431,35.0365624 44.9163431,34.9785624 44.7903431,34.9215624 C44.7793431,34.8495624 44.7683431,34.7755624 44.7573431,34.7005624 C44.8843431,34.7605624 45.0123431,34.8225624 45.1403431,34.8875624 C45.1503431,34.9585624 45.1603431,35.0275624 45.1703431,35.0965624 M44.1173431,22.2785624 C43.9943431,22.2375624 43.8713431,22.1985624 43.7473431,22.1605624 C43.7333431,22.0695624 43.7193431,21.9775624 43.7043431,21.8865624 C43.9103431,21.9545624 44.1153431,22.0275624 44.3193431,22.1055624 C44.2513431,22.1625624 44.1843431,22.2195624 44.1173431,22.2775624 L44.1173431,22.2785624 M38.9393431,9.13856245 C38.8853431,9.12456245 38.8313431,9.11156245 38.7783431,9.09756245 C38.7013431,8.98356245 38.6233431,8.86756245 38.5443431,8.75356245 C38.5943431,8.76656245 38.6443431,8.77856245 38.6943431,8.79156245 C38.7763431,8.90656245 38.8583431,9.02256245 38.9393431,9.13856245" id="Fill-426" fill="#6D876E"></path>
                <path d="M36.3823431,48.9855624 C36.4033431,48.8495624 36.4253431,48.7135624 36.4483431,48.5785624 C36.5983431,48.5685624 36.7523431,48.5575624 36.9073431,48.5445624 C36.8803431,48.6825624 36.8543431,48.8215624 36.8303431,48.9595624 C36.6773431,48.9695624 36.5283431,48.9785624 36.3823431,48.9855624 M30.8353431,48.6075624 C30.7663431,48.5955624 30.6973431,48.5835624 30.6283431,48.5705624 C30.5673431,48.4555624 30.5083431,48.3395624 30.4523431,48.2245624 C30.5263431,48.2375624 30.5993431,48.2495624 30.6733431,48.2625624 C30.7253431,48.3775624 30.7793431,48.4925624 30.8353431,48.6075624 M47.3113431,42.0105624 C47.2023431,41.9845624 47.0933431,41.9605624 46.9853431,41.9375624 C46.9763431,41.8315624 46.9573431,41.7295624 46.9303431,41.6305624 C47.0163431,41.6505624 47.1023431,41.6725624 47.1893431,41.6945624 C47.2403431,41.7955624 47.2813431,41.9015624 47.3113431,42.0105624 M44.7903431,34.9215624 C44.6743431,34.8705624 44.5583431,34.8205624 44.4433431,34.7725624 C44.4313431,34.6965624 44.4193431,34.6185624 44.4073431,34.5395624 C44.5243431,34.5915624 44.6403431,34.6445624 44.7573431,34.7005624 C44.7683431,34.7755624 44.7793431,34.8495624 44.7903431,34.9215624 M11.7033431,34.7545624 C11.6323431,34.6115624 11.5643431,34.4685624 11.4963431,34.3245624 C11.5583431,34.3075624 11.6203431,34.2915624 11.6823431,34.2745624 C11.7463431,34.4195624 11.8113431,34.5635624 11.8783431,34.7075624 C11.8203431,34.7225624 11.7613431,34.7385624 11.7033431,34.7545624 M43.7473431,22.1605624 C43.6333431,22.1265624 43.5193431,22.0935624 43.4053431,22.0615624 C43.3923431,21.9675624 43.3783431,21.8725624 43.3643431,21.7785624 C43.4783431,21.8125624 43.5913431,21.8485624 43.7043431,21.8865624 C43.7193431,21.9775624 43.7333431,22.0695624 43.7473431,22.1605624 M38.7783431,9.09756245 C38.7273431,9.08556245 38.6753431,9.07256245 38.6243431,9.05956245 C38.5503431,8.94556245 38.4753431,8.83156245 38.3983431,8.71756245 C38.4473431,8.72956245 38.4953431,8.74156245 38.5443431,8.75356245 C38.6233431,8.86756245 38.7013431,8.98356245 38.7783431,9.09756245" id="Fill-427" fill="#556B58"></path>
                <path d="M36.4483431,48.5785624 C36.4733431,48.4395624 36.4983431,48.3005624 36.5263431,48.1625624 C36.6813431,48.1495624 36.8383431,48.1355624 36.9983431,48.1195624 C36.9663431,48.2605624 36.9353431,48.4025624 36.9073431,48.5445624 C36.7523431,48.5575624 36.5983431,48.5685624 36.4483431,48.5785624" id="Fill-428" fill="#425245"></path>
                <path d="M30.6733431,48.2625624 C30.5993431,48.2495624 30.5263431,48.2375624 30.4523431,48.2245624 C30.3963431,48.1095624 30.3423431,47.9945624 30.2903431,47.8795624 C30.3683431,47.8925624 30.4453431,47.9055624 30.5233431,47.9175624 C30.5713431,48.0325624 30.6213431,48.1475624 30.6733431,48.2625624" id="Fill-429" fill="#425245"></path>
                <path d="M46.9853431,41.9375624 C46.8573431,41.9095624 46.7293431,41.8835624 46.6033431,41.8605624 C46.6123431,41.7565624 46.6123431,41.6555624 46.6033431,41.5565624 C46.7113431,41.5795624 46.8203431,41.6045624 46.9303431,41.6305624 C46.9573431,41.7295624 46.9763431,41.8315624 46.9853431,41.9375624" id="Fill-430" fill="#425245"></path>
                <path d="M45.8163431,40.1935624 C45.7913431,40.1735624 45.7663431,40.1535624 45.7403431,40.1345624 C45.7473431,40.1325624 45.7543431,40.1295624 45.7613431,40.1265624 C45.7803431,40.1485624 45.7983431,40.1705624 45.8163431,40.1935624" id="Fill-431" fill="#425245"></path>
                <path d="M11.4963431,34.3245624 C11.4293431,34.1805624 11.3643431,34.0365624 11.3003431,33.8915624 C11.3663431,33.8735624 11.4313431,33.8555624 11.4973431,33.8375624 C11.5573431,33.9835624 11.6193431,34.1295624 11.6823431,34.2745624 C11.6203431,34.2915624 11.5583431,34.3075624 11.4963431,34.3245624" id="Fill-432" fill="#425245"></path>
                <path d="M44.4433431,34.7725624 C44.3283431,34.7235624 44.2143431,34.6765624 44.1003431,34.6305624 C44.0883431,34.5525624 44.0753431,34.4715624 44.0623431,34.3895624 C44.1773431,34.4385624 44.2923431,34.4885624 44.4073431,34.5395624 C44.4193431,34.6185624 44.4313431,34.6965624 44.4433431,34.7725624" id="Fill-433" fill="#425245"></path>
                <path d="M43.4053431,22.0615624 C43.2913431,22.0305624 43.1773431,22.0005624 43.0633431,21.9725624 C43.0513431,21.8745624 43.0383431,21.7775624 43.0243431,21.6795624 C43.1383431,21.7105624 43.2513431,21.7435624 43.3643431,21.7785624 C43.3783431,21.8725624 43.3923431,21.9675624 43.4053431,22.0615624" id="Fill-434" fill="#425245"></path>
                <path d="M37.6793431,58.7715624 C37.5933431,58.7385624 37.5153431,58.6985624 37.4433431,58.6515624 C37.0803431,58.1145624 37.0153431,57.3175624 36.9133431,56.6815624 C36.7273431,55.5275624 36.6043431,54.3635624 36.5643431,53.1965624 C36.5223431,51.9315624 36.5743431,50.6575624 36.7583431,49.4045624 C36.9043431,49.3975624 37.0523431,49.3885624 37.2053431,49.3795624 C36.9683431,50.7625624 36.8993431,52.1775624 36.9463431,53.5795624 C36.9853431,54.7465624 37.1083431,55.9115624 37.2933431,57.0645624 C37.3813431,57.6025624 37.4413431,58.2565624 37.6793431,58.7715624" id="Fill-436" fill="#6D876E"></path>
                <path d="M36.7583431,49.4045624 C36.7803431,49.2555624 36.8043431,49.1075624 36.8303431,48.9595624 C36.9803431,48.9505624 37.1333431,48.9385624 37.2883431,48.9265624 C37.2583431,49.0765624 37.2303431,49.2275624 37.2053431,49.3795624 C37.0523431,49.3885624 36.9043431,49.3975624 36.7583431,49.4045624" id="Fill-437" fill="#556B58"></path>
                <path d="M36.8303431,48.9595624 C36.8543431,48.8215624 36.8803431,48.6825624 36.9073431,48.5445624 C37.0623431,48.5315624 37.2193431,48.5185624 37.3783431,48.5025624 C37.3463431,48.6435624 37.3173431,48.7845624 37.2883431,48.9265624 C37.1333431,48.9385624 36.9803431,48.9505624 36.8303431,48.9595624" id="Fill-438" fill="#425245"></path>
                <path d="M31.7723431,49.9755624 C31.7023431,49.9315624 31.6353431,49.8825624 31.5703431,49.8305624 C31.3883431,49.6105624 31.2323431,49.3625624 31.0973431,49.1115624 L31.0623431,49.0465624 C31.0513431,49.0255624 31.0393431,49.0045624 31.0283431,48.9835624 C31.0963431,48.9965624 31.1633431,49.0085624 31.2313431,49.0205624 C31.2983431,49.1565624 31.3693431,49.2925624 31.4433431,49.4275624 L31.4793431,49.4925624 C31.5673431,49.6575624 31.6643431,49.8205624 31.7723431,49.9755624" id="Fill-439" fill="#6D876E"></path>
                <path d="M31.2313431,49.0205624 C31.1633431,49.0085624 31.0963431,48.9965624 31.0283431,48.9835624 C30.9613431,48.8585624 30.8963431,48.7335624 30.8353431,48.6075624 C30.9083431,48.6205624 30.9823431,48.6335624 31.0553431,48.6455624 C31.1113431,48.7705624 31.1703431,48.8955624 31.2313431,49.0205624" id="Fill-440" fill="#556B58"></path>
                <path d="M31.0553431,48.6455624 C30.9823431,48.6335624 30.9083431,48.6205624 30.8353431,48.6075624 C30.7793431,48.4925624 30.7253431,48.3775624 30.6733431,48.2625624 C30.7503431,48.2755624 30.8283431,48.2885624 30.9053431,48.3005624 C30.9533431,48.4155624 31.0033431,48.5305624 31.0553431,48.6455624" id="Fill-441" fill="#425245"></path>
                <path d="M55.8323431,45.9965624 C52.7833431,44.1625624 50.0683431,42.9595624 47.7193431,42.3995624 C47.6863431,42.2885624 47.6423431,42.1815624 47.5893431,42.0795624 C49.9253431,42.6765624 52.6133431,43.8945624 55.6243431,45.7185624 C55.6553431,45.7365624 55.6843431,45.7555624 55.7123431,45.7755624 C55.7603431,45.8465624 55.8003431,45.9205624 55.8323431,45.9965624" id="Fill-442" fill="#6D876E"></path>
                <path d="M47.7193431,42.3995624 C47.6013431,42.3715624 47.4843431,42.3445624 47.3673431,42.3195624 C47.3583431,42.2135624 47.3393431,42.1105624 47.3113431,42.0105624 C47.4033431,42.0325624 47.4963431,42.0555624 47.5893431,42.0795624 C47.6423431,42.1815624 47.6863431,42.2885624 47.7193431,42.3995624" id="Fill-443" fill="#556B58"></path>
                <path d="M47.3673431,42.3195624 C47.2393431,42.2925624 47.1113431,42.2665624 46.9853431,42.2425624 C46.9943431,42.1385624 46.9943431,42.0365624 46.9853431,41.9375624 C47.0933431,41.9605624 47.2023431,41.9845624 47.3113431,42.0105624 C47.3393431,42.1105624 47.3583431,42.2135624 47.3673431,42.3195624" id="Fill-444" fill="#425245"></path>
                <path d="M16.3123431,40.9945624 C16.2553431,40.9395624 16.1973431,40.8845624 16.1403431,40.8285624 C14.5143431,39.1655624 13.1383431,37.2555624 12.1043431,35.1755624 C12.1623431,35.1595624 12.2203431,35.1435624 12.2783431,35.1285624 C13.2893431,37.2855624 14.6673431,39.2685624 16.3123431,40.9945624" id="Fill-445" fill="#6D876E"></path>
                <path d="M12.1043431,35.1755624 C12.0273431,35.0205624 11.9523431,34.8645624 11.8783431,34.7075624 C11.9403431,34.6905624 12.0023431,34.6735624 12.0643431,34.6565624 C12.1333431,34.8145624 12.2053431,34.9725624 12.2783431,35.1285624 C12.2203431,35.1435624 12.1623431,35.1595624 12.1043431,35.1755624" id="Fill-446" fill="#556B58"></path>
                <path d="M11.8783431,34.7075624 C11.8113431,34.5635624 11.7463431,34.4195624 11.6823431,34.2745624 C11.7483431,34.2565624 11.8133431,34.2385624 11.8783431,34.2205624 C11.9393431,34.3675624 12.0003431,34.5125624 12.0643431,34.6565624 C12.0023431,34.6735624 11.9403431,34.6905624 11.8783431,34.7075624" id="Fill-447" fill="#425245"></path>
                <path d="M47.1433431,36.3865624 C46.8843431,36.1925624 46.6033431,36.0245624 46.3303431,35.8755624 L46.2623431,35.8405624 C45.9123431,35.6485624 45.5573431,35.4765624 45.2043431,35.3185624 C45.1933431,35.2455624 45.1823431,35.1715624 45.1703431,35.0965624 C45.4083431,35.2085624 45.6453431,35.3285624 45.8803431,35.4565624 L45.9493431,35.4945624 C46.3053431,35.6875624 46.6723431,35.9135624 46.9903431,36.1865624 C47.0453431,36.2505624 47.0963431,36.3175624 47.1433431,36.3865624" id="Fill-448" fill="#6D876E"></path>
                <path d="M45.2043431,35.3185624 C45.0773431,35.2615624 44.9513431,35.2075624 44.8253431,35.1545624 C44.8133431,35.0785624 44.8023431,35.0005624 44.7903431,34.9215624 C44.9163431,34.9785624 45.0433431,35.0365624 45.1703431,35.0965624 C45.1823431,35.1715624 45.1933431,35.2455624 45.2043431,35.3185624" id="Fill-449" fill="#556B58"></path>
                <path d="M44.8253431,35.1545624 C44.7103431,35.1055624 44.5953431,35.0585624 44.4813431,35.0135624 C44.4683431,34.9345624 44.4563431,34.8545624 44.4433431,34.7725624 C44.5583431,34.8205624 44.6743431,34.8705624 44.7903431,34.9215624 C44.8023431,35.0005624 44.8133431,35.0785624 44.8253431,35.1545624" id="Fill-450" fill="#425245"></path>
                <path d="M1.24234314,35.6265624 C1.15634314,35.5895624 1.07434314,35.5435624 0.997343139,35.4915624 C0.949343139,35.4215624 0.907343139,35.3475624 0.872343139,35.2685624 C0.644343139,34.7645624 0.778343139,34.2695624 0.953343139,33.7755624 C1.63834314,31.8335624 3.05234314,30.2345624 4.52734314,28.8415624 C6.14834314,27.3115624 7.98234314,25.9495624 10.0273431,25.0455624 C10.1193431,21.1455624 11.0213431,17.2825624 12.4943431,13.6775624 C13.7883431,10.5045624 15.5803431,7.44956245 18.0213431,5.01956245 C20.3983431,2.65156245 23.5183431,0.981562447 26.8153431,0.981562447 C27.7033431,0.981562447 28.6043431,1.10256245 29.5073431,1.36356245 C31.6393431,1.98156245 33.4863431,3.21056245 35.0663431,4.74256245 C35.1303431,4.80956245 35.1943431,4.87556245 35.2573431,4.94256245 C33.7213431,3.49556245 31.9373431,2.33856245 29.8903431,1.74656245 C28.9873431,1.48556245 28.0863431,1.36456245 27.1983431,1.36456245 C23.8993431,1.36456245 20.7793431,3.03456245 18.4023431,5.40156245 C15.9603431,7.83156245 14.1693431,10.8865624 12.8743431,14.0595624 C11.4033431,17.6635624 10.4993431,21.5275624 10.4093431,25.4275624 C8.36234314,26.3335624 6.53034314,27.6945624 4.91034314,29.2245624 C3.43534314,30.6175624 2.02134314,32.2145624 1.33434314,34.1575624 C1.16434314,34.6445624 1.02934314,35.1315624 1.24234314,35.6265624 M51.9213431,27.1355624 C51.3653431,26.6215624 50.7693431,26.1505624 50.1673431,25.7125624 C48.3753431,24.4095624 46.3103431,23.2115624 44.1603431,22.5515624 C44.1463431,22.4605624 44.1323431,22.3695624 44.1173431,22.2785624 C46.1453431,22.9555624 48.0893431,24.0955624 49.7863431,25.3295624 C50.4633431,25.8225624 51.1313431,26.3585624 51.7453431,26.9475624 C51.8043431,27.0095624 51.8633431,27.0725624 51.9213431,27.1355624" id="Fill-451" fill="#6D876E"></path>
                <path d="M44.1603431,22.5515624 C44.0363431,22.5135624 43.9123431,22.4775624 43.7883431,22.4435624 C43.7753431,22.3485624 43.7613431,22.2545624 43.7473431,22.1605624 C43.8713431,22.1985624 43.9943431,22.2375624 44.1173431,22.2785624 C44.1323431,22.3695624 44.1463431,22.4605624 44.1603431,22.5515624" id="Fill-452" fill="#556B58"></path>
                <path d="M43.7883431,22.4435624 C43.6743431,22.4115624 43.5593431,22.3815624 43.4453431,22.3535624 C43.4323431,22.2555624 43.4193431,22.1585624 43.4053431,22.0615624 C43.5193431,22.0935624 43.6333431,22.1265624 43.7473431,22.1605624 C43.7613431,22.2545624 43.7753431,22.3485624 43.7883431,22.4435624" id="Fill-453" fill="#425245"></path>
                <path d="M48.9873431,13.1035624 C48.2843431,12.5505624 47.4413431,12.1835624 46.6203431,11.8405624 L46.4223431,11.7575624 C44.0893431,10.7785624 41.6273431,10.0945624 39.1743431,9.48356245 C39.0973431,9.36856245 39.0183431,9.25256245 38.9393431,9.13856245 C41.3453431,9.74056245 43.7543431,10.4155624 46.0413431,11.3765624 L46.2383431,11.4595624 C47.1453431,11.8365624 48.0783431,12.2445624 48.8213431,12.8985624 C48.8793431,12.9655624 48.9353431,13.0335624 48.9873431,13.1035624" id="Fill-454" fill="#6D876E"></path>
                <path d="M37.9423431,58.8455624 C37.8473431,58.8275624 37.7603431,58.8025624 37.6793431,58.7715624 C37.4413431,58.2565624 37.3813431,57.6025624 37.2933431,57.0645624 C37.1083431,55.9115624 36.9853431,54.7465624 36.9463431,53.5795624 C36.8993431,52.1775624 36.9683431,50.7625624 37.2053431,49.3795624 C37.3543431,49.3695624 37.5073431,49.3585624 37.6623431,49.3465624 C37.3653431,50.8625624 37.2753431,52.4185624 37.3293431,53.9605624 C37.3683431,55.1295624 37.4903431,56.2935624 37.6753431,57.4445624 C37.7463431,57.8815624 37.7993431,58.3935624 37.9423431,58.8455624 M31.9813431,50.0895624 C31.9093431,50.0555624 31.8393431,50.0175624 31.7723431,49.9755624 C31.6643431,49.8205624 31.5673431,49.6575624 31.4793431,49.4925624 L31.4433431,49.4275624 C31.3693431,49.2925624 31.2983431,49.1565624 31.2313431,49.0205624 C31.3043431,49.0335624 31.3773431,49.0455624 31.4513431,49.0585624 C31.5653431,49.3085624 31.6893431,49.5595624 31.8253431,49.8075624 L31.8603431,49.8755624 C31.8983431,49.9475624 31.9393431,50.0185624 31.9813431,50.0895624 M55.8963431,46.1875624 C52.8373431,44.3805624 50.1203431,43.2165624 47.7803431,42.7075624 C47.7693431,42.6015624 47.7493431,42.4995624 47.7193431,42.3995624 C50.0683431,42.9595624 52.7833431,44.1625624 55.8323431,45.9965624 C55.8593431,46.0595624 55.8803431,46.1235624 55.8963431,46.1875624 M16.5153431,41.1855624 C16.4473431,41.1225624 16.3803431,41.0585624 16.3123431,40.9945624 C14.6673431,39.2685624 13.2893431,37.2855624 12.2783431,35.1285624 C12.3403431,35.1115624 12.4013431,35.0955624 12.4633431,35.0785624 C13.4543431,37.3215624 14.8413431,39.3885624 16.5153431,41.1855624 M47.2693431,36.5895624 C47.0853431,36.4685624 46.8963431,36.3595624 46.7093431,36.2585624 L46.6453431,36.2225624 C46.1803431,35.9675624 45.7063431,35.7475624 45.2393431,35.5495624 C45.2273431,35.4735624 45.2153431,35.3965624 45.2043431,35.3185624 C45.5573431,35.4765624 45.9123431,35.6485624 46.2623431,35.8405624 L46.3303431,35.8755624 C46.6033431,36.0245624 46.8843431,36.1925624 47.1433431,36.3865624 C47.1893431,36.4515624 47.2313431,36.5195624 47.2693431,36.5895624 M1.53634314,35.7205624 C1.43534314,35.6995624 1.33634314,35.6685624 1.24234314,35.6265624 C1.02934314,35.1315624 1.16434314,34.6445624 1.33434314,34.1575624 C2.02134314,32.2145624 3.43534314,30.6175624 4.91034314,29.2245624 C6.53034314,27.6945624 8.36234314,26.3335624 10.4093431,25.4275624 C10.4993431,21.5275624 11.4033431,17.6635624 12.8743431,14.0595624 C14.1693431,10.8865624 15.9603431,7.83156245 18.4023431,5.40156245 C20.7793431,3.03456245 23.8993431,1.36456245 27.1983431,1.36456245 C28.0863431,1.36456245 28.9873431,1.48556245 29.8903431,1.74656245 C31.9373431,2.33856245 33.7213431,3.49556245 35.2573431,4.94256245 C35.3213431,5.01156245 35.3853431,5.07956245 35.4493431,5.14856245 C33.9563431,3.78356245 32.2343431,2.69656245 30.2713431,2.12756245 C29.3693431,1.86656245 28.4673431,1.74556245 27.5803431,1.74556245 C24.2813431,1.74556245 21.1613431,3.41656245 18.7853431,5.78256245 C16.3423431,8.21556245 14.5513431,11.2675624 13.2573431,14.4405624 C11.7853431,18.0465624 10.8823431,21.9095624 10.7913431,25.8115624 C8.74634314,26.7135624 6.91334314,28.0745624 5.29234314,29.6045624 C3.81634314,30.9975624 2.40334314,32.5965624 1.71634314,34.5415624 C1.57934314,34.9335624 1.46534314,35.3235624 1.53634314,35.7205624 M52.0943431,27.3275624 C51.5993431,26.8865624 51.0783431,26.4775624 50.5513431,26.0935624 C48.6623431,24.7215624 46.4733431,23.4665624 44.2013431,22.8345624 C44.1883431,22.7395624 44.1743431,22.6455624 44.1603431,22.5515624 C46.3103431,23.2115624 48.3753431,24.4095624 50.1673431,25.7125624 C50.7693431,26.1505624 51.3653431,26.6215624 51.9213431,27.1355624 C51.9793431,27.1985624 52.0373431,27.2625624 52.0943431,27.3275624 M49.1273431,13.3065624 C48.4773431,12.8515624 47.7303431,12.5275624 47.0013431,12.2235624 L46.8043431,12.1405624 C44.4223431,11.1385624 41.9073431,10.4495624 39.4023431,9.82956245 C39.3273431,9.71356245 39.2513431,9.59856245 39.1743431,9.48356245 C41.6273431,10.0945624 44.0893431,10.7785624 46.4223431,11.7575624 L46.6203431,11.8405624 C47.4413431,12.1835624 48.2843431,12.5505624 48.9873431,13.1035624 C49.0373431,13.1695624 49.0843431,13.2375624 49.1273431,13.3065624" id="Fill-457" fill="#556B58"></path>
                <path d="M37.2053431,49.3795624 C37.2303431,49.2275624 37.2583431,49.0765624 37.2883431,48.9265624 C37.4433431,48.9135624 37.6013431,48.8985624 37.7603431,48.8825624 C37.7253431,49.0365624 37.6933431,49.1915624 37.6623431,49.3465624 C37.5073431,49.3585624 37.3543431,49.3695624 37.2053431,49.3795624 M31.4513431,49.0585624 C31.3773431,49.0455624 31.3043431,49.0335624 31.2313431,49.0205624 C31.1703431,48.8955624 31.1113431,48.7705624 31.0553431,48.6455624 C31.1323431,48.6585624 31.2093431,48.6715624 31.2863431,48.6835624 C31.3393431,48.8085624 31.3933431,48.9335624 31.4513431,49.0585624 M47.7803431,42.7075624 C47.6413431,42.6775624 47.5033431,42.6495624 47.3673431,42.6235624 C47.3763431,42.5205624 47.3763431,42.4185624 47.3673431,42.3195624 C47.4843431,42.3445624 47.6013431,42.3715624 47.7193431,42.3995624 C47.7493431,42.4995624 47.7693431,42.6015624 47.7803431,42.7075624 M45.2393431,35.5495624 C45.1133431,35.4965624 44.9883431,35.4445624 44.8633431,35.3945624 C44.8503431,35.3155624 44.8383431,35.2355624 44.8253431,35.1545624 C44.9513431,35.2075624 45.0773431,35.2615624 45.2043431,35.3185624 C45.2153431,35.3965624 45.2273431,35.4735624 45.2393431,35.5495624 M12.2783431,35.1285624 C12.2053431,34.9725624 12.1333431,34.8145624 12.0643431,34.6565624 C12.1293431,34.6385624 12.1953431,34.6215624 12.2603431,34.6035624 C12.3263431,34.7625624 12.3943431,34.9205624 12.4633431,35.0785624 C12.4013431,35.0955624 12.3403431,35.1115624 12.2783431,35.1285624 M44.2013431,22.8345624 C44.0773431,22.7995624 43.9523431,22.7665624 43.8283431,22.7365624 C43.8153431,22.6385624 43.8023431,22.5405624 43.7883431,22.4435624 C43.9123431,22.4775624 44.0363431,22.5135624 44.1603431,22.5515624 C44.1743431,22.6455624 44.1883431,22.7395624 44.2013431,22.8345624 M39.4023431,9.82956245 C39.3433431,9.81456245 39.2833431,9.79956245 39.2233431,9.78456245 C39.1513431,9.67056245 39.0783431,9.55556245 39.0043431,9.44156245 C39.0613431,9.45556245 39.1183431,9.46956245 39.1743431,9.48356245 C39.2513431,9.59856245 39.3273431,9.71356245 39.4023431,9.82956245" id="Fill-458" fill="#425245"></path>
                <path d="M38.2213431,58.8715624 C38.1523431,58.8715624 38.0803431,58.8665624 38.0063431,58.8555624 C37.9853431,58.8525624 37.9633431,58.8485624 37.9423431,58.8455624 C37.7993431,58.3935624 37.7463431,57.8815624 37.6753431,57.4445624 C37.4903431,56.2935624 37.3683431,55.1295624 37.3293431,53.9605624 C37.2753431,52.4185624 37.3653431,50.8625624 37.6623431,49.3465624 C37.8313431,49.3325624 38.0033431,49.3175624 38.1773431,49.2995624 C37.8003431,50.9615624 37.6863431,52.6775624 37.7453431,54.3765624 C37.7843431,55.5435624 37.9073431,56.7105624 38.0923431,57.8615624 C38.1433431,58.1755624 38.1853431,58.5295624 38.2583431,58.8715624 C38.2463431,58.8715624 38.2333431,58.8715624 38.2213431,58.8715624 M32.2163431,50.1795624 C32.1353431,50.1545624 32.0563431,50.1245624 31.9813431,50.0895624 C31.9393431,50.0185624 31.8983431,49.9475624 31.8603431,49.8755624 L31.8253431,49.8075624 C31.6893431,49.5595624 31.5653431,49.3085624 31.4513431,49.0585624 C31.5353431,49.0725624 31.6193431,49.0865624 31.7043431,49.1005624 C31.8553431,49.4595624 32.0233431,49.8225624 32.2163431,50.1795624 M55.9293431,46.3805624 C52.8453431,44.5965624 50.1183431,43.4785624 47.7833431,43.0405624 C47.7933431,42.9265624 47.7923431,42.8155624 47.7803431,42.7075624 C50.1203431,43.2165624 52.8373431,44.3805624 55.8963431,46.1875624 C55.9123431,46.2515624 55.9233431,46.3155624 55.9293431,46.3805624 M16.7333431,41.3865624 C16.6603431,41.3205624 16.5873431,41.2535624 16.5153431,41.1855624 C14.8413431,39.3885624 13.4543431,37.3215624 12.4633431,35.0785624 C12.5343431,35.0585624 12.6063431,35.0395624 12.6773431,35.0195624 C13.6403431,37.3565624 15.0323431,39.5135624 16.7333431,41.3865624 M47.3733431,36.8105624 C47.2923431,36.7625624 47.2103431,36.7165624 47.1293431,36.6725624 L47.0613431,36.6395624 C46.4683431,36.3145624 45.8683431,36.0485624 45.2803431,35.8105624 C45.2663431,35.7255624 45.2533431,35.6385624 45.2393431,35.5495624 C45.7063431,35.7475624 46.1803431,35.9675624 46.6453431,36.2225624 L46.7093431,36.2585624 C46.8963431,36.3595624 47.0853431,36.4685624 47.2693431,36.5895624 C47.3083431,36.6605624 47.3423431,36.7345624 47.3733431,36.8105624 M1.81034314,35.7485624 C1.79934314,35.7485624 1.78834314,35.7485624 1.77834314,35.7475624 C1.69634314,35.7455624 1.61534314,35.7365624 1.53634314,35.7205624 C1.46534314,35.3235624 1.57934314,34.9335624 1.71634314,34.5415624 C2.40334314,32.5965624 3.81634314,30.9975624 5.29234314,29.6045624 C6.91334314,28.0745624 8.74634314,26.7135624 10.7913431,25.8115624 C10.8823431,21.9095624 11.7853431,18.0465624 13.2573431,14.4405624 C14.5513431,11.2675624 16.3423431,8.21556245 18.7853431,5.78256245 C21.1613431,3.41656245 24.2813431,1.74556245 27.5803431,1.74556245 C28.4673431,1.74556245 29.3693431,1.86656245 30.2713431,2.12756245 C32.2343431,2.69656245 33.9563431,3.78356245 35.4493431,5.14856245 C35.5163431,5.22256245 35.5833431,5.29556245 35.6493431,5.37056245 C34.2063431,4.09656245 32.5563431,3.08556245 30.6883431,2.54456245 C29.7853431,2.28256245 28.8843431,2.16156245 27.9963431,2.16156245 C24.6983431,2.16156245 21.5773431,3.83156245 19.2013431,6.19956245 C16.7593431,8.63156245 14.9673431,11.6865624 13.6743431,14.8575624 C12.2023431,18.4625624 11.2993431,22.3265624 11.2073431,26.2255624 C9.16334314,27.1325624 7.33034314,28.4915624 5.70834314,30.0215624 C4.23234314,31.4145624 2.81934314,33.0135624 2.13334314,34.9575624 C2.04134314,35.2195624 1.95934314,35.4805624 1.93734314,35.7435624 C1.89434314,35.7465624 1.85234314,35.7485624 1.81034314,35.7485624 M52.2743431,27.5385624 C51.8513431,27.1755624 51.4113431,26.8355624 50.9673431,26.5125624 C48.9783431,25.0635624 46.6493431,23.7485624 44.2443431,23.1525624 C44.2303431,23.0465624 44.2163431,22.9405624 44.2013431,22.8345624 C46.4733431,23.4665624 48.6623431,24.7215624 50.5513431,26.0935624 C51.0783431,26.4775624 51.5993431,26.8865624 52.0943431,27.3275624 C52.1553431,27.3975624 52.2153431,27.4675624 52.2743431,27.5385624 M49.2593431,13.5355624 C48.6803431,13.1755624 48.0433431,12.9005624 47.4183431,12.6405624 L47.2213431,12.5575624 C44.7833431,11.5315624 42.2043431,10.8325624 39.6403431,10.2015624 C39.5623431,10.0775624 39.4833431,9.95356245 39.4023431,9.82956245 C41.9073431,10.4495624 44.4223431,11.1385624 46.8043431,12.1405624 L47.0013431,12.2235624 C47.7303431,12.5275624 48.4773431,12.8515624 49.1273431,13.3065624 C49.1753431,13.3815624 49.2193431,13.4575624 49.2593431,13.5355624" id="Fill-459" fill="#425245"></path>
                <path d="M38.2583431,58.8715624 C38.1853431,58.5295624 38.1433431,58.1755624 38.0923431,57.8615624 C37.9073431,56.7105624 37.7843431,55.5435624 37.7453431,54.3765624 C37.6863431,52.6775624 37.8003431,50.9615624 38.1773431,49.2995624 C38.0033431,49.3175624 37.8313431,49.3325624 37.6623431,49.3465624 C37.6933431,49.1915624 37.7253431,49.0365624 37.7603431,48.8825624 C37.6013431,48.8985624 37.4433431,48.9135624 37.2883431,48.9265624 C37.3173431,48.7845624 37.3463431,48.6435624 37.3783431,48.5025624 C37.2193431,48.5185624 37.0623431,48.5315624 36.9073431,48.5445624 C36.9353431,48.4025624 36.9663431,48.2605624 36.9983431,48.1195624 C36.8383431,48.1355624 36.6813431,48.1495624 36.5263431,48.1625624 C36.5543431,48.0205624 36.5853431,47.8795624 36.6173431,47.7385624 C35.9913431,47.7995624 35.3973431,47.8355624 34.8673431,47.8575624 C34.7673431,48.0405624 34.6803431,48.2295624 34.6083431,48.4215624 L34.5983431,48.4645624 C34.3443431,49.3825624 33.7733431,50.2535624 32.7263431,50.2535624 C32.5443431,50.2535624 32.3753431,50.2275624 32.2163431,50.1795624 C32.0233431,49.8225624 31.8553431,49.4595624 31.7043431,49.1005624 C31.6193431,49.0865624 31.5353431,49.0725624 31.4513431,49.0585624 C31.3933431,48.9335624 31.3393431,48.8085624 31.2863431,48.6835624 C31.2093431,48.6715624 31.1323431,48.6585624 31.0553431,48.6455624 C31.0033431,48.5305624 30.9533431,48.4155624 30.9053431,48.3005624 C30.8283431,48.2885624 30.7503431,48.2755624 30.6733431,48.2625624 C30.6213431,48.1475624 30.5713431,48.0325624 30.5233431,47.9175624 C30.4453431,47.9055624 30.3683431,47.8925624 30.2903431,47.8795624 C30.2393431,47.7655624 30.1893431,47.6515624 30.1413431,47.5375624 C25.9783431,46.8635624 21.9313431,45.3755624 18.5243431,42.8565624 C17.9043431,42.3975624 17.3063431,41.9065624 16.7333431,41.3865624 C15.0323431,39.5135624 13.6403431,37.3565624 12.6773431,35.0195624 C12.6063431,35.0395624 12.5343431,35.0585624 12.4633431,35.0785624 C12.3943431,34.9205624 12.3263431,34.7625624 12.2603431,34.6035624 C12.1953431,34.6215624 12.1293431,34.6385624 12.0643431,34.6565624 C12.0003431,34.5125624 11.9393431,34.3675624 11.8783431,34.2205624 C11.8133431,34.2385624 11.7483431,34.2565624 11.6823431,34.2745624 C11.6193431,34.1295624 11.5573431,33.9835624 11.4973431,33.8375624 C11.4313431,33.8555624 11.3663431,33.8735624 11.3003431,33.8915624 C11.2373431,33.7475624 11.1763431,33.6025624 11.1163431,33.4575624 C10.1003431,33.7345624 9.07934314,33.9985624 8.05734314,34.2595624 C6.37634314,34.6865624 4.68934314,35.1005624 2.99934314,35.5065624 C2.66534314,35.5855624 2.29234314,35.7165624 1.93734314,35.7435624 C1.95934314,35.4805624 2.04134314,35.2195624 2.13334314,34.9575624 C2.81934314,33.0135624 4.23234314,31.4145624 5.70834314,30.0215624 C7.33034314,28.4915624 9.16334314,27.1325624 11.2073431,26.2255624 C11.2993431,22.3265624 12.2023431,18.4625624 13.6743431,14.8575624 C14.9673431,11.6865624 16.7593431,8.63156245 19.2013431,6.19956245 C21.5773431,3.83156245 24.6983431,2.16156245 27.9963431,2.16156245 C28.8843431,2.16156245 29.7853431,2.28256245 30.6883431,2.54456245 C32.5563431,3.08556245 34.2063431,4.09656245 35.6493431,5.37056245 C36.5593431,6.39256245 37.3673431,7.50556245 38.0793431,8.63756245 C38.1333431,8.65156245 38.1883431,8.66556245 38.2433431,8.67856245 C38.3173431,8.79156245 38.3893431,8.90556245 38.4603431,9.01956245 C38.5153431,9.03256245 38.5703431,9.04656245 38.6243431,9.05956245 C38.6983431,9.17356245 38.7703431,9.28756245 38.8423431,9.40156245 C38.8963431,9.41456245 38.9503431,9.42856245 39.0043431,9.44156245 C39.0783431,9.55556245 39.1513431,9.67056245 39.2233431,9.78456245 C39.2833431,9.79956245 39.3433431,9.81456245 39.4023431,9.82956245 C39.4833431,9.95356245 39.5623431,10.0775624 39.6403431,10.2015624 C42.2043431,10.8325624 44.7833431,11.5315624 47.2213431,12.5575624 L47.4183431,12.6405624 C48.0433431,12.9005624 48.6803431,13.1755624 49.2593431,13.5355624 C49.7173431,14.4235624 49.6703431,15.4545624 48.9353431,16.2775624 C48.1643431,17.1395624 46.9833431,17.5605624 46.0253431,18.1675624 C44.8113431,18.9335624 43.6453431,19.7795624 42.5543431,20.7135624 C42.6013431,21.0055624 42.6443431,21.2965624 42.6813431,21.5895624 C42.7963431,21.6175624 42.9103431,21.6475624 43.0243431,21.6795624 C43.0383431,21.7775624 43.0513431,21.8745624 43.0633431,21.9725624 C43.1773431,22.0005624 43.2913431,22.0305624 43.4053431,22.0615624 C43.4193431,22.1585624 43.4323431,22.2555624 43.4453431,22.3535624 C43.5593431,22.3815624 43.6743431,22.4115624 43.7883431,22.4435624 C43.8023431,22.5405624 43.8153431,22.6385624 43.8283431,22.7365624 C43.9523431,22.7665624 44.0773431,22.7995624 44.2013431,22.8345624 C44.2163431,22.9405624 44.2303431,23.0465624 44.2443431,23.1525624 C46.6493431,23.7485624 48.9783431,25.0635624 50.9673431,26.5125624 C51.4113431,26.8355624 51.8513431,27.1755624 52.2743431,27.5385624 C52.8053431,28.1745624 53.2613431,28.8685624 53.5963431,29.6315624 C54.1523431,30.6245624 53.3723431,31.7965624 52.2963431,31.7965624 C52.2433431,31.7965624 52.1903431,31.7945624 52.1363431,31.7885624 C51.5423431,31.7235624 50.9503431,31.6585624 50.3553431,31.5915624 C47.9873431,31.3265624 45.6173431,31.0565624 43.2563431,30.7275624 C43.3993431,32.1175624 43.5693431,33.3045624 43.7183431,34.2475624 C43.8323431,34.2935624 43.9473431,34.3405624 44.0623431,34.3895624 C44.0753431,34.4715624 44.0883431,34.5525624 44.1003431,34.6305624 C44.2143431,34.6765624 44.3283431,34.7235624 44.4433431,34.7725624 C44.4563431,34.8545624 44.4683431,34.9345624 44.4813431,35.0135624 C44.5953431,35.0585624 44.7103431,35.1055624 44.8253431,35.1545624 C44.8383431,35.2355624 44.8503431,35.3155624 44.8633431,35.3945624 C44.9883431,35.4445624 45.1133431,35.4965624 45.2393431,35.5495624 C45.2533431,35.6385624 45.2663431,35.7255624 45.2803431,35.8105624 C45.8683431,36.0485624 46.4683431,36.3145624 47.0613431,36.6395624 L47.1293431,36.6725624 C47.2103431,36.7165624 47.2923431,36.7625624 47.3733431,36.8105624 C47.4563431,37.0175624 47.5063431,37.2415624 47.5133431,37.4855624 C47.5523431,38.8025624 46.3973431,39.3425624 45.3573431,39.7545624 C45.5063431,39.8645624 45.6433431,39.9895624 45.7613431,40.1265624 C45.7543431,40.1295624 45.7473431,40.1325624 45.7403431,40.1345624 C45.7663431,40.1535624 45.7913431,40.1735624 45.8163431,40.1935624 C46.1013431,40.5525624 46.2643431,40.9925624 46.2213431,41.4795624 C46.3473431,41.5025624 46.4753431,41.5285624 46.6033431,41.5565624 C46.6123431,41.6555624 46.6123431,41.7565624 46.6033431,41.8605624 C46.7293431,41.8835624 46.8573431,41.9095624 46.9853431,41.9375624 C46.9943431,42.0365624 46.9943431,42.1385624 46.9853431,42.2425624 C47.1113431,42.2665624 47.2393431,42.2925624 47.3673431,42.3195624 C47.3763431,42.4185624 47.3763431,42.5205624 47.3673431,42.6235624 C47.5033431,42.6495624 47.6413431,42.6775624 47.7803431,42.7075624 C47.7923431,42.8155624 47.7933431,42.9265624 47.7833431,43.0405624 C50.1183431,43.4785624 52.8453431,44.5965624 55.9293431,46.3805624 C56.0063431,47.1635624 55.4013431,47.9965624 54.4693431,48.0455624 C53.6773431,48.0865624 52.8863431,48.1255624 52.0933431,48.1665624 C49.5133431,48.2965624 46.9313431,48.4285624 44.3493431,48.5295624 C43.8863431,49.6155624 43.3653431,50.6785624 42.8353431,51.7365624 C42.0583431,53.2945624 41.2523431,54.8375624 40.4333431,56.3745624 C39.9583431,57.2695624 39.4373431,58.8395624 38.2583431,58.8715624" id="Fill-460" fill="#334037"></path>
                <path d="M54.8743431,44.7385624 C51.4293431,42.6485624 48.4063431,41.3565624 45.8533431,40.8785624 C45.9153431,40.1705624 45.5423431,39.5625624 44.9893431,39.1545624 C46.0283431,38.7415624 47.1843431,38.2025624 47.1443431,36.8855624 C47.1113431,35.7325624 46.1173431,35.0095624 45.1973431,34.5115624 L45.1303431,34.4755624 C44.5413431,34.1535624 43.9363431,33.8845624 43.3493431,33.6495624 C43.1993431,32.7045624 43.0313431,31.5175624 42.8883431,30.1265624 C45.2503431,30.4535624 47.6193431,30.7275624 49.9863431,30.9915624 C50.5813431,31.0585624 51.1733431,31.1235624 51.7673431,31.1865624 C52.9223431,31.3095624 53.8113431,30.0725624 53.2283431,29.0315624 C52.3713431,27.0785624 50.7293431,25.5805624 49.0353431,24.3485624 C47.0453431,22.9025624 44.7183431,21.5855624 42.3123431,20.9895624 C42.2743431,20.6955624 42.2333431,20.4045624 42.1863431,20.1135624 C43.2763431,19.1795624 44.4423431,18.3335624 45.6553431,17.5675624 C46.6153431,16.9595624 47.7943431,16.5395624 48.5673431,15.6775624 C49.4963431,14.6355624 49.3263431,13.2625624 48.4223431,12.2665624 C47.6373431,11.3995624 46.5443431,10.9185624 45.4873431,10.4765624 L45.2903431,10.3935624 C42.8523431,9.37056245 40.2733431,8.66956245 37.7093431,8.03756245 C35.6093431,4.69456245 32.6623431,1.51156245 28.7563431,0.383562447 C24.5013431,-0.850437553 20.2873431,1.03256245 17.2693431,4.03756245 C14.8293431,6.46756245 13.0383431,9.52256245 11.7423431,12.6945624 C10.2693431,16.2995624 9.36834314,20.1625624 9.27534314,24.0645624 C7.23034314,24.9665624 5.39734314,26.3305624 3.77734314,27.8585624 C2.30034314,29.2515624 0.887343139,30.8505624 0.203343139,32.7945624 C0.0273431394,33.2885624 -0.107656861,33.7835624 0.120343139,34.2875624 C0.348343139,34.7915624 0.857343139,35.1305624 1.41034314,35.1455624 C1.80834314,35.1565624 2.24734314,34.9975624 2.63234314,34.9055624 C4.31934314,34.5005624 6.00734314,34.0865624 7.68934314,33.6585624 C8.71034314,33.3985624 9.73034314,33.1345624 10.7473431,32.8565624 C12.2853431,36.5875624 14.9153431,39.8605624 18.1543431,42.2565624 C21.5613431,44.7735624 25.6093431,46.2625624 29.7713431,46.9365624 C29.9313431,47.3115624 30.1063431,47.6915624 30.3113431,48.0635624 L30.3453431,48.1285624 C30.7643431,48.9095624 31.3913431,49.6535624 32.3593431,49.6535624 C33.4043431,49.6535624 33.9753431,48.7825624 34.2293431,47.8645624 L34.2383431,47.8225624 C34.3113431,47.6295624 34.3993431,47.4385624 34.4973431,47.2575624 C35.0293431,47.2375624 35.6233431,47.1995624 36.2473431,47.1355624 C35.8713431,48.7985624 35.7573431,50.5135624 35.8143431,52.2165624 C35.8533431,53.3825624 35.9763431,54.5475624 36.1623431,55.7005624 C36.3233431,56.6905624 36.3903431,58.0725624 37.6373431,58.2555624 C38.9963431,58.4575624 39.5563431,56.7285624 40.0643431,55.7745624 C40.8833431,54.2385624 41.6903431,52.6945624 42.4673431,51.1355624 C42.9963431,50.0795624 43.5183431,49.0145624 43.9803431,47.9285624 C46.5623431,47.8255624 49.1443431,47.6935624 51.7233431,47.5645624 C52.5173431,47.5265624 53.3083431,47.4855624 54.1013431,47.4455624 C55.5013431,47.3715624 56.1673431,45.5215624 54.8743431,44.7385624" id="Fill-461" fill="#FFFFFE"></path>
                <path d="M41.4623431,39.2615624 C41.6643431,40.2205624 41.9143431,41.1745624 42.1773431,42.1265624 C42.6453431,41.7145624 43.2433431,41.3265624 44.0023431,41.0695624 C45.2823431,40.6345624 43.2203431,39.8195624 41.4623431,39.2615624" id="Fill-462" fill="#44555C"></path>
                <path d="M30.5093431,44.7845624 C31.6463431,44.9865624 32.7823431,45.2465624 33.9123431,45.5175624 C33.4433431,46.0855624 33.0113431,46.8075624 32.7363431,47.7115624 C32.2723431,49.2375624 31.2333431,46.8365624 30.5093431,44.7845624" id="Fill-463" fill="#44555C"></path>
                <path d="M39.4873431,33.8265624 C39.9143431,35.8505624 40.4393431,37.8625624 40.9953431,39.8705624 C41.9813431,39.0025624 43.2483431,38.1865624 44.8483431,37.6425624 C47.5483431,36.7245624 43.1983431,35.0045624 39.4873431,33.8265624" id="Fill-464" fill="#44555C"></path>
                <path d="M41.7263431,42.5155624 L38.5363431,44.9905624 C38.5363431,44.9905624 36.2013431,48.8715624 37.8493431,56.8135624 C37.8493431,56.8135624 42.1993431,48.8185624 42.9723431,46.5045624 C45.4093431,46.4355624 54.1173431,45.9825624 54.1173431,45.9825624 C44.9213431,40.4085624 41.7263431,42.5155624 41.7263431,42.5155624" id="Fill-465" fill="#44555C"></path>
                <path d="M12.7423431,25.3275624 C12.7423431,25.3275624 12.6203431,23.7885624 8.75434314,25.9925624 C4.88834314,28.1945624 2.05834314,31.4415624 1.44934314,33.6895624 C1.44934314,33.6895624 12.8053431,30.9955624 13.0073431,30.5765624 C13.2103431,30.1605624 12.7423431,25.3275624 12.7423431,25.3275624" id="Fill-466" fill="#44555C"></path>
                <path d="M39.6872574,22.8725624 C39.6872574,22.8725624 39.6143431,21.3315624 43.7273431,23.0275624 C47.8423431,24.7225624 51.0583431,27.5875624 51.9453431,29.7395624 C51.9453431,29.7395624 40.3423431,28.5035624 40.0863431,28.1125624 C39.8323431,27.7235624 39.6872574,22.8725624 39.6872574,22.8725624" id="Fill-467" fill="#44555C"></path>
                <path d="M34.5513431,8.80856245 C34.5513431,8.80856245 51.9393431,12.3845624 46.8133431,15.1935624 C40.6193431,18.5885624 38.1373431,22.2305624 38.1373431,22.2305624 L34.5513431,8.80856245" id="Fill-468" fill="#44555C"></path>
                <path d="M41.1143431,25.0895624 L41.1083431,25.0405624 C41.1093431,24.9495624 41.1143431,24.8575624 41.1143431,24.7625624 C41.1143431,14.1385624 34.3103431,1.42656245 25.9193431,1.42656245 C20.7303431,1.42656245 16.1493431,6.28656245 13.4093431,12.5055624 C11.7153431,16.3485624 10.7243431,20.7075624 10.7243431,24.7625624 C10.7243431,26.9215624 11.0093431,28.8835624 11.5273431,30.6435624 L11.5233431,30.6485624 C11.5233431,30.6485624 14.7963431,44.3075624 32.5423431,45.8105624 C32.5423431,45.8105624 40.7683431,46.1595624 42.4043431,43.0825624 C44.0383431,40.0055624 41.3763431,36.1895624 41.1143431,25.0895624" id="Fill-469" fill="#475A62"></path>
                <path d="M38.9213431,31.0585624 C38.9223431,30.9935624 38.4903431,11.2295624 28.8743431,9.22956245 C24.1133431,8.23956245 18.2713431,8.84156245 15.9163431,13.6345624 C14.0823431,17.3655624 13.7263431,22.4875624 14.1863431,26.5725624 C15.1483431,35.0955624 20.9253431,42.1515624 29.2713431,45.2465624 C32.7683431,46.5405624 42.9323431,45.4185624 41.5023431,42.9615624 C40.0863431,40.5275624 38.9223431,31.0695624 38.9213431,31.0585624" id="Fill-470" fill="#DBE4E5"></path>
                <path d="M38.9213431,16.2835624 C38.9213431,16.2835624 38.1733431,18.6405624 36.5863431,19.9385624 L36.5863431,20.8275624 C36.5863431,20.8275624 38.8773431,18.8575624 38.9213431,16.2835624" id="Fill-471" fill="#2F3C42"></path>
                <path d="M39.0663431,18.1695624 C39.0663431,18.1695624 38.3183431,20.5255624 36.7313431,21.8245624 L36.7313431,22.7115624 C36.7313431,22.7115624 39.0223431,20.7405624 39.0663431,18.1695624" id="Fill-472" fill="#2F3C42"></path>
                <path d="M39.2433431,19.9595624 C39.2433431,19.9595624 38.4953431,22.3155624 36.9083431,23.6135624 L36.9083431,24.5035624 C36.9083431,24.5035624 39.1983431,22.5325624 39.2433431,19.9595624" id="Fill-473" fill="#2F3C42"></path>
                <path d="M12.9523431,16.2835624 C12.9523431,16.2835624 13.6993431,18.6405624 15.2863431,19.9385624 L15.2863431,20.8275624 C15.2863431,20.8275624 12.9973431,18.8575624 12.9523431,16.2835624" id="Fill-474" fill="#2F3C42"></path>
                <path d="M12.8073431,18.1695624 C12.8073431,18.1695624 13.5563431,20.5255624 15.1423431,21.8245624 L15.1423431,22.7115624 C15.1423431,22.7115624 12.8523431,20.7405624 12.8073431,18.1695624" id="Fill-475" fill="#2F3C42"></path>
                <path d="M12.6313431,19.9595624 C12.6313431,19.9595624 13.3773431,22.3155624 14.9663431,23.6135624 L14.9663431,24.5035624 C14.9663431,24.5035624 12.6763431,22.5325624 12.6313431,19.9595624" id="Fill-476" fill="#2F3C42"></path>
                <path d="M18.0083431,11.2295624 C18.0083431,11.9545624 17.4203431,12.5415624 16.6943431,12.5415624 C15.9693431,12.5415624 15.3823431,11.9545624 15.3823431,11.2295624 C15.3823431,10.5045624 15.9693431,9.91656245 16.6943431,9.91656245 C17.4203431,9.91656245 18.0083431,10.5045624 18.0083431,11.2295624" id="Fill-477" fill="#0F1617"></path>
                <path d="M16.6033431,10.8215624 C16.6033431,11.0455624 16.4183431,11.2295624 16.1933431,11.2295624 C15.9663431,11.2295624 15.7843431,11.0455624 15.7843431,10.8215624 C15.7843431,10.5955624 15.9663431,10.4095624 16.1933431,10.4095624 C16.4183431,10.4095624 16.6033431,10.5955624 16.6033431,10.8215624" id="Fill-478" fill="#FFFFFE"></path>
                <path d="M16.1423431,11.6815624 C16.1423431,11.7805624 16.0603431,11.8615624 15.9633431,11.8615624 C15.8633431,11.8615624 15.7843431,11.7805624 15.7843431,11.6815624 C15.7843431,11.5825624 15.8633431,11.5025624 15.9633431,11.5025624 C16.0603431,11.5025624 16.1423431,11.5825624 16.1423431,11.6815624" id="Fill-479" fill="#FFFFFE"></path>
                <path d="M16.1423431,11.6815624 L15.9413431,11.6815624 L15.9633431,11.6815624 L15.9633431,11.6605624 L15.9413431,11.6815624 L15.9633431,11.6815624 L15.9633431,11.6605624 L15.9633431,11.6815624 L15.9853431,11.6815624 L15.9633431,11.6605624 L15.9633431,11.6815624 L15.9853431,11.6815624 L15.9633431,11.6815624 L15.9633431,11.7035624 L15.9853431,11.6815624 L15.9633431,11.6815624 L15.9633431,11.7035624 L15.9633431,11.6815624 L15.9413431,11.6815624 L15.9633431,11.7035624 L15.9633431,11.6815624 L15.9413431,11.6815624 L16.3433431,11.6815624 C16.3413431,11.4685624 16.1723431,11.3035624 15.9633431,11.3015624 C15.7533431,11.3025624 15.5833431,11.4725624 15.5833431,11.6815624 C15.5833431,11.8895624 15.7523431,12.0615624 15.9633431,12.0625624 C16.1733431,12.0605624 16.3413431,11.8935624 16.3433431,11.6815624 L16.1423431,11.6815624" id="Fill-480" fill="#0C0F0F"></path>
                <path d="M35.5033431,11.2295624 C35.5033431,11.9545624 34.9163431,12.5415624 34.1913431,12.5415624 C33.4653431,12.5415624 32.8763431,11.9545624 32.8763431,11.2295624 C32.8763431,10.5045624 33.4653431,9.91656245 34.1913431,9.91656245 C34.9163431,9.91656245 35.5033431,10.5045624 35.5033431,11.2295624" id="Fill-481" fill="#0F1617"></path>
                <path d="M34.0983431,10.8215624 C34.0983431,11.0455624 33.9163431,11.2295624 33.6893431,11.2295624 C33.4623431,11.2295624 33.2793431,11.0455624 33.2793431,10.8215624 C33.2793431,10.5955624 33.4623431,10.4095624 33.6893431,10.4095624 C33.9163431,10.4095624 34.0983431,10.5955624 34.0983431,10.8215624" id="Fill-482" fill="#FFFFFE"></path>
                <path d="M33.6363431,11.6815624 C33.6363431,11.7805624 33.5563431,11.8615624 33.4593431,11.8615624 C33.3593431,11.8615624 33.2793431,11.7805624 33.2793431,11.6815624 C33.2793431,11.5825624 33.3593431,11.5025624 33.4593431,11.5025624 C33.5563431,11.5025624 33.6363431,11.5825624 33.6363431,11.6815624" id="Fill-483" fill="#FFFFFE"></path>
                <path d="M24.4893431,18.1315624 C24.8013431,18.1545624 25.1213431,18.1695624 25.4433431,18.1695624 C25.6113431,18.1695624 25.7763431,18.1625624 25.9403431,18.1585624 L25.2183431,16.8255624 L24.4893431,18.1315624" id="Fill-484" fill="#FFFFFE"></path>
                <path d="M22.5083431,17.8425624 C22.9453431,17.9435624 23.3973431,18.0175624 23.8613431,18.0735624 L23.1983431,16.6475624 L22.5083431,17.8425624" id="Fill-485" fill="#FFFFFE"></path>
                <path d="M24.6893431,16.3305624 C24.3783431,16.3215624 24.0723431,16.3105624 23.7683431,16.2925624 L24.1633431,16.8255624 L24.6893431,16.3305624" id="Fill-486" fill="#FFFFFE"></path>
                <path d="M28.7993431,17.7355624 C29.1203431,17.6495624 29.4303431,17.5515624 29.7293431,17.4445624 L29.2253431,16.6475624 C29.2253431,16.6475624 29.0123431,17.2015624 28.7993431,17.7355624" id="Fill-487" fill="#FFFFFE"></path>
                <path d="M20.8723431,17.3385624 C21.2133431,17.4735624 21.5703431,17.5935624 21.9393431,17.6965624 L21.4353431,16.4435624 L20.8723431,17.3385624" id="Fill-488" fill="#FFFFFE"></path>
                <path d="M33.1943431,15.1285624 C32.9473431,15.2225624 32.6873431,15.3125624 32.4143431,15.3995624 C32.1673431,15.7265624 31.9193431,16.0575624 31.9193431,16.0575624 L31.4993431,15.6545624 C31.2553431,15.7175624 31.0043431,15.7735624 30.7473431,15.8295624 L30.2833431,16.5055624 L29.7283431,16.0145624 C29.4183431,16.0665624 29.0993431,16.1095624 28.7733431,16.1475624 L28.4253431,16.6475624 L27.9103431,16.2375624 C27.5413431,16.2685624 27.1623431,16.2925624 26.7783431,16.3105624 L26.1813431,16.8255624 L25.7093431,16.3395624 L25.4433431,16.3425624 C25.1893431,16.3425624 24.9383431,16.3375624 24.6893431,16.3305624 L24.1633431,16.8255624 L23.7683431,16.2925624 C23.4203431,16.2755624 23.0763431,16.2485624 22.7413431,16.2145624 L22.1743431,16.6475624 L21.9693431,16.1295624 C21.5773431,16.0805624 21.1963431,16.0245624 20.8263431,15.9595624 L20.3783431,16.2835624 L20.1543431,15.8315624 C19.8643431,15.7705624 19.5833431,15.7065624 19.3113431,15.6365624 L18.9053431,16.0575624 L18.5553431,15.4245624 C18.2533431,15.3305624 17.9623431,15.2315624 17.6923431,15.1285624 C18.1243431,15.6705624 18.6933431,16.1605624 19.3683431,16.5815624 C19.5103431,16.3605624 19.6423431,16.1545624 19.6423431,16.1545624 L20.0383431,16.9595624 C20.3033431,17.0955624 20.5823431,17.2225624 20.8723431,17.3385624 L21.4353431,16.4435624 L21.9393431,17.6965624 C22.1263431,17.7515624 22.3153431,17.7985624 22.5083431,17.8425624 L23.1983431,16.6475624 L23.8613431,18.0735624 C24.0683431,18.0975624 24.2773431,18.1185624 24.4893431,18.1315624 L25.2183431,16.8255624 L25.9403431,18.1585624 C26.1483431,18.1495624 26.3543431,18.1385624 26.5583431,18.1205624 L27.2383431,16.8255624 C27.2383431,16.8255624 27.5893431,17.4195624 27.9063431,17.9415624 C28.2113431,17.8855624 28.5103431,17.8135624 28.7993431,17.7355624 C29.0123431,17.2015624 29.2253431,16.6475624 29.2253431,16.6475624 L29.7293431,17.4445624 C30.0543431,17.3255624 30.3653431,17.1955624 30.6613431,17.0525624 L30.9893431,16.2835624 C30.9893431,16.2835624 31.1403431,16.4765624 31.3203431,16.7025624 C32.0813431,16.2555624 32.7203431,15.7245624 33.1943431,15.1285624" id="Fill-489" fill="#62191C"></path>
                <path d="M30.6613431,17.0525624 C30.8903431,16.9425624 31.1093431,16.8255624 31.3203431,16.7025624 C31.1403431,16.4765624 30.9893431,16.2835624 30.9893431,16.2835624 L30.6613431,17.0525624" id="Fill-490" fill="#FFFFFE"></path>
                <path d="M26.5583431,18.1205624 C27.0193431,18.0825624 27.4703431,18.0245624 27.9063431,17.9415624 C27.5893431,17.4195624 27.2383431,16.8255624 27.2383431,16.8255624 L26.5583431,18.1205624" id="Fill-491" fill="#FFFFFE"></path>
                <path d="M32.4143431,15.3995624 C32.1223431,15.4905624 31.8163431,15.5765624 31.4993431,15.6545624 L31.9193431,16.0575624 C31.9193431,16.0575624 32.1673431,15.7265624 32.4143431,15.3995624" id="Fill-492" fill="#FFFFFE"></path>
                <path d="M19.3683431,16.5815624 C19.5803431,16.7165624 19.8043431,16.8415624 20.0383431,16.9595624 L19.6423431,16.1545624 C19.6423431,16.1545624 19.5103431,16.3605624 19.3683431,16.5815624" id="Fill-493" fill="#FFFFFE"></path>
                <path d="M28.7733431,16.1475624 C28.4913431,16.1835624 28.2033431,16.2105624 27.9103431,16.2375624 L28.4253431,16.6475624 L28.7733431,16.1475624" id="Fill-494" fill="#FFFFFE"></path>
                <path d="M26.7783431,16.3105624 C26.4263431,16.3265624 26.0703431,16.3355624 25.7093431,16.3395624 L26.1813431,16.8255624 L26.7783431,16.3105624" id="Fill-495" fill="#FFFFFE"></path>
                <path d="M30.7473431,15.8295624 C30.4183431,15.8965624 30.0793431,15.9595624 29.7283431,16.0145624 L30.2833431,16.5055624 L30.7473431,15.8295624" id="Fill-496" fill="#FFFFFE"></path>
                <path d="M22.7413431,16.2145624 C22.4803431,16.1925624 22.2233431,16.1635624 21.9693431,16.1295624 L22.1743431,16.6475624 L22.7413431,16.2145624" id="Fill-497" fill="#FFFFFE"></path>
                <path d="M19.3113431,15.6365624 C19.0483431,15.5695624 18.7983431,15.4975624 18.5553431,15.4245624 L18.9053431,16.0575624 L19.3113431,15.6365624" id="Fill-498" fill="#FFFFFE"></path>
                <path d="M20.8263431,15.9595624 C20.5983431,15.9195624 20.3733431,15.8765624 20.1543431,15.8315624 L20.3783431,16.2835624 L20.8263431,15.9595624" id="Fill-499" fill="#FFFFFE"></path>
                <path d="M22.9393431,10.4095624 C22.9393431,10.7345624 22.8503431,10.9965624 22.7413431,10.9965624 C22.6323431,10.9965624 22.5443431,10.7345624 22.5443431,10.4095624 C22.5443431,10.0875624 22.6323431,9.82456245 22.7413431,9.82456245 C22.8503431,9.82456245 22.9393431,10.0875624 22.9393431,10.4095624" id="Fill-500" fill="#2F3C42"></path>
                <path d="M27.0243431,10.4095624 C27.0243431,10.7345624 26.9363431,10.9965624 26.8273431,10.9965624 C26.7193431,10.9965624 26.6303431,10.7345624 26.6303431,10.4095624 C26.6303431,10.0875624 26.7193431,9.82456245 26.8273431,9.82456245 C26.9363431,9.82456245 27.0243431,10.0875624 27.0243431,10.4095624" id="Fill-501" fill="#2F3C42"></path>
            </g>
        </g>
    </g>
</svg>