<?xml version="1.0" encoding="UTF-8"?>
<svg width="50px" height="50px" viewBox="0 0 50 50" version="1.1" xmlns="http://www.w3.org/2000/svg" xmlns:xlink="http://www.w3.org/1999/xlink">
    <title>Group 3</title>
    <defs>
        <path d="M23.6608009,38.1818182 C17.7889897,38.1818182 12.417928,36.0630072 8.28341079,32.5558381 C7.78751122,31.6447871 7.36886321,30.6924027 7.03751292,29.7053736 C4.95622434,23.5036409 6.10581757,16.1260486 10.1119863,9.97045161 C11.8329986,7.32579678 14.0930397,4.88317849 16.772768,2.73486809 C18.9520933,2.07902113 21.2647902,1.72622898 23.6608009,1.72622898 C26.5263833,1.72622898 29.2722778,2.23063429 31.8136115,3.1547199 C30.8957729,3.28832471 29.9885002,3.50048022 29.1021858,3.79427359 C21.4334965,6.33533753 16.8408394,14.9488171 19.2725314,22.2272776 C20.6973549,26.4882247 24.230661,29.5498158 28.2732038,30.0283233 C28.6024756,30.0672557 28.9336527,30.0864646 29.2653494,30.0864646 C31.5165568,30.0864646 33.7847387,29.2011398 35.4918942,27.6251519 C37.2823636,25.9716424 38.2450635,23.7212846 38.1321307,21.452061 C38.0327083,19.4406141 36.3423541,17.8526206 34.3494025,17.8526206 C34.2801186,17.8526206 34.2101419,17.8546787 34.1401651,17.8584519 C32.0379182,17.9603277 30.4180604,19.7203438 30.5216398,21.8019376 C30.4651735,22.0581706 29.8521841,22.541995 29.2885595,22.541995 C29.2511462,22.541995 29.2140793,22.5399369 29.1773588,22.5354777 C28.1076153,22.4089047 26.9843499,21.281925 26.5080231,19.8563497 C25.3875291,16.503881 27.8240709,12.1751882 31.520887,10.9506204 C32.3529867,10.6744923 33.2406868,10.5426026 34.1477864,10.5426026 C37.3021095,10.5426026 40.6899193,12.1376279 42.7829862,14.8021777 C44.6003031,17.1161649 45.5926219,20.1350504 45.6691806,23.3551149 C42.2065441,32.0373692 33.6603741,38.1818182 23.6608009,38.1818182 M47.3214286,23.3931897 L47.3214286,23.3931897 C47.3084378,14.6505645 42.4590839,7.03011682 35.2807515,3.01528382 C31.8484267,1.0954222 27.8840015,0 23.6608009,0 C22.5164039,0 21.3914065,0.0804372966 20.290312,0.235995139 L20.2904852,0.235823631 C8.8314465,1.85451703 0.0176673965,11.6032087 0,23.3931897 C0.0193994941,10.4702262 10.6052877,0 23.6608009,0 C36.716314,0 47.3022023,10.4703977 47.3214286,23.3931897" id="path-1"></path>
        <linearGradient x1="50.000183%" y1="122.719922%" x2="50.000183%" y2="1.02133497e-13%" id="linearGradient-3">
            <stop stop-color="#68A8C9" offset="0%"></stop>
            <stop stop-color="#5BA0DF" offset="100%"></stop>
        </linearGradient>
        <path d="M17.669264,20 C10.4450742,20 3.40867243,15.6536098 0,9.32479294 C4.14662169,12.8792554 9.53340812,15.026638 15.42241,15.026638 C25.4512586,15.026638 34.022449,8.79933253 37.495223,0 C37.5311824,1.53379512 37.3644142,3.11260983 36.9851902,4.68325497 C34.9758072,13.0097948 27.0268707,19.5864802 18.495114,19.9808797 C18.2197728,19.9937424 17.9444315,20 17.669264,20" id="path-4"></path>
        <linearGradient x1="41.1264267%" y1="119.092481%" x2="41.1264267%" y2="-118.350266%" id="linearGradient-6">
            <stop stop-color="#5285A1" offset="0%"></stop>
            <stop stop-color="#4881B1" offset="100%"></stop>
        </linearGradient>
        <path d="M16.2829598,0 C13.5863887,2.16120776 11.3121428,4.61849029 9.5803135,7.27902229 C5.54896499,13.4715744 4.39214627,20.8934579 6.48651627,27.1324227 C6.81994918,28.1253774 7.2412285,29.0834795 7.74024492,30 C3.9210176,26.761294 1.15054397,22.3457081 0,17.321064 M31.4183388,0.422372394 C38.9117771,3.14639827 44.6366092,9.49457944 46.4285714,17.3214091 C46.159106,18.4984615 45.8009228,19.641179 45.3609935,20.7440403 C45.2839536,17.5046441 44.2853979,14.4676348 42.4566587,12.1397556 C40.3504364,9.4592092 36.9413333,7.8546082 33.7671845,7.8546082 C32.8543836,7.8546082 31.9611041,7.98728972 31.1237744,8.26507549 C27.4037229,9.49699497 24.9518668,13.8516751 26.0794034,17.2242703 C26.5587241,18.658404 27.6890494,19.7921495 28.7655166,19.9194824 C28.8024679,19.9239684 28.8397677,19.9260388 28.8774162,19.9260388 C29.4445833,19.9260388 30.0614255,19.4393098 30.1182467,19.1815385 C30.0140163,17.0874479 31.6440552,15.3168656 33.7595154,15.2143781 C33.8299319,15.2105823 33.9003485,15.2085119 33.9700679,15.2085119 C35.9755457,15.2085119 37.6765241,16.8060388 37.7765714,18.8295615 C37.890214,21.1124083 36.9214633,23.3762761 35.1197403,25.0397124 C33.401855,26.6251618 31.119417,27.5158016 28.8540602,27.5158016 C28.5202787,27.5158016 28.1870201,27.4964774 27.8556788,27.4573113 C23.7877276,26.975931 20.2322138,23.8959597 18.7984349,19.6094321 C16.3514591,12.2872753 20.9729821,3.62208483 28.6898711,1.06576564" id="path-7"></path>
        <linearGradient x1="50%" y1="100%" x2="50%" y2="8.32248706e-14%" id="linearGradient-9">
            <stop stop-color="#95C2DA" offset="0%"></stop>
            <stop stop-color="#8DBCE9" offset="100%"></stop>
        </linearGradient>
        <path d="M47.3214286,23.6363636 C47.3214286,36.690332 36.7281311,47.2727273 23.6607143,47.2727273 C10.5932975,47.2727273 0,36.690332 0,23.6363636 C0,10.5823953 10.5932975,0 23.6607143,0 C36.7281311,0 47.3214286,10.5823953 47.3214286,23.6363636" id="path-10"></path>
        <path d="M46.7299194,0 C47.0508759,1.42165346 47.2450433,2.89216158 47.299431,4.39796329 C47.3072254,4.17994281 47.3157018,3.96192234 47.3194529,3.74280165 L47.3214286,3.53127104 L47.3182587,3.91584211 C47.1494155,14.3686732 40.2528246,23.1799596 30.7855053,26.1770607 L30.4292839,26.2867194 C28.4039596,26.892576 26.2648973,27.2335315 24.0519864,27.2695455 L23.6607143,27.2727273 L23.2801376,27.2697162 C23.2710602,27.2695725 23.2619841,27.2694236 23.2529092,27.2692696 C22.984915,27.2647232 22.7181249,27.2557094 22.4524895,27.2422982 L22.5208234,27.2456422 C22.3902551,27.2394239 22.2599633,27.2321432 22.1299565,27.2238084 L22.4524895,27.2422982 C22.3291835,27.2360728 22.2061262,27.2288999 22.0833248,27.2207866 L22.1299565,27.2238084 C22.0043552,27.215756 21.8790199,27.2067197 21.7539582,27.1967073 L22.0833248,27.2207866 C21.9535384,27.2122117 21.8240379,27.2025865 21.6948315,27.1919192 L21.7539582,27.1967073 C21.6179569,27.185819 21.4822792,27.1737762 21.3469348,27.1605888 L21.6948315,27.1919192 C21.5736323,27.181913 21.4526919,27.1709899 21.3320173,27.1591568 L21.3469348,27.1605888 C21.2210275,27.1483208 21.0954086,27.1350622 20.9700861,27.1208209 C20.8411541,27.1061695 20.7125358,27.0904779 20.5842398,27.0737547 C20.5754115,27.0726437 20.5665123,27.0714787 20.5576146,27.0703088 L20.5842398,27.0737547 C20.4662905,27.0583802 20.3486137,27.0421338 20.2312158,27.0250222 L20.5576146,27.0703088 C20.4198426,27.0521932 20.2824435,27.032888 20.145428,27.0124037 L20.2312158,27.0250222 C20.1043402,27.0065292 19.9777904,26.9870256 19.851575,26.9665199 L20.145428,27.0124037 C20.0252726,26.99444 19.9054121,26.9755695 19.7858536,26.9557993 L19.851575,26.9665199 C19.7265691,26.9462107 19.6018912,26.9249185 19.4775494,26.9026514 L19.7858536,26.9557993 C19.6640191,26.9356528 19.5424982,26.9145721 19.4212986,26.8925648 L19.4775494,26.9026514 C19.3487879,26.8795929 19.2203868,26.8554891 19.0923552,26.8303489 L19.4212986,26.8925648 C19.3028681,26.8710603 19.1847443,26.848671 19.0669342,26.8254039 L19.0923552,26.8303489 C18.9762912,26.8075587 18.8605308,26.783917 18.7450808,26.7594304 L19.0669342,26.8254039 C18.9391749,26.800172 18.8117845,26.7739078 18.6847721,26.7466204 L18.7450808,26.7594304 C18.6164557,26.7321494 18.4882159,26.7038197 18.3603708,26.6744508 L18.6847721,26.7466204 C18.5670829,26.721336 18.4497182,26.6951731 18.3326851,26.6681388 C17.9610241,26.5822864 17.592708,26.4876465 17.2279654,26.3844487 L17.2667828,26.3953336 C17.1492633,26.3623032 17.0321134,26.3283852 16.9153409,26.2935871 L17.2279654,26.3844487 C17.1089247,26.3507682 16.9902646,26.3161761 16.8719931,26.2806804 L16.9153409,26.2935871 C16.7935616,26.2572969 16.6721927,26.2200497 16.551243,26.1818541 L16.8719931,26.2806804 C16.7560008,26.2458687 16.6403822,26.210188 16.525145,26.1736457 L16.551243,26.1818541 C16.433534,26.1446818 16.3162219,26.1066114 16.1993149,26.0676507 L16.525145,26.1736457 C16.4070965,26.1362119 16.289448,26.0978741 16.1722077,26.0586402 L15.8307594,25.9414417 L15.4885343,25.8180052 C15.3750854,25.7760981 15.2620451,25.7333438 15.149421,25.6897501 L15.4673111,25.8101729 C15.3483577,25.7660973 15.2298541,25.7210896 15.111809,25.6751587 L15.149421,25.6897501 C15.0309565,25.6438957 14.9129526,25.5971126 14.7954181,25.5494096 L15.111809,25.6751587 C15.0027645,25.6327299 14.8941113,25.5895133 14.7858562,25.5455157 L14.7954181,25.5494096 C14.685286,25.504711 14.575566,25.4592047 14.4662655,25.4128982 L14.7858562,25.5455157 C14.6685202,25.4978274 14.5516519,25.4492217 14.4352603,25.3997075 C14.2064415,25.3023656 13.9794648,25.2015122 13.7543974,25.0972149 C13.6413659,25.0448355 13.528816,24.9915875 13.4167561,24.9374794 L13.4499841,24.9534946 C13.349045,24.904957 13.2485022,24.855722 13.1483619,24.805796 L13.4167561,24.9374794 C13.2996927,24.8809553 13.1831641,24.8234926 13.0671799,24.765101 L13.1483619,24.805796 C13.040446,24.7519934 12.9329975,24.6973881 12.8260242,24.6419881 L13.0671799,24.765101 C12.968493,24.7154175 12.8702003,24.6650616 12.7723077,24.6140392 L12.8260242,24.6419881 C12.7088773,24.5813192 12.5923003,24.5196972 12.4763034,24.4571323 L12.7723077,24.6140392 C12.6571734,24.5540301 12.5425925,24.4930991 12.4285749,24.4312559 L12.4763034,24.4571323 C12.3725664,24.4011799 12.2692933,24.3444733 12.1664914,24.2870199 L12.4285749,24.4312559 C12.3251327,24.3751487 12.2221542,24.3182908 12.1196464,24.2606892 C11.9049371,24.1400388 11.6922935,24.0161262 11.4817822,23.8890182 L11.5216855,23.9131737 C11.4259423,23.8556262 11.3306384,23.7974186 11.2357798,23.7385571 L11.4817822,23.8890182 C11.3776,23.8261123 11.27394,23.7624239 11.1708104,23.6979608 C10.9622743,23.5676116 10.7559067,23.4340955 10.5517743,23.2974794 L10.5996455,23.3296023 C10.5078314,23.2684833 10.4164669,23.2067382 10.3255581,23.1443732 L10.5517743,23.2974794 C10.4546748,23.2324954 10.3580811,23.1668101 10.2620003,23.1004305 C10.0612852,22.961762 9.86280849,22.8200641 9.66663564,22.6754026 C9.46918357,22.5297977 9.27406553,22.3811904 9.08134832,22.2296477 L9.11933544,22.2597096 C9.02248049,22.1838711 8.92622895,22.1072925 8.83058926,22.0299822 L9.08134832,22.2296477 C8.99265172,22.1599013 8.90446367,22.0895332 8.81679068,22.0185498 C8.62169714,21.8605947 8.42915403,21.6995931 8.2392331,21.535617 C7.78051541,21.1395641 7.3370948,20.7261588 6.90998224,20.296416 C6.65782999,20.042711 6.4113616,19.7833118 6.17078508,19.5184273 C5.51615221,18.79765 4.90514507,18.0362572 4.34195486,17.2384559 L4.35204381,17.2531922 C4.28662111,17.1606616 4.22184206,17.0676404 4.1577132,16.974135 L4.34195486,17.2384559 C4.27307607,17.1408839 4.20491252,17.0427673 4.13747185,16.9441139 C3.99921978,16.7418762 3.8640056,16.5373822 3.73189537,16.3306984 C3.40126969,15.8134411 3.09008482,15.2824677 2.79937609,14.7388174 L2.82170856,14.7809477 C2.76322529,14.6721005 2.70556375,14.5627428 2.64873228,14.452883 L2.79937609,14.7388174 C2.74456391,14.6363139 2.69047965,14.5333598 2.63713026,14.4299619 C2.52279013,14.2083564 2.41182556,13.9847127 2.30430486,13.7590996 C2.14482371,13.4244566 1.99291929,13.0854806 1.84881455,12.7423953 C1.75235599,12.5127463 1.65939206,12.2812561 1.56998962,12.0479919 C1.43877899,11.705644 1.31523971,11.3594748 1.19958314,11.0096966 C1.11979387,10.7683912 1.04375626,10.5253681 0.971539726,10.2806971 L0.98788068,10.3361861 C0.953773468,10.2216532 0.920504067,10.1067571 0.888079614,9.99150524 L0.971539726,10.2806971 C0.937396379,10.1650187 0.904107162,10.048972 0.871679409,9.93256425 C0.802087134,9.68274492 0.736462437,9.43126286 0.67487781,9.17819084 L0.693360598,9.25393448 C0.665715304,9.1419274 0.638861917,9.02960662 0.612806744,8.91697848 L0.67487781,9.17819084 C0.647246918,9.06464617 0.620429294,8.95078145 0.594431487,8.83660323 L0.612806744,8.91697848 C0.581490847,8.78160992 0.551328035,8.64579735 0.522329254,8.50955175 L0.594431487,8.83660323 C0.564980894,8.70726093 0.536582339,8.57751635 0.50924534,8.44737903 L0.522329254,8.50955175 C0.497750688,8.39407374 0.474008337,8.27828466 0.451108868,8.16219119 L0.50924534,8.44737903 C0.483494674,8.32479342 0.458685938,8.20185934 0.434827085,8.07858477 L0.451108868,8.16219119 C0.425436859,8.03204178 0.40082419,7.90150981 0.377280255,7.77060473 L0.434827085,8.07858477 C0.413003468,7.96582592 0.391974591,7.85278218 0.371746542,7.73945968 L0.377280255,7.77060473 C0.35558835,7.649997 0.334803652,7.52907254 0.314933508,7.40783874 L0.371746542,7.73945968 C0.345789116,7.59403979 0.321150415,7.44816087 0.297843306,7.3018358 L0.314933508,7.40783874 C0.29515905,7.28718874 0.276290358,7.16623237 0.258334672,7.04497689 L0.297843306,7.3018358 C0.279677687,7.18778969 0.262320967,7.07347256 0.245779237,6.95889053 C0.208246306,6.69890568 0.174909182,6.43755705 0.145839018,6.17491607 L0.157437333,6.27784994 C0.143854702,6.15980285 0.131134315,6.04149207 0.119282655,5.92292412 L0.145839018,6.17491607 C0.132936216,6.05834279 0.120874018,5.94151492 0.109658647,5.82443869 L0.119282655,5.92292412 C0.104833058,5.77836555 0.0916747877,5.6334247 0.0798195918,5.48811337 L0.109658647,5.82443869 C0.0966017562,5.68813901 0.0846926128,5.55150273 0.0739410338,5.41453969 L0.0798195918,5.48811337 C0.0702538096,5.37086381 0.0615364119,5.25337303 0.0536735702,5.13564725 L0.0739410338,5.41453969 C0.0639679435,5.28749373 0.0549908549,5.16016662 0.0470176035,5.03256624 L0.0536735702,5.13564725 C0.0455544654,5.01408459 0.0383465271,4.89227135 0.0320565503,4.77021435 L0.0470176035,5.03256624 C0.0395588818,4.91320015 0.0329786183,4.79359493 0.0272832272,4.67375699 L0.0320565503,4.77021435 C0.024396296,4.62156712 0.0180975262,4.47255837 0.0131725141,4.3232004 L0.0272832272,4.67375699 C0.0209322971,4.54012571 0.0156816595,4.40620507 0.0115402081,4.272004 L0.0131725141,4.3232004 C0.00923192703,4.20369652 0.00617080266,4.08396908 0.0039954277,3.9640244 L0.0115402081,4.272004 C0.0075417023,4.14243499 0.00457713514,4.01260456 0.00265451075,3.88252076 L0,3.53127104 L0.00195130916,3.7427283 C0.00566177361,3.96192234 0.0140732422,4.17994281 0.0219975602,4.39796329 C0.0736658452,2.96745166 0.251485375,1.56847868 0.54431826,0.213267534 L0.591509197,0 L0.626292176,0.151362143 C1.7900301,5.15167396 4.52597549,9.54486516 8.28338047,12.7757565 C11.6820901,19.1060001 18.6979261,23.4533702 25.9010012,23.4533702 C26.1753645,23.4533702 26.449901,23.4471112 26.7244375,23.4342456 C35.2312577,23.0397572 43.1569613,16.4615891 45.1604714,8.13317215 C45.5385869,6.56217293 45.7048677,4.98300228 45.6690134,3.44886139" id="path-12"></path>
        <linearGradient x1="50%" y1="100%" x2="50%" y2="8.32248706e-14%" id="linearGradient-14">
            <stop stop-color="#86ABBD" offset="0%"></stop>
            <stop stop-color="#80A7C8" offset="100%"></stop>
        </linearGradient>
        <path d="M47.3214286,23.6363636 C47.3214286,36.690332 36.7281311,47.2727273 23.6607143,47.2727273 C10.5932975,47.2727273 0,36.690332 0,23.6363636 C0,10.5823953 10.5932975,0 23.6607143,0 C36.7281311,0 47.3214286,10.5823953 47.3214286,23.6363636" id="path-15"></path>
    </defs>
    <g id="Page-1" stroke="none" stroke-width="1" fill="none" fill-rule="evenodd">
        <g id="iPhone-14-Pro" transform="translate(-337.000000, -80.000000)">
            <g id="Group-3" transform="translate(337.000000, 80.000000)">
                <g id="Group">
                    <g id="Group-600" transform="translate(0.892857, 1.818182)">
                        <mask id="mask-2" fill="white">
                            <use xlink:href="#path-1"></use>
                        </mask>
                        <g id="Clip-599"></g>
                        <path d="M23.6608009,38.1818182 C17.7889897,38.1818182 12.417928,36.0630072 8.28341079,32.5558381 C7.78751122,31.6447871 7.36886321,30.6924027 7.03751292,29.7053736 C4.95622434,23.5036409 6.10581757,16.1260486 10.1119863,9.97045161 C11.8329986,7.32579678 14.0930397,4.88317849 16.772768,2.73486809 C18.9520933,2.07902113 21.2647902,1.72622898 23.6608009,1.72622898 C26.5263833,1.72622898 29.2722778,2.23063429 31.8136115,3.1547199 C30.8957729,3.28832471 29.9885002,3.50048022 29.1021858,3.79427359 C21.4334965,6.33533753 16.8408394,14.9488171 19.2725314,22.2272776 C20.6973549,26.4882247 24.230661,29.5498158 28.2732038,30.0283233 C28.6024756,30.0672557 28.9336527,30.0864646 29.2653494,30.0864646 C31.5165568,30.0864646 33.7847387,29.2011398 35.4918942,27.6251519 C37.2823636,25.9716424 38.2450635,23.7212846 38.1321307,21.452061 C38.0327083,19.4406141 36.3423541,17.8526206 34.3494025,17.8526206 C34.2801186,17.8526206 34.2101419,17.8546787 34.1401651,17.8584519 C32.0379182,17.9603277 30.4180604,19.7203438 30.5216398,21.8019376 C30.4651735,22.0581706 29.8521841,22.541995 29.2885595,22.541995 C29.2511462,22.541995 29.2140793,22.5399369 29.1773588,22.5354777 C28.1076153,22.4089047 26.9843499,21.281925 26.5080231,19.8563497 C25.3875291,16.503881 27.8240709,12.1751882 31.520887,10.9506204 C32.3529867,10.6744923 33.2406868,10.5426026 34.1477864,10.5426026 C37.3021095,10.5426026 40.6899193,12.1376279 42.7829862,14.8021777 C44.6003031,17.1161649 45.5926219,20.1350504 45.6691806,23.3551149 C42.2065441,32.0373692 33.6603741,38.1818182 23.6608009,38.1818182 M47.3214286,23.3931897 L47.3214286,23.3931897 C47.3084378,14.6505645 42.4590839,7.03011682 35.2807515,3.01528382 C31.8484267,1.0954222 27.8840015,0 23.6608009,0 C22.5164039,0 21.3914065,0.0804372966 20.290312,0.235995139 L20.2904852,0.235823631 C8.8314465,1.85451703 0.0176673965,11.6032087 0,23.3931897 C0.0193994941,10.4702262 10.6052877,0 23.6608009,0 C36.716314,0 47.3022023,10.4703977 47.3214286,23.3931897" id="Fill-598" fill="url(#linearGradient-3)" mask="url(#mask-2)"></path>
                    </g>
                    <path d="M25.4464286,2.65321449 C38.2214683,2.65321449 48.6256215,12.7846939 49.0851453,25.4545455 C49.0955378,25.1647825 49.1071429,24.8750195 49.1071429,24.5824837 C49.1071429,11.5079691 38.5140186,0.909090909 25.4464286,0.909090909 C12.3790118,0.909090909 1.78571429,11.5079691 1.78571429,24.5824837 C1.78571429,24.8750195 1.79714609,25.1647825 1.80771185,25.4545455 C2.26706247,12.7846939 12.6712156,2.65321449 25.4464286,2.65321449" id="Fill-601" fill="#FFFFFF"></path>
                    <g id="Group-604" transform="translate(9.821429, 24.545455)">
                        <mask id="mask-5" fill="white">
                            <use xlink:href="#path-4"></use>
                        </mask>
                        <g id="Clip-603"></g>
                        <path d="M17.669264,20 C10.4450742,20 3.40867243,15.6536098 0,9.32479294 C4.14662169,12.8792554 9.53340812,15.026638 15.42241,15.026638 C25.4512586,15.026638 34.022449,8.79933253 37.495223,0 C37.5311824,1.53379512 37.3644142,3.11260983 36.9851902,4.68325497 C34.9758072,13.0097948 27.0268707,19.5864802 18.495114,19.9808797 C18.2197728,19.9937424 17.9444315,20 17.669264,20" id="Fill-602" fill="url(#linearGradient-6)" mask="url(#mask-5)"></path>
                    </g>
                    <path d="M25,0 C18.3221878,0 12.0440934,2.60041355 7.32233994,7.32233994 C2.60041355,12.0440934 0,18.3223607 0,25 C0,31.6776393 2.60041355,37.9559066 7.32233994,42.6776601 C12.0440934,47.3995865 18.3221878,50 25,50 C31.6778122,50 37.9557337,47.3995865 42.6776601,42.6776601 C47.3995865,37.9559066 50,31.6776393 50,25 C50,18.3223607 47.3995865,12.0440934 42.6776601,7.32233994 C37.9557337,2.60041355 31.6778122,0 25,0 M25,1.38310673 C38.0432152,1.38310673 48.6168933,11.9567848 48.6168933,25 C48.6168933,38.0432152 38.0432152,48.6168933 25,48.6168933 C11.9567848,48.6168933 1.38310673,38.0432152 1.38310673,25 C1.38310673,11.9567848 11.9567848,1.38310673 25,1.38310673" id="Fill-605" fill="#347897"></path>
                    <g id="Group-608" transform="translate(1.785714, 3.636364)">
                        <mask id="mask-8" fill="white">
                            <use xlink:href="#path-7"></use>
                        </mask>
                        <g id="Clip-607"></g>
                        <path d="M47.0238006,20.8177139 C47.0238006,33.8344788 36.3638826,44.3867146 23.2142857,44.3867146 C10.0646889,44.3867146 -0.595229157,33.8344788 -0.595229157,20.8177139 C-0.595229157,7.80094896 10.0646889,-2.75128684 23.2142857,-2.75128684 C36.3638826,-2.75128684 47.0238006,7.80094896 47.0238006,20.8177139" id="Fill-606" fill="url(#linearGradient-9)" mask="url(#mask-8)"></path>
                    </g>
                    <g id="Group-611" transform="translate(1.785714, 0.909091)">
                        <mask id="mask-11" fill="white">
                            <use xlink:href="#path-10"></use>
                        </mask>
                        <g id="Clip-610"></g>
                        <path d="M47.3212554,23.6007193 C47.3190036,22.1171526 47.1740276,20.6678459 46.9100569,19.2604128 C46.8553228,19.5521429 46.7952192,19.8421426 46.7299194,20.130066 C44.9491563,12.2808664 39.2601022,5.91454138 31.8134951,3.18272992 C32.6083518,3.06610711 33.4113493,3.00883389 34.2159058,3.00883389 C34.5704649,3.00883389 34.92589,3.01990787 35.2806223,3.04205582 C42.4587553,7.09253558 47.3082647,14.7806434 47.3212554,23.6007193 M0,23.6007193 C0.0176673318,11.7062308 8.83106776,1.87098286 20.2902377,0.238090484 C19.0516192,1.02399672 17.8769148,1.86596496 16.7727066,2.75915034 C8.70930174,5.20736419 2.47169436,11.841541 0.591509197,20.1297199 C0.526209353,19.8417965 0.466278992,19.5521429 0.411544905,19.2604128 C0.147574183,20.6678459 0.00225171876,22.1171526 0,23.6007193" id="Fill-609" fill="#FFFFFF" mask="url(#mask-11)"></path>
                    </g>
                    <g id="Group-614" transform="translate(1.785714, 20.909091)">
                        <mask id="mask-13" fill="white">
                            <use xlink:href="#path-12"></use>
                        </mask>
                        <g id="Clip-613"></g>
                        <path d="M47.3214286,3.52309962 C47.3214286,16.6396218 36.7281311,27.2727273 23.6607143,27.2727273 C10.5932975,27.2727273 0,16.6396218 0,3.52309962 C0,-9.59342253 10.5932975,-20.226528 23.6607143,-20.226528 C36.7281311,-20.226528 47.3214286,-9.59342253 47.3214286,3.52309962" id="Fill-612" fill="url(#linearGradient-14)" mask="url(#mask-13)"></path>
                    </g>
                    <g id="Group-617" transform="translate(1.785714, 0.909091)">
                        <mask id="mask-16" fill="white">
                            <use xlink:href="#path-15"></use>
                        </mask>
                        <g id="Clip-616"></g>
                        <path d="M47.299431,24.507055 C47.2450433,23.0084346 47.0508759,21.5449394 46.7299194,20.130066 C46.7952192,19.8421426 46.8553228,19.5521429 46.9100569,19.2604128 C47.1740276,20.6678459 47.3190036,22.1171526 47.3212554,23.6007193 C47.3214286,23.6128314 47.3214286,23.6244245 47.3214286,23.6363636 C47.3214286,23.6365367 47.3214286,23.6365367 47.3214286,23.6365367 C47.3214286,23.9284398 47.3098236,24.2177474 47.299431,24.507055 M0.0219975602,24.507055 C0.0114318029,24.2177474 0,23.9284398 0,23.6365367 C0,23.6363636 0,23.6363636 0,23.6363636 C0,23.6244245 0,23.6126584 0,23.6007193 C0.00225171876,22.1171526 0.147574183,20.6678459 0.411544905,19.2604128 C0.466278992,19.5521429 0.526209353,19.8417965 0.591509197,20.1297199 C0.270552669,21.5445934 0.0763852286,23.0084346 0.0219975602,24.507055" id="Fill-615" fill="#DBDBDB" mask="url(#mask-16)"></path>
                    </g>
                </g>
                <g id="Group-2" transform="translate(10.000000, 10.000000)">
                    <path d="M15.0351565,0.429909194 C14.7144539,0.400113507 14.3396568,0.480987514 13.8953099,0.757661748 C13.8953099,0.757661748 6.52765067,7.38507378 6.20733446,7.71282633 L2.15295813,7.71282633 C1.17809951,7.71282633 0.386389121,8.53007946 0.386389121,9.53461975 L0.386389121,20.6952327 C0.386389121,21.7040295 1.17809951,22.5170261 2.15295813,22.5170261 L6.20733446,22.5170261 C6.52765067,22.8490352 13.8953099,29.2423383 13.8953099,29.2423383 C14.3396568,29.5190125 14.7144539,29.5998865 15.0351565,29.5658343 C15.6881533,29.5019864 16.1479558,28.9401249 16.2870558,28.3442111 C16.2947835,28.2846198 16.2947835,1.71538025 16.2870558,1.65578888 C16.1479558,1.05987514 15.6881533,0.493757094 15.0351565,0.429909194 Z M20.0118425,21.465664 C22.8247521,20.9123156 24.9576176,18.3073212 24.9576176,15.1915437 C24.9576176,12.0757662 22.8247521,9.47077185 20.0118425,8.91742338 C19.4283957,8.80249716 18.8913154,9.27922815 18.8913154,9.90493757 C18.8913154,10.5178774 19.281568,11.0627128 19.8495593,11.2116913 C21.5380778,11.6628831 22.7899771,13.2761067 22.7899771,15.1915437 C22.7899771,17.1452894 21.4917112,18.7797957 19.7529621,19.1969353 C19.2545208,19.3118615 18.8913154,19.7673099 18.8913154,20.3078888 L18.8913154,20.4781498 C18.8913154,21.1038593 19.4283957,21.5805902 20.0118425,21.465664 Z M20.1045758,3.97559591 C19.4593067,3.89897843 18.8913154,4.42678774 18.8913154,5.10783201 C18.8913154,5.69523269 19.3124791,6.1762202 19.8650149,6.24432463 C24.1268819,6.75510783 27.4498245,10.5732123 27.4498245,15.1915437 C27.4498245,19.8098751 24.1268819,23.6322361 19.8650149,24.1387628 C19.3124791,24.2068672 18.8913154,24.6878547 18.8913154,25.2752554 C18.8913154,25.9562997 19.4593067,26.484109 20.1045758,26.4074915 C25.4483312,25.773269 29.613601,20.9846765 29.613601,15.1915437 C29.613601,9.3984109 25.4483312,4.60981839 20.1045758,3.97559591 L20.1045758,3.97559591 Z" id="Fill-962" fill="#FFFDFD"></path>
                    <path d="M15.0351565,0.429909194 L15.0699314,0.00851305335 C15.015837,0 14.9617426,0 14.9076482,0 C14.540579,0 14.1348708,0.119182747 13.7040475,0.387343927 L13.6503395,0.429909194 C13.6503395,0.429909194 11.8084247,2.08569807 9.92632543,3.78405221 C8.98508263,4.63110102 8.03418011,5.49091941 7.29810969,6.1591941 C6.92988128,6.49120318 6.6153609,6.78064699 6.38275492,6.99347333 C6.26606554,7.09988649 6.17024115,7.18927355 6.09721369,7.25737798 C6.02341346,7.32548241 5.97781959,7.36804767 5.94459017,7.40209989 L6.20733446,7.71282633 L6.20733446,7.28717367 L2.15295813,7.28717367 C1.5671929,7.28717367 1.03088543,7.53405221 0.63986009,7.93416572 C0.248834753,8.33853575 -0.000385940028,8.90891033 -2.13162821e-14,9.53461975 L-2.13162821e-14,20.6952327 C-0.000385940028,21.3251986 0.248834753,21.8955732 0.640246478,22.2956867 C1.03127181,22.7000568 1.56757929,22.9426788 2.15295813,22.9426788 L6.20733446,22.9426788 L6.20733446,22.5170261 L5.94381739,22.8277526 C5.9809107,22.8660613 6.02611818,22.9086266 6.10069119,22.976731 C6.64511283,23.4704881 8.52914399,25.1135074 10.2833486,26.6416005 C12.0367804,28.1696935 13.6557489,29.5743473 13.6557489,29.5743473 L13.7048203,29.6126561 C14.1348708,29.8808173 14.5367151,30 14.9037843,30 C14.9617426,30 15.015837,29.9957435 15.0699314,29.9914869 C15.4910951,29.9489217 15.8543004,29.7446084 16.1209086,29.4636776 C16.3913807,29.1827469 16.5729834,28.8251986 16.6618528,28.4506243 L16.6734444,28.3952894 L16.6734444,28.3612372 L16.6773083,28.3229285 C16.6773083,27.9015323 16.6811722,22.2318388 16.6811722,16.2216232 C16.6811722,12.7014756 16.6811722,9.06640182 16.6773083,6.31242906 C16.6773083,4.93331442 16.6773083,3.77128263 16.6773083,2.95402951 C16.6773083,2.54540295 16.6734444,2.22190692 16.6734444,2.00056754 C16.6734444,1.88989784 16.6734444,1.80476731 16.6734444,1.74517594 L16.6734444,1.63450624 L16.6695805,1.58768445 L16.6618528,1.55363224 C16.5729834,1.17480136 16.3913807,0.817253121 16.1209086,0.536322361 C15.8504366,0.2553916 15.4910951,0.0468217934 15.0699314,0.00851305335 L15.0351565,0.429909194 L15.0003815,0.855561862 C15.2360786,0.876844495 15.4292729,0.987514188 15.5876923,1.15351873 C15.7461116,1.31952327 15.8620282,1.54086266 15.9122587,1.76220204 L16.2870558,1.65578888 L15.904531,1.7238933 L16.279328,1.65578888 L15.9006671,1.68132804 L15.904531,1.7238933 L16.279328,1.65578888 L15.9006671,1.68132804 L16.1904586,1.66430193 L15.9006671,1.67281498 L15.9006671,1.68132804 L16.1904586,1.66430193 L15.9006671,1.67281498 C15.9006671,1.68132804 15.9006671,1.82604994 15.9006671,2.06015891 C15.904531,3.70743473 15.9083949,10.13479 15.9083949,16.2216232 C15.9083949,19.3331442 15.9083949,22.3552781 15.904531,24.6069807 C15.904531,25.7307037 15.904531,26.6628831 15.904531,27.3141317 C15.904531,27.6376277 15.904531,27.8930193 15.904531,28.0675369 C15.904531,28.156924 15.904531,28.2250284 15.904531,28.2675936 L15.904531,28.318672 L15.9006671,28.3314415 L16.0165837,28.3314415 L15.9006671,28.327185 L15.9006671,28.3314415 L16.0165837,28.3314415 L15.9006671,28.327185 L16.2368252,28.3399546 L15.904531,28.3229285 L15.9006671,28.327185 L16.2368252,28.3399546 L15.904531,28.3229285 L16.2831919,28.3399546 L15.904531,28.2888763 L15.904531,28.3229285 L16.2831919,28.3399546 L15.904531,28.2888763 L16.2870558,28.3442111 L15.9161226,28.237798 C15.8620282,28.4591373 15.7461116,28.6804767 15.5876923,28.8464813 C15.4292729,29.0124858 15.2360786,29.118899 15.0003815,29.1444381 L15.0042454,29.1444381 L14.9037843,29.1486947 C14.6874066,29.1486947 14.4246624,29.0805902 14.0846403,28.8720204 L13.8953099,29.2423383 L14.1348708,28.9060726 C14.131007,28.9060726 13.6735228,28.5059591 12.9780232,27.9015323 C11.9347737,26.9948922 10.3617855,25.6285471 9.02063039,24.4580023 C8.34985965,23.8706016 7.73666083,23.3342792 7.2772447,22.9299092 C7.04734344,22.7255959 6.85569466,22.5553348 6.71504918,22.4318956 C6.64472644,22.3680477 6.58715453,22.3169694 6.54465178,22.2744041 C6.5029218,22.2360953 6.47239709,22.2062997 6.47123793,22.2062997 C6.40014241,22.1339387 6.30470441,22.0913734 6.20733446,22.0913734 L2.15295813,22.0913734 C1.76347835,22.0913734 1.41611493,21.9296254 1.1680534,21.6742338 C0.919605488,21.4188422 0.773164181,21.0740636 0.772777793,20.6952327 L0.772777793,9.53461975 C0.773164181,9.15578888 0.919605488,8.81526674 1.1680534,8.55561862 C1.41688771,8.30022701 1.76386474,8.138479 2.15295813,8.138479 L6.20733446,8.138479 C6.30470441,8.138479 6.39936963,8.09591373 6.47046515,8.02355278 C6.47703376,8.01929625 6.52649151,7.96821793 6.59565508,7.90437003 C7.12655312,7.41061294 9.01599372,5.70374574 10.76788,4.12457435 C11.6442095,3.33286039 12.4869232,2.57519864 13.1109409,2.01333712 C13.7345722,1.4514756 14.1387347,1.08967083 14.1387347,1.08967083 L13.8953099,0.757661748 L14.0846403,1.12797957 C14.4246624,0.915153235 14.6912705,0.851305335 14.9076482,0.851305335 L15.0042454,0.855561862 L15.0351565,0.429909194 Z M20.0118425,21.465664 L20.0813925,21.8870602 C21.5728528,21.5891033 22.8865743,20.7548241 23.8293626,19.5715096 C24.772151,18.3881952 25.3440062,16.8601022 25.3440062,15.1915437 C25.3440062,13.5229852 24.772151,11.9948922 23.8293626,10.8115778 C22.8865743,9.62826334 21.5728528,8.79398411 20.0813925,8.49602724 C20.0002509,8.47900114 19.9191093,8.47474461 19.8379676,8.47474461 C19.4786262,8.47474461 19.1501958,8.62797957 18.9067709,8.88337117 C18.6633461,9.13876277 18.5049267,9.50056754 18.5049267,9.90493757 C18.5049267,10.7221907 19.0226875,11.4330306 19.756826,11.6245743 C20.5218756,11.8288876 21.1826002,12.2971056 21.6539944,12.922815 C22.1253886,13.5527809 22.4035884,14.3359818 22.4035884,15.1915437 C22.4035884,16.0641317 22.1137969,16.8601022 21.6269472,17.4943246 C21.1400975,18.1285471 20.4561895,18.5925085 19.6718205,18.7797957 C19.3395263,18.8564132 19.0497348,19.0479569 18.8410849,19.316118 C18.632435,19.5800227 18.5049267,19.9290579 18.5049267,20.3078888 L18.5049267,20.4781498 C18.5049267,20.8825199 18.6633461,21.2443246 18.9067709,21.4997162 C19.1501958,21.7551078 19.4786262,21.9083428 19.8379676,21.9083428 C19.9191093,21.9083428 20.0002509,21.8998297 20.0813925,21.8870602 L20.0118425,21.465664 L19.9461565,21.0485244 C19.9075176,21.0570375 19.8727426,21.0570375 19.8379676,21.0570375 C19.6834122,21.0570375 19.5404484,20.9931896 19.4399873,20.8825199 C19.3356624,20.7761067 19.2777041,20.6356413 19.2777041,20.4781498 L19.2777041,20.3078888 C19.2777041,20.1418842 19.3317985,19.9971623 19.4283957,19.8694665 C19.5249928,19.7460272 19.6640927,19.6523837 19.8341038,19.6098184 C20.7884838,19.3842225 21.6192194,18.822361 22.2181219,18.0434166 C22.8170243,17.2687287 23.1763658,16.2727015 23.1763658,15.1915437 C23.1763658,14.1316686 22.828616,13.1526674 22.249033,12.3822361 C21.6733138,11.6118048 20.8657615,11.0456867 19.9384287,10.7988082 C19.5404484,10.692395 19.2777041,10.3178207 19.2777041,9.90493757 C19.2777041,9.74744608 19.3356624,9.6069807 19.4399873,9.50056754 C19.5404484,9.38989784 19.6834122,9.32604994 19.8379676,9.32604994 C19.8727426,9.32604994 19.9075176,9.32604994 19.9422926,9.334563 C21.2637418,9.59421112 22.4229079,10.3348468 23.2497796,11.3734393 C24.0766514,12.4120318 24.5712289,13.7400681 24.5712289,15.1915437 C24.5712289,16.6430193 24.0766514,17.9710556 23.2497796,19.0096481 C22.4229079,20.0482406 21.2637418,20.7888763 19.9461565,21.0485244 L20.0118425,21.465664 Z M20.1045758,3.97559591 L20.1432147,3.55419977 C20.0891203,3.54568672 20.031162,3.54143019 19.9770676,3.54143019 C19.5829511,3.54143019 19.2158819,3.71169126 18.9492737,3.98836549 C18.6788016,4.26929625 18.5049267,4.66515323 18.5049267,5.10783201 C18.5049267,5.51645857 18.6517544,5.89103292 18.8913154,6.16345062 C19.1270125,6.44012486 19.4554429,6.62315551 19.8225121,6.66572077 C21.8626443,6.90834279 23.6748072,7.9469353 24.9730731,9.46651532 C26.2752029,10.9903519 27.0634358,12.9951759 27.0634358,15.1915437 C27.0634358,17.3879115 26.2752029,19.3927355 24.9730731,20.9165721 C23.6748072,22.4361521 21.8626443,23.4747446 19.8225121,23.7173666 C19.4554429,23.7599319 19.1270125,23.9429625 18.8913154,24.2196368 C18.6517544,24.4920545 18.5049267,24.8666288 18.5049267,25.2752554 C18.5049267,25.7179342 18.6788016,26.1137911 18.9492737,26.3947219 C19.2158819,26.6713961 19.5829511,26.8416572 19.9770676,26.8416572 C20.0350259,26.8416572 20.0891203,26.8374007 20.1432147,26.8288876 C22.9097576,26.5011351 25.3710534,25.1007378 27.1445774,23.0235528 C28.9181014,20.9506243 30.0038536,18.2009081 30,15.1915437 C30.0038536,12.1821793 28.9181014,9.43246311 27.1445774,7.35953462 C25.3710534,5.2823496 22.9097576,3.88195233 20.1432147,3.55419977 L20.1045758,3.97559591 L20.0620731,4.39699205 C22.6392855,4.70346198 24.9344342,6.01447219 26.58045,7.94267877 C28.2303296,9.87088536 29.2272124,12.4077753 29.2272124,15.1915437 C29.2272124,17.9753121 28.2303296,20.512202 26.58045,22.4404086 C24.9344342,24.3686152 22.6392855,25.6796254 20.0620731,25.9860953 L19.9770676,25.9903519 C19.7838732,25.9903519 19.6061344,25.9052213 19.4786262,25.773269 C19.3511179,25.6413167 19.2777041,25.4710556 19.2777041,25.2752554 C19.2777041,25.0964813 19.3395263,24.9347333 19.451579,24.8070375 C19.5636317,24.6793417 19.722051,24.5856981 19.9075176,24.5644154 C22.1292525,24.2962543 24.1114264,23.1682747 25.5372006,21.4997162 C26.9629748,19.8311578 27.8362132,17.6135074 27.8362132,15.1915437 C27.8362132,12.76958 26.9629748,10.5519296 25.5372006,8.88337117 C24.1114264,7.21481271 22.1292525,6.08683314 19.9075176,5.81867196 C19.722051,5.79738933 19.5636317,5.70374574 19.451579,5.57604994 C19.3395263,5.44835414 19.2777041,5.28660613 19.2777041,5.10783201 C19.2777041,4.91203178 19.3511179,4.74177072 19.4786262,4.60981839 C19.6061344,4.47786606 19.7800093,4.39273553 19.9770676,4.39273553 L20.0620731,4.39699205 L20.1045758,3.97559591 L20.1045758,3.97559591 Z" id="Fill-963" fill="#15324D"></path>
                </g>
            </g>
        </g>
    </g>
</svg>