<?xml version="1.0" encoding="UTF-8"?>
<svg width="267px" height="156px" viewBox="0 0 267 156" version="1.1" xmlns="http://www.w3.org/2000/svg" xmlns:xlink="http://www.w3.org/1999/xlink">
    <title>Group 6</title>
    <defs>
        <path d="M180.042116,93 L56.5015594,93 C46.3746448,93 36.6615594,89.0436608 29.4988778,81.9899244 L5.88153005,58.7464316 C3.08190324,55.9874055 1.08084766,52.5971872 0,48.9206549 C1.6434173,41.554576 5.39564441,34.7416037 10.898382,29.3211587 L17.220845,23.1003359 C32.2442969,8.30961377 52.6204238,0 73.8678395,0 L166.966174,0 C193.838625,0 219.613701,10.509026 238.619432,29.2170445 C242.797388,33.3360621 245.977129,38.2489505 248,43.6043241 C245.031801,53.631822 239.544929,62.8719563 231.902972,70.3942065 L229.364468,72.8929471 C216.288525,85.7705709 198.545435,93 180.042116,93" id="path-1"></path>
        <linearGradient x1="50.3265094%" y1="60.6468513%" x2="50.3265094%" y2="-2.85530397%" id="linearGradient-3">
            <stop stop-color="#00ACEE" offset="0%"></stop>
            <stop stop-color="#2D4B6F" offset="100%"></stop>
        </linearGradient>
        <path d="M180.619139,91 L57.3272827,91 C47.2207547,91 37.5272227,87.0252874 30.3789604,79.9387931 L6.80915695,56.5873563 C2.44960757,52.2661638 0,46.4086925 0,40.2962644 L0,13.9180316 C0,11.008908 0.31997298,8.13900862 0.939467058,5.34102011 C2.01813886,9.03462644 4.01516609,12.4405891 6.80915695,15.2124282 L30.3789604,38.5638649 C37.5272227,45.6503592 47.2207547,49.6250718 57.3272827,49.6250718 L180.619139,49.6250718 C199.085209,49.6250718 216.792579,42.362069 229.842199,29.4246408 L232.375593,26.914296 C240.002166,19.3571121 245.477992,10.0740661 248.440216,0 C250.115951,4.45847701 251,9.21767241 251,14.0683908 L251,23.7436782 C251,40.4531609 244.297061,56.4762213 232.375593,68.2892241 L229.842199,70.799569 C216.792579,83.7369971 199.085209,91 180.619139,91" id="path-4"></path>
        <linearGradient x1="49.9991852%" y1="100%" x2="49.9991852%" y2="-54.4425287%" id="linearGradient-6">
            <stop stop-color="#29C5F6" offset="0%"></stop>
            <stop stop-color="#583B35" offset="100%"></stop>
        </linearGradient>
    </defs>
    <g id="Page-1" stroke="none" stroke-width="1" fill="none" fill-rule="evenodd">
        <g id="iPhone-14-Pro" transform="translate(-310.000000, -1017.000000)">
            <g id="Group-6" transform="translate(310.000000, 1017.000000)">
                <g id="Group">
                    <g id="Group-787" transform="translate(9.000000, 14.000000)">
                        <mask id="mask-2" fill="white">
                            <use xlink:href="#path-1"></use>
                        </mask>
                        <g id="Clip-786"></g>
                        <path d="M180.042116,93 L56.5015594,93 C46.3746448,93 36.6615594,89.0436608 29.4988778,81.9899244 L5.88153005,58.7464316 C3.08190324,55.9874055 1.08084766,52.5971872 0,48.9206549 C1.6434173,41.554576 5.39564441,34.7416037 10.898382,29.3211587 L17.220845,23.1003359 C32.2442969,8.30961377 52.6204238,0 73.8678395,0 L166.966174,0 C193.838625,0 219.613701,10.509026 238.619432,29.2170445 C242.797388,33.3360621 245.977129,38.2489505 248,43.6043241 C245.031801,53.631822 239.544929,62.8719563 231.902972,70.3942065 L229.364468,72.8929471 C216.288525,85.7705709 198.545435,93 180.042116,93" id="Fill-785" fill="url(#linearGradient-3)" mask="url(#mask-2)"></path>
                    </g>
                    <path d="M247.078532,37.5334018 C228.111062,18.622816 202.387873,8 175.56952,8 L82.6586026,8 C61.4539603,8 41.1188527,16.3995889 26.1256446,31.3438849 L19.8159094,37.6386434 C12.2506926,45.1831449 8,55.4113052 8,66.0735868 L8,71.8487153 C8,61.1798561 12.2506926,50.9516958 19.8159094,43.4071942 L26.1256446,37.1190134 C41.1188527,22.1681398 61.4539603,13.7685509 82.6586026,13.7685509 L175.56952,13.7685509 C202.387873,13.7685509 228.111062,24.3913669 247.078532,43.3019527 C254.711702,50.9122302 259,61.2324769 259,72 L259,66.2248715 C259,55.463926 254.711702,45.1436793 247.078532,37.5334018" id="Fill-788" fill="#24608B"></path>
                    <g id="Group-792" transform="translate(8.000000, 57.000000)">
                        <mask id="mask-5" fill="white">
                            <use xlink:href="#path-4"></use>
                        </mask>
                        <g id="Clip-791"></g>
                        <path d="M180.619139,91 L57.3272827,91 C47.2207547,91 37.5272227,87.0252874 30.3789604,79.9387931 L6.80915695,56.5873563 C2.44960757,52.2661638 0,46.4086925 0,40.2962644 L0,13.9180316 C0,11.008908 0.31997298,8.13900862 0.939467058,5.34102011 C2.01813886,9.03462644 4.01516609,12.4405891 6.80915695,15.2124282 L30.3789604,38.5638649 C37.5272227,45.6503592 47.2207547,49.6250718 57.3272827,49.6250718 L180.619139,49.6250718 C199.085209,49.6250718 216.792579,42.362069 229.842199,29.4246408 L232.375593,26.914296 C240.002166,19.3571121 245.477992,10.0740661 248.440216,0 C250.115951,4.45847701 251,9.21767241 251,14.0683908 L251,23.7436782 C251,40.4531609 244.297061,56.4762213 232.375593,68.2892241 L229.842199,70.799569 C216.792579,83.7369971 199.085209,91 180.619139,91" id="Fill-790" fill="url(#linearGradient-6)" mask="url(#mask-5)"></path>
                    </g>
                    <path d="M259,71 L259,71 C259,66.2237789 258.115951,61.5376751 256.440216,57.1476713 C256.750293,56.1048845 257.03398,55.0556607 257.291278,54 C258.399638,57.6240061 258.986805,61.4024991 259,65.2517986 C259,65.2582355 259,65.2646725 259,65.2711094 C259,65.2968573 259,65.3226051 259,65.3483529 L259,71 M8,70.85195 L8,65.2003029 C8,63.4816357 8.15767741,61.7822794 8.38462731,60.095797 C8.52845022,60.8746687 8.71383663,61.6471034 8.93946706,62.4066641 C8.31997298,65.1616812 8,67.9875047 8,70.85195" id="Fill-793" fill="#B07656"></path>
                    <path d="M175.59551,0 L82.6264634,0 C71.0210111,0 59.7014041,2.22596033 48.9798938,6.61913131 C38.2590437,11.0123023 28.6624305,17.3507406 20.4567552,25.4647251 L14.1424121,31.7052473 C5.02242782,40.726588 0,52.7180517 0,65.4667336 L0,97.5375345 C0,105.775546 3.24332123,113.517449 9.13318729,119.340196 L32.7177373,142.663821 C41.4172055,151.267386 52.9830487,156 65.2843,156 L188.653295,156 C198.898836,156 208.886919,154.035149 218.346881,150.164198 C227.806843,146.286719 236.269977,140.692443 243.511832,133.531509 L246.046811,131.024856 C252.720937,124.425308 257.94273,116.702988 261.553755,108.079839 C265.164781,99.4566909 267,90.3504896 267,81.0092895 L267,65.6168717 C267,52.7702737 261.936643,40.6874215 252.747343,31.6008034 C242.567816,21.5284961 230.652093,13.6625659 217.350053,8.21190058 C204.041411,2.76123525 189.993401,0 175.59551,0 Z M175.59551,7.83329149 C202.430643,7.83329149 228.169926,18.3755963 247.149263,37.1428571 C254.787209,44.6954557 259.07819,54.9374843 259.07819,65.6168717 L259.07819,81.0092895 C259.07819,97.6942004 252.371057,113.693698 240.44213,125.48933 L237.907151,127.995983 C224.849367,140.914386 207.130918,148.166709 188.653295,148.166709 L65.2843,148.166709 C55.1714488,148.166709 45.471192,144.197841 38.3191174,137.121768 L14.7345674,113.80467 C10.3722905,109.489832 7.92181045,103.640974 7.92181045,97.5375345 L7.92181045,65.4667336 C7.92181045,54.8852624 12.1738422,44.7346221 19.7444524,37.247301 L26.0587955,31.0002511 C41.0613841,16.1692192 61.4085543,7.83329149 82.6264634,7.83329149 L175.59551,7.83329149 L175.59551,7.83329149 Z" id="Fill-794" fill="#00ACEE"></path>
                    <path d="M235.707948,40.3904244 C234.219721,41.2381234 234.206609,43.1600059 233.288759,44.408906 C233.216642,44.4994998 233.006848,44.7712811 233.000292,45.1465982 C232.993736,45.3860247 233.098633,45.6060382 233.20353,45.8195807 C233.819801,47.0814227 234.540968,48.2979679 235.35392,49.4433322 C235.485042,49.6180488 235.622719,49.8057073 235.819401,49.9092431 C236.147205,50.0774887 236.540569,49.9804239 236.88804,49.8704172 C238.586062,49.3462674 240.20541,48.5697492 241.673969,47.5667466 C242.178787,47.2237844 242.69016,46.8225833 242.893398,46.2531367 C243.096636,45.696632 242.972071,45.0818884 242.827837,44.5124417 C242.532814,43.3735484 242.165675,42.254068 241.732974,41.1604716 C241.700194,41.0698778 241.641189,40.8369223 241.431395,40.7010317 C241.247825,40.5845539 241.051143,40.5910249 240.992138,40.5910249 C239.916943,40.6233798 237.451862,39.3938927 235.707948,40.3904244" id="Fill-795" fill="#52DEFF"></path>
                    <path d="M36.7065961,31.3917043 C35.2239161,32.2396655 35.2081847,34.1556696 34.2872451,35.4049561 C34.217765,35.5020509 34.0073581,35.7739163 34.0001479,36.1493496 C33.9955596,36.3823771 34.0984689,36.6089316 34.2026891,36.8225402 C34.8194892,38.0847726 35.541165,39.2952212 36.3578844,40.4409398 C36.4863571,40.6221835 36.6240065,40.8034271 36.8213039,40.9069949 C37.1451075,41.0752926 37.5390468,40.9846707 37.8890694,40.87463 C39.5874001,40.350318 41.2064184,39.5670866 42.6727116,38.5702466 C43.1774258,38.2271783 43.6886948,37.8258532 43.8951688,37.2562303 C44.0970545,36.6995535 43.9705482,36.0846197 43.8237223,35.5085239 C43.5326922,34.3692782 43.1682492,33.2494515 42.7336706,32.1555167 C42.7002415,32.0713679 42.6373161,31.8383403 42.4275647,31.7024076 C42.2486206,31.5794209 42.0513232,31.5923668 41.994297,31.5923668 C40.9193213,31.6182588 38.4494989,30.3948643 36.7065961,31.3917043" id="Fill-796" fill="#52DEFF"></path>
                    <path d="M228.076769,31.2911351 C226.532295,30.49251 224.875135,31.5982987 223.297518,31.5232143 C223.178202,31.5163884 222.826884,31.489085 222.502081,31.7006865 C222.296593,31.8372036 222.16402,32.055631 222.038076,32.2672326 C221.302297,33.5368418 220.672576,34.8678837 220.148913,36.2467066 C220.062741,36.4583082 219.983197,36.6903873 220.003083,36.9156405 C220.042855,37.2978885 220.341144,37.5845744 220.626175,37.8234794 C222.024819,38.9975266 223.589178,39.9531465 225.259596,40.6493838 C225.836288,40.8882888 226.466009,41.0998903 227.069215,40.9497215 C227.652536,40.7995526 228.109912,40.3353944 228.520888,39.8712362 C229.329582,38.9565715 230.085247,37.9872999 230.781255,36.9770732 C230.834284,36.9019888 231,36.7108649 231,36.4446565 C231,36.2194032 230.880684,36.0555827 230.847541,36.0078017 C230.224449,35.0863111 229.899645,32.2262774 228.076769,31.2911351" id="Fill-797" fill="#52DEFF"></path>
                </g>
                <g id="Group-5" transform="translate(58.000000, 52.630000)" fill="#FFF3C9">
                    <path d="M11.8242056,10.8628344 C10.033344,10.8628344 8.66053853,12.0696133 7.70861371,14.4769505 C6.75386419,16.8842877 6.27648943,20.2869065 6.27648943,24.6910273 C6.27648943,29.1449122 6.80470884,32.5786335 7.86397236,34.9797502 C8.92323588,37.3933079 10.346886,38.5938662 12.1377476,38.5938662 C13.0896724,38.5938662 13.8975374,38.3139433 14.5613425,37.7478769 C15.2223229,37.1880311 15.857881,36.5473186 16.4623674,35.8257395 C16.8578258,36.5473186 17.1657184,37.4057489 17.3860452,38.4010304 C17.606372,39.4025325 17.7165354,40.5657678 17.7165354,41.8969568 C17.7165354,43.9994891 17.188316,45.7723343 16.1318772,47.2341541 C15.0726137,48.6959738 13.4625331,49.4237735 11.2988109,49.4237735 C9.74239967,49.4237735 8.27637896,48.9385737 6.90639814,47.9619537 C5.53359262,46.9915542 4.33591867,45.4924114 3.31337629,43.4707458 C2.2908339,41.4490802 1.48296893,38.8862302 0.886956653,35.7884164 C0.296593785,32.6906026 0,28.9893994 0,24.6910273 C0,20.6974601 0.282470272,17.1766517 0.85306022,14.128602 C1.42365017,11.0867728 2.20326812,8.51148182 3.19191407,6.40894957 C4.17773532,4.31263784 5.33586343,2.72640789 6.660649,1.65025973 C7.98543458,0.574111566 9.40343534,0.0329272308 10.9146513,0.0329272308 C13.055776,0.0329272308 14.7138764,0.804270421 15.8861281,2.34073629 C17.0612044,3.87720216 17.6487426,5.84910371 17.6487426,8.25644092 C17.6487426,9.58762998 17.4962086,10.7384243 17.1939654,11.7088238 C16.8917222,12.6854438 16.5442838,13.4505664 16.1488254,14.0166328 C15.544339,13.1457615 14.8974821,12.3993003 14.2139041,11.7896904 C13.5275013,11.1738599 12.7309351,10.8628344 11.8242056,10.8628344" id="Fill-258"></path>
                    <path d="M31.7897882,23.6156537 C32.6622746,23.6156537 33.3533126,23.1165218 33.8583018,22.0950425 C34.363291,21.0735631 34.6168079,19.5761673 34.6168079,17.5912473 C34.6168079,15.6063273 34.3356904,14.1089315 33.7724332,13.0874522 C33.2096871,12.0775806 32.3188002,11.5668409 31.1013059,11.5668409 C30.7557869,11.5668409 30.4802918,11.5900564 30.2743093,11.648095 C30.0667935,11.6945258 29.8372994,11.7757799 29.5837826,11.8802493 L29.5837826,23.6156537 L31.7897882,23.6156537 Z M29.6195611,34.027778 L29.6195611,49.0597747 C29.3660443,49.2106751 28.9689019,49.3731832 28.4296675,49.5240835 C27.890433,49.6865916 27.3552875,49.7678456 26.8262755,49.7678456 C26.299308,49.7678456 25.8341863,49.6749839 25.4309105,49.4892603 C25.0296792,49.3035368 24.6959161,48.9785207 24.4326879,48.5142119 C24.1669041,48.0382954 23.9675662,47.3882631 23.8295631,46.5525073 C23.6915599,45.7167515 23.6220472,44.6256259 23.6220472,43.2675227 L23.6220472,6.40140577 C23.6220472,5.31028014 23.7539169,4.45130891 24.0191896,3.85931521 C24.2829289,3.2557138 24.6442927,2.77979731 25.1032809,2.40835028 C25.8842764,1.78153343 26.7925414,1.32883238 27.8265427,1.03863939 C28.861055,0.748446403 29.9630356,0.60915377 31.13504,0.60915377 C34.3055342,0.60915377 36.695544,2.1181573 38.3045583,5.14777207 C39.9120392,8.17738685 40.7165463,12.2749118 40.7165463,17.440347 C40.7165463,20.667293 40.3490491,23.4415379 39.6145658,25.7282586 C38.8775268,28.0265871 38.0050404,29.8025682 36.9950619,31.0562019 C37.8215473,33.6099001 38.6362769,36.0126981 39.440784,38.2529879 C40.2452912,40.5048855 40.8785722,42.5362364 41.3385827,44.3586484 C41.1085775,46.192668 40.6884346,47.5855944 40.0796874,48.5490351 C39.4709403,49.5124758 38.7860359,50 38.0290631,50 C37.5220294,50 37.0865528,49.8607074 36.7195667,49.6053375 C36.3520695,49.3499677 36.0285288,48.9785207 35.7530337,48.5142119 C35.4775385,48.0382954 35.2260662,47.4695172 34.9965721,46.7846617 C34.7650335,46.111414 34.5472952,45.3801277 34.3413128,44.5908027 L31.4463137,34.027778 L29.6195611,34.027778 L29.6195611,34.027778 Z" id="Fill-839"></path>
                    <path d="M50.7874016,8.14913934 C50.7874016,5.82409152 51.1194859,3.99163859 51.7836544,2.63864466 C52.4445989,1.28565073 53.3473523,0.60915377 54.4886905,0.60915377 L67.6269766,0.60915377 C67.8107514,1.20683555 67.9784056,1.98841942 68.1234909,2.96047331 C68.2718004,3.9325272 68.342731,4.96369247 68.342731,6.04083327 C68.342731,8.09659588 68.1234909,9.55467672 67.6850107,10.4216437 C67.2497546,11.2886107 66.6726373,11.7220942 65.9536587,11.7220942 L57.5548279,11.7220942 L57.5548279,19.2620797 L66.5114313,19.2620797 C66.6984302,19.8597615 66.8628603,20.6282095 67.0111698,21.5739917 C67.1562551,22.5197739 67.2304099,23.5312353 67.2304099,24.6149441 C67.2304099,26.6707067 67.017618,28.1287875 66.5920343,28.9957545 C66.1664505,29.8561535 65.5957814,30.289637 64.8800269,30.289637 L57.5548279,30.289637 L57.5548279,38.8082444 L67.7849584,38.8082444 C67.9719573,39.3993583 68.1363874,40.1875101 68.2846969,41.159564 C68.4297823,42.1316178 68.503937,43.1562152 68.503937,44.2399239 C68.503937,46.2956865 68.2846969,47.7669032 67.8462167,48.6601419 C67.4077365,49.5533806 66.8306191,50 66.1148646,50 L54.4886905,50 C53.3473523,50 52.4445989,49.323503 51.7836544,47.9705091 C51.1194859,46.6175152 50.7874016,44.7784943 50.7874016,42.4534465 L50.7874016,8.14913934" id="Fill-255"></path>
                    <g id="Group-4" transform="translate(77.952756, 0.609154)">
                        <path d="M6.64370079,47.0719218 C6.36242641,47.2152549 5.92926387,47.3696136 5.33296219,47.5129466 C4.73666051,47.6673053 4.15160981,47.7444847 3.5665591,47.7444847 C2.98713388,47.7444847 2.47521452,47.6562797 2.030801,47.4798698 C1.58638749,47.3034598 1.21510531,46.9947424 0.911328982,46.5537176 C0.607552655,46.1016671 0.382533153,45.4842323 0.230644989,44.6903876 C0.0787568256,43.8965428 0,42.8601344 0,41.5701367 L0,2.30789883 C0.281274377,2.20866823 0.725687893,2.07636078 1.32761506,1.89995083 C1.93516771,1.73456651 2.52021842,1.64636154 3.07714169,1.64636154 C3.6565669,1.64636154 4.16848627,1.73456651 4.61289978,1.89995083 C5.05168781,2.07636078 5.42859548,2.38507818 5.73237181,2.83712865 C6.03614813,3.27815351 6.26116763,3.89558831 6.4130558,4.68943305 C6.56494396,5.48327779 6.64370079,6.53071183 6.64370079,7.82070953 L6.64370079,47.0719218" id="Fill-843"></path>
                        <path d="M14.394685,17.8457558 C13.7852572,17.9020652 12.8467384,17.9627062 11.5547514,18.0190156 C10.2627644,18.0796565 8.99515458,18.109977 7.72754472,18.109977 C6.47212342,18.109977 5.36296479,18.075325 4.40006884,18.0060211 C3.43717289,17.9367172 2.63272817,17.8154354 1.97454613,17.6421756 C1.31636408,17.4645843 0.828821831,17.2220207 0.49973081,16.9101531 C0.170639789,16.5982855 0,16.1911251 0,15.6843402 L0,0.259889648 C0.609427817,0.220906201 1.57232377,0.168928271 2.8764993,0.099624365 C4.19286338,0.034651953 5.46047324,0 6.66714032,0 C7.92256162,0 9.03172025,0.034651953 9.9946162,0.099624365 C10.9453236,0.168928271 11.7619569,0.290210107 12.4201389,0.467801366 C13.078321,0.641061131 13.5658632,0.883624802 13.8949542,1.19549238 C14.2240453,1.50735996 14.394685,1.9188519 14.394685,2.42563671 L14.394685,17.8457558" id="Fill-843"></path>
                        <path d="M17.7165354,38.9361945 C17.4352611,39.0590514 17.0020985,39.1913589 16.4057968,39.3142158 C15.8094952,39.4465233 15.2244445,39.512677 14.6393937,39.512677 C14.0599685,39.512677 13.5480492,39.4370727 13.1036356,39.2858642 C12.6592221,39.1346557 12.28794,38.8700408 11.9841636,38.4920195 C11.6803873,38.1045476 11.4553678,37.5753178 11.3034796,36.8948794 C11.1515915,36.2144411 11.0728346,35.326091 11.0728346,34.2203787 L11.0728346,0.567031959 C11.354109,0.481977165 11.7985225,0.368570773 12.4004497,0.217362251 C13.0080024,0.0756042612 13.5930531,0 14.1499763,0 C14.7294015,0 15.2413209,0.0756042612 15.6857344,0.217362251 C16.1245225,0.368570773 16.5014301,0.633185687 16.8052065,1.02065753 C17.1089828,1.39867883 17.3340023,1.92790866 17.4858904,2.60834701 C17.6377786,3.28878536 17.7165354,4.18658596 17.7165354,5.29229828 L17.7165354,38.9361945" id="Fill-843" transform="translate(14.394685, 19.756338) scale(1, -1) translate(-14.394685, -19.756338) "></path>
                        <path d="M17.7165354,49.1266251 C16.9664704,49.1829345 15.8113703,49.2435754 14.2212325,49.2998849 C12.6310947,49.3605258 11.0709595,49.3908462 9.51082427,49.3908462 C7.96569036,49.3908462 6.60057205,49.3561943 5.41546934,49.2868904 C4.23036663,49.2175865 3.24028082,49.0963046 2.43021062,48.9230449 C1.62014041,48.7454536 1.02008841,48.5028899 0.615053305,48.1910224 C0.210018202,47.8791548 0,47.4719943 0,46.9652095 L0,31.5407589 C0.750065006,31.5017755 1.93516771,31.4497975 3.54030683,31.3804936 C5.16044724,31.3155212 6.72058245,31.2808693 8.20571116,31.2808693 C9.75084507,31.2808693 11.1159634,31.3155212 12.3010661,31.3804936 C13.4711675,31.4497975 14.4762546,31.5710794 15.2863248,31.7486706 C16.096395,31.9219304 16.696447,32.1644941 17.1014821,32.4763617 C17.5065172,32.7882292 17.7165354,33.1997212 17.7165354,33.706506 L17.7165354,49.1266251" id="Fill-843"></path>
                    </g>
                    <path d="M122.834646,49.2793969 C122.084581,49.432968 120.929481,49.5983524 119.339343,49.7519235 C117.749205,49.9173078 116.18907,50 114.628935,50 C113.083801,50 111.718682,49.9054947 110.53358,49.716484 C109.348477,49.5274734 108.358391,49.1967047 107.548321,48.7241781 C106.738251,48.2398383 106.138199,47.578301 105.733164,46.7277531 C105.328128,45.8772051 105.11811,44.7667675 105.11811,43.3846271 L105.11811,1.31794372 C105.868175,1.21162523 107.053278,1.06986724 108.658417,0.880856584 C110.278557,0.703659097 111.838693,0.60915377 113.323821,0.60915377 C114.868955,0.60915377 116.234074,0.703659097 117.419176,0.880856584 C118.589278,1.06986724 119.594365,1.40063588 120.404435,1.88497568 C121.214505,2.35750231 121.814557,3.01903959 122.219592,3.86958753 C122.624627,4.72013547 122.834646,5.84238622 122.834646,7.22452662 L122.834646,49.2793969" id="Fill-843" transform="translate(113.976378, 25.304577) scale(1, -1) translate(-113.976378, -25.304577) "></path>
                    <path d="M132.9344,11.505637 C132.773744,10.9127645 132.624167,10.1114092 132.48844,9.08854115 C132.352713,8.07218816 132.283465,6.99719943 132.283465,5.87009002 C132.283465,3.77874829 132.4829,2.28027914 132.881772,1.36816749 C133.280643,0.456055829 133.798622,0 134.438478,0 L149.351834,0 C149.509721,0.592872577 149.659297,1.39422782 149.795024,2.41058081 C149.930752,3.43344888 150,4.50192254 150,5.62903194 C150,7.72037367 149.800564,9.2253579 149.401693,10.1374696 C149.002822,11.0495812 148.482073,11.505637 147.844987,11.505637 L144.050169,11.505637 L144.050169,48.667672 C143.798105,48.8305491 143.404773,48.9934262 142.867405,49.1497881 C142.332806,49.3126652 141.803748,49.3908462 141.280229,49.3908462 C140.753941,49.3908462 140.291361,49.2996351 139.892489,49.1106976 C139.493618,48.9282753 139.158455,48.589491 138.884231,48.1073748 C138.610007,47.6252587 138.405032,46.9542051 138.269305,46.0942141 C138.130808,45.2407382 138.064329,44.1136288 138.064329,42.719401 L138.064329,11.505637 L132.9344,11.505637" id="Fill-259"></path>
                </g>
            </g>
        </g>
    </g>
</svg>