<?xml version="1.0" encoding="UTF-8"?>
<svg width="81px" height="56px" viewBox="0 0 81 56" version="1.1" xmlns="http://www.w3.org/2000/svg" xmlns:xlink="http://www.w3.org/1999/xlink">
    <title>Group 5</title>
    <g id="Page-1" stroke="none" stroke-width="1" fill="none" fill-rule="evenodd">
        <g id="23424" transform="translate(-263.000000, -58.000000)">
            <g id="Group-5" transform="translate(263.210500, 58.743667)">
                <path d="M64.1645,55.2133329 C64.0455,55.2133329 63.9235,55.1983329 63.8015,55.1663329 C63.3875,55.0573329 63.0645,54.7513329 62.7815,54.4263329 C62.9615,54.5733329 63.1605,54.6903329 63.3855,54.7493329 C63.5075,54.7823329 63.6295,54.7973329 63.7485,54.7973329 C64.6525,54.7973329 65.4105,53.9273329 65.1785,52.9893329 C65.0805,52.1633329 65.1195,51.1353329 65.8895,50.6383329 C66.4995,50.2443329 67.2095,49.9883329 67.8455,49.6343329 C69.1955,48.8823329 70.5625,47.8133329 70.9195,46.2263329 C71.9505,45.8763329 72.7455,45.0853329 73.3535,44.2043329 C73.9655,43.3193329 74.3235,42.3053329 74.8925,41.4003329 C75.1765,40.9493329 75.5895,40.7563329 76.1045,40.6873329 C76.2095,40.6733329 76.3145,40.6683329 76.4205,40.6683329 C76.6075,40.6683329 76.7955,40.6853329 76.9835,40.7023329 C77.1715,40.7193329 77.3585,40.7363329 77.5425,40.7363329 C77.7015,40.7363329 77.8585,40.7243329 78.0115,40.6873329 C79.0565,40.4363329 79.4455,39.1383329 78.7935,38.3433329 C78.8765,38.4213329 78.9575,38.5023329 79.0385,38.5843329 C79.9195,39.3483329 79.5565,40.8323329 78.4275,41.1043329 C78.2735,41.1403329 78.1175,41.1533329 77.9585,41.1533329 C77.7745,41.1533329 77.5865,41.1363329 77.3995,41.1193329 C77.2115,41.1013329 77.0235,41.0843329 76.8365,41.0843329 C76.7315,41.0843329 76.6255,41.0903329 76.5215,41.1043329 C76.0065,41.1733329 75.5925,41.3663329 75.3115,41.8163329 C74.7385,42.7213329 74.3805,43.7353329 73.7695,44.6203329 C73.1625,45.5023329 72.3675,46.2933329 71.3355,46.6433329 C70.9795,48.2303329 69.6125,49.2983329 68.2625,50.0513329 C67.6265,50.4053329 66.9165,50.6613329 66.3055,51.0553329 C65.5365,51.5513329 65.4965,52.5783329 65.5945,53.4063329 C65.8265,54.3443329 65.0685,55.2133329 64.1645,55.2133329 M59.0895,45.8083329 C58.4785,45.7813329 57.8685,45.7313329 57.2645,45.6573329 C49.2805,44.9733329 44.1845,41.8363329 40.9825,38.5533329 C44.2045,41.6813329 49.2025,44.5863329 56.8475,45.2403329 C57.6035,45.3333329 58.3685,45.3883329 59.1335,45.4093329 C59.1165,45.5423329 59.1025,45.6753329 59.0895,45.8083329 M32.5295,39.1983329 C31.2805,39.1983329 30.0135,38.9283329 28.8235,38.6363329 L28.7785,38.6243329 C27.8795,38.4063329 26.8625,38.1113329 26.2705,37.3433329 C26.8595,37.8113329 27.6475,38.0333329 28.3615,38.2083329 L28.4075,38.2193329 C29.5965,38.5113329 30.8635,38.7813329 32.1115,38.7813329 C32.8245,38.7813329 33.5305,38.6933329 34.2125,38.4723329 C35.8235,37.9513329 37.0715,36.7513329 37.9815,35.3603329 C38.1055,35.5163329 38.2335,35.6723329 38.3655,35.8293329 C37.4565,37.2003329 36.2195,38.3743329 34.6305,38.8893329 C33.9485,39.1103329 33.2425,39.1983329 32.5295,39.1983329 M67.7575,34.9183329 C67.5385,33.5343329 67.3135,32.1513329 67.1415,30.7613329 C68.4985,31.8063329 70.1225,32.5663329 71.8465,32.5663329 C72.0435,32.5663329 72.2425,32.5563329 72.4425,32.5353329 C72.5905,32.5853329 72.7385,32.6083329 72.8835,32.6083329 C73.1205,32.6083329 73.3525,32.5473329 73.5735,32.4393329 L73.5755,32.4413329 C73.9665,32.2353329 74.3615,32.0343329 74.7545,31.8323329 L74.7555,31.8293329 L74.8105,31.8033329 C75.7835,31.2993329 76.9085,30.6813329 77.9195,29.8973329 L77.9755,29.8523329 C78.7335,29.2653329 79.4845,28.5063329 79.4495,27.4703329 C79.4285,26.8973329 79.1565,26.4173329 78.7905,26.0033329 C79.3475,26.5053329 79.8375,27.1103329 79.8655,27.8863329 C79.9015,28.9233329 79.1495,29.6823329 78.3915,30.2683329 L78.3355,30.3133329 C77.3245,31.0983329 76.2015,31.7183329 75.2265,32.2203329 L75.1725,32.2463329 L75.1715,32.2483329 C74.7775,32.4503329 74.3845,32.6523329 73.9925,32.8583329 L73.9905,32.8563329 C73.7695,32.9643329 73.5375,33.0253329 73.3015,33.0253329 C73.1555,33.0253329 73.0075,33.0013329 72.8595,32.9523329 C72.6595,32.9723329 72.4605,32.9823329 72.2615,32.9823329 C70.5385,32.9823329 68.9155,32.2233329 67.5575,31.1783329 C67.7085,32.4013329 67.9015,33.6183329 68.0955,34.8353329 C67.9825,34.8613329 67.8695,34.8893329 67.7575,34.9183329 M66.7135,20.0093329 C66.5965,19.9893329 66.4765,19.9703329 66.3555,19.9513329 C65.7045,15.7193329 63.9525,11.9523329 61.2985,9.10933293 C61.4285,7.54733293 60.7625,6.14533293 59.7395,5.04133293 C60.9925,6.19833293 61.8625,7.76033293 61.7145,9.52633293 C64.2945,12.2883329 66.0205,15.9223329 66.7135,20.0093329" id="Fill-81" fill="#88AB8B"></path>
                <path d="M62.7815,54.4263329 C62.6385,54.3083329 62.5065,54.1723329 62.3835,54.0313329 C62.4425,54.0803329 62.5025,54.1263329 62.5655,54.1673329 C62.6355,54.2523329 62.7075,54.3403329 62.7815,54.4263329 M78.7935,38.3433329 C78.6955,38.2513329 78.5975,38.1633329 78.4975,38.0773329 C78.4695,38.0353329 78.4395,37.9943329 78.4065,37.9553329 C78.4785,38.0243329 78.5505,38.0953329 78.6215,38.1673329 C78.6855,38.2223329 78.7425,38.2813329 78.7935,38.3433329" id="Fill-82" fill="#88AB8B"></path>
                <path d="M63.7485,54.7973329 C63.6295,54.7973329 63.5075,54.7823329 63.3855,54.7493329 C63.1605,54.6903329 62.9615,54.5733329 62.7815,54.4263329 C62.7075,54.3403329 62.6355,54.2523329 62.5655,54.1673329 C62.6995,54.2563329 62.8455,54.3253329 63.0035,54.3663329 C63.1255,54.3983329 63.2475,54.4143329 63.3675,54.4143329 C64.2705,54.4143329 65.0265,53.5443329 64.7965,52.6083329 C64.6985,51.7803329 64.7375,50.7523329 65.5075,50.2573329 C66.1175,49.8603329 66.8285,49.6053329 67.4645,49.2523329 C68.8135,48.4993329 70.1815,47.4313329 70.5375,45.8453329 C71.5685,45.4943329 72.3635,44.7033329 72.9705,43.8233329 C73.5825,42.9353329 73.9415,41.9213329 74.5115,41.0163329 C74.7945,40.5663329 75.2085,40.3733329 75.7235,40.3043329 C75.8245,40.2913329 75.9255,40.2863329 76.0285,40.2863329 C76.2165,40.2863329 76.4055,40.3033329 76.5955,40.3213329 C76.7845,40.3383329 76.9735,40.3563329 77.1585,40.3563329 C77.3175,40.3563329 77.4745,40.3433329 77.6285,40.3063329 C78.6255,40.0653329 79.0255,38.8773329 78.4975,38.0773329 C78.5975,38.1633329 78.6955,38.2513329 78.7935,38.3433329 C79.4455,39.1383329 79.0565,40.4363329 78.0115,40.6873329 C77.8585,40.7243329 77.7015,40.7363329 77.5425,40.7363329 C77.3585,40.7363329 77.1715,40.7193329 76.9835,40.7023329 C76.7955,40.6853329 76.6075,40.6683329 76.4205,40.6683329 C76.3145,40.6683329 76.2095,40.6733329 76.1045,40.6873329 C75.5895,40.7563329 75.1765,40.9493329 74.8925,41.4003329 C74.3235,42.3053329 73.9655,43.3193329 73.3535,44.2043329 C72.7455,45.0853329 71.9505,45.8763329 70.9195,46.2263329 C70.5625,47.8133329 69.1955,48.8823329 67.8455,49.6343329 C67.2095,49.9883329 66.4995,50.2443329 65.8895,50.6383329 C65.1195,51.1353329 65.0805,52.1633329 65.1785,52.9893329 C65.4105,53.9273329 64.6525,54.7973329 63.7485,54.7973329" id="Fill-83" fill="#6D876E"></path>
                <path d="M40.9825,38.5533329 C40.8445,38.4193329 40.7105,38.2853329 40.5785,38.1503329 C40.6495,38.2183329 40.7205,38.2873329 40.7935,38.3563329 C40.8555,38.4213329 40.9195,38.4873329 40.9825,38.5533329" id="Fill-84" fill="#88AB8B"></path>
                <path d="M59.1335,45.4093329 C58.3685,45.3883329 57.6035,45.3333329 56.8475,45.2403329 C49.2025,44.5863329 44.2045,41.6813329 40.9825,38.5533329 C40.9195,38.4873329 40.8555,38.4213329 40.7935,38.3563329 C44.0205,41.4123329 48.9725,44.2173329 56.4665,44.8583329 C57.3655,44.9683329 58.2765,45.0253329 59.1865,45.0343329 C59.1665,45.1593329 59.1485,45.2843329 59.1335,45.4093329" id="Fill-85" fill="#6D876E"></path>
                <path d="M26.2705,37.3433329 C26.1255,37.2293329 25.9925,37.0993329 25.8755,36.9513329 C25.9565,37.0163329 26.0405,37.0763329 26.1285,37.1323329 C26.1575,37.1833329 26.1895,37.2333329 26.2255,37.2833329 C26.2395,37.3033329 26.2545,37.3243329 26.2705,37.3433329" id="Fill-86" fill="#88AB8B"></path>
                <path d="M32.1115,38.7813329 C30.8635,38.7813329 29.5965,38.5113329 28.4075,38.2193329 L28.3615,38.2083329 C27.6475,38.0333329 26.8595,37.8113329 26.2705,37.3433329 C26.2545,37.3243329 26.2395,37.3033329 26.2255,37.2833329 C26.1895,37.2333329 26.1575,37.1833329 26.1285,37.1323329 C26.6825,37.4873329 27.3595,37.6743329 27.9805,37.8273329 L28.0265,37.8383329 C29.2145,38.1313329 30.4815,38.4013329 31.7305,38.4013329 C32.4425,38.4013329 33.1485,38.3133329 33.8315,38.0923329 C35.4655,37.5613329 36.7265,36.3353329 37.6385,34.9183329 C37.7495,35.0653329 37.8645,35.2123329 37.9815,35.3603329 C37.0715,36.7513329 35.8235,37.9513329 34.2125,38.4723329 C33.5305,38.6933329 32.8245,38.7813329 32.1115,38.7813329" id="Fill-87" fill="#6D876E"></path>
                <path d="M78.7905,26.0033329 C78.7155,25.9343329 78.6375,25.8683329 78.5605,25.8033329 C78.5075,25.7353329 78.4525,25.6693329 78.3945,25.6053329 C78.5335,25.7303329 78.6675,25.8633329 78.7905,26.0033329" id="Fill-88" fill="#88AB8B"></path>
                <path d="M67.4485,35.0003329 C67.2075,33.4613329 66.9515,31.9263329 66.7595,30.3793329 C68.1175,31.4263329 69.7425,32.1843329 71.4665,32.1843329 C71.6635,32.1843329 71.8605,32.1753329 72.0605,32.1543329 C72.2085,32.2033329 72.3555,32.2263329 72.5015,32.2263329 C72.7385,32.2263329 72.9705,32.1653329 73.1925,32.0563329 L73.1925,32.0613329 C73.5855,31.8523329 73.9795,31.6533329 74.3735,31.4493329 L74.3745,31.4493329 L74.4275,31.4223329 C75.4015,30.9183329 76.5265,30.3003329 77.5365,29.5143329 L77.5925,29.4723329 C78.3525,28.8853329 79.1025,28.1233329 79.0665,27.0863329 C79.0495,26.5973329 78.8475,26.1743329 78.5605,25.8033329 C78.6375,25.8683329 78.7155,25.9343329 78.7905,26.0033329 C79.1565,26.4173329 79.4285,26.8973329 79.4495,27.4703329 C79.4845,28.5063329 78.7335,29.2653329 77.9755,29.8523329 L77.9195,29.8973329 C76.9085,30.6813329 75.7835,31.2993329 74.8105,31.8033329 L74.7555,31.8293329 L74.7545,31.8323329 C74.3615,32.0343329 73.9665,32.2353329 73.5755,32.4413329 L73.5735,32.4393329 C73.3525,32.5473329 73.1205,32.6083329 72.8835,32.6083329 C72.7385,32.6083329 72.5905,32.5853329 72.4425,32.5353329 C72.2425,32.5563329 72.0435,32.5663329 71.8465,32.5663329 C70.1225,32.5663329 68.4985,31.8063329 67.1415,30.7613329 C67.3135,32.1513329 67.5385,33.5343329 67.7575,34.9183329 C67.6545,34.9443329 67.5515,34.9723329 67.4485,35.0003329" id="Fill-89" fill="#6D876E"></path>
                <path d="M66.3555,19.9513329 C66.2455,19.9353329 66.1345,19.9193329 66.0225,19.9043329 C65.4135,15.5333329 63.6415,11.6443329 60.9165,8.72633293 C61.0385,7.26033293 60.4585,5.93433293 59.5405,4.86333293 C59.6075,4.92133293 59.6745,4.98133293 59.7395,5.04133293 C60.7625,6.14533293 61.4285,7.54733293 61.2985,9.10933293 C63.9525,11.9523329 65.7045,15.7193329 66.3555,19.9513329" id="Fill-91" fill="#6D876E"></path>
                <path d="M62.3835,54.0313329 C62.2455,53.9163329 62.1195,53.7843329 62.0005,53.6483329 C62.0545,53.6933329 62.1105,53.7363329 62.1685,53.7753329 C62.2375,53.8603329 62.3095,53.9463329 62.3835,54.0313329 M40.5785,38.1503329 C40.4355,38.0103329 40.2955,37.8703329 40.1585,37.7303329 C40.2295,37.7993329 40.3015,37.8683329 40.3735,37.9373329 C40.4405,38.0083329 40.5095,38.0793329 40.5785,38.1503329 M78.4065,37.9553329 C78.3085,37.8613329 78.2085,37.7713329 78.1075,37.6843329 C78.0815,37.6443329 78.0525,37.6063329 78.0215,37.5693329 C78.0955,37.6393329 78.1675,37.7113329 78.2395,37.7853329 C78.3015,37.8383329 78.3565,37.8953329 78.4065,37.9553329 M25.8755,36.9513329 C25.7365,36.8403329 25.6085,36.7143329 25.4955,36.5723329 C25.5695,36.6313329 25.6465,36.6863329 25.7265,36.7383329 C25.7525,36.7813329 25.7805,36.8243329 25.8115,36.8663329 C25.8315,36.8953329 25.8535,36.9243329 25.8755,36.9513329 M78.3945,25.6053329 C78.3195,25.5363329 78.2435,25.4703329 78.1665,25.4053329 C78.1185,25.3443329 78.0675,25.2833329 78.0155,25.2253329 C78.1475,25.3453329 78.2765,25.4713329 78.3945,25.6053329 M59.3535,4.65333293 C59.2855,4.59033293 59.2165,4.52833293 59.1465,4.46733293 C59.0875,4.39833293 59.0275,4.33133293 58.9655,4.26533293 C59.0995,4.39033293 59.2285,4.51933293 59.3535,4.65333293" id="Fill-92" fill="#88AB8B"></path>
                <path d="M62.5655,54.1673329 C62.5025,54.1263329 62.4425,54.0803329 62.3835,54.0313329 C62.3095,53.9463329 62.2375,53.8603329 62.1685,53.7753329 C62.2215,53.8113329 62.2755,53.8443329 62.3315,53.8733329 C62.3835,53.9413329 62.4365,54.0093329 62.4905,54.0763329 C62.5155,54.1063329 62.5405,54.1363329 62.5655,54.1673329 M40.7935,38.3563329 C40.7205,38.2873329 40.6495,38.2183329 40.5785,38.1503329 C40.5095,38.0793329 40.4405,38.0083329 40.3735,37.9373329 C40.4475,38.0073329 40.5215,38.0773329 40.5975,38.1473329 C40.6615,38.2173329 40.7265,38.2863329 40.7935,38.3563329 M78.4975,38.0773329 C78.3975,37.9923329 78.2965,37.9093329 78.1945,37.8303329 C78.1685,37.7803329 78.1395,37.7313329 78.1075,37.6843329 C78.2085,37.7713329 78.3085,37.8613329 78.4065,37.9553329 C78.4395,37.9943329 78.4695,38.0353329 78.4975,38.0773329 M26.1285,37.1323329 C26.0405,37.0763329 25.9565,37.0163329 25.8755,36.9513329 C25.8535,36.9243329 25.8315,36.8953329 25.8115,36.8663329 C25.7805,36.8243329 25.7525,36.7813329 25.7265,36.7383329 C25.8205,36.7993329 25.9185,36.8553329 26.0185,36.9063329 C26.0495,36.9833329 26.0855,37.0583329 26.1285,37.1323329 M78.5605,25.8033329 C78.4815,25.7373329 78.4025,25.6733329 78.3235,25.6103329 L78.3035,25.5953329 C78.2605,25.5303329 78.2145,25.4673329 78.1665,25.4053329 C78.2435,25.4703329 78.3195,25.5363329 78.3945,25.6053329 C78.4525,25.6693329 78.5075,25.7353329 78.5605,25.8033329 M59.5405,4.86333293 C59.4705,4.80233293 59.3985,4.74333293 59.3265,4.68533293 C59.2685,4.61133293 59.2085,4.53833293 59.1465,4.46733293 C59.2165,4.52833293 59.2855,4.59033293 59.3535,4.65333293 C59.4165,4.72233293 59.4795,4.79233293 59.5405,4.86333293" id="Fill-93" fill="#6D876E"></path>
                <path d="M63.3675,54.4143329 C63.2475,54.4143329 63.1255,54.3983329 63.0035,54.3663329 C62.8455,54.3253329 62.6995,54.2563329 62.5655,54.1673329 C62.5405,54.1363329 62.5155,54.1063329 62.4905,54.0763329 C62.4365,54.0093329 62.3835,53.9413329 62.3315,53.8733329 C62.4235,53.9213329 62.5195,53.9593329 62.6215,53.9863329 C62.7435,54.0183329 62.8645,54.0333329 62.9835,54.0333329 C63.8885,54.0333329 64.6465,53.1653329 64.4155,52.2263329 C64.3165,51.3993329 64.3555,50.3713329 65.1245,49.8743329 C65.7365,49.4793329 66.4465,49.2243329 67.0825,48.8683329 C68.4335,48.1183329 69.7995,47.0503329 70.1545,45.4623329 C71.1865,45.1133329 71.9815,44.3223329 72.5885,43.4403329 C73.1995,42.5553329 73.5595,41.5403329 74.1305,40.6363329 C74.4125,40.1863329 74.8265,39.9913329 75.3435,39.9213329 C75.4435,39.9083329 75.5455,39.9033329 75.6475,39.9033329 C75.8355,39.9033329 76.0255,39.9203329 76.2145,39.9383329 C76.4035,39.9553329 76.5925,39.9733329 76.7785,39.9733329 C76.9375,39.9733329 77.0935,39.9603329 77.2465,39.9243329 C78.1885,39.6973329 78.5985,38.6223329 78.1945,37.8303329 C78.2965,37.9093329 78.3975,37.9923329 78.4975,38.0773329 C79.0255,38.8773329 78.6255,40.0653329 77.6285,40.3063329 C77.4745,40.3433329 77.3175,40.3563329 77.1585,40.3563329 C76.9735,40.3563329 76.7845,40.3383329 76.5955,40.3213329 C76.4055,40.3033329 76.2165,40.2863329 76.0285,40.2863329 C75.9255,40.2863329 75.8245,40.2913329 75.7235,40.3043329 C75.2085,40.3733329 74.7945,40.5663329 74.5115,41.0163329 C73.9415,41.9213329 73.5825,42.9353329 72.9705,43.8233329 C72.3635,44.7033329 71.5685,45.4943329 70.5375,45.8453329 C70.1815,47.4313329 68.8135,48.4993329 67.4645,49.2523329 C66.8285,49.6053329 66.1175,49.8603329 65.5075,50.2573329 C64.7375,50.7523329 64.6985,51.7803329 64.7965,52.6083329 C65.0265,53.5443329 64.2705,54.4143329 63.3675,54.4143329 M59.1865,45.0343329 C58.2765,45.0253329 57.3655,44.9683329 56.4665,44.8583329 C48.9725,44.2173329 44.0205,41.4123329 40.7935,38.3563329 C40.7265,38.2863329 40.6615,38.2173329 40.5975,38.1473329 C43.8265,41.1353329 48.7325,43.8463329 56.0845,44.4743329 C57.0725,44.5973329 58.0745,44.6553329 59.0715,44.6553329 C59.1315,44.6553329 59.1915,44.6543329 59.2505,44.6543329 C59.2275,44.7803329 59.2055,44.9073329 59.1865,45.0343329 M31.7305,38.4013329 C30.4815,38.4013329 29.2145,38.1313329 28.0265,37.8383329 L27.9805,37.8273329 C27.3595,37.6743329 26.6825,37.4873329 26.1285,37.1323329 C26.0855,37.0583329 26.0495,36.9833329 26.0185,36.9063329 C26.5145,37.1633329 27.0765,37.3163329 27.5995,37.4443329 L27.6445,37.4563329 C28.8325,37.7483329 30.1005,38.0173329 31.3485,38.0173329 C32.0615,38.0173329 32.7675,37.9303329 33.4495,37.7083329 C35.1105,37.1713329 36.3865,35.9133329 37.3045,34.4633329 C37.4125,34.6143329 37.5235,34.7653329 37.6385,34.9183329 C36.7265,36.3353329 35.4655,37.5613329 33.8315,38.0923329 C33.1485,38.3133329 32.4425,38.4013329 31.7305,38.4013329 M67.1395,35.0903329 C66.8795,33.3933329 66.5885,31.7013329 66.3775,29.9973329 C67.7345,31.0443329 69.3575,31.8023329 71.0795,31.8023329 C71.2785,31.8023329 71.4785,31.7923329 71.6795,31.7713329 C71.8275,31.8203329 71.9755,31.8433329 72.1215,31.8433329 C72.3575,31.8433329 72.5885,31.7833329 72.8105,31.6753329 L72.8115,31.6773329 C73.2035,31.4723329 73.5985,31.2693329 73.9915,31.0683329 L73.9925,31.0683329 L74.0475,31.0393329 C75.0215,30.5383329 76.1445,29.9173329 77.1545,29.1333329 L77.2105,29.0883329 C77.9705,28.5023329 78.7215,27.7433329 78.6865,26.7033329 C78.6705,26.2893329 78.5235,25.9223329 78.3035,25.5953329 L78.3235,25.6103329 C78.4025,25.6733329 78.4815,25.7373329 78.5605,25.8033329 C78.8475,26.1743329 79.0495,26.5973329 79.0665,27.0863329 C79.1025,28.1233329 78.3525,28.8853329 77.5925,29.4723329 L77.5365,29.5143329 C76.5265,30.3003329 75.4015,30.9183329 74.4275,31.4223329 L74.3745,31.4493329 L74.3735,31.4493329 C73.9795,31.6533329 73.5855,31.8523329 73.1925,32.0613329 L73.1925,32.0563329 C72.9705,32.1653329 72.7385,32.2263329 72.5015,32.2263329 C72.3555,32.2263329 72.2085,32.2033329 72.0605,32.1543329 C71.8605,32.1753329 71.6635,32.1843329 71.4665,32.1843329 C69.7425,32.1843329 68.1175,31.4263329 66.7595,30.3793329 C66.9515,31.9263329 67.2075,33.4613329 67.4485,35.0003329 C67.3455,35.0293329 67.2425,35.0593329 67.1395,35.0903329 M66.0225,19.9043329 C65.9115,19.8893329 65.7995,19.8753329 65.6855,19.8633329 C65.1235,15.3563329 63.3325,11.3393329 60.5335,8.34533293 C60.6485,6.97033293 60.1465,5.71833293 59.3265,4.68533293 C59.3985,4.74333293 59.4705,4.80233293 59.5405,4.86333293 C60.4585,5.93433293 61.0385,7.26033293 60.9165,8.72633293 C63.6415,11.6443329 65.4135,15.5333329 66.0225,19.9043329" id="Fill-94" fill="#556B58"></path>
                <path d="M62.0005,53.6483329 C61.8635,53.5343329 61.7385,53.4033329 61.6205,53.2673329 C61.6745,53.3123329 61.7305,53.3553329 61.7885,53.3943329 C61.8565,53.4783329 61.9275,53.5643329 62.0005,53.6483329 M78.0215,37.5693329 C77.9225,37.4753329 77.8225,37.3843329 77.7205,37.2963329 C77.6935,37.2563329 77.6635,37.2173329 77.6305,37.1793329 C77.7075,37.2523329 77.7835,37.3273329 77.8585,37.4043329 C77.9185,37.4563329 77.9735,37.5113329 78.0215,37.5693329" id="Fill-95" fill="#88AB8B"></path>
                <path d="M62.1685,53.7753329 C62.1105,53.7363329 62.0545,53.6933329 62.0005,53.6483329 C61.9275,53.5643329 61.8565,53.4783329 61.7885,53.3943329 C61.8355,53.4263329 61.8845,53.4563329 61.9355,53.4833329 C61.9805,53.5423329 62.0265,53.6003329 62.0735,53.6593329 C62.1045,53.6973329 62.1365,53.7363329 62.1685,53.7753329 M78.1075,37.6843329 C78.0075,37.5973329 77.9065,37.5143329 77.8035,37.4333329 C77.7795,37.3873329 77.7515,37.3413329 77.7205,37.2963329 C77.8225,37.3843329 77.9225,37.4753329 78.0215,37.5693329 C78.0525,37.6063329 78.0815,37.6443329 78.1075,37.6843329" id="Fill-96" fill="#6D876E"></path>
                <path d="M62.3315,53.8733329 C62.2755,53.8443329 62.2215,53.8113329 62.1685,53.7753329 C62.1365,53.7363329 62.1045,53.6973329 62.0735,53.6593329 C62.0265,53.6003329 61.9805,53.5423329 61.9355,53.4833329 C61.9905,53.5123329 62.0465,53.5383329 62.1045,53.5603329 C62.1785,53.6663329 62.2535,53.7703329 62.3315,53.8733329 M78.1945,37.8303329 C78.0895,37.7493329 77.9835,37.6713329 77.8765,37.5963329 C77.8565,37.5413329 77.8315,37.4863329 77.8035,37.4333329 C77.9065,37.5143329 78.0075,37.5973329 78.1075,37.6843329 C78.1395,37.7313329 78.1685,37.7803329 78.1945,37.8303329" id="Fill-97" fill="#556B58"></path>
                <path d="M62.9835,54.0333329 C62.8645,54.0333329 62.7435,54.0183329 62.6215,53.9863329 C62.5195,53.9593329 62.4235,53.9213329 62.3315,53.8733329 C62.2535,53.7703329 62.1785,53.6663329 62.1045,53.5603329 C62.1485,53.5763329 62.1935,53.5913329 62.2395,53.6023329 C62.3625,53.6353329 62.4845,53.6503329 62.6035,53.6503329 C63.5075,53.6503329 64.2635,52.7803329 64.0315,51.8453329 C63.9355,51.0173329 63.9745,49.9883329 64.7425,49.4943329 C65.3545,49.0973329 66.0635,48.8423329 66.6995,48.4873329 C68.0505,47.7353329 69.4185,46.6673329 69.7725,45.0823329 C70.8055,44.7293329 71.6005,43.9393329 72.2085,43.0593329 C72.8175,42.1723329 73.1785,41.1583329 73.7475,40.2553329 C74.0305,39.8053329 74.4445,39.6103329 74.9605,39.5403329 C75.0615,39.5273329 75.1635,39.5223329 75.2665,39.5223329 C75.4535,39.5223329 75.6435,39.5393329 75.8335,39.5573329 C76.0225,39.5753329 76.2115,39.5923329 76.3975,39.5923329 C76.5555,39.5923329 76.7125,39.5793329 76.8645,39.5433329 C77.7505,39.3283329 78.1655,38.3673329 77.8765,37.5963329 C77.9835,37.6713329 78.0895,37.7493329 78.1945,37.8303329 C78.5985,38.6223329 78.1885,39.6973329 77.2465,39.9243329 C77.0935,39.9603329 76.9375,39.9733329 76.7785,39.9733329 C76.5925,39.9733329 76.4035,39.9553329 76.2145,39.9383329 C76.0255,39.9203329 75.8355,39.9033329 75.6475,39.9033329 C75.5455,39.9033329 75.4435,39.9083329 75.3435,39.9213329 C74.8265,39.9913329 74.4125,40.1863329 74.1305,40.6363329 C73.5595,41.5403329 73.1995,42.5553329 72.5885,43.4403329 C71.9815,44.3223329 71.1865,45.1133329 70.1545,45.4623329 C69.7995,47.0503329 68.4335,48.1183329 67.0825,48.8683329 C66.4465,49.2243329 65.7365,49.4793329 65.1245,49.8743329 C64.3555,50.3713329 64.3165,51.3993329 64.4155,52.2263329 C64.6465,53.1653329 63.8885,54.0333329 62.9835,54.0333329" id="Fill-98" fill="#425245"></path>
                <path d="M40.1585,37.7303329 C40.0435,37.6173329 39.9305,37.5043329 39.8195,37.3913329 C39.8765,37.4463329 39.9345,37.5013329 39.9915,37.5563329 C40.0475,37.6143329 40.1025,37.6723329 40.1585,37.7303329" id="Fill-99" fill="#88AB8B"></path>
                <path d="M40.3735,37.9373329 C40.3015,37.8683329 40.2295,37.7993329 40.1585,37.7303329 C40.1025,37.6723329 40.0475,37.6143329 39.9915,37.5563329 C40.0595,37.6203329 40.1275,37.6843329 40.1955,37.7483329 C40.2545,37.8113329 40.3135,37.8743329 40.3735,37.9373329" id="Fill-100" fill="#6D876E"></path>
                <path d="M40.5975,38.1473329 C40.5215,38.0773329 40.4475,38.0073329 40.3735,37.9373329 C40.3135,37.8743329 40.2545,37.8113329 40.1955,37.7483329 C40.2695,37.8163329 40.3425,37.8833329 40.4185,37.9513329 C40.4775,38.0163329 40.5365,38.0823329 40.5975,38.1473329" id="Fill-101" fill="#556B58"></path>
                <path d="M59.0715,44.6553329 C58.0745,44.6553329 57.0725,44.5973329 56.0845,44.4743329 C48.7325,43.8463329 43.8265,41.1353329 40.5975,38.1473329 C40.5365,38.0823329 40.4775,38.0163329 40.4185,37.9513329 C43.6495,40.8663329 48.5035,43.4793329 55.7025,44.0933329 C56.6885,44.2153329 57.6865,44.2713329 58.6815,44.2713329 C58.8975,44.2713329 59.1135,44.2693329 59.3295,44.2643329 C59.3015,44.3933329 59.2755,44.5233329 59.2505,44.6543329 C59.1915,44.6543329 59.1315,44.6553329 59.0715,44.6553329" id="Fill-102" fill="#425245"></path>
                <path d="M25.4955,36.5723329 C25.3515,36.4573329 25.2195,36.3283329 25.1035,36.1803329 C25.1805,36.2433329 25.2615,36.3023329 25.3455,36.3563329 C25.3705,36.3993329 25.3985,36.4423329 25.4295,36.4843329 C25.4505,36.5143329 25.4725,36.5433329 25.4955,36.5723329" id="Fill-103" fill="#88AB8B"></path>
                <path d="M25.7265,36.7383329 C25.6465,36.6863329 25.5695,36.6313329 25.4955,36.5723329 C25.4725,36.5433329 25.4505,36.5143329 25.4295,36.4843329 C25.3985,36.4423329 25.3705,36.3993329 25.3455,36.3563329 C25.4315,36.4123329 25.5215,36.4643329 25.6125,36.5133329 C25.6445,36.5893329 25.6825,36.6643329 25.7265,36.7383329" id="Fill-104" fill="#6D876E"></path>
                <path d="M26.0185,36.9063329 C25.9185,36.8553329 25.8205,36.7993329 25.7265,36.7383329 C25.6825,36.6643329 25.6445,36.5893329 25.6125,36.5133329 C25.7195,36.5693329 25.8295,36.6213329 25.9415,36.6683329 C25.9615,36.7483329 25.9865,36.8283329 26.0185,36.9063329" id="Fill-105" fill="#556B58"></path>
                <path d="M31.3485,38.0173329 C30.1005,38.0173329 28.8325,37.7483329 27.6445,37.4563329 L27.5995,37.4443329 C27.0765,37.3163329 26.5145,37.1633329 26.0185,36.9063329 C25.9865,36.8283329 25.9615,36.7483329 25.9415,36.6683329 C26.3555,36.8423329 26.7985,36.9613329 27.2165,37.0633329 L27.2625,37.0753329 C28.4515,37.3663329 29.7205,37.6363329 30.9705,37.6363329 C31.6815,37.6363329 32.3865,37.5493329 33.0675,37.3283329 C34.7635,36.7773329 36.0585,35.4783329 36.9775,33.9933329 C37.0825,34.1483329 37.1915,34.3053329 37.3045,34.4633329 C36.3865,35.9133329 35.1105,37.1713329 33.4495,37.7083329 C32.7675,37.9303329 32.0615,38.0173329 31.3485,38.0173329" id="Fill-106" fill="#425245"></path>
                <path d="M78.0155,25.2253329 C77.9385,25.1553329 77.8605,25.0883329 77.7825,25.0223329 C77.7325,24.9593329 77.6795,24.8963329 77.6255,24.8353329 C77.7615,24.9593329 77.8935,25.0883329 78.0155,25.2253329" id="Fill-107" fill="#88AB8B"></path>
                <path d="M78.1665,25.4053329 C78.0805,25.3333329 77.9945,25.2633329 77.9095,25.1953329 C77.8695,25.1363329 77.8265,25.0793329 77.7825,25.0223329 C77.8605,25.0883329 77.9385,25.1553329 78.0155,25.2253329 C78.0675,25.2833329 78.1185,25.3443329 78.1665,25.4053329" id="Fill-108" fill="#6D876E"></path>
                <path d="M78.3035,25.5953329 L78.2035,25.5143329 C78.1405,25.4613329 78.0765,25.4093329 78.0125,25.3583329 C77.9795,25.3023329 77.9455,25.2483329 77.9095,25.1953329 C77.9945,25.2633329 78.0805,25.3333329 78.1665,25.4053329 C78.2145,25.4673329 78.2605,25.5303329 78.3035,25.5953329" id="Fill-109" fill="#556B58"></path>
                <path d="M66.8305,35.1873329 C66.5515,33.3303329 66.2255,31.4803329 65.9965,29.6153329 C67.3555,30.6623329 68.9795,31.4213329 70.7055,31.4213329 C70.9015,31.4213329 71.0995,31.4113329 71.2985,31.3913329 C71.4455,31.4403329 71.5935,31.4623329 71.7395,31.4623329 C71.9755,31.4623329 72.2065,31.4033329 72.4285,31.2953329 L72.4305,31.2973329 C72.8215,31.0893329 73.2165,30.8893329 73.6085,30.6853329 L73.6095,30.6853329 L73.6635,30.6593329 L73.6635,30.6563329 C74.6385,30.1543329 75.7635,29.5363329 76.7735,28.7503329 L76.8285,28.7083329 C77.5875,28.1193329 78.3395,27.3593329 78.3035,26.3233329 C78.2905,25.9673329 78.1805,25.6483329 78.0125,25.3583329 C78.0765,25.4093329 78.1405,25.4613329 78.2035,25.5143329 L78.3035,25.5953329 C78.5235,25.9223329 78.6705,26.2893329 78.6865,26.7033329 C78.7215,27.7433329 77.9705,28.5023329 77.2105,29.0883329 L77.1545,29.1333329 C76.1445,29.9173329 75.0215,30.5383329 74.0475,31.0393329 L73.9925,31.0683329 L73.9915,31.0683329 C73.5985,31.2693329 73.2035,31.4723329 72.8115,31.6773329 L72.8105,31.6753329 C72.5885,31.7833329 72.3575,31.8433329 72.1215,31.8433329 C71.9755,31.8433329 71.8275,31.8203329 71.6795,31.7713329 C71.4785,31.7923329 71.2785,31.8023329 71.0795,31.8023329 C69.3575,31.8023329 67.7345,31.0443329 66.3775,29.9973329 C66.5885,31.7013329 66.8795,33.3933329 67.1395,35.0903329 C67.0365,35.1213329 66.9335,35.1543329 66.8305,35.1873329" id="Fill-110" fill="#425245"></path>
                <path d="M65.6855,19.8633329 C65.5735,19.8513329 65.4595,19.8413329 65.3455,19.8333329 C64.8335,15.1833329 63.0215,11.0343329 60.1515,7.96333293 C60.2595,6.67833293 59.8285,5.50333293 59.1045,4.51233293 C59.1795,4.56833293 59.2535,4.62633293 59.3265,4.68533293 C60.1465,5.71833293 60.6485,6.97033293 60.5335,8.34533293 C63.3325,11.3393329 65.1235,15.3563329 65.6855,19.8633329" id="Fill-114" fill="#425245"></path>
                <path d="M61.6205,53.2673329 C61.3585,53.0483329 61.1365,52.7663329 60.9305,52.5123329 C60.5765,52.0803329 60.2685,51.6123329 60.0115,51.1173329 C59.1595,49.4763329 58.9205,47.6253329 59.0895,45.8083329 C59.2305,45.8143329 59.3705,45.8193329 59.5105,45.8233329 C59.2725,47.7573329 59.4845,49.7483329 60.3935,51.4973329 C60.6505,51.9933329 60.9595,52.4613329 61.3115,52.8933329 C61.4105,53.0153329 61.5125,53.1433329 61.6205,53.2673329" id="Fill-115" fill="#88AB8B"></path>
                <path d="M59.5105,45.8233329 C59.3705,45.8193329 59.2305,45.8143329 59.0895,45.8083329 C59.1025,45.6753329 59.1165,45.5423329 59.1335,45.4093329 C59.2785,45.4133329 59.4225,45.4163329 59.5675,45.4173329 C59.5465,45.5523329 59.5275,45.6883329 59.5105,45.8233329" id="Fill-116" fill="#6D876E"></path>
                <path d="M59.5675,45.4173329 C59.4225,45.4163329 59.2785,45.4133329 59.1335,45.4093329 C59.1485,45.2843329 59.1665,45.1593329 59.1865,45.0343329 C59.2765,45.0353329 59.3665,45.0353329 59.4565,45.0353329 C59.5155,45.0353329 59.5745,45.0353329 59.6335,45.0353329 C59.6095,45.1623329 59.5875,45.2893329 59.5675,45.4173329" id="Fill-117" fill="#556B58"></path>
                <path d="M59.4565,45.0353329 C59.3665,45.0353329 59.2765,45.0353329 59.1865,45.0343329 C59.2055,44.9073329 59.2275,44.7803329 59.2505,44.6543329 C59.4045,44.6533329 59.5585,44.6513329 59.7115,44.6473329 C59.6835,44.7763329 59.6575,44.9053329 59.6335,45.0353329 C59.5745,45.0353329 59.5155,45.0353329 59.4565,45.0353329" id="Fill-118" fill="#425245"></path>
                <path d="M39.8195,37.3913329 C39.2875,36.8733329 38.8045,36.3493329 38.3655,35.8293329 C38.3755,35.8133329 38.3865,35.7973329 38.3965,35.7823329 C38.8235,36.3153329 39.2965,36.8553329 39.8195,37.3913329" id="Fill-119" fill="#88AB8B"></path>
                <path d="M38.3655,35.8293329 C38.2335,35.6723329 38.1055,35.5163329 37.9815,35.3603329 C37.9945,35.3403329 38.0085,35.3193329 38.0215,35.2993329 C38.1425,35.4593329 38.2675,35.6203329 38.3965,35.7823329 C38.3865,35.7973329 38.3755,35.8133329 38.3655,35.8293329" id="Fill-120" fill="#6D876E"></path>
                <path d="M37.9815,35.3603329 C37.8645,35.2123329 37.7495,35.0653329 37.6385,34.9183329 C37.6545,34.8933329 37.6705,34.8683329 37.6865,34.8433329 C37.7945,34.9943329 37.9065,35.1463329 38.0215,35.2993329 C38.0085,35.3193329 37.9945,35.3403329 37.9815,35.3603329" id="Fill-121" fill="#556B58"></path>
                <path d="M37.6385,34.9183329 C37.5235,34.7653329 37.4125,34.6143329 37.3045,34.4633329 C37.3235,34.4343329 37.3425,34.4043329 37.3605,34.3743329 C37.4655,34.5293329 37.5735,34.6863329 37.6865,34.8433329 C37.6705,34.8683329 37.6545,34.8933329 37.6385,34.9183329" id="Fill-122" fill="#425245"></path>
                <path d="M77.6305,37.1793329 C75.8945,35.5323329 73.6955,34.8643329 71.4315,34.8643329 C70.3435,34.8643329 69.2415,35.0183329 68.1675,35.2913329 C68.1435,35.1393329 68.1195,34.9873329 68.0955,34.8353329 C69.0715,34.6093329 70.0675,34.4833329 71.0515,34.4833329 C73.4155,34.4833329 75.7085,35.2113329 77.4755,37.0243329 C77.5325,37.0733329 77.5835,37.1243329 77.6305,37.1793329" id="Fill-123" fill="#88AB8B"></path>
                <path d="M67.8305,35.3813329 C67.8065,35.2273329 67.7815,35.0723329 67.7575,34.9183329 C67.8695,34.8893329 67.9825,34.8613329 68.0955,34.8353329 C68.1195,34.9873329 68.1435,35.1393329 68.1675,35.2913329 C68.0545,35.3203329 67.9425,35.3503329 67.8305,35.3813329" id="Fill-124" fill="#6D876E"></path>
                <path d="M67.5215,35.4713329 C67.4975,35.3143329 67.4735,35.1573329 67.4485,35.0003329 C67.5515,34.9723329 67.6545,34.9443329 67.7575,34.9183329 C67.7815,35.0723329 67.8065,35.2273329 67.8305,35.3813329 C67.7275,35.4103329 67.6245,35.4403329 67.5215,35.4713329" id="Fill-125" fill="#556B58"></path>
                <path d="M67.2125,35.5683329 C67.1885,35.4083329 67.1645,35.2493329 67.1395,35.0903329 C67.2425,35.0593329 67.3455,35.0293329 67.4485,35.0003329 C67.4735,35.1573329 67.4975,35.3143329 67.5215,35.4713329 C67.4185,35.5023329 67.3155,35.5343329 67.2125,35.5683329" id="Fill-126" fill="#425245"></path>
                <path d="M25.1035,36.1803329 C24.9395,36.0483329 24.7915,35.8963329 24.6645,35.7203329 C24.1055,34.9473329 24.3145,33.9663329 24.7005,33.1673329 L24.7565,33.0483329 C25.5965,31.2273329 26.9565,29.6913329 28.4295,28.3543329 C29.9965,26.9313329 31.7805,25.6863329 33.6625,24.7193329 C33.0635,18.5383329 34.9515,12.3483329 38.7195,8.16933293 C38.6205,7.38533293 38.7215,6.57933293 38.9965,5.83733293 C39.7135,3.90033293 41.5125,2.57933293 43.3455,1.78833293 C45.2375,0.971332932 47.3065,0.600332932 49.3655,0.600332932 C49.8355,0.600332932 50.3065,0.619332932 50.7735,0.657332932 C53.0165,0.837332932 55.2915,1.42333293 57.1765,2.68833293 C57.6855,3.03033293 58.1645,3.43233293 58.5845,3.88433293 C58.2645,3.58533293 57.9185,3.31233293 57.5575,3.07033293 C55.6745,1.80633293 53.3975,1.21933293 51.1565,1.03833293 C50.6915,1.00133293 50.2235,0.982332932 49.7545,0.982332932 C47.6935,0.982332932 45.6215,1.35133293 43.7275,2.16933293 C41.8935,2.96233293 40.0955,4.28333293 39.3775,6.22033293 C39.1025,6.96233293 39.0025,7.76633293 39.1025,8.54933293 C35.3315,12.7303329 33.4455,18.9183329 34.0435,25.1023329 C32.1625,26.0673329 30.3775,27.3123329 28.8125,28.7353329 C27.3385,30.0713329 25.9765,31.6083329 25.1385,33.4293329 L25.0825,33.5473329 C24.6955,34.3473329 24.4875,35.3283329 25.0445,36.1033329 C25.0635,36.1293329 25.0835,36.1553329 25.1035,36.1803329 M77.6255,24.8353329 C77.4675,24.6923329 77.3035,24.5583329 77.1435,24.4303329 L77.0235,24.3343329 C74.4425,22.1883329 71.0195,21.0313329 67.7465,20.5003329 L67.3645,20.4373329 C67.1725,20.4053329 66.9725,20.3713329 66.7675,20.3393329 C66.7495,20.2293329 66.7325,20.1183329 66.7135,20.0093329 C66.8055,20.0243329 66.8955,20.0393329 66.9845,20.0543329 L67.3645,20.1183329 C70.6385,20.6473329 74.0595,21.8083329 76.6425,23.9513329 L76.7615,24.0493329 C77.0565,24.2853329 77.3635,24.5443329 77.6255,24.8353329" id="Fill-127" fill="#88AB8B"></path>
                <path d="M66.7675,20.3393329 C66.6485,20.3213329 66.5275,20.3033329 66.4045,20.2873329 C66.3885,20.1743329 66.3725,20.0633329 66.3555,19.9513329 C66.4765,19.9703329 66.5965,19.9893329 66.7135,20.0093329 C66.7325,20.1183329 66.7495,20.2293329 66.7675,20.3393329" id="Fill-128" fill="#6D876E"></path>
                <path d="M66.4045,20.2873329 C66.2935,20.2723329 66.1815,20.2583329 66.0675,20.2453329 C66.0535,20.1313329 66.0385,20.0173329 66.0225,19.9043329 C66.1345,19.9193329 66.2455,19.9353329 66.3555,19.9513329 C66.3725,20.0633329 66.3885,20.1743329 66.4045,20.2873329" id="Fill-129" fill="#556B58"></path>
                <path d="M66.0675,20.2453329 C65.9545,20.2333329 65.8415,20.2223329 65.7275,20.2133329 C65.7145,20.0963329 65.7005,19.9793329 65.6855,19.8633329 C65.7995,19.8753329 65.9115,19.8893329 66.0225,19.9043329 C66.0385,20.0173329 66.0535,20.1313329 66.0675,20.2453329" id="Fill-130" fill="#425245"></path>
                <path d="M61.7885,53.3943329 C61.7305,53.3553329 61.6745,53.3123329 61.6205,53.2673329 C61.5125,53.1433329 61.4105,53.0153329 61.3115,52.8933329 C60.9595,52.4613329 60.6505,51.9933329 60.3935,51.4973329 C59.4845,49.7483329 59.2725,47.7573329 59.5105,45.8233329 C59.6555,45.8283329 59.8005,45.8303329 59.9445,45.8323329 C59.6295,47.8833329 59.8055,50.0163329 60.7755,51.8793329 C61.0335,52.3733329 61.3415,52.8423329 61.6925,53.2763329 C61.7245,53.3153329 61.7565,53.3543329 61.7885,53.3943329 M39.9915,37.5563329 C39.9345,37.5013329 39.8765,37.4463329 39.8195,37.3913329 C39.2965,36.8553329 38.8235,36.3153329 38.3965,35.7823329 C38.4085,35.7633329 38.4215,35.7433329 38.4335,35.7243329 C38.8925,36.3283329 39.4095,36.9443329 39.9915,37.5563329 M77.7205,37.2963329 C76.0355,35.8423329 73.9545,35.2463329 71.8155,35.2463329 C70.6225,35.2463329 69.4125,35.4313329 68.2405,35.7563329 C68.2165,35.6013329 68.1925,35.4463329 68.1675,35.2913329 C69.2415,35.0183329 70.3435,34.8643329 71.4315,34.8643329 C73.6955,34.8643329 75.8945,35.5323329 77.6305,37.1793329 C77.6635,37.2173329 77.6935,37.2563329 77.7205,37.2963329 M25.3455,36.3563329 C25.2615,36.3023329 25.1805,36.2433329 25.1035,36.1803329 C25.0835,36.1553329 25.0635,36.1293329 25.0445,36.1033329 C24.4875,35.3283329 24.6955,34.3473329 25.0825,33.5473329 L25.1385,33.4293329 C25.9765,31.6083329 27.3385,30.0713329 28.8125,28.7353329 C30.3775,27.3123329 32.1625,26.0673329 34.0435,25.1023329 C33.4455,18.9183329 35.3315,12.7303329 39.1025,8.54933293 C39.0025,7.76633293 39.1025,6.96233293 39.3775,6.22033293 C40.0955,4.28333293 41.8935,2.96233293 43.7275,2.16933293 C45.6215,1.35133293 47.6935,0.982332932 49.7545,0.982332932 C50.2235,0.982332932 50.6915,1.00133293 51.1565,1.03833293 C53.3975,1.21933293 55.6745,1.80633293 57.5575,3.07033293 C57.9185,3.31233293 58.2645,3.58533293 58.5845,3.88433293 C58.6455,3.94933293 58.7045,4.01533293 58.7625,4.08233293 C58.5005,3.85433293 58.2245,3.64433293 57.9385,3.45233293 C56.0555,2.18733293 53.7795,1.60033293 51.5385,1.42133293 C51.0715,1.38333293 50.6015,1.36433293 50.1315,1.36433293 C48.0705,1.36433293 46.0005,1.73533293 44.1085,2.55233293 C42.2745,3.34333293 40.4765,4.66433293 39.7595,6.60133293 C39.4835,7.34233293 39.3845,8.14833293 39.4815,8.93233293 C35.7145,13.1113329 33.8265,19.2993329 34.4245,25.4853329 C32.5425,26.4503329 30.7605,27.6963329 29.1935,29.1183329 C27.7205,30.4553329 26.3595,31.9883329 25.5195,33.8123329 L25.4625,33.9283329 C25.0985,34.6863329 24.8945,35.6033329 25.3455,36.3563329 M77.7825,25.0223329 C77.6965,24.9503329 77.6105,24.8813329 77.5255,24.8133329 L77.4055,24.7173329 C74.8245,22.5693329 71.4025,21.4113329 68.1305,20.8833329 L67.7465,20.8183329 C67.4515,20.7683329 67.1395,20.7153329 66.8165,20.6723329 C66.8005,20.5613329 66.7845,20.4503329 66.7675,20.3393329 C66.9725,20.3713329 67.1725,20.4053329 67.3645,20.4373329 L67.7465,20.5003329 C71.0195,21.0313329 74.4425,22.1883329 77.0235,24.3343329 L77.1435,24.4303329 C77.3035,24.5583329 77.4675,24.6923329 77.6255,24.8353329 C77.6795,24.8963329 77.7325,24.9593329 77.7825,25.0223329" id="Fill-131" fill="#6D876E"></path>
                <path d="M59.9445,45.8323329 C59.8005,45.8303329 59.6555,45.8283329 59.5105,45.8233329 C59.5275,45.6883329 59.5465,45.5523329 59.5675,45.4173329 C59.6555,45.4183329 59.7435,45.4183329 59.8315,45.4183329 C59.8925,45.4183329 59.9545,45.4183329 60.0155,45.4183329 C59.9895,45.5553329 59.9665,45.6943329 59.9445,45.8323329 M67.9035,35.8533329 C67.8795,35.6963329 67.8555,35.5393329 67.8305,35.3813329 C67.9425,35.3503329 68.0545,35.3203329 68.1675,35.2913329 C68.1925,35.4463329 68.2165,35.6013329 68.2405,35.7563329 C68.1285,35.7873329 68.0155,35.8203329 67.9035,35.8533329 M38.3965,35.7823329 C38.2675,35.6203329 38.1425,35.4593329 38.0215,35.2993329 C38.0365,35.2753329 38.0525,35.2513329 38.0675,35.2273329 C38.1855,35.3913329 38.3075,35.5573329 38.4335,35.7243329 C38.4215,35.7433329 38.4085,35.7633329 38.3965,35.7823329 M66.8165,20.6723329 C66.6955,20.6553329 66.5735,20.6403329 66.4495,20.6273329 C66.4355,20.5133329 66.4205,20.4003329 66.4045,20.2873329 C66.5275,20.3033329 66.6485,20.3213329 66.7675,20.3393329 C66.7845,20.4503329 66.8005,20.5613329 66.8165,20.6723329" id="Fill-132" fill="#556B58"></path>
                <path d="M59.8315,45.4183329 C59.7435,45.4183329 59.6555,45.4183329 59.5675,45.4173329 C59.5875,45.2893329 59.6095,45.1623329 59.6335,45.0353329 C59.7865,45.0343329 59.9405,45.0313329 60.0945,45.0283329 C60.0665,45.1573329 60.0395,45.2873329 60.0155,45.4183329 C59.9545,45.4183329 59.8925,45.4183329 59.8315,45.4183329" id="Fill-133" fill="#425245"></path>
                <path d="M38.0215,35.2993329 C37.9065,35.1463329 37.7945,34.9943329 37.6865,34.8433329 C37.7045,34.8143329 37.7225,34.7863329 37.7405,34.7573329 C37.8455,34.9123329 37.9545,35.0693329 38.0675,35.2273329 C38.0525,35.2513329 38.0365,35.2753329 38.0215,35.2993329" id="Fill-134" fill="#425245"></path>
                <path d="M67.5955,35.9503329 C67.5715,35.7903329 67.5465,35.6303329 67.5215,35.4713329 C67.6245,35.4403329 67.7275,35.4103329 67.8305,35.3813329 C67.8555,35.5393329 67.8795,35.6963329 67.9035,35.8533329 C67.8005,35.8853329 67.6975,35.9173329 67.5955,35.9503329" id="Fill-135" fill="#425245"></path>
                <path d="M66.4495,20.6273329 C66.3365,20.6153329 66.2235,20.6053329 66.1085,20.5963329 C66.0955,20.4793329 66.0825,20.3623329 66.0675,20.2453329 C66.1815,20.2583329 66.2935,20.2723329 66.4045,20.2873329 C66.4205,20.4003329 66.4355,20.5133329 66.4495,20.6273329" id="Fill-136" fill="#425245"></path>
                <path d="M61.9355,53.4833329 C61.8845,53.4563329 61.8355,53.4263329 61.7885,53.3943329 C61.7565,53.3543329 61.7245,53.3153329 61.6925,53.2763329 C61.3415,52.8423329 61.0335,52.3733329 60.7755,51.8793329 C59.8055,50.0163329 59.6295,47.8833329 59.9445,45.8323329 C60.0525,45.8333329 60.1605,45.8343329 60.2675,45.8343329 C60.3085,45.8343329 60.3505,45.8343329 60.3915,45.8343329 C59.9945,47.9983329 60.1285,50.2833329 61.1575,52.2613329 C61.3805,52.6903329 61.6415,53.0983329 61.9355,53.4833329" id="Fill-137" fill="#556B58"></path>
                <path d="M60.2675,45.8343329 C60.1605,45.8343329 60.0525,45.8333329 59.9445,45.8323329 C59.9665,45.6943329 59.9895,45.5553329 60.0155,45.4183329 C60.1695,45.4173329 60.3225,45.4143329 60.4755,45.4113329 C60.4455,45.5513329 60.4175,45.6923329 60.3915,45.8343329 C60.3505,45.8343329 60.3085,45.8343329 60.2675,45.8343329" id="Fill-138" fill="#425245"></path>
                <path d="M40.1955,37.7483329 C40.1275,37.6843329 40.0595,37.6203329 39.9915,37.5563329 C39.4095,36.9443329 38.8925,36.3283329 38.4335,35.7243329 C38.4495,35.7003329 38.4655,35.6753329 38.4805,35.6513329 C38.9745,36.3373329 39.5425,37.0433329 40.1955,37.7483329" id="Fill-139" fill="#556B58"></path>
                <path d="M38.4335,35.7243329 C38.3075,35.5573329 38.1855,35.3913329 38.0675,35.2273329 C38.0865,35.1973329 38.1045,35.1673329 38.1235,35.1383329 C38.2375,35.3073329 38.3575,35.4783329 38.4805,35.6513329 C38.4655,35.6753329 38.4495,35.7003329 38.4335,35.7243329" id="Fill-140" fill="#425245"></path>
                <path d="M77.8035,37.4333329 C76.1735,36.1573329 74.2105,35.6293329 72.1945,35.6293329 C70.8975,35.6293329 69.5795,35.8473329 68.3145,36.2263329 C68.2905,36.0693329 68.2655,35.9133329 68.2405,35.7563329 C69.4125,35.4313329 70.6225,35.2463329 71.8155,35.2463329 C73.9545,35.2463329 76.0355,35.8423329 77.7205,37.2963329 C77.7515,37.3413329 77.7795,37.3873329 77.8035,37.4333329" id="Fill-141" fill="#556B58"></path>
                <path d="M67.9765,36.3323329 C67.9525,36.1723329 67.9285,36.0133329 67.9035,35.8533329 C68.0155,35.8203329 68.1285,35.7873329 68.2405,35.7563329 C68.2655,35.9133329 68.2905,36.0693329 68.3145,36.2263329 C68.2015,36.2603329 68.0885,36.2953329 67.9765,36.3323329" id="Fill-142" fill="#425245"></path>
                <path d="M25.6125,36.5133329 C25.5215,36.4643329 25.4315,36.4123329 25.3455,36.3563329 C24.8945,35.6033329 25.0985,34.6863329 25.4625,33.9283329 L25.5195,33.8123329 C26.3595,31.9883329 27.7205,30.4553329 29.1935,29.1183329 C30.7605,27.6963329 32.5425,26.4503329 34.4245,25.4853329 C33.8265,19.2993329 35.7145,13.1113329 39.4815,8.93233293 C39.3845,8.14833293 39.4835,7.34233293 39.7595,6.60133293 C40.4765,4.66433293 42.2745,3.34333293 44.1085,2.55233293 C46.0005,1.73533293 48.0705,1.36433293 50.1315,1.36433293 C50.6015,1.36433293 51.0715,1.38333293 51.5385,1.42133293 C53.7795,1.60033293 56.0555,2.18733293 57.9385,3.45233293 C58.2245,3.64433293 58.5005,3.85433293 58.7625,4.08233293 C58.8205,4.14933293 58.8775,4.21833293 58.9325,4.28733293 C58.7355,4.12733293 58.5305,3.97633293 58.3205,3.83533293 C56.4355,2.57033293 54.1625,1.98333293 51.9205,1.80233293 C51.4545,1.76433293 50.9855,1.74533293 50.5175,1.74533293 C48.4555,1.74533293 46.3845,2.11533293 44.4905,2.93333293 C42.6565,3.72533293 40.8585,5.04733293 40.1415,6.98433293 C39.8665,7.72533293 39.7665,8.52933293 39.8645,9.31533293 C36.0975,13.4953329 34.2095,19.6833329 34.8075,25.8663329 C32.9235,26.8333329 31.1425,28.0783329 29.5745,29.4983329 C28.1025,30.8353329 26.7415,32.3723329 25.9015,34.1923329 L25.8465,34.3113329 C25.5165,34.9953329 25.3175,35.8083329 25.6125,36.5133329 M77.9095,25.1953329 C77.9085,25.1943329 77.9085,25.1943329 77.9075,25.1943329 L77.7875,25.0983329 C75.2065,22.9523329 71.7845,21.7943329 68.5115,21.2633329 L68.1315,21.2013329 C67.7345,21.1343329 67.3055,21.0623329 66.8615,21.0123329 C66.8475,20.8983329 66.8325,20.7853329 66.8165,20.6723329 C67.1395,20.7153329 67.4515,20.7683329 67.7465,20.8183329 L68.1305,20.8833329 C71.4025,21.4113329 74.8245,22.5693329 77.4055,24.7173329 L77.5255,24.8133329 C77.6105,24.8813329 77.6965,24.9503329 77.7825,25.0223329 C77.8265,25.0793329 77.8695,25.1363329 77.9095,25.1953329" id="Fill-143" fill="#556B58"></path>
                <path d="M66.8615,21.0123329 C66.7395,20.9983329 66.6155,20.9873329 66.4905,20.9773329 C66.4775,20.8603329 66.4645,20.7433329 66.4495,20.6273329 C66.5735,20.6403329 66.6955,20.6553329 66.8165,20.6723329 C66.8325,20.7853329 66.8475,20.8983329 66.8615,21.0123329" id="Fill-144" fill="#425245"></path>
                <path d="M62.1045,53.5603329 C62.0465,53.5383329 61.9905,53.5123329 61.9355,53.4833329 C61.6415,53.0983329 61.3805,52.6903329 61.1575,52.2613329 C60.1285,50.2833329 59.9945,47.9983329 60.3915,45.8343329 C60.5585,45.8333329 60.7255,45.8313329 60.8925,45.8273329 C60.3965,48.1143329 60.4775,50.5703329 61.5735,52.6783329 C61.7315,52.9823329 61.9095,53.2773329 62.1045,53.5603329 M40.4185,37.9513329 C40.3425,37.8833329 40.2695,37.8163329 40.1955,37.7483329 C39.5425,37.0433329 38.9745,36.3373329 38.4805,35.6513329 C38.5015,35.6183329 38.5215,35.5863329 38.5415,35.5543329 C39.0655,36.3303329 39.6865,37.1413329 40.4185,37.9513329 M77.8765,37.5963329 C76.3175,36.5033329 74.4865,36.0453329 72.6105,36.0453329 C71.1985,36.0453329 69.7605,36.3053329 68.3935,36.7483329 C68.3675,36.5743329 68.3415,36.4003329 68.3145,36.2263329 C69.5795,35.8473329 70.8975,35.6293329 72.1945,35.6293329 C74.2105,35.6293329 76.1735,36.1573329 77.8035,37.4333329 C77.8315,37.4863329 77.8565,37.5413329 77.8765,37.5963329 M25.9415,36.6683329 C25.8295,36.6213329 25.7195,36.5693329 25.6125,36.5133329 C25.3175,35.8083329 25.5165,34.9953329 25.8465,34.3113329 L25.9015,34.1923329 C26.7415,32.3723329 28.1025,30.8353329 29.5745,29.4983329 C31.1425,28.0783329 32.9235,26.8333329 34.8075,25.8663329 C34.2095,19.6833329 36.0975,13.4953329 39.8645,9.31533293 C39.7665,8.52933293 39.8665,7.72533293 40.1415,6.98433293 C40.8585,5.04733293 42.6565,3.72533293 44.4905,2.93333293 C46.3845,2.11533293 48.4555,1.74533293 50.5175,1.74533293 C50.9855,1.74533293 51.4545,1.76433293 51.9205,1.80233293 C54.1625,1.98333293 56.4355,2.57033293 58.3205,3.83533293 C58.5305,3.97633293 58.7355,4.12733293 58.9325,4.28733293 C58.9915,4.36133293 59.0485,4.43633293 59.1045,4.51233293 C58.9845,4.42133293 58.8615,4.33533293 58.7375,4.25133293 C56.8525,2.98633293 54.5785,2.39933293 52.3365,2.21833293 C51.8705,2.18133293 51.4025,2.16233293 50.9335,2.16233293 C48.8725,2.16233293 46.8005,2.53233293 44.9075,3.35233293 C43.0725,4.14233293 41.2755,5.46333293 40.5585,7.40033293 C40.2835,8.14233293 40.1825,8.94633293 40.2815,9.73233293 C36.5135,13.9113329 34.6255,20.0993329 35.2245,26.2833329 C33.3405,27.2503329 31.5585,28.4953329 29.9915,29.9153329 C28.5185,31.2523329 27.1585,32.7893329 26.3175,34.6093329 L26.2635,34.7273329 C25.9735,35.3293329 25.7845,36.0293329 25.9415,36.6683329 M78.0125,25.3583329 C75.4545,23.3123329 72.1205,22.1983329 68.9285,21.6803329 L68.5475,21.6173329 C68.0395,21.5333329 67.4815,21.4383329 66.9065,21.3933329 C66.8925,21.2663329 66.8775,21.1393329 66.8615,21.0123329 C67.3055,21.0623329 67.7345,21.1343329 68.1315,21.2013329 L68.5115,21.2633329 C71.7845,21.7943329 75.2065,22.9523329 77.7875,25.0983329 L77.9075,25.1943329 C77.9085,25.1943329 77.9085,25.1943329 77.9095,25.1953329 C77.9455,25.2483329 77.9795,25.3023329 78.0125,25.3583329" id="Fill-145" fill="#425245"></path>
                <path d="M62.6035,53.6503329 C62.4845,53.6503329 62.3625,53.6353329 62.2395,53.6023329 C62.1935,53.5913329 62.1485,53.5763329 62.1045,53.5603329 C61.9095,53.2773329 61.7315,52.9823329 61.5735,52.6783329 C60.4775,50.5703329 60.3965,48.1143329 60.8925,45.8273329 C60.7255,45.8313329 60.5585,45.8333329 60.3915,45.8343329 C60.4175,45.6923329 60.4455,45.5513329 60.4755,45.4113329 C60.3225,45.4143329 60.1695,45.4173329 60.0155,45.4183329 C60.0395,45.2873329 60.0665,45.1573329 60.0945,45.0283329 C59.9405,45.0313329 59.7865,45.0343329 59.6335,45.0353329 C59.6575,44.9053329 59.6835,44.7763329 59.7115,44.6473329 C59.5585,44.6513329 59.4045,44.6533329 59.2505,44.6543329 C59.2755,44.5233329 59.3015,44.3933329 59.3295,44.2643329 C59.1135,44.2693329 58.8975,44.2713329 58.6815,44.2713329 C57.6865,44.2713329 56.6885,44.2153329 55.7025,44.0933329 C48.5035,43.4793329 43.6495,40.8663329 40.4185,37.9513329 C39.6865,37.1413329 39.0655,36.3303329 38.5415,35.5543329 C38.5215,35.5863329 38.5015,35.6183329 38.4805,35.6513329 C38.3575,35.4783329 38.2375,35.3073329 38.1235,35.1383329 C38.1045,35.1673329 38.0865,35.1973329 38.0675,35.2273329 C37.9545,35.0693329 37.8455,34.9123329 37.7405,34.7573329 C37.7225,34.7863329 37.7045,34.8143329 37.6865,34.8433329 C37.5735,34.6863329 37.4655,34.5293329 37.3605,34.3743329 C37.3425,34.4043329 37.3235,34.4343329 37.3045,34.4633329 C37.1915,34.3053329 37.0825,34.1483329 36.9775,33.9933329 C36.0585,35.4783329 34.7635,36.7773329 33.0675,37.3283329 C32.3865,37.5493329 31.6815,37.6363329 30.9705,37.6363329 C29.7205,37.6363329 28.4515,37.3663329 27.2625,37.0753329 L27.2165,37.0633329 C26.7985,36.9613329 26.3555,36.8423329 25.9415,36.6683329 C25.7845,36.0293329 25.9735,35.3293329 26.2635,34.7273329 L26.3175,34.6093329 C27.1585,32.7893329 28.5185,31.2523329 29.9915,29.9153329 C31.5585,28.4953329 33.3405,27.2503329 35.2245,26.2833329 C34.6255,20.0993329 36.5135,13.9113329 40.2815,9.73233293 C40.1825,8.94633293 40.2835,8.14233293 40.5585,7.40033293 C41.2755,5.46333293 43.0725,4.14233293 44.9075,3.35233293 C46.8005,2.53233293 48.8725,2.16233293 50.9335,2.16233293 C51.4025,2.16233293 51.8705,2.18133293 52.3365,2.21833293 C54.5785,2.39933293 56.8525,2.98633293 58.7375,4.25133293 C58.8615,4.33533293 58.9845,4.42133293 59.1045,4.51233293 C59.8285,5.50333293 60.2595,6.67833293 60.1515,7.96333293 C63.0215,11.0343329 64.8335,15.1833329 65.3455,19.8333329 C65.4595,19.8413329 65.5735,19.8513329 65.6855,19.8633329 C65.7005,19.9793329 65.7145,20.0963329 65.7275,20.2133329 C65.8415,20.2223329 65.9545,20.2333329 66.0675,20.2453329 C66.0825,20.3623329 66.0955,20.4793329 66.1085,20.5963329 C66.2235,20.6053329 66.3365,20.6153329 66.4495,20.6273329 C66.4645,20.7433329 66.4775,20.8603329 66.4905,20.9773329 C66.6155,20.9873329 66.7395,20.9983329 66.8615,21.0123329 C66.8775,21.1393329 66.8925,21.2663329 66.9065,21.3933329 C67.4815,21.4383329 68.0395,21.5333329 68.5475,21.6173329 L68.9285,21.6803329 C72.1205,22.1983329 75.4545,23.3123329 78.0125,25.3583329 C78.1805,25.6483329 78.2905,25.9673329 78.3035,26.3233329 C78.3395,27.3593329 77.5875,28.1193329 76.8285,28.7083329 L76.7735,28.7503329 C75.7635,29.5363329 74.6385,30.1543329 73.6635,30.6563329 L73.6635,30.6593329 L73.6095,30.6853329 L73.6085,30.6853329 C73.2165,30.8893329 72.8215,31.0893329 72.4305,31.2973329 L72.4285,31.2953329 C72.2065,31.4033329 71.9755,31.4623329 71.7395,31.4623329 C71.5935,31.4623329 71.4455,31.4403329 71.2985,31.3913329 C71.0995,31.4113329 70.9015,31.4213329 70.7055,31.4213329 C68.9795,31.4213329 67.3555,30.6623329 65.9965,29.6153329 C66.2255,31.4803329 66.5515,33.3303329 66.8305,35.1873329 C66.9335,35.1543329 67.0365,35.1213329 67.1395,35.0903329 C67.1645,35.2493329 67.1885,35.4083329 67.2125,35.5683329 C67.3155,35.5343329 67.4185,35.5023329 67.5215,35.4713329 C67.5465,35.6303329 67.5715,35.7903329 67.5955,35.9503329 C67.6975,35.9173329 67.8005,35.8853329 67.9035,35.8533329 C67.9285,36.0133329 67.9525,36.1723329 67.9765,36.3323329 C68.0885,36.2953329 68.2015,36.2603329 68.3145,36.2263329 C68.3415,36.4003329 68.3675,36.5743329 68.3935,36.7483329 C69.7605,36.3053329 71.1985,36.0453329 72.6105,36.0453329 C74.4865,36.0453329 76.3175,36.5033329 77.8765,37.5963329 C78.1655,38.3673329 77.7505,39.3283329 76.8645,39.5433329 C76.7125,39.5793329 76.5555,39.5923329 76.3975,39.5923329 C76.2115,39.5923329 76.0225,39.5753329 75.8335,39.5573329 C75.6435,39.5393329 75.4535,39.5223329 75.2665,39.5223329 C75.1635,39.5223329 75.0615,39.5273329 74.9605,39.5403329 C74.4445,39.6103329 74.0305,39.8053329 73.7475,40.2553329 C73.1785,41.1583329 72.8175,42.1723329 72.2085,43.0593329 C71.6005,43.9393329 70.8055,44.7293329 69.7725,45.0823329 C69.4185,46.6673329 68.0505,47.7353329 66.6995,48.4873329 C66.0635,48.8423329 65.3545,49.0973329 64.7425,49.4943329 C63.9745,49.9883329 63.9355,51.0173329 64.0315,51.8453329 C64.2635,52.7803329 63.5075,53.6503329 62.6035,53.6503329" id="Fill-146" fill="#334037"></path>
                <path d="M76.3915,23.4503329 L76.2725,23.3503329 C73.6915,21.2053329 70.2685,20.0483329 66.9965,19.5183329 L66.6155,19.4543329 C66.1085,19.3693329 65.5535,19.2753329 64.9775,19.2323329 C64.4645,14.5803329 62.6525,10.4333329 59.7835,7.36233293 C59.9675,5.15533293 58.5605,3.26633293 56.8075,2.08833293 C54.9225,0.823332932 52.6475,0.236332932 50.4055,0.0573329317 C47.8935,-0.146667068 45.3005,0.185332932 42.9775,1.18833293 C41.1425,1.97833293 39.3445,3.30033293 38.6265,5.23733293 C38.3525,5.97833293 38.2525,6.78433293 38.3505,7.56833293 C34.5815,11.7473329 32.6945,17.9353329 33.2925,24.1193329 C31.4105,25.0863329 29.6265,26.3323329 28.0605,27.7523329 C26.5875,29.0883329 25.2265,30.6253329 24.3875,32.4483329 L24.3315,32.5643329 C23.9455,33.3663329 23.7385,34.3453329 24.2955,35.1203329 C24.8795,35.9333329 25.9255,36.2373329 26.8475,36.4643329 L26.8935,36.4743329 C28.7595,36.9343329 30.8205,37.3353329 32.6975,36.7283329 C34.3935,36.1773329 35.6875,34.8783329 36.6085,33.3913329 C39.3925,37.5143329 44.8975,42.6023329 55.3335,43.4943329 C56.5325,43.6413329 57.7535,43.6933329 58.9615,43.6643329 C58.4655,45.9503329 58.5465,48.4073329 59.6435,50.5153329 C59.8995,51.0103329 60.2085,51.4773329 60.5605,51.9123329 C60.9115,52.3443329 61.3075,52.8573329 61.8705,53.0023329 C62.9215,53.2783329 63.9255,52.3043329 63.6635,51.2433329 C63.5665,50.4163329 63.6045,49.3883329 64.3755,48.8913329 C64.9845,48.4963329 65.6945,48.2413329 66.3315,47.8883329 C67.6815,47.1353329 69.0495,46.0673329 69.4045,44.4793329 C70.4365,44.1303329 71.2315,43.3393329 71.8385,42.4583329 C72.4505,41.5723329 72.8105,40.5583329 73.3785,39.6533329 C73.6625,39.2033329 74.0745,39.0103329 74.5915,38.9413329 C75.2215,38.8573329 75.8885,39.0883329 76.4955,38.9413329 C77.6235,38.6693329 77.9885,37.1843329 77.1075,36.4203329 C74.2825,33.5273329 70.1175,33.4003329 66.4625,34.5863329 C66.1835,32.7283329 65.8565,30.8803329 65.6265,29.0153329 C67.1415,30.1823329 68.9825,30.9903329 70.9285,30.7903329 C71.3165,30.9183329 71.7015,30.8673329 72.0605,30.6923329 L72.0605,30.6973329 C72.4525,30.4883329 72.8465,30.2893329 73.2405,30.0853329 L73.2965,30.0563329 C74.2695,29.5553329 75.3935,28.9363329 76.4045,28.1503329 L76.4595,28.1083329 C77.2205,27.5183329 77.9705,26.7603329 77.9355,25.7233329 C77.8985,24.7323329 77.1125,24.0203329 76.3915,23.4503329" id="Fill-147" fill="#FFFFFE"></path>
                <path d="M76.1445,37.5253329 C71.5435,32.6693329 63.8605,37.3143329 63.8605,37.3143329 L62.2385,39.3063329 C62.2385,39.3063329 57.4655,46.9093329 62.2385,51.5923329 C62.2385,51.5923329 61.7795,48.7453329 63.4325,47.7373329 C64.8095,46.8953329 68.4175,45.8583329 67.9985,43.2233329 C70.4115,43.3523329 71.4465,39.9483329 72.2685,38.6513329 C73.3075,37.0163329 76.1445,37.5253329 76.1445,37.5253329" id="Fill-148" fill="#818CB8"></path>
                <path d="M37.1175,25.3423329 L37.0605,25.2373329 C36.2855,23.9363329 34.0035,25.4133329 33.1165,25.9093329 C29.0475,28.1793329 26.0555,31.5523329 25.3945,33.9013329 C25.0975,34.9853329 29.4815,35.4653329 30.1285,35.5343329 C33.4285,35.8943329 35.3315,33.3713329 36.3865,30.5823329 C36.9815,29.0123329 37.8885,26.9973329 37.1175,25.3423329" id="Fill-149" fill="#818CB8"></path>
                <path d="M62.3785,21.8033329 L62.3935,21.6843329 C62.6475,20.1913329 65.3085,20.7483329 66.3135,20.8893329 C70.9285,21.5393329 74.9365,23.6043329 76.3995,25.5593329 C77.0705,26.4613329 73.1515,28.4913329 72.5735,28.7893329 C69.6265,30.3133329 66.9405,28.6473329 64.9505,26.4283329 C63.8295,25.1783329 62.2575,23.6263329 62.3785,21.8033329" id="Fill-150" fill="#818CB8"></path>
                <path d="M63.6705,22.2603329 L63.6655,22.2133329 L63.6705,21.9493329 C63.6705,16.1443329 61.5435,11.1003329 58.2225,7.85133293 C58.3015,7.55833293 58.3465,7.26033293 58.3465,6.95433293 C58.3465,3.92033293 54.1855,1.46133293 49.0555,1.46133293 C43.9225,1.46133293 39.7645,3.92033293 39.7645,6.95433293 C39.7645,7.31533293 39.8235,7.66933293 39.9365,8.01233293 C36.7095,11.2693329 34.6525,16.2403329 34.6525,21.9493329 C34.6525,24.0103329 34.9265,25.8823329 35.4215,27.5613329 L35.4175,27.5653329 C35.4175,27.5653329 38.5415,40.6083329 55.4865,42.0423329 C55.4865,42.0423329 63.2235,43.0613329 64.7835,40.1233329 C66.3435,37.1843329 63.9215,32.8583329 63.6705,22.2603329" id="Fill-151" fill="#A5ACCC"></path>
                <path d="M64.5715,40.3333329 L64.7835,40.1233329 C64.9925,39.8343329 65.1145,39.2653329 63.8615,38.4523329 C62.3195,37.4533329 61.1985,35.8543329 60.4945,34.1863329 C59.7095,32.3343329 59.9055,30.5033329 60.3195,28.5823329 C60.6305,27.1333329 60.7225,25.6393329 60.4575,24.1773329 C60.1415,22.4263329 59.5145,20.2893329 58.0525,19.1453329 C56.1585,17.6643329 53.3385,18.1053329 51.1115,18.2003329 C49.9275,18.2493329 48.7395,18.2583329 47.5565,18.1753329 C47.5465,18.1753329 41.7805,17.2233329 39.3305,20.9413329 C36.8775,24.6633329 38.8305,31.0613329 42.6305,34.9163329 C46.4295,38.7703329 53.9275,42.4363329 61.8325,41.4623329 C62.9595,41.2203329 63.9645,40.8623329 64.5715,40.3333329" id="Fill-152" fill="#CBD0E0"></path>
                <path d="M40.7075,10.3703329 C40.7075,10.9213329 40.2625,11.3693329 39.7125,11.3693329 C39.1615,11.3693329 38.7155,10.9213329 38.7155,10.3703329 C38.7155,9.82133293 39.1615,9.37533293 39.7125,9.37533293 C40.2625,9.37533293 40.7075,9.82133293 40.7075,10.3703329" id="Fill-153" fill="#121515"></path>
                <path d="M39.6415,10.0613329 C39.6415,10.2313329 39.5015,10.3703329 39.3305,10.3703329 C39.1595,10.3703329 39.0195,10.2313329 39.0195,10.0613329 C39.0195,9.88933293 39.1595,9.75033293 39.3305,9.75033293 C39.5015,9.75033293 39.6415,9.88933293 39.6415,10.0613329" id="Fill-154" fill="#FFFFFE"></path>
                <polyline id="Fill-155" fill="#FFFFFE" points="39.2915 10.7153329 39.1555 10.8503329 39.0195 10.7153329 39.1555 10.5793329 39.2915 10.7153329"></polyline>
                <path d="M59.6665,10.3703329 C59.6665,10.9213329 59.2205,11.3693329 58.6695,11.3693329 C58.1185,11.3693329 57.6735,10.9213329 57.6735,10.3703329 C57.6735,9.82133293 58.1185,9.37533293 58.6695,9.37533293 C59.2205,9.37533293 59.6665,9.82133293 59.6665,10.3703329" id="Fill-156" fill="#121515"></path>
                <path d="M58.5995,10.0613329 C58.5995,10.2313329 58.4595,10.3703329 58.2875,10.3703329 C58.1175,10.3703329 57.9775,10.2313329 57.9775,10.0613329 C57.9775,9.88933293 58.1175,9.75033293 58.2875,9.75033293 C58.4595,9.75033293 58.5995,9.88933293 58.5995,10.0613329" id="Fill-157" fill="#FFFFFE"></path>
                <polyline id="Fill-158" fill="#FFFFFE" points="58.2505 10.7153329 58.1135 10.8503329 57.9775 10.7153329 58.1135 10.5793329 58.2505 10.7153329"></polyline>
                <path d="M49.7295,14.2653329 L48.2005,14.2653329 C47.6345,14.2473329 47.3115,14.2943329 46.8365,14.3163329 C46.8895,15.1613329 47.7125,15.7973329 48.9645,15.7973329 C50.2175,15.7973329 50.9595,15.1093329 51.0125,14.2653329 C50.5345,14.2423329 50.2945,14.2473329 49.7295,14.2653329" id="Fill-159" fill="#5E1F1C"></path>
                <path d="M40.3155,16.0143329 C39.6805,16.0143329 39.0895,15.8953329 38.6765,15.6133329 C38.4525,15.4603329 38.3485,15.2863329 38.3645,15.0913329 C38.4035,14.6083329 39.1985,14.2183329 39.2915,14.1773329 L39.4185,14.2223329 L39.3715,14.3503329 C39.1515,14.4533329 38.5795,14.7873329 38.5555,15.1073329 C38.5445,15.2303329 38.6195,15.3443329 38.7825,15.4573329 C39.6025,16.0143329 41.2485,15.8683329 42.3825,15.4453329 C42.5725,15.3743329 42.7845,15.2843329 43.0095,15.1873329 C44.1555,14.7003329 45.7255,14.0323329 48.2045,14.1693329 L49.7295,14.1693329 C52.2065,14.0323329 53.7725,14.7003329 54.9205,15.1873329 C55.1445,15.2843329 55.3575,15.3743329 55.5485,15.4453329 C56.6815,15.8683329 58.3265,16.0143329 59.1475,15.4573329 C59.3105,15.3443329 59.3855,15.2303329 59.3755,15.1073329 C59.3515,14.7873329 58.7785,14.4533329 58.5585,14.3503329 L58.5115,14.2223329 L58.6395,14.1773329 C58.7305,14.2183329 59.5265,14.6083329 59.5645,15.0913329 C59.5825,15.2863329 59.4775,15.4603329 59.2545,15.6133329 C58.3715,16.2133329 56.6885,16.0723329 55.4815,15.6223329 C55.2865,15.5503329 55.0725,15.4583329 54.8465,15.3623329 C53.7165,14.8833329 52.1705,14.2253329 49.7345,14.3593329 L48.2005,14.3593329 C45.7595,14.2273329 44.2125,14.8833329 43.0855,15.3623329 C42.8585,15.4583329 42.6435,15.5503329 42.4485,15.6223329 C41.8085,15.8643329 41.0335,16.0143329 40.3155,16.0143329" id="Fill-160" fill="#6F7396"></path>
                <path d="M42.5055,9.00633293 C42.5055,9.00633293 48.6575,11.3913329 55.2685,8.54733293 C55.2685,8.54733293 50.4015,10.4753329 42.5055,9.00633293" id="Fill-161" fill="#6F7396"></path>
                <path d="M17.3595,28.0733329 C17.2925,28.0083329 17.2255,27.9443329 17.1565,27.8813329 C17.0965,27.8163329 17.0355,27.7513329 16.9745,27.6873329 C17.1055,27.8133329 17.2345,27.9423329 17.3595,28.0733329" id="Fill-405" fill="#88AB8B"></path>
                <path d="M17.5515,28.2773329 C17.4835,28.2143329 17.4145,28.1523329 17.3445,28.0903329 C17.2825,28.0203329 17.2205,27.9503329 17.1565,27.8813329 C17.2255,27.9443329 17.2925,28.0083329 17.3595,28.0733329 C17.4245,28.1403329 17.4885,28.2083329 17.5515,28.2773329" id="Fill-406" fill="#6D876E"></path>
                <path d="M0.6945,5.88233293 C0.6295,5.81933293 0.5645,5.75633293 0.4985,5.69433293 C0.4345,5.62733293 0.3705,5.56033293 0.3055,5.49333293 C0.4365,5.62033293 0.5665,5.75033293 0.6945,5.88233293" id="Fill-411" fill="#88AB8B"></path>
                <path d="M0.8885,6.08533293 C0.8245,6.02633293 0.7615,5.96733293 0.6975,5.90833293 C0.6315,5.83733293 0.5655,5.76533293 0.4985,5.69433293 C0.5645,5.75633293 0.6295,5.81933293 0.6945,5.88233293 C0.7595,5.94933293 0.8235,6.01733293 0.8885,6.08533293" id="Fill-412" fill="#6D876E"></path>
                <path d="M3.2495,9.07933293 C3.1985,9.06633293 3.1465,9.05333293 3.0945,9.04033293 C2.3885,7.95033293 1.5905,6.88433293 0.6975,5.90833293 C0.7615,5.96733293 0.8245,6.02633293 0.8885,6.08533293 C1.7625,7.01433293 2.5495,8.03233293 3.2495,9.07933293" id="Fill-413" fill="#556B58"></path>
                <path d="M20.9485,46.5223329 C20.9195,46.5023329 20.8895,46.4823329 20.8575,46.4633329 C20.7995,46.4283329 20.7415,46.3933329 20.6835,46.3583329 C20.6515,46.2823329 20.6115,46.2083329 20.5635,46.1373329 C20.7255,46.2493329 20.8535,46.3803329 20.9485,46.5223329" id="Fill-416" fill="#88AB8B"></path>
                <path d="M3.4755,9.42133293 C3.4215,9.40833293 3.3665,9.39433293 3.3115,9.38133293 C3.2405,9.26733293 3.1685,9.15333293 3.0945,9.04033293 C3.1465,9.05333293 3.1985,9.06633293 3.2495,9.07933293 C3.3265,9.19333293 3.4015,9.30733293 3.4755,9.42133293" id="Fill-435" fill="#425245"></path>
                <path d="M4.0255,9.84533293 C3.9695,9.83133293 3.9125,9.81733293 3.8555,9.80333293 C3.7815,9.68833293 3.7055,9.57433293 3.6295,9.45933293 C3.6825,9.47333293 3.7365,9.48633293 3.7905,9.50033293 C3.8695,9.61433293 3.9485,9.73033293 4.0255,9.84533293" id="Fill-455" fill="#556B58"></path>
                <path d="M3.8555,9.80333293 C3.8015,9.79033293 3.7475,9.77633293 3.6935,9.76333293 C3.6215,9.64933293 3.5495,9.53533293 3.4755,9.42133293 C3.5265,9.43433293 3.5785,9.44733293 3.6295,9.45933293 C3.7055,9.57433293 3.7815,9.68833293 3.8555,9.80333293" id="Fill-456" fill="#425245"></path>
            </g>
        </g>
    </g>
</svg>